<svg width="19" height="19" viewBox="0 0 19 19" fill="none" xmlns="http://www.w3.org/2000/svg">
<path d="M2.96875 4.75C2.96875 4.27758 3.15642 3.82452 3.49047 3.49047C3.82452 3.15642 4.27758 2.96875 4.75 2.96875H6.53125C7.00367 2.96875 7.45673 3.15642 7.79078 3.49047C8.12483 3.82452 8.3125 4.27758 8.3125 4.75V6.53125C8.3125 7.00367 8.12483 7.45673 7.79078 7.79078C7.45673 8.12483 7.00367 8.3125 6.53125 8.3125H4.75C4.27758 8.3125 3.82452 8.12483 3.49047 7.79078C3.15642 7.45673 2.96875 7.00367 2.96875 6.53125V4.75ZM2.96875 12.4688C2.96875 11.9963 3.15642 11.5433 3.49047 11.2092C3.82452 10.8752 4.27758 10.6875 4.75 10.6875H6.53125C7.00367 10.6875 7.45673 10.8752 7.79078 11.2092C8.12483 11.5433 8.3125 11.9963 8.3125 12.4688V14.25C8.3125 14.7224 8.12483 15.1755 7.79078 15.5095C7.45673 15.8436 7.00367 16.0313 6.53125 16.0313H4.75C4.27758 16.0313 3.82452 15.8436 3.49047 15.5095C3.15642 15.1755 2.96875 14.7224 2.96875 14.25V12.4688ZM10.6875 4.75C10.6875 4.27758 10.8752 3.82452 11.2092 3.49047C11.5433 3.15642 11.9963 2.96875 12.4688 2.96875H14.25C14.7224 2.96875 15.1755 3.15642 15.5095 3.49047C15.8436 3.82452 16.0313 4.27758 16.0313 4.75V6.53125C16.0313 7.00367 15.8436 7.45673 15.5095 7.79078C15.1755 8.12483 14.7224 8.3125 14.25 8.3125H12.4688C11.9963 8.3125 11.5433 8.12483 11.2092 7.79078C10.8752 7.45673 10.6875 7.00367 10.6875 6.53125V4.75ZM10.6875 12.4688C10.6875 11.9963 10.8752 11.5433 11.2092 11.2092C11.5433 10.8752 11.9963 10.6875 12.4688 10.6875H14.25C14.7224 10.6875 15.1755 10.8752 15.5095 11.2092C15.8436 11.5433 16.0313 11.9963 16.0313 12.4688V14.25C16.0313 14.7224 15.8436 15.1755 15.5095 15.5095C15.1755 15.8436 14.7224 16.0313 14.25 16.0313H12.4688C11.9963 16.0313 11.5433 15.8436 11.2092 15.5095C10.8752 15.1755 10.6875 14.7224 10.6875 14.25V12.4688Z" stroke="#008FF6" stroke-width="1.5" stroke-linecap="round" stroke-linejoin="round"/>
</svg>
