<svg width="19" height="19" viewBox="0 0 19 19" fill="none" xmlns="http://www.w3.org/2000/svg">
<path d="M11.2813 7.71875L13.0625 9.5L11.2813 11.2813M7.71875 11.2813L5.9375 9.5L7.71875 7.71875M4.75 16.0313H14.25C14.7224 16.0313 15.1755 15.8436 15.5095 15.5095C15.8436 15.1755 16.0313 14.7224 16.0313 14.25V4.75C16.0313 4.27758 15.8436 3.82452 15.5095 3.49047C15.1755 3.15642 14.7224 2.96875 14.25 2.96875H4.75C4.27758 2.96875 3.82452 3.15642 3.49047 3.49047C3.15642 3.82452 2.96875 4.27758 2.96875 4.75V14.25C2.96875 14.7224 3.15642 15.1755 3.49047 15.5095C3.82452 15.8436 4.27758 16.0313 4.75 16.0313Z" stroke="#008FF6" stroke-width="1.5" stroke-linecap="round" stroke-linejoin="round"/>
</svg>
