<svg width="19" height="19" viewBox="0 0 19 19" fill="none" xmlns="http://www.w3.org/2000/svg">
<path d="M6.53125 2.375V3.5625M3.5625 6.53125H2.375M16.625 6.53125H15.4375M3.5625 9.5H2.375M16.625 9.5H15.4375M3.5625 12.4688H2.375M16.625 12.4688H15.4375M6.53125 15.4375V16.625M9.5 2.375V3.5625M9.5 15.4375V16.625M12.4688 2.375V3.5625M12.4688 15.4375V16.625M5.34375 15.4375H13.6563C14.1287 15.4375 14.5817 15.2498 14.9158 14.9158C15.2498 14.5817 15.4375 14.1287 15.4375 13.6563V5.34375C15.4375 4.87133 15.2498 4.41827 14.9158 4.08422C14.5817 3.75017 14.1287 3.5625 13.6563 3.5625H5.34375C4.87133 3.5625 4.41827 3.75017 4.08422 4.08422C3.75017 4.41827 3.5625 4.87133 3.5625 5.34375V13.6563C3.5625 14.1287 3.75017 14.5817 4.08422 14.9158C4.41827 15.2498 4.87133 15.4375 5.34375 15.4375ZM5.9375 5.9375H13.0625V13.0625H5.9375V5.9375Z" stroke="#008FF6" stroke-width="1.5" stroke-linecap="round" stroke-linejoin="round"/>
</svg>
