<svg fill="none" viewBox="0 0 1080 1080" xmlns="http://www.w3.org/2000/svg" xmlns:xlink="http://www.w3.org/1999/xlink"><filter id="a" height="140%" width="140%" x="-20%" y="-20%"><feMorphology in="SourceAlpha" operator="dilate" radius="20 20" result="morphology"/><feFlood flood-color="#fff" result="flood"/><feComposite in="flood" in2="morphology" operator="in" result="composite"/><feMerge result="merge"><feMergeNode in="composite" result="mergeNode"/><feMergeNode in="SourceGraphic" result="mergeNode1"/></feMerge></filter><g filter="url(#a)"><g stroke="#000" stroke-linecap="round" stroke-linejoin="round"><path d="m532 379c132.54834 0 240 107.45166 240 240s-7.45166 280-240 280c-129.389509 0-199.682002-82.913686-226.750966-180.282075-41.023237-3.426347-73.249034-37.808767-73.249034-79.717925 0-39.865044 29.158843-72.919675 67.312086-78.99945 26.287211-104.021337 120.497833-181.00055 232.687914-181.00055zm-236.141105 245.545187 8.28221 30.909626" fill="#fff" fill-rule="evenodd" stroke-width="24"/><g fill="none" stroke-width="16"><path d="m673 568c-10.44898 22.836147-15.673469 45.414126-15.673469 67.733939 0 33.479718 15.673469 51.258115 12.734693 66.818615-1.959183 10.373666-16.979591 12.204313-45.061224 5.491941"/><path d="m595.535093 787c-12.517851-2.222417-26.428669-7.05575-41.732453-14.5s-21.265563-12.277583-17.885337-14.5c23.847116 6.666667 47.694232 10 71.541348 10 23.847117 0 47.694233-3.333333 71.541349-10-1.98726 4.833333-7.949039 9.666667-17.885337 14.5-9.936299 4.833333-23.847116 9.666667-41.732454 14.5"/></g></g><g fill="#000"><g fill-rule="evenodd"><path d="m570 516c17.673112 0 32 14.326888 32 32s-14.326888 32-32 32-32-14.326888-32-32 14.326888-32 32-32zm138 0c17.673112 0 32 14.326888 32 32s-14.326888 32-32 32-32-14.326888-32-32 14.326888-32 32-32z"/><g clip-rule="evenodd"><path d="m662.391 482.335c3-5 60-23 80-20s49 29 49 29-27-11-52-11-60 18-60 18-20-11-17-16z" stroke="#000" stroke-linecap="round" stroke-linejoin="round" stroke-width="4"/><path d="m615 482.335c-3-5-60-23-80-20s-49 29-49 29 27-11 52-11 60 18 60 18 20-11 17-16z" stroke="#000" stroke-linecap="round" stroke-linejoin="round" stroke-width="4"/><path d="m481 508-188 33-4 9 192-29z" stroke="#000" stroke-linecap="round" stroke-linejoin="round" stroke-width="4"/><path d="m474 506.65 33.276-5.815s19.662-17.835 51.804-17.835c32.141 0 65.417 29.466 65.417 29.466h15.503 15.503s33.276-29.466 65.417-29.466 51.804 17.835 51.804 17.835l33.276 5.815v18.61l-11.344 5.816s-3.781 62.421-26.469 81.031-58.307 18.437-83.946 0c-25.638-18.436-33.653-81.031-33.653-81.031h-10.588-10.588s-8.015 62.595-33.653 81.031c-25.639 18.437-61.258 18.61-83.946 0s-26.469-81.031-26.469-81.031l-11.344-5.816zm33.685 5.467c-3.296 2.794-5.494 5.37-6.466 7.257-.47.911-1.088 3.114-1.663 6.333-.57 3.196-1.088 7.338-1.378 12.084-.58 9.496-.247 21.388 2.382 32.954 2.629 11.568 7.547 22.772 16.109 30.941 8.548 8.157 20.774 13.332 38.118 12.773h.004c16.237-.373 28.254-5.823 37.095-13.895 8.85-8.081 14.545-18.816 18.078-29.795 3.533-10.977 4.895-22.171 5.097-31.136.101-4.482-.088-8.4-.439-11.447-.175-1.525-.39-2.826-.628-3.868-.24-1.052-.496-1.81-.741-2.267-4.365-8.134-19.922-26.367-52.133-27.5-16.11-.567-30.1 3.708-40.567 9.105-5.234 2.699-9.581 5.675-12.868 8.461zm12.41-9.35c10.593-5.462 24.752-9.79 41.06-9.216 32.623 1.148 48.474 19.632 52.979 28.027.309.577.589 1.438.835 2.517.248 1.088.469 2.427.647 3.976.356 3.1.547 7.064.445 11.584-.204 9.04-1.577 20.333-5.145 31.421-3.568 11.086-9.339 21.993-18.356 30.226-9.025 8.241-21.276 13.777-37.743 14.156-17.578.567-30.074-4.685-38.839-13.048-8.752-8.352-13.738-19.763-16.393-31.444-2.656-11.683-2.989-23.675-2.405-33.236.292-4.781.814-8.961 1.392-12.198.573-3.214 1.211-5.555 1.758-6.616 1.06-2.057 3.371-4.733 6.709-7.562 3.347-2.837 7.759-5.855 13.056-8.587zm252.22 9.35c3.296 2.794 5.494 5.37 6.466 7.257.47.911 1.088 3.114 1.663 6.333.57 3.196 1.088 7.338 1.378 12.084.58 9.496.247 21.388-2.382 32.954-2.629 11.568-7.547 22.772-16.109 30.941-8.548 8.157-20.774 13.332-38.118 12.773h-.004c-16.237-.373-28.254-5.823-37.095-13.895-8.85-8.081-14.545-18.816-18.078-29.795-3.533-10.977-4.895-22.171-5.097-31.136-.101-4.482.088-8.4.439-11.447.175-1.525.39-2.826.628-3.868.24-1.052.496-1.81.741-2.267 4.365-8.134 19.922-26.367 52.133-27.5 16.11-.567 30.1 3.708 40.567 9.105 5.234 2.699 9.581 5.675 12.868 8.461zm-12.41-9.35c-10.593-5.462-24.752-9.79-41.06-9.216-32.623 1.148-48.474 19.632-52.979 28.027-.309.577-.589 1.438-.835 2.517-.248 1.088-.469 2.427-.647 3.976-.356 3.1-.547 7.064-.445 11.584.204 9.04 1.577 20.333 5.145 31.421 3.568 11.086 9.339 21.993 18.356 30.226 9.025 8.241 21.276 13.777 37.743 14.156 17.578.567 30.074-4.685 38.839-13.048 8.752-8.352 13.738-19.763 16.393-31.444 2.656-11.683 2.989-23.675 2.405-33.236-.292-4.781-.814-8.961-1.392-12.198-.573-3.214-1.211-5.555-1.758-6.616-1.06-2.057-3.371-4.733-6.709-7.562-3.347-2.837-7.759-5.855-13.056-8.587z"/></g></g><path d="m507.276 500.835.344 1.97c.373-.065.719-.235.999-.489zm-33.276 5.815-.344-1.97c-.958.167-1.656.999-1.656 1.97zm150.497 5.816-1.326 1.497c.365.324.837.503 1.326.503zm31.006 0v2c.489 0 .961-.179 1.326-.503zm117.221-11.631-1.343 1.481c.28.254.626.424.999.489zm33.276 5.815h2c0-.971-.698-1.803-1.656-1.97zm0 18.61.912 1.78c.668-.342 1.088-1.029 1.088-1.78zm-11.344 5.816-.912-1.78c-.629.323-1.042.953-1.084 1.659zm-110.415 81.031 1.168-1.623zm-33.653-81.031 1.983-.254c-.127-.998-.977-1.746-1.983-1.746zm-21.176 0v-2c-1.006 0-1.856.748-1.983 1.746zm-33.653 81.031-1.168-1.623zm-110.415-81.031 1.996-.121c-.042-.706-.455-1.336-1.084-1.659zm-11.344-5.816h-2c0 .751.42 1.438 1.088 1.78zm27.219-5.886 1.778.916zm6.466-7.257-1.293-1.526zm-8.129 13.59 1.969.352zm-1.378 12.084 1.997.122zm2.382 32.954 1.95-.444zm16.109 30.941 1.38-1.447zm38.118 12.773-.053-2-.012.001zm.004 0-.046-2h-.006zm37.095-13.895-1.349-1.477zm18.078-29.795 1.904.613zm5.097-31.136-1.999-.045zm-.439-11.447 1.987-.229zm-.628-3.868 1.95-.445zm-.741-2.267-1.762.946zm-52.133-27.5.07-1.999zm-40.567 9.105.916 1.778zm40.602-10.105-.07 1.999zm-41.06 9.216-.917-1.777zm94.039 18.811-1.762.946zm.835 2.517-1.95.445zm.647 3.976-1.987.229zm.445 11.584-2-.045zm-5.145 31.421-1.904-.613zm-18.356 30.226-1.348-1.477zm-37.743 14.156-.046-1.999c-.007 0-.013 0-.019 0zm-38.839-13.048 1.381-1.447zm-16.393-31.444 1.95-.443zm-2.405-33.236-1.996-.121zm1.392-12.198-1.969-.352zm1.758-6.616 1.778.916zm6.709-7.562-1.293-1.526zm271.742 8.02 1.778-.916zm-6.466-7.257 1.293-1.526zm8.129 13.59 1.969-.351zm1.378 12.084 1.996-.121v-.001zm-2.382 32.954 1.95.443zm-16.109 30.941-1.38-1.447zm-38.118 12.773.065-1.999-.012-.001zm-.004 0 .052-2h-.006zm-37.095-13.895 1.349-1.477zm-18.078-29.795-1.904.613zm-5.097-31.136 1.999-.045zm.439-11.447-1.987-.229zm.628-3.868-1.95-.445zm.741-2.267 1.762.946zm52.133-27.5-.07-1.999zm40.567 9.105-.916 1.778zm-40.602-10.105.07 1.999zm41.06 9.216.917-1.777zm-94.039 18.811 1.762.946zm-.835 2.517 1.95.445zm-.647 3.976 1.987.229zm-.445 11.584 2-.045zm5.145 31.421 1.904-.613zm18.356 30.226-1.349 1.477zm37.743 14.156.065-1.999c-.006 0-.012 0-.019 0zm38.839-13.048 1.38 1.447zm16.393-31.444-1.95-.443zm2.405-33.236 1.996-.121zm-1.392-12.198-1.969.351zm-1.758-6.616 1.778-.916zm-6.709-7.562 1.293-1.526zm-266.03-12.489-33.275 5.815.688 3.94 33.276-5.815zm52.149-17.865c-16.447 0-29.704 4.564-38.848 9.128-4.573 2.282-8.125 4.568-10.543 6.291-1.209.862-2.136 1.585-2.767 2.097-.315.256-.556.46-.722.602-.083.071-.147.127-.191.167-.023.02-.04.035-.053.047-.007.005-.012.01-.016.014-.002.002-.003.003-.005.004 0 .001-.001.002-.002.002 0 .001-.001.001 1.343 1.483 1.343 1.481 1.343 1.482 1.342 1.482.001-.001.003-.002.006-.005.007-.006.018-.016.033-.03.032-.028.082-.072.152-.131.138-.119.35-.299.635-.53.57-.463 1.431-1.134 2.567-1.944 2.273-1.621 5.646-3.794 10.007-5.97 8.722-4.353 21.367-8.707 37.062-8.707zm65.417 31.466c1.325-1.497 1.325-1.498 1.324-1.498 0-.001-.001-.001-.001-.002-.002-.001-.004-.003-.006-.005-.005-.005-.012-.011-.021-.019-.018-.016-.045-.038-.078-.068-.068-.059-.168-.145-.298-.257-.26-.223-.642-.547-1.137-.957-.991-.821-2.438-1.989-4.272-3.388-3.667-2.797-8.894-6.526-15.142-10.256-12.435-7.426-29.17-15.016-45.786-15.016v4c15.525 0 31.498 7.143 43.736 14.45 6.089 3.636 11.189 7.274 14.766 10.002 1.788 1.363 3.192 2.498 4.146 3.288.477.395.842.704 1.085.913.121.104.213.184.273.236.03.026.052.045.066.058.007.006.012.011.015.013.002.002.003.003.004.003v.001c0-.001 0-.001 1.326-1.498zm15.503-2h-15.503v4h15.503zm0 4h15.503v-4h-15.503zm15.503-2c1.326 1.497 1.326 1.497 1.326 1.498 0-.001 0-.001 0-.001.001 0 .002-.001.004-.003.003-.002.008-.007.015-.013.014-.013.036-.032.066-.058.06-.052.152-.132.273-.236.243-.209.608-.518 1.085-.913.954-.79 2.358-1.925 4.146-3.288 3.577-2.728 8.677-6.366 14.766-10.002 12.238-7.307 28.211-14.45 43.736-14.45v-4c-16.616 0-33.351 7.59-45.786 15.016-6.248 3.73-11.475 7.459-15.142 10.256-1.834 1.399-3.281 2.567-4.272 3.388-.495.41-.877.734-1.137.957-.13.112-.23.198-.298.257-.033.03-.06.052-.078.068-.009.008-.016.014-.021.019-.002.002-.004.004-.006.005 0 .001-.001.001-.001.002-.001 0-.001.001 1.324 1.498zm65.417-27.466c15.695 0 28.34 4.354 37.062 8.707 4.361 2.176 7.734 4.349 10.007 5.97 1.136.81 1.997 1.481 2.567 1.944.285.231.497.411.635.53.07.059.12.103.152.131.015.014.026.024.033.03.003.003.005.004.006.005 0 0 0 .001 0 0-.001 0-.001-.001 1.342-1.482 1.344-1.482 1.343-1.482 1.343-1.483-.001 0-.002-.001-.002-.002-.002-.001-.003-.002-.005-.004-.004-.004-.009-.009-.016-.014-.013-.012-.03-.027-.053-.047-.044-.04-.108-.096-.191-.167-.166-.142-.407-.346-.722-.602-.631-.512-1.558-1.235-2.767-2.097-2.418-1.723-5.97-4.009-10.543-6.291-9.144-4.564-22.401-9.128-38.848-9.128zm51.46 17.805 33.276 5.815.688-3.94-33.275-5.815zm31.62 3.845v18.61h4v-18.61zm1.088 16.831-11.344 5.815 1.824 3.56 11.344-5.816zm-10.432 7.595c-1.996-.121-1.996-.121-1.996-.121v.002c0 .001-.001.003-.001.007 0 .006-.001.017-.002.031-.002.028-.004.071-.008.129-.008.115-.019.287-.036.514-.032.454-.084 1.125-.157 1.988-.146 1.725-.38 4.216-.732 7.265-.704 6.101-1.877 14.421-3.752 23.309-1.876 8.897-4.444 18.312-7.923 26.623-3.493 8.345-7.827 15.387-13.131 19.738l2.537 3.093c6.04-4.955 10.687-12.694 14.284-21.287 3.611-8.627 6.242-18.307 8.147-27.341 1.907-9.044 3.098-17.492 3.812-23.677.357-3.093.595-5.625.744-7.386.075-.88.127-1.568.161-2.038.017-.235.029-.415.037-.537.004-.062.007-.108.009-.14.001-.016.002-.028.003-.037 0-.004 0-.007 0-.01 0-.001 0-.002 0-.003 0 0 0-.001-1.996-.122zm-27.738 79.485c-21.902 17.966-56.514 17.897-81.509-.077l-2.335 3.247c26.281 18.899 62.908 19.177 86.381-.077zm-81.509-.077c-6.043-4.346-11.173-11.399-15.464-19.731-4.277-8.307-7.64-17.727-10.224-26.632-2.581-8.898-4.371-17.232-5.514-23.344-.572-3.055-.982-5.551-1.248-7.28-.133-.864-.231-1.537-.294-1.991-.032-.228-.056-.401-.071-.516-.008-.057-.014-.1-.017-.128-.002-.014-.004-.025-.004-.031-.001-.004-.001-.006-.001-.008 0 0 0-.001-.001-.001 0 0 0 0-1.983.254-1.984.254-1.984.255-1.984.255v.003c.001.003.001.006.002.01.001.009.002.021.005.037.004.032.01.079.018.141.017.123.041.304.074.539.067.472.166 1.162.303 2.045.272 1.766.688 4.305 1.269 7.406 1.16 6.201 2.977 14.667 5.604 23.723 2.625 9.048 6.073 18.733 10.51 27.349 4.423 8.59 9.909 16.274 16.685 21.147zm-34.821-81.408h-10.588v4h10.588zm-21.176 4h10.588v-4h-10.588zm-32.486 80.655c6.776-4.873 12.262-12.557 16.685-21.147 4.437-8.616 7.885-18.301 10.51-27.349 2.627-9.056 4.444-17.522 5.604-23.723.581-3.101.997-5.64 1.269-7.406.137-.883.236-1.573.303-2.045.033-.235.057-.416.074-.539.008-.062.014-.109.018-.141.003-.016.004-.028.005-.037.001-.004.001-.007.002-.01 0-.001 0-.002 0-.003 0 0 0-.001-1.984-.255-1.983-.254-1.983-.254-1.983-.254-.001 0-.001.001-.001.001 0 .002 0 .004-.001.008 0 .006-.002.017-.004.031-.003.028-.009.071-.017.128-.015.115-.039.288-.071.516-.063.454-.161 1.127-.294 1.991-.266 1.729-.676 4.225-1.248 7.28-1.143 6.112-2.933 14.446-5.514 23.344-2.584 8.905-5.947 18.325-10.224 26.632-4.291 8.332-9.421 15.385-15.464 19.731zm-86.381-.077c23.473 19.254 60.1 18.976 86.381.077l-2.335-3.247c-24.995 17.974-59.607 18.043-81.509.077zm-25.201-82.578c-1.996.121-1.996.122-1.996.122v.003.01c.001.009.002.021.003.037.002.032.005.078.009.14.008.122.02.302.037.537.034.47.086 1.158.161 2.038.149 1.761.387 4.293.744 7.386.714 6.185 1.905 14.633 3.812 23.677 1.905 9.034 4.536 18.714 8.147 27.341 3.597 8.593 8.244 16.332 14.284 21.287l2.537-3.093c-5.304-4.351-9.638-11.393-13.131-19.738-3.479-8.311-6.047-17.726-7.923-26.623-1.875-8.888-3.048-17.208-3.752-23.309-.352-3.049-.586-5.54-.732-7.265-.073-.863-.125-1.534-.157-1.988-.017-.227-.028-.399-.036-.514-.004-.058-.006-.101-.008-.129-.001-.014-.002-.025-.002-.031 0-.004-.001-.006-.001-.007s0-.002 0-.002 0 0-1.996.121zm-12.256-4.036 11.344 5.816 1.824-3.56-11.344-5.815zm-1.088-20.39v18.61h4v-18.61zm30.997 13.64c.797-1.548 2.767-3.923 5.982-6.648l-2.587-3.051c-3.378 2.863-5.804 5.64-6.951 7.867zm-1.472 5.769c.577-3.233 1.157-5.158 1.472-5.769l-3.556-1.832c-.624 1.211-1.282 3.691-1.854 6.898zm-1.35 11.854c.285-4.676.794-8.741 1.35-11.854l-3.938-.703c-.585 3.278-1.111 7.497-1.405 12.314zm2.335 32.388c-2.575-11.329-2.907-23.021-2.335-32.388l-3.993-.243c-.588 9.625-.255 21.716 2.428 33.518zm15.539 29.938c-8.178-7.804-12.961-18.595-15.539-29.938l-3.9.887c2.68 11.793 7.734 23.411 16.678 31.945zm36.673 12.221c-16.874.544-28.558-4.478-36.673-12.221l-2.761 2.894c8.982 8.571 21.75 13.9 39.563 13.325zm.017-.001h-.005l.105 3.999h.005zm35.798-13.372c-8.471 7.735-20.02 13.01-35.792 13.372l.092 3.999c16.702-.384 29.187-6.007 38.397-14.417zm17.523-28.93c-3.463 10.761-9.006 21.154-17.523 28.93l2.697 2.954c9.184-8.386 15.031-19.464 18.634-30.659zm5.002-30.569c-.199 8.816-1.54 19.813-5.002 30.569l3.808 1.225c3.604-11.198 4.987-22.59 5.193-31.704zm-.427-11.174c.339 2.944.526 6.769.427 11.174l3.999.09c.102-4.559-.089-8.569-.452-11.721zm-.591-3.652c.217.953.422 2.179.591 3.652l3.974-.457c-.181-1.575-.407-2.952-.665-4.084zm-.553-1.765c.117.219.326.769.553 1.765l3.9-.889c-.252-1.106-.556-2.072-.929-2.767zm-50.442-26.448c31.389 1.105 46.357 18.836 50.442 26.448l3.524-1.891c-4.645-8.657-20.791-27.392-53.825-28.554zm-39.58 8.885c10.214-5.267 23.866-9.438 39.58-8.885l.141-3.997c-16.505-.581-30.833 3.798-41.554 9.327zm-12.49 8.208c3.164-2.682 7.384-5.575 12.49-8.208l-1.833-3.555c-5.36 2.764-9.835 5.823-13.244 8.712zm52.246-22.09c-16.703-.587-31.2 3.844-42.047 9.438l1.833 3.555c10.34-5.332 24.162-9.555 40.074-8.995zm54.671 29.081c-4.784-8.918-21.225-27.904-54.671-29.081l-.14 3.998c31.8 1.119 47.062 19.101 51.287 26.974zm1.023 3.017c-.259-1.134-.586-2.203-1.023-3.017l-3.524 1.891c.181.338.414.992.647 2.016zm.684 4.193c-.184-1.601-.416-3.015-.684-4.193l-3.9.89c.228.998.437 2.261.61 3.76zm.457 11.857c.104-4.597-.089-8.654-.457-11.857l-3.974.457c.345 2.996.533 6.867.432 11.31zm-5.24 31.988c3.639-11.309 5.033-22.8 5.24-31.988l-3.999-.09c-.2 8.891-1.552 19.986-5.049 30.853zm-18.911 31.091c9.35-8.537 15.273-19.787 18.911-31.091l-3.808-1.225c-3.498 10.87-9.117 21.434-17.8 29.362zm-39.046 14.679c16.932-.39 29.65-6.1 39.046-14.679l-2.697-2.954c-8.656 7.904-20.439 13.266-36.441 13.634zm-40.265-13.601c9.198 8.777 22.236 14.182 40.283 13.6l-.129-3.998c-17.108.552-29.062-4.547-37.393-12.496zm-16.963-32.448c2.706 11.907 7.828 23.731 16.963 32.448l2.761-2.894c-8.37-7.987-13.22-18.985-15.824-30.44zm-2.451-33.8c-.592 9.69-.259 21.881 2.451 33.8l3.9-.886c-2.602-11.448-2.935-23.239-2.358-32.671zm1.419-12.429c-.593 3.32-1.123 7.577-1.419 12.429l3.993.243c.287-4.711.801-8.814 1.364-11.969zm1.949-7.18c-.701 1.36-1.378 3.979-1.949 7.18l3.938.703c.575-3.226 1.174-5.29 1.567-6.051zm7.194-8.172c-3.42 2.898-5.959 5.775-7.194 8.172l3.556 1.832c.885-1.718 2.968-4.193 6.224-6.952zm13.432-8.838c-5.424 2.797-9.963 5.897-13.432 8.838l2.586 3.052c3.226-2.734 7.509-5.669 12.679-8.335zm261.381 17.468c-1.147-2.227-3.573-5.004-6.951-7.867l-2.587 3.051c3.215 2.725 5.185 5.1 5.982 6.648zm1.854 6.898c-.572-3.207-1.23-5.687-1.854-6.898l-3.556 1.832c.315.611.895 2.536 1.472 5.769zm1.405 12.313c-.294-4.816-.82-9.035-1.405-12.313l-3.938.703c.556 3.113 1.065 7.178 1.35 11.854zm-2.428 33.519c2.683-11.802 3.016-23.893 2.428-33.518l-3.993.243c.572 9.367.24 21.059-2.335 32.388zm-16.678 31.945c8.944-8.534 13.998-20.152 16.678-31.945l-3.9-.887c-2.578 11.343-7.361 22.134-15.539 29.938zm-39.563 13.325c17.813.575 30.581-4.754 39.563-13.325l-2.761-2.894c-8.115 7.743-19.799 12.765-36.673 12.221zm.007 0h.005l.105-3.999h-.005zm-38.39-14.417c9.21 8.41 21.695 14.033 38.397 14.417l.092-3.999c-15.772-.362-27.321-5.637-35.792-13.372zm-18.634-30.659c3.603 11.195 9.45 22.273 18.634 30.659l2.697-2.954c-8.517-7.776-14.06-18.169-17.523-28.93zm-5.193-31.704c.206 9.114 1.589 20.506 5.193 31.704l3.808-1.225c-3.462-10.756-4.803-21.753-5.002-30.569zm.452-11.721c-.363 3.152-.554 7.162-.452 11.721l3.999-.09c-.099-4.405.088-8.23.427-11.174zm.665-4.084c-.258 1.132-.484 2.509-.665 4.084l3.974.457c.169-1.473.374-2.699.591-3.652zm.929-2.767c-.373.695-.677 1.661-.929 2.767l3.9.889c.227-.996.436-1.546.553-1.765zm53.825-28.554c-33.034 1.162-49.18 19.897-53.825 28.554l3.524 1.891c4.085-7.612 19.053-25.343 50.442-26.448zm41.554 9.327c-10.721-5.529-25.049-9.908-41.554-9.327l.141 3.997c15.714-.553 29.366 3.618 39.58 8.885zm13.244 8.712c-3.409-2.889-7.884-5.948-13.244-8.712l-1.833 3.555c5.106 2.633 9.326 5.526 12.49 8.208zm-54.693-15.041c15.912-.56 29.734 3.663 40.074 8.995l1.833-3.555c-10.847-5.594-25.344-10.025-42.047-9.438zm-51.287 26.974c4.225-7.873 19.487-25.855 51.287-26.974l-.14-3.998c-33.446 1.177-49.887 20.163-54.671 29.081zm-.647 2.016c.233-1.024.466-1.678.647-2.016l-3.524-1.891c-.437.814-.764 1.883-1.023 3.017zm-.61 3.76c.173-1.499.382-2.762.61-3.76l-3.9-.89c-.268 1.178-.5 2.592-.684 4.193zm-.432 11.31c-.101-4.443.087-8.314.432-11.31l-3.974-.457c-.368 3.203-.561 7.26-.457 11.857zm5.049 30.853c-3.497-10.867-4.849-21.962-5.049-30.853l-3.999.09c.207 9.188 1.601 20.679 5.24 31.988zm17.8 29.362c-8.683-7.928-14.302-18.492-17.8-29.362l-3.808 1.225c3.638 11.304 9.561 22.554 18.911 31.091zm36.441 13.634c-16.002-.368-27.785-5.73-36.441-13.634l-2.697 2.954c9.396 8.579 22.114 14.289 39.046 14.679zm37.412-12.496c-8.331 7.949-20.285 13.048-37.393 12.496l-.129 3.998c18.047.582 31.085-4.823 40.283-13.6zm15.824-30.44c-2.604 11.455-7.454 22.453-15.824 30.44l2.761 2.894c9.135-8.717 14.257-20.541 16.963-32.448zm2.358-32.671c.577 9.432.244 21.223-2.358 32.671l3.9.886c2.71-11.919 3.043-24.11 2.451-33.8zm-1.364-11.969c.563 3.155 1.077 7.258 1.364 11.969l3.993-.243c-.296-4.852-.826-9.109-1.419-12.429zm-1.567-6.051c.393.761.992 2.825 1.567 6.051l3.938-.703c-.571-3.201-1.248-5.82-1.949-7.18zm-6.224-6.952c3.256 2.759 5.339 5.234 6.224 6.952l3.556-1.832c-1.235-2.397-3.774-5.274-7.194-8.172zm-12.679-8.335c5.17 2.666 9.453 5.601 12.679 8.335l2.586-3.052c-3.469-2.941-8.008-6.041-13.432-8.838z"/><path clip-rule="evenodd" d="m279.001 719 33 8 51 77-.989.138c-7.618 1.032-12.288.986-14.011-.138-12.891-8.414-20.334-22.765-32-35-14.105-14.793-26.438-31.46-37-50zm276-474c40.483 4.465 75.916 23.728 105.823 49.427l2.486.474c40.639 7.891 85.002 16.602 104.691 45.099 25.333 36.666 35.667 79.666 31 129-16.94-39.968-43-72-58.968-75.432 20.876 36.59 27.968 67.616 27.968 79.432 0 39-16.667 79.666-24 105 0-34.667-7.667-92.667-53-136-53.982-51.601-149.183-24-189-24-30.725 0-14.034 46.879-41.38 81.411 4.056 13.589 12.38 33.589 33.38 52.589-32.44-.017-45.273-19.459-55.185-40.144l-3.329.554c-2.597.437-5.185.9-7.576 1.469 3.191 13.066 10.306 28.667 21.345 46.803-14.52-12.326-24.988-26.337-31.405-42.034-.348.419-.634.869-.85 1.352-23.636 52.739-24 73-36 135h-15l-1.372-3.149c-14.699-33.594-26.575-56.211-35.628-67.851l-.841-1.071c-13.75-17.346-28.201-27.429-40.159-23.929l-.755.23-.535.173c-8.787 2.903-28.47 12.324-42.71 29.597-5.251 6.369-10.917 18.369-17 36l-.935-1.406-1.365-2.077c-12.694-19.446-19.594-33.952-20.7-43.517-3.882-33.558-8-144 28-195s47.907-44.467 76-51c24-80.667 109.201-102.199 247-87z" fill-rule="evenodd"/><path d="m279.001 719 1.413-5.831c-2.326-.564-4.766.309-6.206 2.222-1.44 1.912-1.606 4.498-.421 6.579zm33 8 5.002-3.313c-.836-1.262-2.118-2.162-3.589-2.518zm51 77 .828 5.942c2.041-.284 3.794-1.596 4.641-3.475.848-1.879.671-4.062-.467-5.78zm-.989.138.806 5.945c.008-.001.015-.002.022-.003zm-14.011-.138 3.279-5.025zm-32-35-4.343 4.14zm239-524-.658 5.964zm105.823 49.427-3.91 4.55c.795.684 1.755 1.147 2.785 1.343zm2.486.474 1.143-5.89c-.006-.001-.012-.002-.018-.003zm104.691 45.099-4.937 3.41zm31 129-5.524 2.341c1.072 2.53 3.725 4.008 6.44 3.588 2.715-.419 4.798-2.629 5.057-5.364zm-58.968-75.432 1.261-5.866c-2.314-.497-4.704.412-6.102 2.322-1.398 1.909-1.543 4.462-.371 6.518zm3.968 184.432h-6c0 2.988 2.199 5.521 5.157 5.94 2.959.42 5.775-1.401 6.606-4.272zm-53-136-4.146 4.337zm-230.38 57.411-4.703-3.725c-1.216 1.534-1.606 3.565-1.046 5.441zm33.38 52.589-.003 6c2.482.001 4.708-1.526 5.601-3.842s.268-4.942-1.573-6.607zm-55.185-40.144 5.411-2.593c-1.154-2.409-3.762-3.764-6.397-3.326zm-3.329.554-.986-5.918-.01.001zm-7.576 1.469-1.39-5.837c-1.554.37-2.896 1.344-3.729 2.707s-1.089 3.002-.71 4.553zm21.345 46.803-3.883 4.574c2.244 1.906 5.54 1.901 7.779-.011s2.76-5.167 1.229-7.682zm-31.405-42.034 5.554-2.271c-.798-1.95-2.56-3.339-4.642-3.659-2.083-.321-4.181.475-5.528 2.096zm-.85 1.352-5.475-2.454zm-36 135v6c2.874 0 5.344-2.038 5.891-4.86zm-15 0-5.501 2.397c.954 2.188 3.114 3.603 5.501 3.603zm-1.372-3.149 5.5-2.396-.003-.009zm-35.628-67.851 4.736-3.684c-.006-.007-.011-.014-.017-.021zm-.841-1.071 4.719-3.706c-.006-.007-.011-.014-.017-.021zm-40.159-23.929-1.685-5.759c-.022.007-.043.013-.065.019zm-.755.23-1.749-5.74c-.032.01-.065.02-.097.031zm-.535.173-1.846-5.709c-.012.004-.024.008-.036.012zm-42.71 29.597-4.63-3.817zm-17 36-4.997 3.322c1.264 1.9 3.495 2.919 5.758 2.629 2.264-.289 4.167-1.838 4.911-3.994zm-.935-1.406-5.013 3.296c.005.009.011.018.017.026zm-1.365-2.077-5.025 3.279c.004.006.007.011.011.017zm-20.7-43.517 5.96-.69zm104-246 1.359 5.844c2.1-.489 3.777-2.066 4.392-4.133zm-30.414 392.831 33 8 2.827-11.662-33-8zm29.412 5.482 51 77 10.004-6.626-51-77zm55.174 67.744-.988.138 1.655 11.885.989-.138zm-.967.135c-3.68.499-6.43.705-8.351.686-.96-.009-1.577-.075-1.929-.139-.418-.077-.156-.097.354.236l-6.559 10.049c1.373.896 2.864 1.303 4.044 1.519 1.247.228 2.596.321 3.972.334 2.749.027 6.143-.26 10.081-.794zm-9.926.783c-5.611-3.662-10.207-8.727-15.051-14.788-4.682-5.857-9.812-12.957-15.886-19.328l-8.685 8.281c5.593 5.866 10.018 12.059 15.197 18.539 5.016 6.277 10.587 12.594 17.866 17.345zm-30.937-34.116c-13.753-14.424-25.798-30.694-36.129-48.829l-10.427 5.94c10.793 18.946 23.415 36.009 37.871 51.17zm234-513.895c38.95 4.296 73.29 22.853 102.571 48.013l7.821-9.101c-30.534-26.238-67.06-46.206-109.076-50.84zm105.356 49.356 2.486.475 2.25-11.787-2.486-.475zm2.467.471c20.415 3.964 41.193 8.036 59.308 14.576 18.138 6.547 32.779 15.291 41.59 28.043l9.873-6.821c-10.878-15.744-28.262-25.605-47.388-32.509-19.148-6.913-40.872-11.142-61.096-15.069zm100.898 42.619c24.44 35.374 34.513 76.929 29.964 125.025l11.946 1.13c4.784-50.571-5.81-95.016-32.037-132.976zm41.461 123.248c-8.66-20.434-19.676-38.907-30.667-52.798-5.494-6.943-11.064-12.847-16.426-17.296-5.26-4.364-10.77-7.708-16.138-8.862l-2.522 11.733c2.615.561 6.351 2.509 10.998 6.364 4.545 3.772 9.542 9.017 14.677 15.507 10.266 12.974 20.751 30.501 29.03 50.035zm-69.704-70.116c20.575 36.061 27.18 66.047 27.18 76.458h12c0-13.22-7.579-45.286-28.757-82.405zm27.18 76.458c0 18.707-4.006 38.019-9.029 56.011-2.506 8.977-5.244 17.554-7.834 25.526-2.572 7.918-5.032 15.341-6.901 21.794l11.527 3.337c1.799-6.213 4.172-13.374 6.787-21.424 2.598-7.997 5.402-16.774 7.979-26.006 5.144-18.424 9.471-38.945 9.471-59.238zm-12 105c0-35.325-7.778-95.338-54.854-140.337l-8.292 8.674c43.59 41.667 51.146 97.655 51.146 131.663zm-54.854-140.337c-28.716-27.449-68.005-33.469-104.034-33.013-18.095.229-35.679 2.1-51.065 3.883-15.598 1.808-28.538 3.467-38.047 3.467v12c10.4 0 24.291-1.792 39.429-3.546 15.349-1.78 32.405-3.584 49.835-3.805 35.021-.444 70.324 5.536 95.59 29.688zm-193.146-25.663c-4.614 0-8.722.884-12.295 2.784-3.59 1.909-6.282 4.653-8.329 7.828-3.907 6.055-5.71 14.135-7.225 22.01-3.184 16.541-5.669 35.196-18.234 51.064l9.407 7.45c14.78-18.665 17.622-40.715 20.61-56.246 1.571-8.162 3.065-13.96 5.525-17.773 1.136-1.76 2.395-2.948 3.88-3.738 1.502-.799 3.593-1.379 6.661-1.379zm-47.129 89.127c4.265 14.288 13.054 35.373 35.103 55.322l8.051-8.898c-19.951-18.051-27.808-36.966-31.655-49.856zm39.132 44.873c-14.869-.008-24.756-4.41-32.09-10.834-7.541-6.607-12.799-15.703-17.687-25.903l-10.822 5.186c5.025 10.486 11.139 21.453 20.602 29.743 9.671 8.472 22.42 13.799 39.991 13.808zm-56.174-40.063-3.329.555 1.972 11.837 3.329-.555zm-3.339.556c-2.612.44-5.369.93-7.97 1.549l2.78 11.674c2.182-.52 4.6-.954 7.182-1.389zm-12.409 8.809c3.397 13.907 10.852 30.105 22.048 48.5l10.251-6.239c-10.881-17.877-17.656-32.882-20.641-45.108zm31.057 40.806c-13.878-11.781-23.725-25.029-29.734-39.731l-11.108 4.541c6.824 16.693 17.914 31.467 33.076 44.338zm-39.904-41.294c-.67.807-1.254 1.717-1.709 2.732l10.95 4.908c-.01.023-.019.038-.023.044-.004.007-.001.001.013-.016zm-1.709 2.732c-23.992 53.534-24.483 74.661-36.416 136.314l11.782 2.28c12.067-62.348 12.305-81.743 35.584-133.686zm-30.525 131.454h-15v12h15zm-9.5 3.603-1.372-3.148-11.001 4.793 1.372 3.149zm-1.375-3.157c-14.69-33.574-26.823-56.83-36.389-69.13l-9.472 7.367c8.54 10.981 20.159 32.959 34.867 66.573zm-36.406-69.151-.841-1.072-9.438 7.411.841 1.071zm-.858-1.093c-7.107-8.966-14.652-16.396-22.282-21.148-7.602-4.735-16.013-7.227-24.264-4.813l3.37 11.517c3.707-1.084 8.501-.285 14.551 3.482 6.023 3.752 12.578 10.035 19.221 18.416zm-46.611-25.942-.754.23 3.499 11.479.754-.23zm-.851.261-.535.173 3.693 11.418.535-.173zm-.571.185c-9.511 3.142-30.294 13.084-45.458 31.477l9.259 7.633c13.317-16.152 31.901-25.052 39.964-27.716zm-45.458 31.477c-5.996 7.274-11.946 20.19-18.042 37.86l11.344 3.914c6.069-17.592 11.453-28.677 15.957-34.141zm-7.374 36.495-.934-1.406-9.993 6.644.934 1.406zm-.917-1.38-1.366-2.077-10.027 6.592 1.366 2.077zm-1.355-2.061c-6.258-9.588-11.005-17.832-14.301-24.761-3.33-7-5.019-12.33-5.463-16.166l-11.92 1.379c.662 5.73 2.976 12.435 6.546 19.941 3.604 7.576 8.654 16.308 15.089 26.166zm-19.764-40.927c-1.901-16.433-3.886-52.044-.934-89.802 2.974-38.035 10.877-76.966 27.876-101.048l-9.804-6.92c-19.001 26.918-27.039 68.707-30.036 107.033-3.018 38.602-1.003 74.992.978 92.116zm26.942-190.85c17.853-25.293 29.133-35.406 38.771-40.281 4.799-2.428 9.444-3.685 14.816-4.738 5.131-1.006 11.784-1.949 18.87-3.597l-2.718-11.688c-6.961 1.619-12.332 2.308-18.459 3.509-5.887 1.153-11.736 2.675-17.925 5.806-12.339 6.241-25.013 18.361-43.159 44.069zm76.849-52.749c11.368-38.21 37.039-62.422 76.938-75.457 40.3-13.167 95.028-14.859 163.653-7.29l1.316-11.928c-69.175-7.63-125.947-6.155-168.696 7.811-43.151 14.098-72.081 40.985-84.713 83.442z"/></g></g></svg>