<svg fill="none" viewBox="0 0 1080 1080" xmlns="http://www.w3.org/2000/svg" xmlns:xlink="http://www.w3.org/1999/xlink"><filter id="a" height="140%" width="140%" x="-20%" y="-20%"><feMorphology in="SourceAlpha" operator="dilate" radius="20 20" result="morphology"/><feFlood flood-color="#fff" result="flood"/><feComposite in="flood" in2="morphology" operator="in" result="composite"/><feMerge result="merge"><feMergeNode in="composite" result="mergeNode"/><feMergeNode in="SourceGraphic" result="mergeNode1"/></feMerge></filter><g filter="url(#a)"><g stroke="#000" stroke-linecap="round" stroke-linejoin="round"><path d="m532 379c132.54834 0 240 107.45166 240 240s-47.45166 280-180 280c-99.439782 0-218.523951-82.989167-271.810487-180.415013-2.691384.274694-5.424062.415013-8.189513.415013-44.18278 0-80-35.81722-80-80 0-39.865044 29.158843-72.919675 67.312086-78.99945 26.287211-104.021337 120.497833-181.00055 232.687914-181.00055zm-236.141105 245.545187 8.28221 30.909626" fill="#fff" fill-rule="evenodd" stroke-width="24"/><path d="m673 568c-10.44898 22.836147-15.673469 45.414126-15.673469 67.733939 0 33.479718 28.612245 21.705562 25.673469 47.266061-1.959184 17.040333-21.292517 25.388498-58 25.044495" fill="none" stroke-width="16"/><path clip-rule="evenodd" d="m555.87 801.555c-19.723-12.346-34.474-33.536-34.474-33.536s47.604-10.382 87.604-10.7c40-.319 87.604 10.7 87.604 10.7s-14.752 21.19-34.475 33.536c-9.028 5.652-37.129 8.445-52.686 8.445s-44.637-2.85-53.573-8.445z" fill-rule="evenodd" stroke-width="16"/><path d="m569.322 801s19.839-8 39.678-8c19.838 0 39.677 8 39.677 8" stroke-width="8"/></g><path d="m570 516c17.673112 0 32 14.326888 32 32s-14.326888 32-32 32-32-14.326888-32-32 14.326888-32 32-32zm138 0c17.673112 0 32 14.326888 32 32s-14.326888 32-32 32-32-14.326888-32-32 14.326888-32 32-32z" fill="#000" fill-rule="evenodd"/><g style="stroke:#000;stroke-width:12;fill:none;fill-rule:evenodd;stroke-linecap:round;stroke-linejoin:round" transform="translate(525 504)"><path d="m0 12c12.8888889-8 27.8888889-12 45-12s32.1111111 4 45 12"/><path d="m138 12c12.888889-8 27.888889-12 45-12s32.111111 4 45 12"/></g><g fill="#000"><path clip-rule="evenodd" d="m712.472 491.158c34.737-4.968 77.491-.621 83.726 5.588 6.235 6.21 6.016 43.607-12.486 64.099-11.635 12.887-75.331 13.693-101.726 6.073-8.589-2.48-15.934-13.522-22.787-23.825-6.633-9.971-12.805-19.25-19.199-19.403-6.425-.153-12.584 9.2-19.232 19.296-6.803 10.331-14.118 21.439-22.754 23.932-26.394 7.62-88.096 8.807-99.725-4.073-18.502-20.492-20.721-59.889-14.486-66.099 6.235-6.209 48.988-10.556 83.725-5.588 34.738 4.967 49.964 8.776 57.005 10.871 4.397 1.309 14.902 1.863 14.902 1.863l.565.013.566.007c5.538.053 10.505-.574 14.902-1.883 7.041-2.095 22.267-5.904 57.004-10.871zm-214.418 11.552c-19.595 9.694-3.781 43.337 4.923 53.03 8.705 9.694 85.24 7.413 95.928 2.281 10.689-5.132 25.737-30.37 17.721-44.626-8.016-14.255-90.07-20.949-118.572-10.685zm278.969 53.03c8.705-9.693 24.519-43.336 4.924-53.03-28.503-10.264-110.556-3.57-118.572 10.685-8.017 14.256 7.032 39.494 17.72 44.626 10.689 5.132 87.224 7.413 95.928-2.281z" fill-rule="evenodd"/><path d="m712.472 491.158.283 1.979zm71.24 69.687 1.484 1.341zm-101.726 6.073-.555 1.922zm-22.787-23.825-1.665 1.108zm-19.199-19.403.048-1.999zm-19.232 19.296-1.67-1.1zm-22.754 23.932.555 1.922zm-99.725-4.073 1.484-1.34zm-14.486-66.099-1.411-1.417zm83.725-5.588-.283 1.979zm57.005 10.871.57-1.917zm14.902 1.863-.105 1.997c.02.001.041.002.061.003zm.565.013-.043 1.999h.016zm.566.007-.027 2h.008zm14.902-1.883.57 1.917zm-152.491 53.711-1.488 1.337zm-4.923-53.03-.678-1.881c-.071.025-.141.055-.209.089zm118.572 10.685-1.743.981zm165.321-10.685.886-1.792c-.068-.034-.137-.064-.209-.089zm-4.924 53.03 1.488 1.337zm-113.648-42.345-1.744-.98zm134.234-18.066c-1.083-1.078-2.753-1.946-4.658-2.677-1.957-.751-4.377-1.436-7.148-2.05-5.546-1.229-12.658-2.21-20.623-2.836-15.928-1.251-35.451-1.097-52.991 1.412l.566 3.959c17.197-2.459 36.42-2.615 52.112-1.383 7.845.617 14.761 1.577 20.07 2.753 2.657.589 4.871 1.224 6.581 1.88 1.763.676 2.792 1.302 3.268 1.777zm-12.413 66.857c9.625-10.66 14.403-25.58 16.02-38.498.811-6.479.838-12.542.249-17.428-.295-2.441-.749-4.631-1.358-6.452-.597-1.782-1.399-3.384-2.498-4.479l-2.823 2.835c.46.458 1.015 1.382 1.528 2.914.499 1.493.907 3.404 1.179 5.662.545 4.512.531 10.244-.246 16.451-1.56 12.457-6.142 26.481-15.02 36.314zm-103.765 6.654c13.495 3.896 36.262 5.594 57.036 4.73 10.409-.433 20.412-1.512 28.584-3.315 4.086-.901 7.759-1.992 10.817-3.297 3.032-1.294 5.598-2.856 7.328-4.772l-2.969-2.681c-1.178 1.305-3.148 2.587-5.929 3.774-2.756 1.176-6.174 2.202-10.108 3.07-7.868 1.735-17.621 2.797-27.889 3.224-20.582.856-42.86-.852-55.76-4.576zm-23.897-24.639c3.41 5.126 7.03 10.574 10.894 15.046 3.838 4.441 8.138 8.188 13.003 9.593l1.11-3.843c-3.724-1.075-7.391-4.09-11.086-8.365-3.669-4.245-7.148-9.47-10.591-14.646zm-17.581-18.511c2.281.054 4.919 1.795 8.059 5.345 3.061 3.46 6.181 8.144 9.522 13.166l3.33-2.215c-3.292-4.95-6.574-9.892-9.856-13.602-3.203-3.621-6.848-6.595-10.96-6.693zm-17.515 18.396c3.35-5.086 6.468-9.814 9.526-13.265 3.143-3.545 5.748-5.185 7.989-5.131l.095-3.999c-4.185-.1-7.871 2.86-11.077 6.477-3.289 3.711-6.575 8.708-9.873 13.718zm-23.869 24.754c4.892-1.413 9.196-5.182 13.027-9.646 3.857-4.495 7.457-9.968 10.842-15.108l-3.34-2.2c-3.419 5.19-6.877 10.437-10.537 14.703-3.687 4.296-7.357 7.327-11.101 8.408zm-101.765-4.654c1.733 1.918 4.271 3.45 7.258 4.691 3.01 1.251 6.612 2.264 10.607 3.07 7.992 1.613 17.75 2.44 27.91 2.622 20.287.363 42.53-1.843 55.99-5.729l-1.109-3.843c-12.935 3.734-34.74 5.931-54.81 5.572-10.019-.179-19.516-.994-27.189-2.543-3.837-.774-7.17-1.723-9.863-2.842-2.716-1.129-4.65-2.378-5.825-3.679zm-14.412-68.857c-1.132 1.127-1.899 2.803-2.435 4.639-.55 1.883-.92 4.156-1.117 6.69-.394 5.07-.11 11.377.954 18.095 2.12 13.389 7.4 28.788 17.01 39.433l2.969-2.681c-8.891-9.848-13.972-24.394-16.028-37.378-1.024-6.469-1.282-12.457-.917-17.16.183-2.353.518-4.337.968-5.877.464-1.587.991-2.501 1.418-2.926zm85.42-6.151c-17.541-2.509-37.063-2.663-52.991-1.412-7.965.626-15.077 1.607-20.623 2.836-2.771.614-5.191 1.299-7.149 2.05-1.904.731-3.575 1.599-4.657 2.677l2.822 2.835c.476-.475 1.506-1.101 3.268-1.777 1.71-.656 3.925-1.291 6.581-1.88 5.309-1.176 12.226-2.136 20.071-2.753 15.692-1.232 34.914-1.076 52.111 1.383zm57.291 10.934c-7.17-2.133-22.501-5.959-57.291-10.934l-.567 3.959c34.684 4.961 49.805 8.752 56.718 10.809zm14.332 3.78c.105-1.997.106-1.997.106-1.997h-.001s0 0-.001 0-.002 0-.005 0c-.004-.001-.011-.001-.021-.002-.018-.001-.047-.002-.085-.004-.076-.004-.188-.011-.333-.02-.291-.017-.713-.043-1.233-.079-1.041-.072-2.474-.181-4.04-.33-3.198-.304-6.735-.757-8.719-1.348l-1.14 3.834c2.412.718 6.327 1.196 9.48 1.496 1.61.154 3.079.265 4.145.338.533.037.966.064 1.267.082.151.009.268.016.349.02.04.003.071.004.092.006.011 0 .019.001.024.001h.007.002s.001 0 .106-1.997zm.609-1.987-.565-.012-.088 3.999.566.012zm.55.007-.566-.007-.055 3.999.566.008zm14.303-1.8c-4.171 1.241-8.934 1.852-14.311 1.8l-.039 4c5.697.055 10.868-.59 15.491-1.966zm57.292-10.934c-34.79 4.975-50.122 8.801-57.292 10.934l1.141 3.834c6.912-2.057 22.033-5.848 56.717-10.809zm-207.724 65.226c-4.114-4.582-10.097-15.111-12.617-25.644-1.256-5.252-1.606-10.321-.572-14.564 1.013-4.161 3.354-7.561 7.665-9.693l-1.774-3.585c-5.487 2.714-8.517 7.155-9.778 12.331-1.24 5.094-.766 10.86.569 16.442 2.664 11.135 8.941 22.274 13.531 27.386zm93.574 1.814c-1.059.509-3.176 1.071-6.304 1.605-3.062.522-6.905.989-11.281 1.378-8.748.778-19.529 1.239-30.257 1.239-10.735 0-21.361-.462-29.814-1.517-4.231-.528-7.861-1.198-10.665-2.012-2.908-.844-4.569-1.745-5.253-2.507l-2.976 2.673c1.493 1.662 4.127 2.809 7.113 3.676 3.089.896 6.95 1.598 11.286 2.14 8.679 1.083 19.487 1.547 30.309 1.547 10.83 0 21.731-.465 30.612-1.255 4.438-.395 8.396-.873 11.599-1.419 3.137-.536 5.75-1.167 7.363-1.942zm16.844-41.842c3.516 6.253 2.106 15.334-1.914 23.904-1.976 4.213-4.515 8.146-7.188 11.32-2.697 3.201-5.427 5.507-7.742 6.618l1.732 3.606c3.029-1.454 6.189-4.228 9.069-7.647 2.904-3.448 5.63-7.677 7.751-12.198 4.172-8.895 6.278-19.562 1.778-27.564zm-116.151-9.784c6.844-2.465 17.08-3.959 28.846-4.549 11.724-.588 24.812-.272 37.272.808 12.468 1.08 24.244 2.918 33.36 5.35 4.562 1.217 8.396 2.567 11.297 4.012 2.968 1.478 4.676 2.918 5.376 4.163l3.486-1.961c-1.304-2.319-3.914-4.206-7.079-5.783-3.231-1.609-7.346-3.041-12.049-4.296-9.414-2.512-21.437-4.378-34.046-5.47-12.618-1.094-25.889-1.417-37.817-.818-11.886.596-22.594 2.113-30.002 4.781zm282.328-.089c4.31 2.132 6.652 5.532 7.665 9.693 1.033 4.243.684 9.312-.573 14.564-2.52 10.533-8.502 21.062-12.617 25.644l2.976 2.673c4.59-5.112 10.867-16.251 13.532-27.386 1.335-5.582 1.809-11.348.568-16.442-1.26-5.176-4.29-9.617-9.778-12.331zm-115.942 9.873c.7-1.245 2.408-2.685 5.376-4.163 2.901-1.445 6.734-2.795 11.297-4.012 9.116-2.432 20.891-4.27 33.36-5.35 12.46-1.08 25.547-1.396 37.271-.808 11.767.59 22.003 2.084 28.847 4.549l1.355-3.763c-7.407-2.668-18.116-4.185-30.001-4.781-11.928-.599-25.199-.276-37.817.818-12.61 1.092-24.632 2.958-34.046 5.47-4.703 1.255-8.818 2.687-12.05 4.296-3.165 1.577-5.775 3.464-7.079 5.783zm16.843 41.842c-2.315-1.111-5.044-3.417-7.741-6.618-2.674-3.174-5.213-7.107-7.189-11.32-4.02-8.57-5.43-17.651-1.913-23.904l-3.487-1.961c-4.499 8.002-2.393 18.669 1.779 27.564 2.12 4.521 4.847 8.75 7.75 12.198 2.881 3.419 6.04 6.193 9.07 7.647zm93.574-1.814c-.683.762-2.345 1.663-5.252 2.507-2.804.814-6.434 1.484-10.665 2.012-8.453 1.055-19.08 1.517-29.815 1.517-10.728 0-21.509-.461-30.257-1.239-4.375-.389-8.219-.856-11.281-1.378-3.128-.534-5.245-1.096-6.304-1.605l-1.731 3.606c1.613.775 4.225 1.406 7.363 1.942 3.203.546 7.16 1.024 11.599 1.419 8.881.79 19.781 1.255 30.611 1.255 10.823 0 21.63-.464 30.31-1.547 4.335-.542 8.196-1.244 11.285-2.14 2.986-.867 5.621-2.014 7.113-3.676z"/><path d="m488 509-195 32-4 9 199-20z" style="fill-rule:evenodd;clip-rule:evenodd;stroke:#000;stroke-width:4;stroke-linecap:round;stroke-linejoin:round"/><path d="m304.306 565.52c32.937 20.231 61.205 107.192 61.205 107.192s-.259-70.904 27.489-112.712c27.749-41.808 67.001-77 67.001-77s-7-16-15.561-31.05c-8.56-15.051-44.541-42.66-44.541-42.66s182.635 56.941 242.713 45.067c60.078-11.873 107.009-34.055 137.903-89.408 30.894-55.354 36.075-151.701 36.075-151.701s-83.176 53.218-120.758 47.246c-37.582-5.971-56.064-22.314-75.88-52.586-7.691-11.749-26.792-45.438-26.792-45.438s-6.741 22.896-6.343 29.609c1.388 23.422 6.799 26.98-1.136 22.814-16.463-8.643-33.951-17.752-52.357-27.486-14.27-7.546-35.694-36.624-35.694-36.624s-6.595 20.106-3.982 34.672c1.644 9.16 17.173 38.852 17.173 38.852s-25.169-24.836-68.727-25.362c-25.239-.304-61.145 11.872-108.117 23.66-7.072 1.775-22.153-.697-22.153-.697l42.443 23.48s-79.733 25.804-98.478 51.717c-6.389 8.831-15.388 20.76-23.007 37.801-7.285 16.294-21.266 65.43-21.266 65.43s8.284-23.15 26.363-39.348c18.079-16.199 57.655-18.972 57.655-18.972s-54.317 32.808-63.425 68.478c-9.107 35.671 19.226 162.194 19.226 162.194s20.033-27.399 52.971-7.168z" style="fill-rule:evenodd;clip-rule:evenodd;stroke:#000;stroke-width:12;stroke-linecap:round;stroke-linejoin:round"/></g></g></svg>