<svg width="645" height="694" viewBox="0 0 645 694" fill="none" xmlns="http://www.w3.org/2000/svg">
<g filter="url(#filter0_d_11784_463)">
<rect x="62.5625" y="52.8257" width="520.876" height="587.916" rx="8.03349" fill="white"/>
<rect x="63.232" y="53.4951" width="519.537" height="586.577" rx="7.36403" stroke="url(#paint0_linear_11784_463)" stroke-width="1.33892"/>
</g>
<rect x="84.4746" y="75.7598" width="471.996" height="24.4399" fill="#F2F2F2"/>
<rect x="84.4746" y="112.419" width="471.996" height="24.4399" fill="#F2F2F2"/>
<rect x="84.4746" y="149.079" width="471.996" height="24.4399" fill="#F2F2F2"/>
<rect x="84.4746" y="520.261" width="471.996" height="24.4399" fill="#F2F2F2"/>
<rect x="84.4746" y="556.92" width="471.996" height="24.4399" fill="#F2F2F2"/>
<rect x="84.4746" y="593.58" width="471.996" height="24.4399" fill="#F2F2F2"/>
<rect x="84.4746" y="190.322" width="471.996" height="311.609" fill="#F2F2F2"/>
<rect x="114.496" y="219.344" width="93.1772" height="258.147" fill="white"/>
<rect x="433.744" y="219.344" width="93.1772" height="258.147" fill="white"/>
<rect x="233.641" y="219.344" width="177.189" height="258.147" fill="white"/>
<rect x="253.498" y="237.674" width="139.002" height="29.0224" fill="#F2F2F2"/>
<rect x="253.498" y="430.138" width="139.002" height="29.0224" fill="#F2F2F2"/>
<path opacity="0.6" d="M302.511 92.4087C303.142 92.4087 303.655 92.2096 304.049 91.8113C304.442 91.413 304.639 90.8962 304.639 90.2607C304.639 89.6387 304.438 89.1263 304.035 88.7235C303.637 88.3208 303.129 88.1194 302.511 88.1194C301.889 88.1194 301.379 88.3208 300.981 88.7235C300.587 89.1218 300.39 89.6342 300.39 90.2607C300.39 90.8872 300.587 91.4018 300.981 91.8046C301.379 92.2074 301.889 92.4087 302.511 92.4087ZM300.417 88.1059C300.668 87.7927 300.981 87.5533 301.357 87.3877C301.733 87.2221 302.158 87.1393 302.632 87.1393C303.532 87.1393 304.281 87.4436 304.881 88.0522C305.481 88.6564 305.78 89.406 305.78 90.301C305.78 91.1826 305.472 91.9299 304.854 92.543C304.241 93.1561 303.491 93.4626 302.605 93.4626C302.135 93.4626 301.726 93.3798 301.377 93.2143C301.028 93.0487 300.741 92.7981 300.518 92.4624V92.9995C300.518 93.1203 300.495 93.2075 300.451 93.2612C300.41 93.3149 300.341 93.3418 300.242 93.3418H299.014C298.84 93.3418 298.71 93.3015 298.625 93.221C298.54 93.1404 298.497 93.0196 298.497 92.8585C298.497 92.6795 298.549 92.5587 298.652 92.496C298.754 92.4289 298.958 92.3953 299.262 92.3953H299.403V85.5216H299.276C298.972 85.5216 298.763 85.4858 298.652 85.4142C298.54 85.3426 298.484 85.2173 298.484 85.0383C298.484 84.8772 298.528 84.7564 298.618 84.6758C298.708 84.5952 298.84 84.555 299.014 84.555H300.034C300.169 84.555 300.265 84.5773 300.323 84.6221C300.386 84.6668 300.417 84.7362 300.417 84.8302V88.1059ZM311.896 90.3748C311.649 90.2943 311.41 90.2361 311.177 90.2003C310.949 90.16 310.721 90.1399 310.493 90.1399C309.803 90.1399 309.26 90.2562 308.861 90.4889C308.463 90.7216 308.264 91.0349 308.264 91.4287C308.264 91.733 308.387 91.9836 308.633 92.1805C308.884 92.3774 309.202 92.4759 309.586 92.4759C310.155 92.4759 310.681 92.3282 311.164 92.0328C311.652 91.733 311.896 91.422 311.896 91.0998V90.3748ZM311.949 92.4893C311.582 92.8204 311.182 93.0733 310.748 93.2478C310.318 93.4223 309.875 93.5096 309.419 93.5096C308.752 93.5096 308.213 93.3239 307.801 92.9525C307.394 92.581 307.19 92.0977 307.19 91.5025C307.19 90.7955 307.461 90.2473 308.002 89.8579C308.548 89.4686 309.313 89.2739 310.298 89.2739C310.558 89.2739 310.819 89.2918 311.083 89.3276C311.347 89.359 311.618 89.4104 311.896 89.482V89.435C311.896 88.9204 311.773 88.54 311.526 88.2939C311.28 88.0478 310.898 87.9247 310.379 87.9247C310.029 87.9247 309.64 88.0187 309.211 88.2066C308.781 88.3946 308.497 88.4886 308.358 88.4886C308.228 88.4886 308.121 88.4371 308.036 88.3342C307.951 88.2268 307.908 88.0903 307.908 87.9247C307.908 87.6607 308.154 87.4369 308.647 87.2534C309.143 87.07 309.777 86.9782 310.546 86.9782C311.334 86.9782 311.929 87.1796 312.332 87.5824C312.735 87.9806 312.936 88.5714 312.936 89.3545V92.3953H313.265C313.583 92.3953 313.795 92.4289 313.903 92.496C314.01 92.5631 314.064 92.684 314.064 92.8585C314.064 93.0196 314.019 93.1404 313.929 93.221C313.84 93.3015 313.706 93.3418 313.527 93.3418H312.473C312.348 93.3418 312.245 93.3038 312.164 93.2277C312.084 93.1516 312.03 93.042 312.003 92.8988L311.949 92.4893ZM316.165 92.3953V88.0925H316.037C315.733 88.0925 315.523 88.0567 315.406 87.9851C315.294 87.9135 315.238 87.7882 315.238 87.6092C315.238 87.4436 315.285 87.325 315.379 87.2534C315.473 87.1774 315.626 87.1393 315.836 87.1393H316.151H316.796C316.917 87.1393 317.011 87.1639 317.078 87.2132C317.145 87.2624 317.178 87.3295 317.178 87.4145V87.871C317.505 87.5667 317.827 87.3429 318.145 87.1997C318.467 87.0521 318.801 86.9782 319.145 86.9782C319.821 86.9782 320.351 87.1886 320.736 87.6092C321.125 88.0299 321.32 88.6116 321.32 89.3545V92.3953H321.636C321.859 92.3953 322.02 92.4334 322.119 92.5094C322.217 92.581 322.267 92.6974 322.267 92.8585C322.267 93.033 322.213 93.1583 322.105 93.2344C322.003 93.306 321.817 93.3418 321.548 93.3418H320.065C319.778 93.3418 319.595 93.3082 319.514 93.2411C319.434 93.174 319.394 93.0464 319.394 92.8585C319.394 92.684 319.441 92.5631 319.535 92.496C319.629 92.4289 319.805 92.3953 320.065 92.3953H320.3V89.6029C320.3 89.0793 320.181 88.681 319.944 88.408C319.707 88.1306 319.362 87.9918 318.91 87.9918C318.454 87.9918 318.051 88.1462 317.702 88.455C317.353 88.7638 317.178 89.1464 317.178 89.6029V92.3953H317.413C317.682 92.3953 317.863 92.4289 317.957 92.496C318.051 92.5631 318.098 92.684 318.098 92.8585C318.098 93.0464 318.058 93.174 317.977 93.2411C317.897 93.3082 317.7 93.3418 317.386 93.3418H316.165H315.802C315.619 93.3418 315.48 93.3038 315.386 93.2277C315.297 93.1471 315.252 93.0241 315.252 92.8585C315.252 92.6795 315.303 92.5587 315.406 92.496C315.514 92.4289 315.72 92.3953 316.024 92.3953H316.165ZM324.421 92.3953V88.0925H324.294C323.989 88.0925 323.779 88.0567 323.663 87.9851C323.551 87.9135 323.495 87.7882 323.495 87.6092C323.495 87.4436 323.542 87.325 323.636 87.2534C323.73 87.1774 323.882 87.1393 324.092 87.1393H324.408H325.052C325.173 87.1393 325.267 87.1639 325.334 87.2132C325.401 87.2624 325.435 87.3295 325.435 87.4145V87.871C325.762 87.5667 326.084 87.3429 326.402 87.1997C326.724 87.0521 327.057 86.9782 327.402 86.9782C328.077 86.9782 328.608 87.1886 328.993 87.6092C329.382 88.0299 329.577 88.6116 329.577 89.3545V92.3953H329.892C330.116 92.3953 330.277 92.4334 330.375 92.5094C330.474 92.581 330.523 92.6974 330.523 92.8585C330.523 93.033 330.469 93.1583 330.362 93.2344C330.259 93.306 330.073 93.3418 329.805 93.3418H328.321C328.035 93.3418 327.851 93.3082 327.771 93.2411C327.69 93.174 327.65 93.0464 327.65 92.8585C327.65 92.684 327.697 92.5631 327.791 92.496C327.885 92.4289 328.062 92.3953 328.321 92.3953H328.556V89.6029C328.556 89.0793 328.438 88.681 328.201 88.408C327.963 88.1306 327.619 87.9918 327.167 87.9918C326.71 87.9918 326.308 88.1462 325.959 88.455C325.609 88.7638 325.435 89.1464 325.435 89.6029V92.3953H325.67C325.938 92.3953 326.12 92.4289 326.214 92.496C326.308 92.5631 326.355 92.684 326.355 92.8585C326.355 93.0464 326.314 93.174 326.234 93.2411C326.153 93.3082 325.956 93.3418 325.643 93.3418H324.421H324.059C323.875 93.3418 323.737 93.3038 323.643 93.2277C323.553 93.1471 323.508 93.0241 323.508 92.8585C323.508 92.6795 323.56 92.5587 323.663 92.496C323.77 92.4289 323.976 92.3953 324.28 92.3953H324.421ZM332.906 90.5359C332.942 91.1803 333.159 91.6793 333.557 92.0328C333.96 92.3819 334.508 92.5564 335.202 92.5564C335.725 92.5564 336.296 92.4177 336.914 92.1402C337.531 91.8583 337.905 91.7173 338.035 91.7173C338.169 91.7173 338.281 91.7599 338.37 91.8449C338.46 91.9299 338.504 92.0351 338.504 92.1604C338.504 92.2902 338.457 92.4087 338.363 92.5161C338.269 92.6235 338.12 92.7287 337.914 92.8316C337.466 93.0509 337.003 93.2187 336.524 93.3351C336.05 93.4514 335.578 93.5096 335.108 93.5096C334.088 93.5096 333.271 93.2165 332.658 92.6303C332.045 92.0395 331.738 91.2586 331.738 90.2876C331.738 89.2986 332.063 88.4975 332.711 87.8844C333.36 87.2713 334.206 86.9648 335.249 86.9648C336.193 86.9648 336.976 87.2512 337.598 87.824C338.22 88.3968 338.531 89.0905 338.531 89.9049C338.531 90.1555 338.478 90.3234 338.37 90.4084C338.267 90.4934 337.983 90.5359 337.518 90.5359H337.417H332.906ZM332.94 89.6566H337.31C337.242 89.124 337.019 88.6967 336.638 88.3745C336.262 88.0478 335.799 87.8844 335.249 87.8844C334.654 87.8844 334.152 88.0411 333.745 88.3543C333.338 88.6676 333.069 89.1017 332.94 89.6566ZM342.774 92.3953H345.002C345.177 92.3953 345.304 92.4334 345.385 92.5094C345.47 92.581 345.512 92.6974 345.512 92.8585C345.512 93.042 345.472 93.1695 345.392 93.2411C345.315 93.3082 345.172 93.3418 344.962 93.3418H340.572C340.397 93.3418 340.265 93.3015 340.176 93.221C340.086 93.1404 340.042 93.0196 340.042 92.8585C340.042 92.7019 340.086 92.5855 340.176 92.5094C340.27 92.4334 340.413 92.3953 340.605 92.3953H341.773V88.0925H341.317C340.883 88.0925 340.612 88.059 340.505 87.9918C340.397 87.9202 340.344 87.7927 340.344 87.6092C340.344 87.4526 340.386 87.3362 340.471 87.2602C340.561 87.1796 340.695 87.1393 340.874 87.1393H342.404C342.525 87.1393 342.617 87.1639 342.68 87.2132C342.742 87.2579 342.774 87.325 342.774 87.4145V88.5557C343.199 88.0232 343.642 87.6271 344.103 87.3676C344.564 87.108 345.06 86.9782 345.593 86.9782C345.991 86.9782 346.313 87.0588 346.56 87.2199C346.806 87.381 346.929 87.5891 346.929 87.8442C346.929 88.0097 346.866 88.1574 346.741 88.2872C346.62 88.4125 346.486 88.4751 346.338 88.4751C346.235 88.4751 346.061 88.408 345.814 88.2738C345.573 88.135 345.356 88.0657 345.163 88.0657C344.814 88.0657 344.445 88.191 344.056 88.4416C343.671 88.6877 343.244 89.0793 342.774 89.6163V92.3953Z" fill="black"/>
<path d="M301.068 122.95C301.225 122.677 301.446 122.469 301.733 122.326C302.019 122.183 302.361 122.111 302.76 122.111C303.467 122.111 304.01 122.317 304.391 122.729C304.776 123.14 304.968 123.731 304.968 124.501V127.005H305.082C305.319 127.005 305.498 127.067 305.619 127.192C305.745 127.313 305.807 127.492 305.807 127.73C305.807 127.994 305.742 128.184 305.613 128.3C305.487 128.416 305.272 128.475 304.968 128.475H303.303C303.004 128.475 302.789 128.416 302.659 128.3C302.534 128.184 302.471 127.994 302.471 127.73C302.471 127.488 302.531 127.307 302.652 127.186C302.773 127.065 302.954 127.005 303.196 127.005H303.303V125.051C303.303 124.478 303.232 124.082 303.089 123.863C302.95 123.639 302.71 123.527 302.37 123.527C302.012 123.527 301.706 123.673 301.451 123.964C301.196 124.25 301.068 124.613 301.068 125.051V127.005H301.176C301.417 127.005 301.598 127.067 301.719 127.192C301.845 127.313 301.907 127.492 301.907 127.73C301.907 127.994 301.842 128.184 301.713 128.3C301.583 128.416 301.368 128.475 301.068 128.475H299.403C299.095 128.475 298.878 128.419 298.752 128.307C298.627 128.19 298.564 127.998 298.564 127.73C298.564 127.492 298.625 127.313 298.746 127.192C298.871 127.067 299.052 127.005 299.289 127.005H299.403V121.178H299.289C299.052 121.178 298.869 121.115 298.739 120.99C298.614 120.86 298.551 120.675 298.551 120.433C298.551 120.169 298.616 119.979 298.746 119.862C298.875 119.746 299.095 119.688 299.403 119.688H300.665C300.818 119.688 300.923 119.719 300.981 119.782C301.039 119.844 301.068 119.961 301.068 120.131V122.95ZM308.58 125.769C308.696 126.266 308.92 126.638 309.251 126.884C309.586 127.13 310.032 127.253 310.587 127.253C311.142 127.253 311.69 127.119 312.231 126.85C312.773 126.577 313.099 126.441 313.211 126.441C313.377 126.441 313.511 126.503 313.614 126.629C313.721 126.749 313.775 126.906 313.775 127.099C313.775 127.519 313.464 127.882 312.842 128.186C312.22 128.49 311.45 128.642 310.533 128.642C309.45 128.642 308.568 128.338 307.888 127.73C307.212 127.121 306.875 126.338 306.875 125.38C306.875 124.427 307.212 123.646 307.888 123.037C308.568 122.429 309.45 122.124 310.533 122.124C311.5 122.124 312.301 122.411 312.936 122.984C313.571 123.552 313.889 124.25 313.889 125.078C313.889 125.342 313.824 125.523 313.695 125.622C313.569 125.72 313.307 125.769 312.909 125.769H308.58ZM312.198 124.722C312.122 124.306 311.925 123.984 311.607 123.756C311.294 123.527 310.884 123.413 310.379 123.413C309.891 123.413 309.497 123.523 309.197 123.742C308.902 123.957 308.696 124.284 308.58 124.722H312.198ZM321.401 127.005H321.508C321.75 127.005 321.933 127.069 322.058 127.199C322.188 127.325 322.253 127.506 322.253 127.743C322.253 128.002 322.186 128.19 322.052 128.307C321.922 128.419 321.705 128.475 321.401 128.475H320.77C320.546 128.475 320.378 128.432 320.266 128.347C320.159 128.262 320.069 128.108 319.998 127.884C319.626 128.13 319.232 128.318 318.816 128.448C318.4 128.578 317.979 128.642 317.554 128.642C316.834 128.642 316.268 128.463 315.856 128.105C315.444 127.747 315.238 127.257 315.238 126.635C315.238 125.964 315.505 125.443 316.037 125.071C316.57 124.7 317.317 124.514 318.279 124.514C318.494 124.514 318.722 124.525 318.964 124.548C319.206 124.57 319.476 124.606 319.776 124.655V124.528C319.776 124.125 319.678 123.818 319.481 123.608C319.288 123.398 319.002 123.292 318.622 123.292C318.326 123.292 317.948 123.402 317.487 123.621C317.031 123.841 316.695 123.95 316.48 123.95C316.27 123.95 316.1 123.89 315.97 123.769C315.84 123.644 315.775 123.48 315.775 123.279C315.775 122.917 316.039 122.63 316.568 122.42C317.1 122.205 317.823 122.098 318.736 122.098C319.689 122.098 320.371 122.281 320.783 122.648C321.195 123.015 321.401 123.637 321.401 124.514V127.005ZM319.776 125.709C319.552 125.66 319.347 125.624 319.159 125.602C318.971 125.575 318.796 125.561 318.635 125.561C318.143 125.561 317.756 125.644 317.474 125.81C317.196 125.975 317.058 126.204 317.058 126.494C317.058 126.754 317.147 126.953 317.326 127.092C317.505 127.226 317.762 127.293 318.098 127.293C318.407 127.293 318.698 127.248 318.971 127.159C319.244 127.069 319.512 126.931 319.776 126.743V125.709ZM329.778 127.005H329.892C330.134 127.005 330.315 127.067 330.436 127.192C330.557 127.313 330.617 127.492 330.617 127.73C330.617 127.994 330.552 128.184 330.422 128.3C330.297 128.416 330.082 128.475 329.778 128.475H328.751C328.621 128.475 328.521 128.45 328.449 128.401C328.382 128.347 328.348 128.275 328.348 128.186V127.716C328.129 128.016 327.847 128.246 327.502 128.407C327.158 128.564 326.771 128.642 326.341 128.642C325.464 128.642 324.73 128.345 324.139 127.75C323.549 127.15 323.253 126.403 323.253 125.508C323.253 124.577 323.551 123.805 324.146 123.192C324.746 122.579 325.507 122.272 326.428 122.272C326.746 122.272 327.055 122.326 327.355 122.433C327.659 122.536 327.937 122.684 328.187 122.876V121.178H327.294C326.986 121.178 326.766 121.12 326.636 121.003C326.507 120.883 326.442 120.692 326.442 120.433C326.442 120.169 326.507 119.979 326.636 119.862C326.766 119.746 326.986 119.688 327.294 119.688H329.382C329.534 119.688 329.637 119.719 329.691 119.782C329.749 119.844 329.778 119.961 329.778 120.131V127.005ZM326.63 123.702C326.191 123.702 325.827 123.868 325.536 124.199C325.249 124.525 325.106 124.942 325.106 125.447C325.106 125.966 325.249 126.391 325.536 126.723C325.822 127.049 326.187 127.213 326.63 127.213C327.073 127.213 327.438 127.047 327.724 126.716C328.015 126.385 328.16 125.962 328.16 125.447C328.16 124.946 328.015 124.53 327.724 124.199C327.433 123.868 327.068 123.702 326.63 123.702ZM333.349 125.769C333.465 126.266 333.689 126.638 334.02 126.884C334.356 127.13 334.801 127.253 335.356 127.253C335.911 127.253 336.459 127.119 337.001 126.85C337.542 126.577 337.869 126.441 337.981 126.441C338.146 126.441 338.281 126.503 338.384 126.629C338.491 126.749 338.545 126.906 338.545 127.099C338.545 127.519 338.234 127.882 337.612 128.186C336.99 128.49 336.22 128.642 335.302 128.642C334.22 128.642 333.338 128.338 332.658 127.73C331.982 127.121 331.644 126.338 331.644 125.38C331.644 124.427 331.982 123.646 332.658 123.037C333.338 122.429 334.22 122.124 335.302 122.124C336.269 122.124 337.07 122.411 337.706 122.984C338.341 123.552 338.659 124.25 338.659 125.078C338.659 125.342 338.594 125.523 338.464 125.622C338.339 125.72 338.077 125.769 337.679 125.769H333.349ZM336.967 124.722C336.891 124.306 336.694 123.984 336.377 123.756C336.063 123.527 335.654 123.413 335.148 123.413C334.66 123.413 334.267 123.523 333.967 123.742C333.671 123.957 333.465 124.284 333.349 124.722H336.967ZM343.129 124.83V127.005H344.714C345.018 127.005 345.233 127.06 345.358 127.172C345.488 127.284 345.553 127.47 345.553 127.73C345.553 127.994 345.488 128.184 345.358 128.3C345.233 128.416 345.018 128.475 344.714 128.475H340.961C340.652 128.475 340.433 128.416 340.303 128.3C340.174 128.184 340.109 127.994 340.109 127.73C340.109 127.47 340.171 127.284 340.297 127.172C340.426 127.06 340.648 127.005 340.961 127.005H341.471V123.742H341.183C340.878 123.742 340.661 123.686 340.532 123.574C340.406 123.458 340.344 123.268 340.344 123.004C340.344 122.74 340.404 122.552 340.525 122.44C340.65 122.328 340.869 122.272 341.183 122.272H342.613C342.733 122.272 342.827 122.299 342.894 122.353C342.962 122.402 342.995 122.471 342.995 122.561V123.554C343.483 123.031 343.937 122.657 344.358 122.433C344.783 122.209 345.239 122.098 345.727 122.098C346.17 122.098 346.522 122.198 346.781 122.4C347.041 122.597 347.17 122.863 347.17 123.198C347.17 123.458 347.081 123.673 346.902 123.843C346.723 124.008 346.492 124.091 346.211 124.091C346.009 124.091 345.77 124.017 345.492 123.87C345.219 123.722 345.029 123.648 344.922 123.648C344.707 123.648 344.454 123.744 344.163 123.937C343.872 124.129 343.528 124.427 343.129 124.83Z" fill="black"/>
<path d="M146.156 255.314H146.264C146.506 255.314 146.689 255.379 146.814 255.509C146.944 255.634 147.009 255.815 147.009 256.053C147.009 256.312 146.942 256.5 146.808 256.616C146.678 256.728 146.461 256.784 146.156 256.784H145.525C145.302 256.784 145.134 256.742 145.022 256.657C144.915 256.572 144.825 256.417 144.754 256.193C144.382 256.44 143.988 256.628 143.572 256.757C143.156 256.887 142.735 256.952 142.31 256.952C141.59 256.952 141.024 256.773 140.612 256.415C140.2 256.057 139.994 255.567 139.994 254.945C139.994 254.274 140.261 253.752 140.793 253.381C141.326 253.009 142.073 252.824 143.035 252.824C143.25 252.824 143.478 252.835 143.72 252.857C143.961 252.88 144.232 252.915 144.532 252.965V252.837C144.532 252.434 144.434 252.128 144.237 251.918C144.044 251.707 143.758 251.602 143.377 251.602C143.082 251.602 142.704 251.712 142.243 251.931C141.787 252.15 141.451 252.26 141.236 252.26C141.026 252.26 140.856 252.199 140.726 252.079C140.596 251.953 140.531 251.79 140.531 251.589C140.531 251.226 140.795 250.94 141.323 250.729C141.856 250.515 142.579 250.407 143.492 250.407C144.445 250.407 145.127 250.591 145.539 250.958C145.951 251.325 146.156 251.947 146.156 252.824V255.314ZM144.532 254.019C144.308 253.969 144.102 253.934 143.914 253.911C143.727 253.884 143.552 253.871 143.391 253.871C142.899 253.871 142.512 253.954 142.23 254.119C141.952 254.285 141.813 254.513 141.813 254.804C141.813 255.064 141.903 255.263 142.082 255.401C142.261 255.536 142.518 255.603 142.854 255.603C143.163 255.603 143.454 255.558 143.727 255.469C143.999 255.379 144.268 255.24 144.532 255.052V254.019ZM149.902 256.69C149.786 256.78 149.665 256.847 149.54 256.892C149.419 256.941 149.294 256.965 149.164 256.965C148.971 256.965 148.835 256.914 148.754 256.811C148.678 256.708 148.64 256.516 148.64 256.234V255.341C148.64 255.046 148.689 254.838 148.788 254.717C148.886 254.591 149.056 254.529 149.298 254.529C149.562 254.529 149.777 254.656 149.942 254.911C150.041 255.05 150.124 255.153 150.191 255.22C150.41 255.417 150.665 255.565 150.956 255.663C151.247 255.762 151.578 255.811 151.949 255.811C152.272 255.811 152.529 255.748 152.721 255.623C152.914 255.498 153.01 255.334 153.01 255.133C153.01 254.77 152.493 254.52 151.459 254.381C151.231 254.354 151.052 254.33 150.922 254.307C150.144 254.2 149.564 253.989 149.184 253.676C148.803 253.359 148.613 252.933 148.613 252.401C148.613 251.77 148.842 251.282 149.298 250.937C149.754 250.593 150.406 250.421 151.251 250.421C151.542 250.421 151.84 250.445 152.144 250.494C152.453 250.539 152.768 250.611 153.091 250.709C153.185 250.597 153.283 250.515 153.386 250.461C153.493 250.407 153.612 250.38 153.742 250.38C153.925 250.38 154.064 250.439 154.158 250.555C154.256 250.667 154.306 250.837 154.306 251.065V251.891C154.306 252.083 154.256 252.233 154.158 252.34C154.059 252.443 153.921 252.495 153.742 252.495C153.558 252.495 153.243 252.336 152.795 252.018C152.352 251.696 151.907 251.535 151.459 251.535C151.11 251.535 150.84 251.593 150.647 251.709C150.455 251.821 150.359 251.978 150.359 252.179C150.359 252.493 150.761 252.703 151.567 252.81C151.8 252.837 151.983 252.86 152.117 252.877C153.129 253.025 153.822 253.247 154.198 253.542C154.579 253.833 154.769 254.267 154.769 254.844C154.769 255.52 154.518 256.044 154.017 256.415C153.52 256.782 152.813 256.965 151.896 256.965C151.538 256.965 151.193 256.941 150.862 256.892C150.531 256.847 150.211 256.78 149.902 256.69ZM160.871 255.314H162.314C162.623 255.314 162.842 255.37 162.972 255.482C163.101 255.594 163.166 255.78 163.166 256.039C163.166 256.303 163.099 256.493 162.965 256.61C162.835 256.726 162.618 256.784 162.314 256.784H157.776C157.472 256.784 157.252 256.726 157.118 256.61C156.988 256.493 156.924 256.303 156.924 256.039C156.924 255.78 156.986 255.594 157.111 255.482C157.241 255.37 157.463 255.314 157.776 255.314H159.219V252.052H158.461C158.161 252.052 157.946 251.996 157.816 251.884C157.687 251.768 157.622 251.577 157.622 251.313C157.622 251.049 157.684 250.861 157.81 250.75C157.935 250.638 158.152 250.582 158.461 250.582H160.481C160.607 250.582 160.703 250.609 160.77 250.662C160.837 250.711 160.871 250.781 160.871 250.87V255.314ZM159.904 247.548C160.231 247.548 160.448 247.61 160.555 247.736C160.662 247.861 160.716 248.161 160.716 248.635C160.716 249.092 160.667 249.376 160.568 249.488C160.475 249.595 160.249 249.649 159.891 249.649C159.541 249.649 159.315 249.597 159.213 249.494C159.114 249.391 159.065 249.185 159.065 248.877C159.065 248.304 159.116 247.939 159.219 247.783C159.322 247.626 159.55 247.548 159.904 247.548ZM171.047 255.314H171.161C171.403 255.314 171.584 255.377 171.705 255.502C171.826 255.623 171.886 255.802 171.886 256.039C171.886 256.303 171.821 256.493 171.691 256.61C171.566 256.726 171.351 256.784 171.047 256.784H170.02C169.89 256.784 169.789 256.76 169.718 256.71C169.651 256.657 169.617 256.585 169.617 256.496V256.026C169.398 256.325 169.116 256.556 168.771 256.717C168.427 256.874 168.04 256.952 167.61 256.952C166.733 256.952 165.999 256.654 165.408 256.059C164.818 255.46 164.522 254.712 164.522 253.817C164.522 252.886 164.82 252.114 165.415 251.501C166.015 250.888 166.775 250.582 167.697 250.582C168.015 250.582 168.324 250.635 168.624 250.743C168.928 250.846 169.205 250.993 169.456 251.186V249.488H168.563C168.254 249.488 168.035 249.429 167.905 249.313C167.776 249.192 167.711 249.002 167.711 248.742C167.711 248.478 167.776 248.288 167.905 248.172C168.035 248.056 168.254 247.997 168.563 247.997H170.651C170.803 247.997 170.906 248.029 170.96 248.091C171.018 248.154 171.047 248.27 171.047 248.44V255.314ZM167.899 252.012C167.46 252.012 167.095 252.177 166.805 252.508C166.518 252.835 166.375 253.251 166.375 253.757C166.375 254.276 166.518 254.701 166.805 255.032C167.091 255.359 167.456 255.522 167.899 255.522C168.342 255.522 168.706 255.357 168.993 255.025C169.284 254.694 169.429 254.271 169.429 253.757C169.429 253.256 169.284 252.839 168.993 252.508C168.702 252.177 168.337 252.012 167.899 252.012ZM174.618 254.079C174.734 254.576 174.958 254.947 175.289 255.193C175.625 255.439 176.07 255.562 176.625 255.562C177.18 255.562 177.728 255.428 178.27 255.16C178.811 254.887 179.138 254.75 179.25 254.75C179.415 254.75 179.55 254.813 179.652 254.938C179.76 255.059 179.814 255.216 179.814 255.408C179.814 255.829 179.503 256.191 178.881 256.496C178.258 256.8 177.489 256.952 176.571 256.952C175.488 256.952 174.607 256.648 173.927 256.039C173.251 255.43 172.913 254.647 172.913 253.69C172.913 252.736 173.251 251.956 173.927 251.347C174.607 250.738 175.488 250.434 176.571 250.434C177.538 250.434 178.339 250.72 178.975 251.293C179.61 251.862 179.928 252.56 179.928 253.388C179.928 253.652 179.863 253.833 179.733 253.931C179.608 254.03 179.346 254.079 178.948 254.079H174.618ZM178.236 253.032C178.16 252.616 177.963 252.293 177.645 252.065C177.332 251.837 176.923 251.723 176.417 251.723C175.929 251.723 175.535 251.833 175.236 252.052C174.94 252.267 174.734 252.593 174.618 253.032H178.236Z" fill="black"/>
<path opacity="0.6" d="M459.843 255.851C460.474 255.851 460.987 255.652 461.381 255.254C461.774 254.855 461.971 254.339 461.971 253.703C461.971 253.081 461.77 252.569 461.367 252.166C460.969 251.763 460.461 251.562 459.843 251.562C459.221 251.562 458.711 251.763 458.313 252.166C457.919 252.564 457.722 253.077 457.722 253.703C457.722 254.33 457.919 254.844 458.313 255.247C458.711 255.65 459.221 255.851 459.843 255.851ZM457.749 251.548C458 251.235 458.313 250.996 458.689 250.83C459.065 250.665 459.49 250.582 459.964 250.582C460.864 250.582 461.613 250.886 462.213 251.495C462.813 252.099 463.112 252.848 463.112 253.743C463.112 254.625 462.804 255.372 462.186 255.985C461.573 256.598 460.823 256.905 459.937 256.905C459.467 256.905 459.058 256.822 458.709 256.657C458.36 256.491 458.073 256.24 457.85 255.905V256.442C457.85 256.563 457.827 256.65 457.783 256.704C457.742 256.757 457.673 256.784 457.574 256.784H456.346C456.172 256.784 456.042 256.744 455.957 256.663C455.872 256.583 455.829 256.462 455.829 256.301C455.829 256.122 455.881 256.001 455.984 255.938C456.087 255.871 456.29 255.838 456.594 255.838H456.735V248.964H456.608C456.304 248.964 456.095 248.928 455.984 248.857C455.872 248.785 455.816 248.66 455.816 248.481C455.816 248.32 455.861 248.199 455.95 248.118C456.04 248.038 456.172 247.997 456.346 247.997H457.366C457.501 247.997 457.597 248.02 457.655 248.064C457.718 248.109 457.749 248.179 457.749 248.273V251.548ZM465.469 253.978C465.504 254.623 465.721 255.122 466.12 255.475C466.522 255.824 467.071 255.999 467.764 255.999C468.288 255.999 468.858 255.86 469.476 255.583C470.094 255.301 470.467 255.16 470.597 255.16C470.731 255.16 470.843 255.202 470.933 255.287C471.022 255.372 471.067 255.477 471.067 255.603C471.067 255.733 471.02 255.851 470.926 255.959C470.832 256.066 470.682 256.171 470.476 256.274C470.029 256.493 469.565 256.661 469.087 256.777C468.612 256.894 468.14 256.952 467.67 256.952C466.65 256.952 465.833 256.659 465.22 256.073C464.607 255.482 464.301 254.701 464.301 253.73C464.301 252.741 464.625 251.94 465.274 251.327C465.923 250.714 466.769 250.407 467.811 250.407C468.755 250.407 469.539 250.694 470.161 251.266C470.783 251.839 471.094 252.533 471.094 253.347C471.094 253.598 471.04 253.766 470.933 253.851C470.83 253.936 470.546 253.978 470.08 253.978H469.979H465.469ZM465.502 253.099H469.872C469.805 252.566 469.581 252.139 469.201 251.817C468.825 251.49 468.362 251.327 467.811 251.327C467.216 251.327 466.715 251.483 466.308 251.797C465.9 252.11 465.632 252.544 465.502 253.099ZM473.067 256.301V255.106C473.067 254.909 473.103 254.768 473.175 254.683C473.251 254.598 473.372 254.556 473.537 254.556C473.721 254.556 473.866 254.681 473.973 254.931C474.045 255.084 474.11 255.198 474.168 255.274C474.356 255.515 474.634 255.71 475 255.858C475.367 256.001 475.772 256.073 476.215 256.073C476.69 256.073 477.07 255.976 477.357 255.784C477.643 255.592 477.786 255.339 477.786 255.025C477.786 254.708 477.67 254.482 477.437 254.347C477.209 254.213 476.815 254.146 476.256 254.146H475.887C474.974 254.146 474.278 253.987 473.799 253.67C473.32 253.352 473.081 252.891 473.081 252.287C473.081 251.696 473.313 251.237 473.779 250.911C474.249 250.584 474.906 250.421 475.752 250.421C476.097 250.421 476.448 250.47 476.806 250.568C477.164 250.662 477.352 250.709 477.37 250.709C477.419 250.709 477.513 250.667 477.652 250.582C477.791 250.492 477.927 250.447 478.061 250.447C478.214 250.447 478.325 250.503 478.397 250.615C478.473 250.727 478.511 250.895 478.511 251.119V251.904C478.511 252.141 478.475 252.314 478.404 252.421C478.332 252.524 478.218 252.575 478.061 252.575C477.927 252.575 477.762 252.461 477.565 252.233C477.426 252.076 477.312 251.958 477.222 251.877C476.985 251.658 476.732 251.501 476.464 251.407C476.195 251.309 475.88 251.26 475.517 251.26C475.097 251.26 474.757 251.354 474.497 251.542C474.242 251.725 474.114 251.96 474.114 252.246C474.114 252.528 474.246 252.73 474.51 252.851C474.774 252.971 475.343 253.041 476.215 253.059C477.146 253.081 477.826 253.244 478.256 253.549C478.686 253.849 478.9 254.314 478.9 254.945C478.9 255.549 478.663 256.032 478.189 256.395C477.715 256.757 477.075 256.939 476.269 256.939C476.014 256.939 475.73 256.914 475.417 256.865C475.103 256.82 474.71 256.742 474.235 256.63C474.079 256.733 473.944 256.809 473.832 256.858C473.721 256.912 473.627 256.939 473.551 256.939C473.394 256.939 473.273 256.885 473.188 256.777C473.108 256.666 473.067 256.507 473.067 256.301ZM483.633 248.648C483.633 248.165 483.675 247.861 483.76 247.736C483.85 247.61 484.038 247.548 484.324 247.548C484.602 247.548 484.785 247.601 484.875 247.709C484.964 247.812 485.009 248.06 485.009 248.454C485.009 248.839 484.966 249.078 484.881 249.172C484.801 249.262 484.615 249.306 484.324 249.306C484.038 249.306 483.85 249.264 483.76 249.179C483.675 249.094 483.633 248.917 483.633 248.648ZM484.875 255.838H487.029C487.204 255.838 487.332 255.876 487.412 255.952C487.497 256.023 487.54 256.14 487.54 256.301C487.54 256.484 487.499 256.612 487.419 256.683C487.343 256.751 487.2 256.784 486.989 256.784H481.78C481.601 256.784 481.467 256.744 481.377 256.663C481.288 256.583 481.243 256.462 481.243 256.301C481.243 256.144 481.29 256.028 481.384 255.952C481.478 255.876 481.619 255.838 481.807 255.838H483.854V251.535H482.545C482.362 251.535 482.221 251.495 482.123 251.414C482.029 251.329 481.982 251.208 481.982 251.052C481.982 250.895 482.026 250.779 482.116 250.703C482.205 250.622 482.34 250.582 482.519 250.582H484.485C484.606 250.582 484.7 250.606 484.767 250.656C484.839 250.705 484.875 250.772 484.875 250.857V255.838ZM494.527 256.784C494.434 256.784 494.366 256.762 494.326 256.717C494.29 256.668 494.272 256.576 494.272 256.442V255.891C494.004 256.227 493.668 256.489 493.266 256.677C492.863 256.86 492.426 256.952 491.957 256.952C491.111 256.952 490.401 256.652 489.829 256.053C489.26 255.448 488.976 254.699 488.976 253.804C488.976 252.877 489.28 252.108 489.889 251.495C490.498 250.877 491.256 250.568 492.165 250.568C492.626 250.568 493.04 250.651 493.406 250.817C493.773 250.978 494.089 251.217 494.353 251.535V248.964H493.997C493.608 248.964 493.355 248.93 493.239 248.863C493.127 248.792 493.071 248.664 493.071 248.481C493.071 248.32 493.116 248.199 493.205 248.118C493.299 248.038 493.433 247.997 493.608 247.997H494.984C495.118 247.997 495.214 248.02 495.273 248.064C495.335 248.109 495.367 248.179 495.367 248.273V255.838H495.669C495.888 255.838 496.047 255.876 496.145 255.952C496.244 256.023 496.293 256.14 496.293 256.301C496.293 256.453 496.25 256.572 496.165 256.657C496.08 256.742 495.966 256.784 495.823 256.784H494.527ZM490.131 253.77C490.131 254.388 490.33 254.893 490.728 255.287C491.126 255.681 491.632 255.878 492.245 255.878C492.863 255.878 493.371 255.674 493.769 255.267C494.167 254.855 494.366 254.334 494.366 253.703C494.366 253.081 494.167 252.569 493.769 252.166C493.375 251.763 492.867 251.562 492.245 251.562C491.614 251.562 491.104 251.765 490.715 252.173C490.325 252.58 490.131 253.112 490.131 253.77ZM498.495 253.978C498.53 254.623 498.747 255.122 499.146 255.475C499.549 255.824 500.097 255.999 500.79 255.999C501.314 255.999 501.885 255.86 502.502 255.583C503.12 255.301 503.493 255.16 503.623 255.16C503.757 255.16 503.869 255.202 503.959 255.287C504.048 255.372 504.093 255.477 504.093 255.603C504.093 255.733 504.046 255.851 503.952 255.959C503.858 256.066 503.708 256.171 503.502 256.274C503.055 256.493 502.592 256.661 502.113 256.777C501.638 256.894 501.166 256.952 500.696 256.952C499.676 256.952 498.859 256.659 498.246 256.073C497.633 255.482 497.327 254.701 497.327 253.73C497.327 252.741 497.651 251.94 498.3 251.327C498.949 250.714 499.795 250.407 500.837 250.407C501.782 250.407 502.565 250.694 503.187 251.266C503.809 251.839 504.12 252.533 504.12 253.347C504.12 253.598 504.066 253.766 503.959 253.851C503.856 253.936 503.572 253.978 503.106 253.978H503.006H498.495ZM498.528 253.099H502.898C502.831 252.566 502.607 252.139 502.227 251.817C501.851 251.49 501.388 251.327 500.837 251.327C500.242 251.327 499.741 251.483 499.334 251.797C498.926 252.11 498.658 252.544 498.528 253.099Z" fill="black"/>
<path d="M302.578 531.835H304.022C304.33 531.835 304.55 531.894 304.68 532.01C304.809 532.122 304.874 532.308 304.874 532.567C304.874 532.827 304.807 533.015 304.673 533.131C304.543 533.247 304.326 533.306 304.022 533.306H302.578V536.373H303.914C304.223 536.373 304.442 536.429 304.572 536.541C304.702 536.653 304.767 536.839 304.767 537.098C304.767 537.362 304.7 537.552 304.565 537.669C304.436 537.785 304.219 537.843 303.914 537.843H300.216C299.907 537.843 299.688 537.785 299.558 537.669C299.428 537.552 299.363 537.362 299.363 537.098C299.363 536.839 299.426 536.653 299.551 536.541C299.681 536.429 299.902 536.373 300.216 536.373H300.927V533.306H300.216C299.907 533.306 299.688 533.247 299.558 533.131C299.428 533.015 299.363 532.827 299.363 532.567C299.363 532.303 299.426 532.115 299.551 532.003C299.681 531.891 299.902 531.835 300.216 531.835H300.927V531.453C300.927 530.576 301.153 529.954 301.605 529.587C302.057 529.215 302.827 529.03 303.914 529.03C304.478 529.03 304.892 529.097 305.156 529.231C305.425 529.365 305.559 529.573 305.559 529.855C305.559 530.043 305.498 530.193 305.378 530.305C305.261 530.417 305.102 530.473 304.901 530.473C304.753 530.473 304.543 530.453 304.27 530.412C304.002 530.372 303.814 530.352 303.706 530.352C303.29 530.352 302.997 530.446 302.827 530.634C302.661 530.817 302.578 531.144 302.578 531.614V531.835ZM310.405 532.909C309.882 532.909 309.45 533.082 309.11 533.426C308.774 533.766 308.606 534.203 308.606 534.735C308.606 535.272 308.774 535.718 309.11 536.071C309.45 536.42 309.882 536.595 310.405 536.595C310.929 536.595 311.361 536.42 311.701 536.071C312.041 535.718 312.211 535.272 312.211 534.735C312.211 534.203 312.041 533.766 311.701 533.426C311.365 533.082 310.933 532.909 310.405 532.909ZM310.405 531.493C311.493 531.493 312.374 531.797 313.05 532.406C313.726 533.015 314.064 533.796 314.064 534.749C314.064 535.706 313.726 536.49 313.05 537.098C312.374 537.707 311.493 538.011 310.405 538.011C309.322 538.011 308.443 537.707 307.767 537.098C307.092 536.49 306.754 535.706 306.754 534.749C306.754 533.796 307.092 533.015 307.767 532.406C308.448 531.797 309.327 531.493 310.405 531.493ZM318.662 532.909C318.138 532.909 317.706 533.082 317.366 533.426C317.031 533.766 316.863 534.203 316.863 534.735C316.863 535.272 317.031 535.718 317.366 536.071C317.706 536.42 318.138 536.595 318.662 536.595C319.185 536.595 319.617 536.42 319.957 536.071C320.298 535.718 320.468 535.272 320.468 534.735C320.468 534.203 320.298 533.766 319.957 533.426C319.622 533.082 319.19 532.909 318.662 532.909ZM318.662 531.493C319.749 531.493 320.631 531.797 321.307 532.406C321.982 533.015 322.32 533.796 322.32 534.749C322.32 535.706 321.982 536.49 321.307 537.098C320.631 537.707 319.749 538.011 318.662 538.011C317.579 538.011 316.7 537.707 316.024 537.098C315.348 536.49 315.01 535.706 315.01 534.749C315.01 533.796 315.348 533.015 316.024 532.406C316.704 531.797 317.583 531.493 318.662 531.493ZM326.455 532.017H328.503C328.811 532.017 329.031 532.073 329.16 532.185C329.29 532.296 329.355 532.482 329.355 532.742C329.355 533.006 329.288 533.196 329.154 533.312C329.024 533.429 328.807 533.487 328.503 533.487H326.455V535.205C326.455 535.689 326.529 536.02 326.677 536.199C326.824 536.378 327.084 536.467 327.455 536.467C327.804 536.467 328.216 536.366 328.691 536.165C329.165 535.964 329.483 535.863 329.644 535.863C329.827 535.863 329.984 535.937 330.114 536.085C330.248 536.228 330.315 536.402 330.315 536.608C330.315 536.953 330.002 537.268 329.375 537.555C328.753 537.837 328.046 537.978 327.254 537.978C326.793 537.978 326.388 537.915 326.039 537.79C325.69 537.664 325.415 537.485 325.213 537.253C325.066 537.074 324.961 536.859 324.898 536.608C324.835 536.358 324.804 535.939 324.804 535.353V535.205V533.487H324.173C323.869 533.487 323.652 533.429 323.522 533.312C323.397 533.196 323.334 533.006 323.334 532.742C323.334 532.478 323.397 532.292 323.522 532.185C323.647 532.073 323.864 532.017 324.173 532.017H324.804V530.446C324.804 530.137 324.867 529.92 324.992 529.795C325.122 529.67 325.334 529.607 325.63 529.607C325.925 529.607 326.135 529.67 326.261 529.795C326.39 529.92 326.455 530.137 326.455 530.446V532.017ZM333.349 535.138C333.465 535.635 333.689 536.006 334.02 536.252C334.356 536.498 334.801 536.622 335.356 536.622C335.911 536.622 336.459 536.487 337.001 536.219C337.542 535.946 337.869 535.809 337.981 535.809C338.146 535.809 338.281 535.872 338.384 535.997C338.491 536.118 338.545 536.275 338.545 536.467C338.545 536.888 338.234 537.25 337.612 537.555C336.99 537.859 336.22 538.011 335.302 538.011C334.22 538.011 333.338 537.707 332.658 537.098C331.982 536.49 331.644 535.706 331.644 534.749C331.644 533.796 331.982 533.015 332.658 532.406C333.338 531.797 334.22 531.493 335.302 531.493C336.269 531.493 337.07 531.78 337.706 532.352C338.341 532.921 338.659 533.619 338.659 534.447C338.659 534.711 338.594 534.892 338.464 534.99C338.339 535.089 338.077 535.138 337.679 535.138H333.349ZM336.967 534.091C336.891 533.675 336.694 533.353 336.377 533.124C336.063 532.896 335.654 532.782 335.148 532.782C334.66 532.782 334.267 532.892 333.967 533.111C333.671 533.326 333.465 533.652 333.349 534.091H336.967ZM343.129 534.198V536.373H344.714C345.018 536.373 345.233 536.429 345.358 536.541C345.488 536.653 345.553 536.839 345.553 537.098C345.553 537.362 345.488 537.552 345.358 537.669C345.233 537.785 345.018 537.843 344.714 537.843H340.961C340.652 537.843 340.433 537.785 340.303 537.669C340.174 537.552 340.109 537.362 340.109 537.098C340.109 536.839 340.171 536.653 340.297 536.541C340.426 536.429 340.648 536.373 340.961 536.373H341.471V533.111H341.183C340.878 533.111 340.661 533.055 340.532 532.943C340.406 532.827 340.344 532.637 340.344 532.372C340.344 532.108 340.404 531.92 340.525 531.809C340.65 531.697 340.869 531.641 341.183 531.641H342.613C342.733 531.641 342.827 531.668 342.894 531.721C342.962 531.771 342.995 531.84 342.995 531.929V532.923C343.483 532.399 343.937 532.026 344.358 531.802C344.783 531.578 345.239 531.466 345.727 531.466C346.17 531.466 346.522 531.567 346.781 531.768C347.041 531.965 347.17 532.232 347.17 532.567C347.17 532.827 347.081 533.041 346.902 533.212C346.723 533.377 346.492 533.46 346.211 533.46C346.009 533.46 345.77 533.386 345.492 533.238C345.219 533.091 345.029 533.017 344.922 533.017C344.707 533.017 344.454 533.113 344.163 533.306C343.872 533.498 343.528 533.796 343.129 534.198Z" fill="black"/>
<path opacity="0.6" d="M287.117 164.651V163.456C287.117 163.259 287.152 163.118 287.224 163.033C287.3 162.948 287.421 162.906 287.587 162.906C287.77 162.906 287.915 163.031 288.023 163.282C288.094 163.434 288.159 163.548 288.218 163.624C288.405 163.866 288.683 164.06 289.05 164.208C289.417 164.351 289.822 164.423 290.265 164.423C290.739 164.423 291.12 164.327 291.406 164.134C291.692 163.942 291.836 163.689 291.836 163.376C291.836 163.058 291.719 162.832 291.487 162.698C291.258 162.563 290.865 162.496 290.305 162.496H289.936C289.023 162.496 288.327 162.337 287.848 162.02C287.369 161.702 287.13 161.241 287.13 160.637C287.13 160.046 287.363 159.587 287.828 159.261C288.298 158.934 288.956 158.771 289.802 158.771C290.146 158.771 290.498 158.82 290.856 158.918C291.214 159.012 291.402 159.059 291.419 159.059C291.469 159.059 291.563 159.017 291.701 158.932C291.84 158.842 291.977 158.798 292.111 158.798C292.263 158.798 292.375 158.853 292.446 158.965C292.523 159.077 292.561 159.245 292.561 159.469V160.254C292.561 160.491 292.525 160.664 292.453 160.771C292.382 160.874 292.267 160.925 292.111 160.925C291.977 160.925 291.811 160.811 291.614 160.583C291.475 160.426 291.361 160.308 291.272 160.227C291.035 160.008 290.782 159.851 290.513 159.757C290.245 159.659 289.929 159.61 289.567 159.61C289.146 159.61 288.806 159.704 288.546 159.892C288.291 160.075 288.164 160.31 288.164 160.597C288.164 160.878 288.296 161.08 288.56 161.201C288.824 161.322 289.392 161.391 290.265 161.409C291.196 161.431 291.876 161.594 292.306 161.899C292.735 162.199 292.95 162.664 292.95 163.295C292.95 163.899 292.713 164.382 292.238 164.745C291.764 165.107 291.124 165.289 290.319 165.289C290.063 165.289 289.779 165.264 289.466 165.215C289.153 165.17 288.759 165.092 288.285 164.98C288.128 165.083 287.994 165.159 287.882 165.208C287.77 165.262 287.676 165.289 287.6 165.289C287.443 165.289 287.322 165.235 287.237 165.128C287.157 165.016 287.117 164.857 287.117 164.651ZM296.628 162.657C296.628 163.221 296.747 163.633 296.984 163.892C297.221 164.152 297.597 164.282 298.112 164.282C298.6 164.282 299.016 164.127 299.36 163.819C299.71 163.51 299.884 163.123 299.884 162.657V159.885H298.964C298.79 159.885 298.662 159.849 298.582 159.778C298.506 159.702 298.468 159.585 298.468 159.429C298.468 159.258 298.51 159.133 298.595 159.053C298.68 158.972 298.817 158.932 299.005 158.932H300.434C300.605 158.932 300.723 158.97 300.79 159.046C300.862 159.118 300.898 159.297 300.898 159.583V164.188H301.206C301.426 164.188 301.582 164.224 301.676 164.295C301.775 164.367 301.824 164.485 301.824 164.651C301.824 164.812 301.777 164.933 301.683 165.013C301.594 165.094 301.462 165.134 301.287 165.134H300.267C300.146 165.134 300.052 165.11 299.985 165.06C299.918 165.011 299.884 164.944 299.884 164.859V164.403C299.454 164.734 299.085 164.962 298.776 165.087C298.472 165.208 298.15 165.269 297.81 165.269C297.071 165.269 296.517 165.074 296.145 164.685C295.778 164.291 295.595 163.698 295.595 162.906V159.885H295.454C295.149 159.885 294.941 159.849 294.829 159.778C294.718 159.706 294.662 159.581 294.662 159.402C294.662 159.245 294.704 159.129 294.789 159.053C294.879 158.972 295.015 158.932 295.199 158.932H296.212C296.369 158.932 296.476 158.963 296.534 159.026C296.597 159.088 296.628 159.227 296.628 159.442V162.657ZM306.919 164.201C307.55 164.201 308.062 164.002 308.456 163.604C308.85 163.206 309.047 162.689 309.047 162.053C309.047 161.431 308.845 160.919 308.443 160.516C308.044 160.113 307.536 159.912 306.919 159.912C306.297 159.912 305.787 160.113 305.388 160.516C304.995 160.914 304.798 161.427 304.798 162.053C304.798 162.68 304.995 163.194 305.388 163.597C305.787 164 306.297 164.201 306.919 164.201ZM304.825 159.898C305.075 159.585 305.388 159.346 305.764 159.18C306.14 159.015 306.565 158.932 307.04 158.932C307.939 158.932 308.689 159.236 309.288 159.845C309.888 160.449 310.188 161.198 310.188 162.093C310.188 162.975 309.879 163.722 309.262 164.335C308.649 164.949 307.899 165.255 307.013 165.255C306.543 165.255 306.134 165.172 305.784 165.007C305.435 164.841 305.149 164.591 304.925 164.255V164.792C304.925 164.913 304.903 165 304.858 165.054C304.818 165.107 304.748 165.134 304.65 165.134H303.422C303.247 165.134 303.117 165.094 303.032 165.013C302.947 164.933 302.905 164.812 302.905 164.651C302.905 164.472 302.956 164.351 303.059 164.288C303.162 164.221 303.366 164.188 303.67 164.188H303.811V157.314H303.683C303.379 157.314 303.171 157.278 303.059 157.207C302.947 157.135 302.891 157.01 302.891 156.831C302.891 156.67 302.936 156.549 303.026 156.468C303.115 156.388 303.247 156.347 303.422 156.347H304.442C304.576 156.347 304.672 156.37 304.731 156.415C304.793 156.459 304.825 156.529 304.825 156.623V159.898ZM312.289 164.188V157.314H312.161C311.857 157.314 311.647 157.278 311.53 157.207C311.419 157.135 311.363 157.01 311.363 156.831C311.363 156.67 311.407 156.549 311.497 156.468C311.591 156.388 311.725 156.347 311.9 156.347H312.92C313.041 156.347 313.135 156.372 313.202 156.421C313.269 156.471 313.303 156.538 313.303 156.623V159.663C313.629 159.359 313.951 159.135 314.269 158.992C314.591 158.845 314.925 158.771 315.269 158.771C315.945 158.771 316.475 158.981 316.86 159.402C317.25 159.822 317.444 160.404 317.444 161.147V164.188H317.76C317.984 164.188 318.145 164.226 318.243 164.302C318.342 164.374 318.391 164.49 318.391 164.651C318.391 164.812 318.346 164.933 318.257 165.013C318.167 165.094 318.033 165.134 317.854 165.134H316.068C315.858 165.134 315.715 165.101 315.639 165.034C315.567 164.962 315.531 164.834 315.531 164.651C315.531 164.472 315.576 164.351 315.665 164.288C315.759 164.221 315.934 164.188 316.189 164.188H316.424V161.395C316.424 160.872 316.305 160.473 316.068 160.2C315.831 159.923 315.486 159.784 315.034 159.784C314.574 159.784 314.169 159.939 313.819 160.247C313.475 160.556 313.303 160.939 313.303 161.395V164.188H313.538C313.806 164.188 313.987 164.221 314.081 164.288C314.175 164.356 314.222 164.476 314.222 164.651C314.222 164.834 314.184 164.962 314.108 165.034C314.037 165.101 313.896 165.134 313.685 165.134H311.9C311.725 165.134 311.593 165.094 311.504 165.013C311.419 164.933 311.376 164.812 311.376 164.651C311.376 164.472 311.428 164.351 311.53 164.288C311.638 164.221 311.844 164.188 312.148 164.188H312.289ZM320.801 162.328C320.836 162.973 321.053 163.472 321.452 163.825C321.854 164.174 322.403 164.349 323.096 164.349C323.62 164.349 324.19 164.21 324.808 163.933C325.426 163.651 325.799 163.51 325.929 163.51C326.063 163.51 326.175 163.552 326.265 163.637C326.354 163.722 326.399 163.828 326.399 163.953C326.399 164.083 326.352 164.201 326.258 164.309C326.164 164.416 326.014 164.521 325.808 164.624C325.361 164.843 324.898 165.011 324.419 165.128C323.944 165.244 323.472 165.302 323.002 165.302C321.982 165.302 321.165 165.009 320.552 164.423C319.939 163.832 319.633 163.051 319.633 162.08C319.633 161.091 319.957 160.29 320.606 159.677C321.255 159.064 322.101 158.757 323.143 158.757C324.088 158.757 324.871 159.044 325.493 159.617C326.115 160.189 326.426 160.883 326.426 161.697C326.426 161.948 326.372 162.116 326.265 162.201C326.162 162.286 325.878 162.328 325.412 162.328H325.311H320.801ZM320.834 161.449H325.204C325.137 160.917 324.913 160.489 324.533 160.167C324.157 159.84 323.694 159.677 323.143 159.677C322.548 159.677 322.047 159.834 321.64 160.147C321.232 160.46 320.964 160.894 320.834 161.449ZM332.816 162.167C332.57 162.087 332.331 162.029 332.098 161.993C331.87 161.952 331.641 161.932 331.413 161.932C330.724 161.932 330.18 162.049 329.782 162.281C329.384 162.514 329.185 162.827 329.185 163.221C329.185 163.525 329.308 163.776 329.554 163.973C329.804 164.17 330.122 164.268 330.507 164.268C331.075 164.268 331.601 164.121 332.085 163.825C332.572 163.525 332.816 163.214 332.816 162.892V162.167ZM332.87 164.282C332.503 164.613 332.102 164.866 331.668 165.04C331.239 165.215 330.796 165.302 330.339 165.302C329.672 165.302 329.133 165.116 328.721 164.745C328.314 164.374 328.111 163.89 328.111 163.295C328.111 162.588 328.381 162.04 328.923 161.65C329.469 161.261 330.234 161.066 331.219 161.066C331.478 161.066 331.74 161.084 332.004 161.12C332.268 161.151 332.539 161.203 332.816 161.275V161.228C332.816 160.713 332.693 160.333 332.447 160.086C332.201 159.84 331.818 159.717 331.299 159.717C330.95 159.717 330.561 159.811 330.131 159.999C329.702 160.187 329.417 160.281 329.279 160.281C329.149 160.281 329.041 160.23 328.956 160.127C328.871 160.019 328.829 159.883 328.829 159.717C328.829 159.453 329.075 159.229 329.567 159.046C330.064 158.862 330.697 158.771 331.467 158.771C332.255 158.771 332.85 158.972 333.253 159.375C333.655 159.773 333.857 160.364 333.857 161.147V164.188H334.186C334.503 164.188 334.716 164.221 334.823 164.288C334.931 164.356 334.984 164.476 334.984 164.651C334.984 164.812 334.94 164.933 334.85 165.013C334.761 165.094 334.626 165.134 334.447 165.134H333.393C333.268 165.134 333.165 165.096 333.085 165.02C333.004 164.944 332.95 164.834 332.924 164.691L332.87 164.282ZM341.603 165.134C341.509 165.134 341.442 165.112 341.402 165.067C341.366 165.018 341.348 164.926 341.348 164.792V164.241C341.079 164.577 340.744 164.839 340.341 165.027C339.938 165.21 339.502 165.302 339.032 165.302C338.186 165.302 337.477 165.002 336.904 164.403C336.336 163.798 336.052 163.049 336.052 162.154C336.052 161.228 336.356 160.458 336.965 159.845C337.573 159.227 338.332 158.918 339.24 158.918C339.701 158.918 340.115 159.001 340.482 159.167C340.849 159.328 341.164 159.567 341.428 159.885V157.314H341.073C340.683 157.314 340.431 157.281 340.314 157.213C340.202 157.142 340.146 157.014 340.146 156.831C340.146 156.67 340.191 156.549 340.281 156.468C340.375 156.388 340.509 156.347 340.683 156.347H342.059C342.194 156.347 342.29 156.37 342.348 156.415C342.411 156.459 342.442 156.529 342.442 156.623V164.188H342.744C342.963 164.188 343.122 164.226 343.221 164.302C343.319 164.374 343.368 164.49 343.368 164.651C343.368 164.803 343.326 164.922 343.241 165.007C343.156 165.092 343.042 165.134 342.899 165.134H341.603ZM337.206 162.12C337.206 162.738 337.405 163.244 337.804 163.637C338.202 164.031 338.708 164.228 339.321 164.228C339.938 164.228 340.446 164.024 340.844 163.617C341.243 163.206 341.442 162.684 341.442 162.053C341.442 161.431 341.243 160.919 340.844 160.516C340.451 160.113 339.943 159.912 339.321 159.912C338.69 159.912 338.18 160.115 337.79 160.523C337.401 160.93 337.206 161.462 337.206 162.12ZM345.57 162.328C345.606 162.973 345.823 163.472 346.221 163.825C346.624 164.174 347.172 164.349 347.866 164.349C348.389 164.349 348.96 164.21 349.578 163.933C350.195 163.651 350.569 163.51 350.699 163.51C350.833 163.51 350.945 163.552 351.034 163.637C351.124 163.722 351.169 163.828 351.169 163.953C351.169 164.083 351.122 164.201 351.028 164.309C350.934 164.416 350.784 164.521 350.578 164.624C350.13 164.843 349.667 165.011 349.188 165.128C348.714 165.244 348.242 165.302 347.772 165.302C346.752 165.302 345.935 165.009 345.322 164.423C344.709 163.832 344.402 163.051 344.402 162.08C344.402 161.091 344.727 160.29 345.376 159.677C346.024 159.064 346.87 158.757 347.913 158.757C348.857 158.757 349.64 159.044 350.262 159.617C350.884 160.189 351.195 160.883 351.195 161.697C351.195 161.948 351.142 162.116 351.034 162.201C350.931 162.286 350.647 162.328 350.182 162.328H350.081H345.57ZM345.604 161.449H349.974C349.907 160.917 349.683 160.489 349.302 160.167C348.926 159.84 348.463 159.677 347.913 159.677C347.318 159.677 346.816 159.834 346.409 160.147C346.002 160.46 345.734 160.894 345.604 161.449ZM355.438 164.188H357.666C357.841 164.188 357.968 164.226 358.049 164.302C358.134 164.374 358.176 164.49 358.176 164.651C358.176 164.834 358.136 164.962 358.056 165.034C357.98 165.101 357.836 165.134 357.626 165.134H353.236C353.061 165.134 352.929 165.094 352.84 165.013C352.75 164.933 352.706 164.812 352.706 164.651C352.706 164.494 352.75 164.378 352.84 164.302C352.934 164.226 353.077 164.188 353.27 164.188H354.438V159.885H353.981C353.547 159.885 353.276 159.851 353.169 159.784C353.061 159.713 353.008 159.585 353.008 159.402C353.008 159.245 353.05 159.129 353.135 159.053C353.225 158.972 353.359 158.932 353.538 158.932H355.069C355.189 158.932 355.281 158.956 355.344 159.006C355.406 159.05 355.438 159.118 355.438 159.207V160.348C355.863 159.816 356.306 159.42 356.767 159.16C357.228 158.9 357.724 158.771 358.257 158.771C358.655 158.771 358.978 158.851 359.224 159.012C359.47 159.173 359.593 159.382 359.593 159.637C359.593 159.802 359.53 159.95 359.405 160.08C359.284 160.205 359.15 160.268 359.002 160.268C358.899 160.268 358.725 160.2 358.479 160.066C358.237 159.928 358.02 159.858 357.827 159.858C357.478 159.858 357.109 159.983 356.72 160.234C356.335 160.48 355.908 160.872 355.438 161.409V164.188Z" fill="black"/>
<path opacity="0.6" d="M291.494 258.503H293.105C293.276 258.503 293.403 258.543 293.488 258.623C293.573 258.704 293.616 258.825 293.616 258.986C293.616 259.16 293.573 259.284 293.488 259.355C293.408 259.427 293.262 259.463 293.052 259.463H290.092C289.913 259.463 289.776 259.422 289.682 259.342C289.593 259.261 289.548 259.143 289.548 258.986C289.548 258.807 289.604 258.682 289.716 258.61C289.832 258.538 290.045 258.503 290.353 258.503H290.481V251.535H290.353C290.045 251.535 289.832 251.499 289.716 251.428C289.604 251.356 289.548 251.231 289.548 251.052C289.548 250.895 289.593 250.779 289.682 250.703C289.776 250.622 289.913 250.582 290.092 250.582H291.112C291.246 250.582 291.342 250.604 291.4 250.649C291.463 250.694 291.494 250.763 291.494 250.857V251.508C291.799 251.195 292.134 250.96 292.501 250.803C292.873 250.647 293.271 250.568 293.696 250.568C294.596 250.568 295.347 250.873 295.952 251.481C296.556 252.09 296.858 252.853 296.858 253.77C296.858 254.652 296.571 255.377 295.999 255.945C295.426 256.513 294.694 256.798 293.804 256.798C293.329 256.798 292.893 256.715 292.495 256.549C292.096 256.379 291.763 256.138 291.494 255.824V258.503ZM293.575 255.811C294.197 255.811 294.708 255.616 295.106 255.227C295.504 254.833 295.703 254.325 295.703 253.703C295.703 253.094 295.502 252.593 295.099 252.199C294.701 251.801 294.193 251.602 293.575 251.602C292.958 251.602 292.452 251.799 292.058 252.193C291.664 252.587 291.468 253.09 291.468 253.703C291.468 254.321 291.662 254.826 292.052 255.22C292.445 255.614 292.953 255.811 293.575 255.811ZM302.973 253.817C302.727 253.737 302.487 253.678 302.255 253.643C302.027 253.602 301.798 253.582 301.57 253.582C300.881 253.582 300.337 253.699 299.939 253.931C299.541 254.164 299.341 254.477 299.341 254.871C299.341 255.175 299.465 255.426 299.711 255.623C299.961 255.82 300.279 255.918 300.664 255.918C301.232 255.918 301.758 255.771 302.241 255.475C302.729 255.175 302.973 254.864 302.973 254.542V253.817ZM303.027 255.932C302.66 256.263 302.259 256.516 301.825 256.69C301.396 256.865 300.953 256.952 300.496 256.952C299.829 256.952 299.29 256.766 298.878 256.395C298.471 256.023 298.267 255.54 298.267 254.945C298.267 254.238 298.538 253.69 299.08 253.3C299.626 252.911 300.391 252.716 301.375 252.716C301.635 252.716 301.897 252.734 302.161 252.77C302.425 252.801 302.696 252.853 302.973 252.924V252.877C302.973 252.363 302.85 251.982 302.604 251.736C302.358 251.49 301.975 251.367 301.456 251.367C301.107 251.367 300.718 251.461 300.288 251.649C299.858 251.837 299.574 251.931 299.435 251.931C299.306 251.931 299.198 251.879 299.113 251.777C299.028 251.669 298.986 251.533 298.986 251.367C298.986 251.103 299.232 250.879 299.724 250.696C300.221 250.512 300.854 250.421 301.624 250.421C302.411 250.421 303.007 250.622 303.409 251.025C303.812 251.423 304.013 252.014 304.013 252.797V255.838H304.342C304.66 255.838 304.873 255.871 304.98 255.938C305.088 256.006 305.141 256.126 305.141 256.301C305.141 256.462 305.096 256.583 305.007 256.663C304.917 256.744 304.783 256.784 304.604 256.784H303.55C303.425 256.784 303.322 256.746 303.242 256.67C303.161 256.594 303.107 256.484 303.08 256.341L303.027 255.932ZM309.551 251.575C308.965 251.575 308.486 251.756 308.115 252.119C307.743 252.481 307.558 252.951 307.558 253.529C307.558 254.097 307.743 254.565 308.115 254.931C308.486 255.294 308.965 255.475 309.551 255.475C310.133 255.475 310.61 255.294 310.981 254.931C311.357 254.565 311.545 254.097 311.545 253.529C311.545 252.96 311.357 252.493 310.981 252.126C310.61 251.759 310.133 251.575 309.551 251.575ZM312.465 256.428C312.465 257.055 312.433 257.498 312.371 257.758C312.308 258.022 312.201 258.252 312.048 258.449C311.798 258.78 311.447 259.031 310.995 259.201C310.543 259.375 310.01 259.463 309.397 259.463C308.887 259.463 308.513 259.413 308.276 259.315C308.043 259.216 307.927 259.06 307.927 258.845C307.927 258.706 307.983 258.583 308.095 258.476C308.211 258.373 308.348 258.321 308.504 258.321C308.625 258.321 308.811 258.337 309.061 258.368C309.312 258.404 309.502 258.422 309.632 258.422C310.294 258.422 310.764 258.27 311.042 257.966C311.319 257.661 311.458 257.14 311.458 256.402V255.589C311.185 255.907 310.883 256.14 310.552 256.287C310.22 256.435 309.84 256.509 309.41 256.509C308.574 256.509 307.88 256.232 307.33 255.677C306.784 255.117 306.511 254.41 306.511 253.555C306.511 252.696 306.793 251.985 307.356 251.421C307.92 250.852 308.618 250.568 309.451 250.568C309.795 250.568 310.131 250.633 310.458 250.763C310.789 250.888 311.122 251.081 311.458 251.34V250.857C311.458 250.763 311.487 250.694 311.545 250.649C311.608 250.604 311.704 250.582 311.834 250.582H312.847C313.026 250.582 313.161 250.622 313.25 250.703C313.34 250.779 313.384 250.895 313.384 251.052C313.384 251.231 313.328 251.356 313.216 251.428C313.105 251.499 312.894 251.535 312.586 251.535H312.465V256.428ZM315.727 253.978C315.763 254.623 315.98 255.122 316.378 255.475C316.781 255.824 317.329 255.999 318.023 255.999C318.546 255.999 319.117 255.86 319.734 255.583C320.352 255.301 320.726 255.16 320.855 255.16C320.99 255.16 321.102 255.202 321.191 255.287C321.281 255.372 321.325 255.477 321.325 255.603C321.325 255.733 321.278 255.851 321.184 255.959C321.09 256.066 320.94 256.171 320.735 256.274C320.287 256.493 319.824 256.661 319.345 256.777C318.871 256.894 318.399 256.952 317.929 256.952C316.908 256.952 316.092 256.659 315.479 256.073C314.866 255.482 314.559 254.701 314.559 253.73C314.559 252.741 314.883 251.94 315.532 251.327C316.181 250.714 317.027 250.407 318.07 250.407C319.014 250.407 319.797 250.694 320.419 251.266C321.041 251.839 321.352 252.533 321.352 253.347C321.352 253.598 321.298 253.766 321.191 253.851C321.088 253.936 320.804 253.978 320.339 253.978H320.238H315.727ZM315.761 253.099H320.13C320.063 252.566 319.84 252.139 319.459 251.817C319.083 251.49 318.62 251.327 318.07 251.327C317.475 251.327 316.973 251.483 316.566 251.797C316.159 252.11 315.89 252.544 315.761 253.099ZM323.728 255.838V248.964H323.601C323.297 248.964 323.086 248.928 322.97 248.857C322.858 248.785 322.802 248.66 322.802 248.481C322.802 248.32 322.847 248.199 322.936 248.118C323.03 248.038 323.165 247.997 323.339 247.997H324.359C324.48 247.997 324.574 248.022 324.641 248.071C324.709 248.12 324.742 248.188 324.742 248.273V251.313C325.069 251.009 325.391 250.785 325.709 250.642C326.031 250.494 326.364 250.421 326.709 250.421C327.385 250.421 327.915 250.631 328.3 251.052C328.689 251.472 328.884 252.054 328.884 252.797V255.838H329.199C329.423 255.838 329.584 255.876 329.683 255.952C329.781 256.023 329.83 256.14 329.83 256.301C329.83 256.462 329.785 256.583 329.696 256.663C329.606 256.744 329.472 256.784 329.293 256.784H327.508C327.297 256.784 327.154 256.751 327.078 256.683C327.006 256.612 326.971 256.484 326.971 256.301C326.971 256.122 327.015 256.001 327.105 255.938C327.199 255.871 327.373 255.838 327.628 255.838H327.863V253.045C327.863 252.522 327.745 252.123 327.508 251.85C327.27 251.573 326.926 251.434 326.474 251.434C326.013 251.434 325.608 251.589 325.259 251.897C324.914 252.206 324.742 252.589 324.742 253.045V255.838H324.977C325.246 255.838 325.427 255.871 325.521 255.938C325.615 256.006 325.662 256.126 325.662 256.301C325.662 256.484 325.624 256.612 325.548 256.683C325.476 256.751 325.335 256.784 325.125 256.784H323.339C323.165 256.784 323.033 256.744 322.943 256.663C322.858 256.583 322.816 256.462 322.816 256.301C322.816 256.122 322.867 256.001 322.97 255.938C323.077 255.871 323.283 255.838 323.587 255.838H323.728ZM332.24 253.978C332.276 254.623 332.493 255.122 332.891 255.475C333.294 255.824 333.842 255.999 334.536 255.999C335.059 255.999 335.63 255.86 336.248 255.583C336.865 255.301 337.239 255.16 337.369 255.16C337.503 255.16 337.615 255.202 337.704 255.287C337.794 255.372 337.838 255.477 337.838 255.603C337.838 255.733 337.791 255.851 337.697 255.959C337.603 256.066 337.454 256.171 337.248 256.274C336.8 256.493 336.337 256.661 335.858 256.777C335.384 256.894 334.912 256.952 334.442 256.952C333.421 256.952 332.605 256.659 331.992 256.073C331.379 255.482 331.072 254.701 331.072 253.73C331.072 252.741 331.397 251.94 332.045 251.327C332.694 250.714 333.54 250.407 334.583 250.407C335.527 250.407 336.31 250.694 336.932 251.266C337.554 251.839 337.865 252.533 337.865 253.347C337.865 253.598 337.812 253.766 337.704 253.851C337.601 253.936 337.317 253.978 336.852 253.978H336.751H332.24ZM332.274 253.099H336.644C336.576 252.566 336.353 252.139 335.972 251.817C335.596 251.49 335.133 251.327 334.583 251.327C333.988 251.327 333.486 251.483 333.079 251.797C332.672 252.11 332.403 252.544 332.274 253.099ZM344.256 253.817C344.01 253.737 343.77 253.678 343.537 253.643C343.309 253.602 343.081 253.582 342.853 253.582C342.164 253.582 341.62 253.699 341.222 253.931C340.823 254.164 340.624 254.477 340.624 254.871C340.624 255.175 340.747 255.426 340.993 255.623C341.244 255.82 341.562 255.918 341.947 255.918C342.515 255.918 343.041 255.771 343.524 255.475C344.012 255.175 344.256 254.864 344.256 254.542V253.817ZM344.309 255.932C343.942 256.263 343.542 256.516 343.108 256.69C342.678 256.865 342.235 256.952 341.779 256.952C341.112 256.952 340.573 256.766 340.161 256.395C339.754 256.023 339.55 255.54 339.55 254.945C339.55 254.238 339.821 253.69 340.362 253.3C340.908 252.911 341.674 252.716 342.658 252.716C342.918 252.716 343.179 252.734 343.443 252.77C343.707 252.801 343.978 252.853 344.256 252.924V252.877C344.256 252.363 344.133 251.982 343.886 251.736C343.64 251.49 343.258 251.367 342.739 251.367C342.39 251.367 342 251.461 341.571 251.649C341.141 251.837 340.857 251.931 340.718 251.931C340.588 251.931 340.481 251.879 340.396 251.777C340.311 251.669 340.268 251.533 340.268 251.367C340.268 251.103 340.515 250.879 341.007 250.696C341.503 250.512 342.137 250.421 342.906 250.421C343.694 250.421 344.289 250.622 344.692 251.025C345.095 251.423 345.296 252.014 345.296 252.797V255.838H345.625C345.943 255.838 346.155 255.871 346.263 255.938C346.37 256.006 346.424 256.126 346.424 256.301C346.424 256.462 346.379 256.583 346.29 256.663C346.2 256.744 346.066 256.784 345.887 256.784H344.833C344.708 256.784 344.605 256.746 344.524 256.67C344.444 256.594 344.39 256.484 344.363 256.341L344.309 255.932ZM353.042 256.784C352.949 256.784 352.881 256.762 352.841 256.717C352.805 256.668 352.787 256.576 352.787 256.442V255.891C352.519 256.227 352.183 256.489 351.781 256.677C351.378 256.86 350.941 256.952 350.472 256.952C349.626 256.952 348.916 256.652 348.344 256.053C347.775 255.448 347.491 254.699 347.491 253.804C347.491 252.877 347.795 252.108 348.404 251.495C349.013 250.877 349.771 250.568 350.68 250.568C351.141 250.568 351.555 250.651 351.921 250.817C352.288 250.978 352.604 251.217 352.868 251.535V248.964H352.512C352.123 248.964 351.87 248.93 351.754 248.863C351.642 248.792 351.586 248.664 351.586 248.481C351.586 248.32 351.631 248.199 351.72 248.118C351.814 248.038 351.948 247.997 352.123 247.997H353.499C353.633 247.997 353.729 248.02 353.788 248.064C353.85 248.109 353.882 248.179 353.882 248.273V255.838H354.184C354.403 255.838 354.562 255.876 354.66 255.952C354.759 256.023 354.808 256.14 354.808 256.301C354.808 256.453 354.765 256.572 354.68 256.657C354.595 256.742 354.481 256.784 354.338 256.784H353.042ZM348.646 253.77C348.646 254.388 348.845 254.893 349.243 255.287C349.641 255.681 350.147 255.878 350.76 255.878C351.378 255.878 351.886 255.674 352.284 255.267C352.682 254.855 352.881 254.334 352.881 253.703C352.881 253.081 352.682 252.569 352.284 252.166C351.89 251.763 351.382 251.562 350.76 251.562C350.129 251.562 349.619 251.765 349.23 252.173C348.84 252.58 348.646 253.112 348.646 253.77Z" fill="black"/>
<path opacity="0.6" d="M291.494 450.967H293.105C293.276 450.967 293.403 451.007 293.488 451.088C293.573 451.168 293.616 451.289 293.616 451.45C293.616 451.625 293.573 451.748 293.488 451.819C293.408 451.891 293.262 451.927 293.052 451.927H290.092C289.913 451.927 289.776 451.887 289.682 451.806C289.593 451.725 289.548 451.607 289.548 451.45C289.548 451.271 289.604 451.146 289.716 451.074C289.832 451.003 290.045 450.967 290.353 450.967H290.481V443.999H290.353C290.045 443.999 289.832 443.963 289.716 443.892C289.604 443.82 289.548 443.695 289.548 443.516C289.548 443.359 289.593 443.243 289.682 443.167C289.776 443.086 289.913 443.046 290.092 443.046H291.112C291.246 443.046 291.342 443.068 291.4 443.113C291.463 443.158 291.494 443.227 291.494 443.321V443.972C291.799 443.659 292.134 443.424 292.501 443.268C292.873 443.111 293.271 443.033 293.696 443.033C294.596 443.033 295.347 443.337 295.952 443.946C296.556 444.554 296.858 445.317 296.858 446.235C296.858 447.116 296.571 447.841 295.999 448.409C295.426 448.978 294.694 449.262 293.804 449.262C293.329 449.262 292.893 449.179 292.495 449.014C292.096 448.844 291.763 448.602 291.494 448.289V450.967ZM293.575 448.275C294.197 448.275 294.708 448.081 295.106 447.691C295.504 447.297 295.703 446.789 295.703 446.167C295.703 445.559 295.502 445.058 295.099 444.664C294.701 444.266 294.193 444.066 293.575 444.066C292.958 444.066 292.452 444.263 292.058 444.657C291.664 445.051 291.468 445.554 291.468 446.167C291.468 446.785 291.662 447.291 292.052 447.684C292.445 448.078 292.953 448.275 293.575 448.275ZM302.973 446.282C302.727 446.201 302.487 446.143 302.255 446.107C302.027 446.067 301.798 446.047 301.57 446.047C300.881 446.047 300.337 446.163 299.939 446.396C299.541 446.628 299.341 446.942 299.341 447.335C299.341 447.64 299.465 447.89 299.711 448.087C299.961 448.284 300.279 448.383 300.664 448.383C301.232 448.383 301.758 448.235 302.241 447.94C302.729 447.64 302.973 447.329 302.973 447.007V446.282ZM303.027 448.396C302.66 448.727 302.259 448.98 301.825 449.155C301.396 449.329 300.953 449.416 300.496 449.416C299.829 449.416 299.29 449.231 298.878 448.859C298.471 448.488 298.267 448.004 298.267 447.409C298.267 446.702 298.538 446.154 299.08 445.765C299.626 445.375 300.391 445.181 301.375 445.181C301.635 445.181 301.897 445.199 302.161 445.234C302.425 445.266 302.696 445.317 302.973 445.389V445.342C302.973 444.827 302.85 444.447 302.604 444.201C302.358 443.955 301.975 443.831 301.456 443.831C301.107 443.831 300.718 443.925 300.288 444.113C299.858 444.301 299.574 444.395 299.435 444.395C299.306 444.395 299.198 444.344 299.113 444.241C299.028 444.134 298.986 443.997 298.986 443.831C298.986 443.567 299.232 443.344 299.724 443.16C300.221 442.977 300.854 442.885 301.624 442.885C302.411 442.885 303.007 443.086 303.409 443.489C303.812 443.887 304.013 444.478 304.013 445.261V448.302H304.342C304.66 448.302 304.873 448.336 304.98 448.403C305.088 448.47 305.141 448.591 305.141 448.765C305.141 448.926 305.096 449.047 305.007 449.128C304.917 449.208 304.783 449.249 304.604 449.249H303.55C303.425 449.249 303.322 449.21 303.242 449.134C303.161 449.058 303.107 448.949 303.08 448.806L303.027 448.396ZM309.551 444.04C308.965 444.04 308.486 444.221 308.115 444.583C307.743 444.946 307.558 445.416 307.558 445.993C307.558 446.561 307.743 447.029 308.115 447.396C308.486 447.758 308.965 447.94 309.551 447.94C310.133 447.94 310.61 447.758 310.981 447.396C311.357 447.029 311.545 446.561 311.545 445.993C311.545 445.425 311.357 444.957 310.981 444.59C310.61 444.223 310.133 444.04 309.551 444.04ZM312.465 448.893C312.465 449.519 312.433 449.962 312.371 450.222C312.308 450.486 312.201 450.716 312.048 450.913C311.798 451.244 311.447 451.495 310.995 451.665C310.543 451.84 310.01 451.927 309.397 451.927C308.887 451.927 308.513 451.878 308.276 451.779C308.043 451.681 307.927 451.524 307.927 451.309C307.927 451.171 307.983 451.048 308.095 450.94C308.211 450.837 308.348 450.786 308.504 450.786C308.625 450.786 308.811 450.801 309.061 450.833C309.312 450.869 309.502 450.886 309.632 450.886C310.294 450.886 310.764 450.734 311.042 450.43C311.319 450.126 311.458 449.604 311.458 448.866V448.054C311.185 448.371 310.883 448.604 310.552 448.752C310.22 448.899 309.84 448.973 309.41 448.973C308.574 448.973 307.88 448.696 307.33 448.141C306.784 447.582 306.511 446.875 306.511 446.02C306.511 445.161 306.793 444.449 307.356 443.885C307.92 443.317 308.618 443.033 309.451 443.033C309.795 443.033 310.131 443.098 310.458 443.227C310.789 443.353 311.122 443.545 311.458 443.805V443.321C311.458 443.227 311.487 443.158 311.545 443.113C311.608 443.068 311.704 443.046 311.834 443.046H312.847C313.026 443.046 313.161 443.086 313.25 443.167C313.34 443.243 313.384 443.359 313.384 443.516C313.384 443.695 313.328 443.82 313.216 443.892C313.105 443.963 312.894 443.999 312.586 443.999H312.465V448.893ZM315.727 446.443C315.763 447.087 315.98 447.586 316.378 447.94C316.781 448.289 317.329 448.463 318.023 448.463C318.546 448.463 319.117 448.324 319.734 448.047C320.352 447.765 320.726 447.624 320.855 447.624C320.99 447.624 321.102 447.667 321.191 447.752C321.281 447.837 321.325 447.942 321.325 448.067C321.325 448.197 321.278 448.315 321.184 448.423C321.09 448.53 320.94 448.635 320.735 448.738C320.287 448.958 319.824 449.125 319.345 449.242C318.871 449.358 318.399 449.416 317.929 449.416C316.908 449.416 316.092 449.123 315.479 448.537C314.866 447.946 314.559 447.165 314.559 446.194C314.559 445.205 314.883 444.404 315.532 443.791C316.181 443.178 317.027 442.872 318.07 442.872C319.014 442.872 319.797 443.158 320.419 443.731C321.041 444.304 321.352 444.997 321.352 445.812C321.352 446.062 321.298 446.23 321.191 446.315C321.088 446.4 320.804 446.443 320.339 446.443H320.238H315.727ZM315.761 445.563H320.13C320.063 445.031 319.84 444.603 319.459 444.281C319.083 443.955 318.62 443.791 318.07 443.791C317.475 443.791 316.973 443.948 316.566 444.261C316.159 444.574 315.89 445.008 315.761 445.563ZM328.32 448.289C328.503 448.289 328.642 448.329 328.736 448.409C328.835 448.49 328.884 448.609 328.884 448.765C328.884 448.926 328.837 449.047 328.743 449.128C328.653 449.208 328.521 449.249 328.347 449.249H323.957C323.773 449.249 323.632 449.208 323.534 449.128C323.44 449.047 323.393 448.926 323.393 448.765C323.393 448.609 323.438 448.49 323.527 448.409C323.621 448.329 323.755 448.289 323.93 448.289H325.071V444.187H323.97C323.787 444.187 323.643 444.145 323.541 444.06C323.442 443.975 323.393 443.854 323.393 443.697C323.393 443.536 323.44 443.415 323.534 443.335C323.628 443.254 323.764 443.214 323.943 443.214H325.004V442.757C325.004 441.947 325.234 441.361 325.695 440.999C326.156 440.632 326.901 440.448 327.931 440.448C328.432 440.448 328.801 440.504 329.038 440.616C329.28 440.728 329.401 440.903 329.401 441.14C329.401 441.278 329.349 441.393 329.246 441.482C329.143 441.572 329.011 441.616 328.85 441.616C328.77 441.616 328.575 441.589 328.266 441.536C327.962 441.482 327.7 441.455 327.481 441.455C326.975 441.455 326.613 441.563 326.393 441.777C326.174 441.988 326.064 442.339 326.064 442.831V443.214H328.441C328.624 443.214 328.763 443.254 328.857 443.335C328.955 443.415 329.005 443.536 329.005 443.697C329.005 443.849 328.955 443.97 328.857 444.06C328.758 444.145 328.624 444.187 328.454 444.187H326.132V448.289H328.32ZM334.509 448.477C335.198 448.477 335.762 448.26 336.201 447.825C336.644 447.387 336.865 446.83 336.865 446.154C336.865 445.478 336.644 444.921 336.201 444.483C335.757 444.04 335.194 443.818 334.509 443.818C333.824 443.818 333.26 444.04 332.817 444.483C332.379 444.921 332.16 445.478 332.16 446.154C332.16 446.834 332.379 447.391 332.817 447.825C333.256 448.26 333.82 448.477 334.509 448.477ZM338.033 446.154C338.033 447.112 337.706 447.895 337.053 448.503C336.4 449.112 335.552 449.416 334.509 449.416C333.471 449.416 332.625 449.112 331.972 448.503C331.318 447.895 330.992 447.112 330.992 446.154C330.992 445.196 331.318 444.415 331.972 443.811C332.625 443.203 333.471 442.898 334.509 442.898C335.547 442.898 336.393 443.203 337.046 443.811C337.704 444.42 338.033 445.201 338.033 446.154ZM342.765 448.477C343.455 448.477 344.018 448.26 344.457 447.825C344.9 447.387 345.122 446.83 345.122 446.154C345.122 445.478 344.9 444.921 344.457 444.483C344.014 444.04 343.45 443.818 342.765 443.818C342.081 443.818 341.517 444.04 341.074 444.483C340.635 444.921 340.416 445.478 340.416 446.154C340.416 446.834 340.635 447.391 341.074 447.825C341.512 448.26 342.076 448.477 342.765 448.477ZM346.29 446.154C346.29 447.112 345.963 447.895 345.31 448.503C344.656 449.112 343.808 449.416 342.765 449.416C341.727 449.416 340.881 449.112 340.228 448.503C339.575 447.895 339.248 447.112 339.248 446.154C339.248 445.196 339.575 444.415 340.228 443.811C340.881 443.203 341.727 442.898 342.765 442.898C343.804 442.898 344.649 443.203 345.303 443.811C345.961 444.42 346.29 445.201 346.29 446.154ZM352.855 443.422C353.074 443.422 353.233 443.46 353.331 443.536C353.434 443.612 353.486 443.733 353.486 443.899C353.486 444.055 353.439 444.174 353.345 444.254C353.251 444.33 353.11 444.368 352.922 444.368H350.203V446.61C350.203 447.344 350.297 447.828 350.485 448.06C350.677 448.293 351.004 448.409 351.465 448.409C351.872 448.409 352.36 448.291 352.928 448.054C353.497 447.817 353.848 447.698 353.982 447.698C354.108 447.698 354.213 447.743 354.298 447.832C354.387 447.922 354.432 448.031 354.432 448.161C354.432 448.309 354.376 448.439 354.264 448.55C354.157 448.658 353.971 448.763 353.707 448.866C353.268 449.04 352.872 449.168 352.519 449.249C352.17 449.329 351.841 449.369 351.532 449.369C351.009 449.369 350.568 449.287 350.21 449.121C349.856 448.951 349.592 448.7 349.418 448.369C349.328 448.213 349.263 448.027 349.223 447.812C349.187 447.597 349.169 447.266 349.169 446.819V446.61V444.368H348.028C347.84 444.368 347.704 444.333 347.619 444.261C347.534 444.185 347.491 444.064 347.491 443.899C347.491 443.715 347.549 443.59 347.666 443.523C347.782 443.456 348.03 443.422 348.411 443.422H349.169V442.046V441.69C349.169 441.498 349.21 441.357 349.29 441.267C349.375 441.173 349.505 441.126 349.679 441.126C349.876 441.126 350.013 441.182 350.089 441.294C350.165 441.406 350.203 441.661 350.203 442.059V443.422H352.855Z" fill="black"/>
<path opacity="0.6" d="M302.511 573.57C303.142 573.57 303.655 573.371 304.049 572.972C304.442 572.574 304.639 572.057 304.639 571.422C304.639 570.8 304.438 570.287 304.035 569.885C303.637 569.482 303.129 569.281 302.511 569.281C301.889 569.281 301.379 569.482 300.981 569.885C300.587 570.283 300.39 570.795 300.39 571.422C300.39 572.048 300.587 572.563 300.981 572.966C301.379 573.368 301.889 573.57 302.511 573.57ZM300.417 569.267C300.668 568.954 300.981 568.714 301.357 568.549C301.733 568.383 302.158 568.3 302.632 568.3C303.532 568.3 304.281 568.605 304.881 569.213C305.481 569.818 305.78 570.567 305.78 571.462C305.78 572.344 305.472 573.091 304.854 573.704C304.241 574.317 303.491 574.624 302.605 574.624C302.135 574.624 301.726 574.541 301.377 574.375C301.028 574.21 300.741 573.959 300.518 573.624V574.161C300.518 574.281 300.495 574.369 300.451 574.422C300.41 574.476 300.341 574.503 300.242 574.503H299.014C298.84 574.503 298.71 574.463 298.625 574.382C298.54 574.302 298.497 574.181 298.497 574.02C298.497 573.841 298.549 573.72 298.652 573.657C298.754 573.59 298.958 573.556 299.262 573.556H299.403V566.683H299.276C298.972 566.683 298.763 566.647 298.652 566.575C298.54 566.504 298.484 566.378 298.484 566.199C298.484 566.038 298.528 565.917 298.618 565.837C298.708 565.756 298.84 565.716 299.014 565.716H300.034C300.169 565.716 300.265 565.738 300.323 565.783C300.386 565.828 300.417 565.897 300.417 565.991V569.267ZM310.405 573.731C311.095 573.731 311.658 573.514 312.097 573.08C312.54 572.641 312.762 572.084 312.762 571.408C312.762 570.733 312.54 570.176 312.097 569.737C311.654 569.294 311.09 569.072 310.405 569.072C309.721 569.072 309.157 569.294 308.714 569.737C308.275 570.176 308.056 570.733 308.056 571.408C308.056 572.089 308.275 572.646 308.714 573.08C309.152 573.514 309.716 573.731 310.405 573.731ZM313.929 571.408C313.929 572.366 313.603 573.149 312.949 573.758C312.296 574.366 311.448 574.671 310.405 574.671C309.367 574.671 308.521 574.366 307.868 573.758C307.215 573.149 306.888 572.366 306.888 571.408C306.888 570.451 307.215 569.67 307.868 569.066C308.521 568.457 309.367 568.153 310.405 568.153C311.444 568.153 312.289 568.457 312.943 569.066C313.601 569.674 313.929 570.455 313.929 571.408ZM320.494 568.676C320.714 568.676 320.873 568.714 320.971 568.79C321.074 568.867 321.125 568.987 321.125 569.153C321.125 569.31 321.078 569.428 320.984 569.509C320.89 569.585 320.75 569.623 320.562 569.623H317.843V571.865C317.843 572.599 317.937 573.082 318.125 573.315C318.317 573.547 318.644 573.664 319.105 573.664C319.512 573.664 320 573.545 320.568 573.308C321.137 573.071 321.488 572.952 321.622 572.952C321.747 572.952 321.853 572.997 321.938 573.087C322.027 573.176 322.072 573.286 322.072 573.415C322.072 573.563 322.016 573.693 321.904 573.805C321.797 573.912 321.611 574.017 321.347 574.12C320.908 574.295 320.512 574.422 320.159 574.503C319.81 574.583 319.481 574.624 319.172 574.624C318.648 574.624 318.208 574.541 317.85 574.375C317.496 574.205 317.232 573.955 317.058 573.624C316.968 573.467 316.903 573.281 316.863 573.066C316.827 572.852 316.809 572.52 316.809 572.073V571.865V569.623H315.668C315.48 569.623 315.344 569.587 315.259 569.515C315.174 569.439 315.131 569.319 315.131 569.153C315.131 568.969 315.189 568.844 315.306 568.777C315.422 568.71 315.67 568.676 316.051 568.676H316.809V567.3V566.945C316.809 566.752 316.849 566.611 316.93 566.522C317.015 566.428 317.145 566.381 317.319 566.381C317.516 566.381 317.653 566.437 317.729 566.548C317.805 566.66 317.843 566.915 317.843 567.314V568.676H320.494ZM328.751 568.676C328.97 568.676 329.129 568.714 329.228 568.79C329.33 568.867 329.382 568.987 329.382 569.153C329.382 569.31 329.335 569.428 329.241 569.509C329.147 569.585 329.006 569.623 328.818 569.623H326.099V571.865C326.099 572.599 326.193 573.082 326.381 573.315C326.574 573.547 326.901 573.664 327.361 573.664C327.769 573.664 328.256 573.545 328.825 573.308C329.393 573.071 329.744 572.952 329.879 572.952C330.004 572.952 330.109 572.997 330.194 573.087C330.284 573.176 330.328 573.286 330.328 573.415C330.328 573.563 330.273 573.693 330.161 573.805C330.053 573.912 329.868 574.017 329.603 574.12C329.165 574.295 328.769 574.422 328.415 574.503C328.066 574.583 327.737 574.624 327.429 574.624C326.905 574.624 326.464 574.541 326.106 574.375C325.753 574.205 325.489 573.955 325.314 573.624C325.225 573.467 325.16 573.281 325.119 573.066C325.084 572.852 325.066 572.52 325.066 572.073V571.865V569.623H323.925C323.737 569.623 323.6 569.587 323.515 569.515C323.43 569.439 323.388 569.319 323.388 569.153C323.388 568.969 323.446 568.844 323.562 568.777C323.678 568.71 323.927 568.676 324.307 568.676H325.066V567.3V566.945C325.066 566.752 325.106 566.611 325.187 566.522C325.272 566.428 325.401 566.381 325.576 566.381C325.773 566.381 325.909 566.437 325.985 566.548C326.061 566.66 326.099 566.915 326.099 567.314V568.676H328.751ZM335.175 573.731C335.864 573.731 336.428 573.514 336.867 573.08C337.31 572.641 337.531 572.084 337.531 571.408C337.531 570.733 337.31 570.176 336.867 569.737C336.424 569.294 335.86 569.072 335.175 569.072C334.49 569.072 333.926 569.294 333.483 569.737C333.045 570.176 332.826 570.733 332.826 571.408C332.826 572.089 333.045 572.646 333.483 573.08C333.922 573.514 334.486 573.731 335.175 573.731ZM338.699 571.408C338.699 572.366 338.372 573.149 337.719 573.758C337.066 574.366 336.218 574.671 335.175 574.671C334.137 574.671 333.291 574.366 332.638 573.758C331.984 573.149 331.658 572.366 331.658 571.408C331.658 570.451 331.984 569.67 332.638 569.066C333.291 568.457 334.137 568.153 335.175 568.153C336.213 568.153 337.059 568.457 337.712 569.066C338.37 569.674 338.699 570.455 338.699 571.408ZM345.922 570.764C345.922 570.133 345.864 569.708 345.747 569.489C345.635 569.265 345.441 569.153 345.163 569.153C344.832 569.153 344.568 569.296 344.371 569.583C344.179 569.869 344.083 570.263 344.083 570.764V573.556H344.203C344.476 573.556 344.658 573.59 344.747 573.657C344.841 573.72 344.888 573.841 344.888 574.02C344.888 574.181 344.85 574.302 344.774 574.382C344.698 574.463 344.582 574.503 344.425 574.503H343.572C343.38 574.503 343.248 574.458 343.176 574.369C343.109 574.279 343.076 574.087 343.076 573.791V573.597V570.764V570.24C343.076 569.905 343 569.641 342.847 569.448C342.695 569.251 342.487 569.153 342.223 569.153C342.022 569.153 341.836 569.213 341.666 569.334C341.5 569.451 341.357 569.625 341.236 569.858V573.556H341.485C341.753 573.556 341.935 573.59 342.029 573.657C342.123 573.724 342.17 573.845 342.17 574.02C342.17 574.203 342.131 574.331 342.055 574.402C341.979 574.469 341.834 574.503 341.619 574.503H339.834C339.659 574.503 339.529 574.465 339.444 574.389C339.364 574.308 339.323 574.185 339.323 574.02C339.323 573.841 339.375 573.72 339.478 573.657C339.585 573.59 339.791 573.556 340.095 573.556H340.23V569.254H340.109C339.795 569.254 339.581 569.218 339.464 569.146C339.352 569.075 339.297 568.949 339.297 568.77C339.297 568.614 339.341 568.497 339.431 568.421C339.52 568.341 339.655 568.3 339.834 568.3H340.861C341.008 568.3 341.104 568.327 341.149 568.381C341.198 568.43 341.228 568.538 341.236 568.703C341.42 568.506 341.617 568.361 341.827 568.267C342.037 568.173 342.275 568.126 342.539 568.126C342.852 568.126 343.109 568.195 343.311 568.334C343.517 568.468 343.669 568.674 343.767 568.952C343.955 568.67 344.172 568.462 344.418 568.327C344.664 568.193 344.946 568.126 345.264 568.126C345.841 568.126 346.262 568.314 346.526 568.69C346.795 569.066 346.929 569.674 346.929 570.516V573.556H347.036C347.314 573.556 347.499 573.59 347.593 573.657C347.687 573.724 347.734 573.845 347.734 574.02C347.734 574.181 347.694 574.302 347.613 574.382C347.533 574.463 347.414 574.503 347.258 574.503H346.445C346.266 574.503 346.134 574.449 346.049 574.342C345.964 574.234 345.922 574.064 345.922 573.832V570.764Z" fill="black"/>
<path opacity="0.6" d="M312.532 605.896C312.532 605.265 312.474 604.84 312.358 604.621C312.246 604.397 312.051 604.285 311.774 604.285C311.443 604.285 311.179 604.428 310.982 604.715C310.789 605.001 310.693 605.395 310.693 605.896V608.689H310.814C311.087 608.689 311.268 608.722 311.358 608.789C311.452 608.852 311.499 608.973 311.499 609.152C311.499 609.313 311.461 609.434 311.385 609.514C311.309 609.595 311.192 609.635 311.036 609.635H310.183C309.991 609.635 309.859 609.591 309.787 609.501C309.72 609.411 309.686 609.219 309.686 608.924V608.729V605.896V605.373C309.686 605.037 309.61 604.773 309.458 604.581C309.306 604.384 309.098 604.285 308.834 604.285C308.632 604.285 308.447 604.346 308.277 604.467C308.111 604.583 307.968 604.757 307.847 604.99V608.689H308.095C308.364 608.689 308.545 608.722 308.639 608.789C308.733 608.857 308.78 608.977 308.78 609.152C308.78 609.335 308.742 609.463 308.666 609.535C308.59 609.602 308.444 609.635 308.23 609.635H306.444C306.27 609.635 306.14 609.597 306.055 609.521C305.974 609.441 305.934 609.318 305.934 609.152C305.934 608.973 305.985 608.852 306.088 608.789C306.196 608.722 306.402 608.689 306.706 608.689H306.84V604.386H306.719C306.406 604.386 306.191 604.35 306.075 604.279C305.963 604.207 305.907 604.082 305.907 603.903C305.907 603.746 305.952 603.63 306.041 603.554C306.131 603.473 306.265 603.433 306.444 603.433H307.471C307.619 603.433 307.715 603.46 307.76 603.513C307.809 603.563 307.838 603.67 307.847 603.836C308.031 603.639 308.227 603.493 308.438 603.399C308.648 603.305 308.885 603.258 309.149 603.258C309.463 603.258 309.72 603.328 309.921 603.466C310.127 603.601 310.279 603.806 310.378 604.084C310.566 603.802 310.783 603.594 311.029 603.46C311.275 603.325 311.557 603.258 311.875 603.258C312.452 603.258 312.873 603.446 313.137 603.822C313.405 604.198 313.539 604.807 313.539 605.648V608.689H313.647C313.924 608.689 314.11 608.722 314.204 608.789C314.298 608.857 314.345 608.977 314.345 609.152C314.345 609.313 314.305 609.434 314.224 609.514C314.144 609.595 314.025 609.635 313.868 609.635H313.056C312.877 609.635 312.745 609.582 312.66 609.474C312.575 609.367 312.532 609.197 312.532 608.964V605.896ZM316.03 606.829C316.066 607.474 316.283 607.973 316.681 608.326C317.084 608.675 317.632 608.85 318.325 608.85C318.849 608.85 319.42 608.711 320.037 608.434C320.655 608.152 321.028 608.011 321.158 608.011C321.292 608.011 321.404 608.053 321.494 608.138C321.583 608.223 321.628 608.329 321.628 608.454C321.628 608.584 321.581 608.702 321.487 608.81C321.393 608.917 321.243 609.022 321.037 609.125C320.59 609.344 320.127 609.512 319.648 609.629C319.173 609.745 318.701 609.803 318.231 609.803C317.211 609.803 316.394 609.51 315.781 608.924C315.168 608.333 314.862 607.552 314.862 606.581C314.862 605.592 315.186 604.791 315.835 604.178C316.484 603.565 317.33 603.258 318.372 603.258C319.317 603.258 320.1 603.545 320.722 604.117C321.344 604.69 321.655 605.384 321.655 606.198C321.655 606.449 321.601 606.617 321.494 606.702C321.391 606.787 321.107 606.829 320.641 606.829H320.541H316.03ZM316.063 605.95H320.433C320.366 605.417 320.142 604.99 319.762 604.668C319.386 604.341 318.923 604.178 318.372 604.178C317.777 604.178 317.276 604.335 316.869 604.648C316.462 604.961 316.193 605.395 316.063 605.95ZM324.058 608.689V604.386H323.931C323.626 604.386 323.416 604.35 323.3 604.279C323.188 604.207 323.132 604.082 323.132 603.903C323.132 603.737 323.179 603.619 323.273 603.547C323.367 603.471 323.519 603.433 323.729 603.433H324.045H324.689C324.81 603.433 324.904 603.457 324.971 603.507C325.038 603.556 325.072 603.623 325.072 603.708V604.164C325.398 603.86 325.721 603.636 326.038 603.493C326.36 603.346 326.694 603.272 327.038 603.272C327.714 603.272 328.244 603.482 328.629 603.903C329.019 604.323 329.213 604.905 329.213 605.648V608.689H329.529C329.753 608.689 329.914 608.727 330.012 608.803C330.111 608.874 330.16 608.991 330.16 609.152C330.16 609.326 330.106 609.452 329.999 609.528C329.896 609.599 329.71 609.635 329.442 609.635H327.958C327.672 609.635 327.488 609.602 327.408 609.535C327.327 609.467 327.287 609.34 327.287 609.152C327.287 608.977 327.334 608.857 327.428 608.789C327.522 608.722 327.699 608.689 327.958 608.689H328.193V605.896C328.193 605.373 328.074 604.974 327.837 604.701C327.6 604.424 327.255 604.285 326.804 604.285C326.347 604.285 325.944 604.44 325.595 604.748C325.246 605.057 325.072 605.44 325.072 605.896V608.689H325.307C325.575 608.689 325.756 608.722 325.85 608.789C325.944 608.857 325.991 608.977 325.991 609.152C325.991 609.34 325.951 609.467 325.87 609.535C325.79 609.602 325.593 609.635 325.28 609.635H324.058H323.696C323.512 609.635 323.373 609.597 323.279 609.521C323.19 609.441 323.145 609.318 323.145 609.152C323.145 608.973 323.197 608.852 323.3 608.789C323.407 608.722 323.613 608.689 323.917 608.689H324.058ZM333.14 607.158C333.14 607.722 333.259 608.134 333.496 608.393C333.733 608.653 334.109 608.783 334.624 608.783C335.112 608.783 335.528 608.628 335.872 608.32C336.221 608.011 336.396 607.624 336.396 607.158V604.386H335.476C335.302 604.386 335.174 604.35 335.094 604.279C335.018 604.203 334.979 604.086 334.979 603.93C334.979 603.759 335.022 603.634 335.107 603.554C335.192 603.473 335.329 603.433 335.516 603.433H336.946C337.116 603.433 337.235 603.471 337.302 603.547C337.374 603.619 337.409 603.798 337.409 604.084V608.689H337.718C337.938 608.689 338.094 608.725 338.188 608.796C338.287 608.868 338.336 608.986 338.336 609.152C338.336 609.313 338.289 609.434 338.195 609.514C338.105 609.595 337.973 609.635 337.799 609.635H336.778C336.658 609.635 336.564 609.611 336.497 609.561C336.429 609.512 336.396 609.445 336.396 609.36V608.904C335.966 609.235 335.597 609.463 335.288 609.588C334.984 609.709 334.662 609.77 334.322 609.77C333.583 609.77 333.028 609.575 332.657 609.186C332.29 608.792 332.106 608.199 332.106 607.407V604.386H331.966C331.661 604.386 331.453 604.35 331.341 604.279C331.229 604.207 331.173 604.082 331.173 603.903C331.173 603.746 331.216 603.63 331.301 603.554C331.39 603.473 331.527 603.433 331.71 603.433H332.724C332.881 603.433 332.988 603.464 333.046 603.527C333.109 603.589 333.14 603.728 333.14 603.943V607.158Z" fill="black"/>
<defs>
<filter id="filter0_d_11784_463" x="43.8177" y="40.7754" width="558.365" height="625.405" filterUnits="userSpaceOnUse" color-interpolation-filters="sRGB">
<feFlood flood-opacity="0" result="BackgroundImageFix"/>
<feColorMatrix in="SourceAlpha" type="matrix" values="0 0 0 0 0 0 0 0 0 0 0 0 0 0 0 0 0 0 127 0" result="hardAlpha"/>
<feOffset dy="6.69458"/>
<feGaussianBlur stdDeviation="9.37241"/>
<feComposite in2="hardAlpha" operator="out"/>
<feColorMatrix type="matrix" values="0 0 0 0 0 0 0 0 0 0 0 0 0 0 0 0 0 0 0.13 0"/>
<feBlend mode="normal" in2="BackgroundImageFix" result="effect1_dropShadow_11784_463"/>
<feBlend mode="normal" in="SourceGraphic" in2="effect1_dropShadow_11784_463" result="shape"/>
</filter>
<linearGradient id="paint0_linear_11784_463" x1="323" y1="52.8257" x2="323" y2="640.741" gradientUnits="userSpaceOnUse">
<stop stop-color="#E8E8E8"/>
<stop offset="1" stop-color="#CCCCCC"/>
</linearGradient>
</defs>
</svg>
