<svg width="569" height="634" viewBox="0 0 569 634" fill="none" xmlns="http://www.w3.org/2000/svg">
<rect x="46.4746" y="45.7598" width="471.996" height="24.4399" rx="4" fill="#E3F8FF"/>
<rect x="46.4746" y="82.4199" width="471.996" height="24.4399" rx="4" fill="#E3F8FF"/>
<rect x="46.4746" y="119.079" width="471.996" height="24.4399" rx="4" fill="#E3F8FF"/>
<rect x="46.4746" y="490.261" width="471.996" height="24.4399" rx="4" fill="#E3F8FF"/>
<rect x="46.4746" y="526.92" width="471.996" height="24.4399" rx="4" fill="#E3F8FF"/>
<rect x="46.4746" y="563.58" width="471.996" height="24.4399" rx="4" fill="#E3F8FF"/>
<rect x="46.4746" y="160.322" width="471.996" height="311.609" rx="4" fill="#E3F8FF"/>
<rect x="76.4961" y="189.344" width="93.1772" height="258.147" fill="white"/>
<rect x="395.744" y="189.344" width="93.1772" height="258.147" fill="white"/>
<rect x="195.641" y="189.344" width="177.189" height="258.147" fill="white"/>
<rect x="215.498" y="207.674" width="139.002" height="29.0224" fill="#F2F2F2"/>
<rect x="215.498" y="400.139" width="139.002" height="29.0224" fill="#F2F2F2"/>
<path opacity="0.6" d="M264.511 62.4087C265.142 62.4087 265.655 62.2096 266.049 61.8113C266.442 61.413 266.639 60.8962 266.639 60.2607C266.639 59.6387 266.438 59.1263 266.035 58.7235C265.637 58.3208 265.129 58.1194 264.511 58.1194C263.889 58.1194 263.379 58.3208 262.981 58.7235C262.587 59.1218 262.39 59.6342 262.39 60.2607C262.39 60.8872 262.587 61.4018 262.981 61.8046C263.379 62.2074 263.889 62.4087 264.511 62.4087ZM262.417 58.1059C262.668 57.7927 262.981 57.5533 263.357 57.3877C263.733 57.2221 264.158 57.1393 264.632 57.1393C265.532 57.1393 266.281 57.4436 266.881 58.0522C267.481 58.6564 267.78 59.406 267.78 60.301C267.78 61.1826 267.472 61.9299 266.854 62.543C266.241 63.1561 265.491 63.4626 264.605 63.4626C264.135 63.4626 263.726 63.3798 263.377 63.2143C263.028 63.0487 262.741 62.7981 262.518 62.4624V62.9995C262.518 63.1203 262.495 63.2075 262.451 63.2612C262.41 63.3149 262.341 63.3418 262.242 63.3418H261.014C260.84 63.3418 260.71 63.3015 260.625 63.221C260.54 63.1404 260.497 63.0196 260.497 62.8585C260.497 62.6795 260.549 62.5587 260.652 62.496C260.754 62.4289 260.958 62.3953 261.262 62.3953H261.403V55.5216H261.276C260.972 55.5216 260.763 55.4858 260.652 55.4142C260.54 55.3426 260.484 55.2173 260.484 55.0383C260.484 54.8772 260.528 54.7564 260.618 54.6758C260.708 54.5952 260.84 54.555 261.014 54.555H262.034C262.169 54.555 262.265 54.5773 262.323 54.6221C262.386 54.6668 262.417 54.7362 262.417 54.8302V58.1059ZM273.896 60.3748C273.649 60.2943 273.41 60.2361 273.177 60.2003C272.949 60.16 272.721 60.1399 272.493 60.1399C271.803 60.1399 271.26 60.2562 270.861 60.4889C270.463 60.7216 270.264 61.0349 270.264 61.4287C270.264 61.733 270.387 61.9836 270.633 62.1805C270.884 62.3774 271.202 62.4759 271.586 62.4759C272.155 62.4759 272.681 62.3282 273.164 62.0328C273.652 61.733 273.896 61.422 273.896 61.0998V60.3748ZM273.949 62.4893C273.582 62.8204 273.182 63.0733 272.748 63.2478C272.318 63.4223 271.875 63.5096 271.419 63.5096C270.752 63.5096 270.213 63.3239 269.801 62.9525C269.394 62.581 269.19 62.0977 269.19 61.5025C269.19 60.7955 269.461 60.2473 270.002 59.8579C270.548 59.4686 271.313 59.2739 272.298 59.2739C272.558 59.2739 272.819 59.2918 273.083 59.3276C273.347 59.359 273.618 59.4104 273.896 59.482V59.435C273.896 58.9204 273.773 58.54 273.526 58.2939C273.28 58.0478 272.898 57.9247 272.379 57.9247C272.029 57.9247 271.64 58.0187 271.211 58.2066C270.781 58.3946 270.497 58.4886 270.358 58.4886C270.228 58.4886 270.121 58.4371 270.036 58.3342C269.951 58.2268 269.908 58.0903 269.908 57.9247C269.908 57.6607 270.154 57.4369 270.647 57.2534C271.143 57.07 271.777 56.9782 272.546 56.9782C273.334 56.9782 273.929 57.1796 274.332 57.5824C274.735 57.9806 274.936 58.5714 274.936 59.3545V62.3953H275.265C275.583 62.3953 275.795 62.4289 275.903 62.496C276.01 62.5631 276.064 62.684 276.064 62.8585C276.064 63.0196 276.019 63.1404 275.929 63.221C275.84 63.3015 275.706 63.3418 275.527 63.3418H274.473C274.348 63.3418 274.245 63.3038 274.164 63.2277C274.084 63.1516 274.03 63.042 274.003 62.8988L273.949 62.4893ZM278.165 62.3953V58.0925H278.037C277.733 58.0925 277.523 58.0567 277.406 57.9851C277.294 57.9135 277.238 57.7882 277.238 57.6092C277.238 57.4436 277.285 57.325 277.379 57.2534C277.473 57.1774 277.626 57.1393 277.836 57.1393H278.151H278.796C278.917 57.1393 279.011 57.1639 279.078 57.2132C279.145 57.2624 279.178 57.3295 279.178 57.4145V57.871C279.505 57.5667 279.827 57.3429 280.145 57.1997C280.467 57.0521 280.801 56.9782 281.145 56.9782C281.821 56.9782 282.351 57.1886 282.736 57.6092C283.125 58.0299 283.32 58.6116 283.32 59.3545V62.3953H283.636C283.859 62.3953 284.02 62.4334 284.119 62.5094C284.217 62.581 284.267 62.6974 284.267 62.8585C284.267 63.033 284.213 63.1583 284.105 63.2344C284.003 63.306 283.817 63.3418 283.548 63.3418H282.065C281.778 63.3418 281.595 63.3082 281.514 63.2411C281.434 63.174 281.394 63.0464 281.394 62.8585C281.394 62.684 281.441 62.5631 281.535 62.496C281.629 62.4289 281.805 62.3953 282.065 62.3953H282.3V59.6029C282.3 59.0793 282.181 58.681 281.944 58.408C281.707 58.1306 281.362 57.9918 280.91 57.9918C280.454 57.9918 280.051 58.1462 279.702 58.455C279.353 58.7638 279.178 59.1464 279.178 59.6029V62.3953H279.413C279.682 62.3953 279.863 62.4289 279.957 62.496C280.051 62.5631 280.098 62.684 280.098 62.8585C280.098 63.0464 280.058 63.174 279.977 63.2411C279.897 63.3082 279.7 63.3418 279.386 63.3418H278.165H277.802C277.619 63.3418 277.48 63.3038 277.386 63.2277C277.297 63.1471 277.252 63.0241 277.252 62.8585C277.252 62.6795 277.303 62.5587 277.406 62.496C277.514 62.4289 277.72 62.3953 278.024 62.3953H278.165ZM286.421 62.3953V58.0925H286.294C285.989 58.0925 285.779 58.0567 285.663 57.9851C285.551 57.9135 285.495 57.7882 285.495 57.6092C285.495 57.4436 285.542 57.325 285.636 57.2534C285.73 57.1774 285.882 57.1393 286.092 57.1393H286.408H287.052C287.173 57.1393 287.267 57.1639 287.334 57.2132C287.401 57.2624 287.435 57.3295 287.435 57.4145V57.871C287.762 57.5667 288.084 57.3429 288.402 57.1997C288.724 57.0521 289.057 56.9782 289.402 56.9782C290.077 56.9782 290.608 57.1886 290.993 57.6092C291.382 58.0299 291.577 58.6116 291.577 59.3545V62.3953H291.892C292.116 62.3953 292.277 62.4334 292.375 62.5094C292.474 62.581 292.523 62.6974 292.523 62.8585C292.523 63.033 292.469 63.1583 292.362 63.2344C292.259 63.306 292.073 63.3418 291.805 63.3418H290.321C290.035 63.3418 289.851 63.3082 289.771 63.2411C289.69 63.174 289.65 63.0464 289.65 62.8585C289.65 62.684 289.697 62.5631 289.791 62.496C289.885 62.4289 290.062 62.3953 290.321 62.3953H290.556V59.6029C290.556 59.0793 290.438 58.681 290.201 58.408C289.963 58.1306 289.619 57.9918 289.167 57.9918C288.71 57.9918 288.308 58.1462 287.959 58.455C287.609 58.7638 287.435 59.1464 287.435 59.6029V62.3953H287.67C287.938 62.3953 288.12 62.4289 288.214 62.496C288.308 62.5631 288.355 62.684 288.355 62.8585C288.355 63.0464 288.314 63.174 288.234 63.2411C288.153 63.3082 287.956 63.3418 287.643 63.3418H286.421H286.059C285.875 63.3418 285.737 63.3038 285.643 63.2277C285.553 63.1471 285.508 63.0241 285.508 62.8585C285.508 62.6795 285.56 62.5587 285.663 62.496C285.77 62.4289 285.976 62.3953 286.28 62.3953H286.421ZM294.906 60.5359C294.942 61.1803 295.159 61.6793 295.557 62.0328C295.96 62.3819 296.508 62.5564 297.202 62.5564C297.725 62.5564 298.296 62.4177 298.914 62.1402C299.531 61.8583 299.905 61.7173 300.035 61.7173C300.169 61.7173 300.281 61.7599 300.37 61.8449C300.46 61.9299 300.504 62.0351 300.504 62.1604C300.504 62.2902 300.457 62.4087 300.363 62.5161C300.269 62.6235 300.12 62.7287 299.914 62.8316C299.466 63.0509 299.003 63.2187 298.524 63.3351C298.05 63.4514 297.578 63.5096 297.108 63.5096C296.088 63.5096 295.271 63.2165 294.658 62.6303C294.045 62.0395 293.738 61.2586 293.738 60.2876C293.738 59.2986 294.063 58.4975 294.711 57.8844C295.36 57.2713 296.206 56.9648 297.249 56.9648C298.193 56.9648 298.976 57.2512 299.598 57.824C300.22 58.3968 300.531 59.0905 300.531 59.9049C300.531 60.1555 300.478 60.3234 300.37 60.4084C300.267 60.4934 299.983 60.5359 299.518 60.5359H299.417H294.906ZM294.94 59.6566H299.31C299.242 59.124 299.019 58.6967 298.638 58.3745C298.262 58.0478 297.799 57.8844 297.249 57.8844C296.654 57.8844 296.152 58.0411 295.745 58.3543C295.338 58.6676 295.069 59.1017 294.94 59.6566ZM304.774 62.3953H307.002C307.177 62.3953 307.304 62.4334 307.385 62.5094C307.47 62.581 307.512 62.6974 307.512 62.8585C307.512 63.042 307.472 63.1695 307.392 63.2411C307.315 63.3082 307.172 63.3418 306.962 63.3418H302.572C302.397 63.3418 302.265 63.3015 302.176 63.221C302.086 63.1404 302.042 63.0196 302.042 62.8585C302.042 62.7019 302.086 62.5855 302.176 62.5094C302.27 62.4334 302.413 62.3953 302.605 62.3953H303.773V58.0925H303.317C302.883 58.0925 302.612 58.059 302.505 57.9918C302.397 57.9202 302.344 57.7927 302.344 57.6092C302.344 57.4526 302.386 57.3362 302.471 57.2602C302.561 57.1796 302.695 57.1393 302.874 57.1393H304.404C304.525 57.1393 304.617 57.1639 304.68 57.2132C304.742 57.2579 304.774 57.325 304.774 57.4145V58.5557C305.199 58.0232 305.642 57.6271 306.103 57.3676C306.564 57.108 307.06 56.9782 307.593 56.9782C307.991 56.9782 308.313 57.0588 308.56 57.2199C308.806 57.381 308.929 57.5891 308.929 57.8442C308.929 58.0097 308.866 58.1574 308.741 58.2872C308.62 58.4125 308.486 58.4751 308.338 58.4751C308.235 58.4751 308.061 58.408 307.814 58.2738C307.573 58.135 307.356 58.0657 307.163 58.0657C306.814 58.0657 306.445 58.191 306.056 58.4416C305.671 58.6877 305.244 59.0793 304.774 59.6163V62.3953Z" fill="black"/>
<path d="M263.068 92.9501C263.225 92.6771 263.446 92.469 263.733 92.3258C264.019 92.1826 264.361 92.111 264.76 92.111C265.467 92.111 266.01 92.3169 266.391 92.7286C266.776 93.1403 266.968 93.731 266.968 94.5007V97.0045H267.082C267.319 97.0045 267.498 97.0672 267.619 97.1925C267.745 97.3133 267.807 97.4923 267.807 97.7295C267.807 97.9935 267.742 98.1837 267.613 98.3001C267.487 98.4164 267.272 98.4746 266.968 98.4746H265.303C265.004 98.4746 264.789 98.4164 264.659 98.3001C264.534 98.1837 264.471 97.9935 264.471 97.7295C264.471 97.4879 264.531 97.3066 264.652 97.1858C264.773 97.065 264.954 97.0045 265.196 97.0045H265.303V95.0512C265.303 94.4784 265.232 94.0823 265.089 93.863C264.95 93.6393 264.71 93.5274 264.37 93.5274C264.012 93.5274 263.706 93.6728 263.451 93.9637C263.196 94.2501 263.068 94.6126 263.068 95.0512V97.0045H263.176C263.417 97.0045 263.598 97.0672 263.719 97.1925C263.845 97.3133 263.907 97.4923 263.907 97.7295C263.907 97.9935 263.842 98.1837 263.713 98.3001C263.583 98.4164 263.368 98.4746 263.068 98.4746H261.403C261.095 98.4746 260.878 98.4187 260.752 98.3068C260.627 98.1904 260.564 97.998 260.564 97.7295C260.564 97.4923 260.625 97.3133 260.746 97.1925C260.871 97.0672 261.052 97.0045 261.289 97.0045H261.403V91.178H261.289C261.052 91.178 260.869 91.1153 260.739 90.99C260.614 90.8603 260.551 90.6745 260.551 90.4329C260.551 90.1689 260.616 89.9787 260.746 89.8623C260.875 89.746 261.095 89.6878 261.403 89.6878H262.665C262.818 89.6878 262.923 89.7191 262.981 89.7818C263.039 89.8444 263.068 89.9608 263.068 90.1308V92.9501ZM270.58 95.7694C270.696 96.2662 270.92 96.6376 271.251 96.8837C271.586 97.1298 272.032 97.2529 272.587 97.2529C273.142 97.2529 273.69 97.1187 274.231 96.8502C274.773 96.5772 275.099 96.4407 275.211 96.4407C275.377 96.4407 275.511 96.5033 275.614 96.6286C275.721 96.7495 275.775 96.9061 275.775 97.0985C275.775 97.5192 275.464 97.8817 274.842 98.186C274.22 98.4903 273.45 98.6424 272.533 98.6424C271.45 98.6424 270.568 98.3381 269.888 97.7295C269.212 97.1209 268.875 96.3378 268.875 95.3801C268.875 94.4269 269.212 93.646 269.888 93.0374C270.568 92.4288 271.45 92.1245 272.533 92.1245C273.5 92.1245 274.301 92.4109 274.936 92.9837C275.571 93.552 275.889 94.2501 275.889 95.078C275.889 95.3421 275.824 95.5233 275.695 95.6217C275.569 95.7202 275.307 95.7694 274.909 95.7694H270.58ZM274.198 94.7223C274.122 94.3061 273.925 93.9839 273.607 93.7556C273.294 93.5274 272.884 93.4133 272.379 93.4133C271.891 93.4133 271.497 93.5229 271.197 93.7422C270.902 93.957 270.696 94.2837 270.58 94.7223H274.198ZM283.401 97.0045H283.508C283.75 97.0045 283.933 97.0694 284.058 97.1992C284.188 97.3245 284.253 97.5058 284.253 97.7429C284.253 98.0025 284.186 98.1904 284.052 98.3068C283.922 98.4187 283.705 98.4746 283.401 98.4746H282.77C282.546 98.4746 282.378 98.4321 282.266 98.3471C282.159 98.262 282.069 98.1077 281.998 97.8839C281.626 98.13 281.232 98.318 280.816 98.4478C280.4 98.5775 279.979 98.6424 279.554 98.6424C278.834 98.6424 278.268 98.4634 277.856 98.1054C277.444 97.7474 277.238 97.2574 277.238 96.6354C277.238 95.9641 277.505 95.4427 278.037 95.0713C278.57 94.6999 279.317 94.5142 280.279 94.5142C280.494 94.5142 280.722 94.5253 280.964 94.5477C281.206 94.5701 281.476 94.6059 281.776 94.6551V94.5276C281.776 94.1248 281.678 93.8183 281.481 93.608C281.288 93.3976 281.002 93.2925 280.622 93.2925C280.326 93.2925 279.948 93.4021 279.487 93.6214C279.031 93.8407 278.695 93.9503 278.48 93.9503C278.27 93.9503 278.1 93.8899 277.97 93.7691C277.84 93.6438 277.775 93.4804 277.775 93.279C277.775 92.9166 278.039 92.6302 278.568 92.4198C279.1 92.205 279.823 92.0976 280.736 92.0976C281.689 92.0976 282.371 92.2811 282.783 92.6481C283.195 93.015 283.401 93.637 283.401 94.5142V97.0045ZM281.776 95.709C281.552 95.6598 281.347 95.624 281.159 95.6016C280.971 95.5748 280.796 95.5613 280.635 95.5613C280.143 95.5613 279.756 95.6441 279.474 95.8097C279.196 95.9753 279.058 96.2035 279.058 96.4944C279.058 96.7539 279.147 96.9531 279.326 97.0918C279.505 97.2261 279.762 97.2932 280.098 97.2932C280.407 97.2932 280.698 97.2484 280.971 97.1589C281.244 97.0694 281.512 96.9307 281.776 96.7428V95.709ZM291.778 97.0045H291.892C292.134 97.0045 292.315 97.0672 292.436 97.1925C292.557 97.3133 292.617 97.4923 292.617 97.7295C292.617 97.9935 292.552 98.1837 292.422 98.3001C292.297 98.4164 292.082 98.4746 291.778 98.4746H290.751C290.621 98.4746 290.521 98.45 290.449 98.4008C290.382 98.3471 290.348 98.2755 290.348 98.186V97.7161C290.129 98.0159 289.847 98.2464 289.502 98.4075C289.158 98.5641 288.771 98.6424 288.341 98.6424C287.464 98.6424 286.73 98.3448 286.139 97.7496C285.549 97.15 285.253 96.4026 285.253 95.5076C285.253 94.5768 285.551 93.8049 286.146 93.1918C286.746 92.5787 287.507 92.2721 288.428 92.2721C288.746 92.2721 289.055 92.3258 289.355 92.4332C289.659 92.5362 289.937 92.6839 290.187 92.8763V91.178H289.294C288.986 91.178 288.766 91.1198 288.636 91.0035C288.507 90.8826 288.442 90.6924 288.442 90.4329C288.442 90.1689 288.507 89.9787 288.636 89.8623C288.766 89.746 288.986 89.6878 289.294 89.6878H291.382C291.534 89.6878 291.637 89.7191 291.691 89.7818C291.749 89.8444 291.778 89.9608 291.778 90.1308V97.0045ZM288.63 93.7019C288.191 93.7019 287.827 93.8675 287.536 94.1987C287.249 94.5253 287.106 94.9415 287.106 95.4472C287.106 95.9663 287.249 96.3915 287.536 96.7226C287.822 97.0493 288.187 97.2126 288.63 97.2126C289.073 97.2126 289.438 97.0471 289.724 96.7159C290.015 96.3847 290.16 95.9619 290.16 95.4472C290.16 94.946 290.015 94.5298 289.724 94.1987C289.433 93.8675 289.068 93.7019 288.63 93.7019ZM295.349 95.7694C295.465 96.2662 295.689 96.6376 296.02 96.8837C296.356 97.1298 296.801 97.2529 297.356 97.2529C297.911 97.2529 298.459 97.1187 299.001 96.8502C299.542 96.5772 299.869 96.4407 299.981 96.4407C300.146 96.4407 300.281 96.5033 300.384 96.6286C300.491 96.7495 300.545 96.9061 300.545 97.0985C300.545 97.5192 300.234 97.8817 299.612 98.186C298.99 98.4903 298.22 98.6424 297.302 98.6424C296.22 98.6424 295.338 98.3381 294.658 97.7295C293.982 97.1209 293.644 96.3378 293.644 95.3801C293.644 94.4269 293.982 93.646 294.658 93.0374C295.338 92.4288 296.22 92.1245 297.302 92.1245C298.269 92.1245 299.07 92.4109 299.706 92.9837C300.341 93.552 300.659 94.2501 300.659 95.078C300.659 95.3421 300.594 95.5233 300.464 95.6217C300.339 95.7202 300.077 95.7694 299.679 95.7694H295.349ZM298.967 94.7223C298.891 94.3061 298.694 93.9839 298.377 93.7556C298.063 93.5274 297.654 93.4133 297.148 93.4133C296.66 93.4133 296.267 93.5229 295.967 93.7422C295.671 93.957 295.465 94.2837 295.349 94.7223H298.967ZM305.129 94.8297V97.0045H306.714C307.018 97.0045 307.233 97.0605 307.358 97.1724C307.488 97.2842 307.553 97.47 307.553 97.7295C307.553 97.9935 307.488 98.1837 307.358 98.3001C307.233 98.4164 307.018 98.4746 306.714 98.4746H302.961C302.652 98.4746 302.433 98.4164 302.303 98.3001C302.174 98.1837 302.109 97.9935 302.109 97.7295C302.109 97.47 302.171 97.2842 302.297 97.1724C302.426 97.0605 302.648 97.0045 302.961 97.0045H303.471V93.7422H303.183C302.878 93.7422 302.661 93.6863 302.532 93.5744C302.406 93.458 302.344 93.2679 302.344 93.0038C302.344 92.7398 302.404 92.5518 302.525 92.44C302.65 92.3281 302.869 92.2721 303.183 92.2721H304.613C304.733 92.2721 304.827 92.299 304.894 92.3527C304.962 92.4019 304.995 92.4713 304.995 92.5608V93.5543C305.483 93.0307 305.937 92.657 306.358 92.4332C306.783 92.2095 307.239 92.0976 307.727 92.0976C308.17 92.0976 308.522 92.1983 308.781 92.3997C309.041 92.5966 309.17 92.8629 309.17 93.1985C309.17 93.458 309.081 93.6728 308.902 93.8429C308.723 94.0085 308.492 94.0913 308.211 94.0913C308.009 94.0913 307.77 94.0174 307.492 93.8697C307.219 93.7221 307.029 93.6482 306.922 93.6482C306.707 93.6482 306.454 93.7444 306.163 93.9369C305.872 94.1293 305.528 94.4269 305.129 94.8297Z" fill="black"/>
<path d="M108.156 225.314H108.264C108.506 225.314 108.689 225.379 108.814 225.509C108.944 225.634 109.009 225.815 109.009 226.053C109.009 226.312 108.942 226.5 108.808 226.616C108.678 226.728 108.461 226.784 108.156 226.784H107.525C107.302 226.784 107.134 226.742 107.022 226.657C106.915 226.572 106.825 226.417 106.754 226.193C106.382 226.44 105.988 226.628 105.572 226.757C105.156 226.887 104.735 226.952 104.31 226.952C103.59 226.952 103.024 226.773 102.612 226.415C102.2 226.057 101.994 225.567 101.994 224.945C101.994 224.274 102.261 223.752 102.793 223.381C103.326 223.009 104.073 222.824 105.035 222.824C105.25 222.824 105.478 222.835 105.72 222.857C105.961 222.88 106.232 222.915 106.532 222.965V222.837C106.532 222.434 106.434 222.128 106.237 221.918C106.044 221.707 105.758 221.602 105.377 221.602C105.082 221.602 104.704 221.712 104.243 221.931C103.787 222.15 103.451 222.26 103.236 222.26C103.026 222.26 102.856 222.199 102.726 222.079C102.596 221.953 102.531 221.79 102.531 221.589C102.531 221.226 102.795 220.94 103.323 220.729C103.856 220.515 104.579 220.407 105.492 220.407C106.445 220.407 107.127 220.591 107.539 220.958C107.951 221.325 108.156 221.947 108.156 222.824V225.314ZM106.532 224.019C106.308 223.969 106.102 223.934 105.914 223.911C105.727 223.884 105.552 223.871 105.391 223.871C104.899 223.871 104.512 223.954 104.23 224.119C103.952 224.285 103.813 224.513 103.813 224.804C103.813 225.064 103.903 225.263 104.082 225.401C104.261 225.536 104.518 225.603 104.854 225.603C105.163 225.603 105.454 225.558 105.727 225.469C105.999 225.379 106.268 225.24 106.532 225.052V224.019ZM111.902 226.69C111.786 226.78 111.665 226.847 111.54 226.892C111.419 226.941 111.294 226.965 111.164 226.965C110.971 226.965 110.835 226.914 110.754 226.811C110.678 226.708 110.64 226.516 110.64 226.234V225.341C110.64 225.046 110.689 224.838 110.788 224.717C110.886 224.591 111.056 224.529 111.298 224.529C111.562 224.529 111.777 224.656 111.942 224.911C112.041 225.05 112.124 225.153 112.191 225.22C112.41 225.417 112.665 225.565 112.956 225.663C113.247 225.762 113.578 225.811 113.949 225.811C114.272 225.811 114.529 225.748 114.721 225.623C114.914 225.498 115.01 225.334 115.01 225.133C115.01 224.77 114.493 224.52 113.459 224.381C113.231 224.354 113.052 224.33 112.922 224.307C112.144 224.2 111.564 223.989 111.184 223.676C110.803 223.359 110.613 222.933 110.613 222.401C110.613 221.77 110.842 221.282 111.298 220.937C111.754 220.593 112.406 220.421 113.251 220.421C113.542 220.421 113.84 220.445 114.144 220.494C114.453 220.539 114.768 220.611 115.091 220.709C115.185 220.597 115.283 220.515 115.386 220.461C115.493 220.407 115.612 220.38 115.742 220.38C115.925 220.38 116.064 220.439 116.158 220.555C116.256 220.667 116.306 220.837 116.306 221.065V221.891C116.306 222.083 116.256 222.233 116.158 222.34C116.059 222.443 115.921 222.495 115.742 222.495C115.558 222.495 115.243 222.336 114.795 222.018C114.352 221.696 113.907 221.535 113.459 221.535C113.11 221.535 112.84 221.593 112.647 221.709C112.455 221.821 112.359 221.978 112.359 222.179C112.359 222.493 112.761 222.703 113.567 222.81C113.8 222.837 113.983 222.86 114.117 222.877C115.129 223.025 115.822 223.247 116.198 223.542C116.579 223.833 116.769 224.267 116.769 224.844C116.769 225.52 116.518 226.044 116.017 226.415C115.52 226.782 114.813 226.965 113.896 226.965C113.538 226.965 113.193 226.941 112.862 226.892C112.531 226.847 112.211 226.78 111.902 226.69ZM122.871 225.314H124.314C124.623 225.314 124.842 225.37 124.972 225.482C125.101 225.594 125.166 225.78 125.166 226.039C125.166 226.303 125.099 226.493 124.965 226.61C124.835 226.726 124.618 226.784 124.314 226.784H119.776C119.472 226.784 119.252 226.726 119.118 226.61C118.988 226.493 118.924 226.303 118.924 226.039C118.924 225.78 118.986 225.594 119.111 225.482C119.241 225.37 119.463 225.314 119.776 225.314H121.219V222.052H120.461C120.161 222.052 119.946 221.996 119.816 221.884C119.687 221.768 119.622 221.577 119.622 221.313C119.622 221.049 119.684 220.861 119.81 220.75C119.935 220.638 120.152 220.582 120.461 220.582H122.481C122.607 220.582 122.703 220.609 122.77 220.662C122.837 220.711 122.871 220.781 122.871 220.87V225.314ZM121.904 217.548C122.231 217.548 122.448 217.61 122.555 217.736C122.662 217.861 122.716 218.161 122.716 218.635C122.716 219.092 122.667 219.376 122.568 219.488C122.475 219.595 122.249 219.649 121.891 219.649C121.541 219.649 121.315 219.597 121.213 219.494C121.114 219.391 121.065 219.185 121.065 218.877C121.065 218.304 121.116 217.939 121.219 217.783C121.322 217.626 121.55 217.548 121.904 217.548ZM133.047 225.314H133.161C133.403 225.314 133.584 225.377 133.705 225.502C133.826 225.623 133.886 225.802 133.886 226.039C133.886 226.303 133.821 226.493 133.691 226.61C133.566 226.726 133.351 226.784 133.047 226.784H132.02C131.89 226.784 131.789 226.76 131.718 226.71C131.651 226.657 131.617 226.585 131.617 226.496V226.026C131.398 226.325 131.116 226.556 130.771 226.717C130.427 226.874 130.04 226.952 129.61 226.952C128.733 226.952 127.999 226.654 127.408 226.059C126.818 225.46 126.522 224.712 126.522 223.817C126.522 222.886 126.82 222.114 127.415 221.501C128.015 220.888 128.775 220.582 129.697 220.582C130.015 220.582 130.324 220.635 130.624 220.743C130.928 220.846 131.205 220.993 131.456 221.186V219.488H130.563C130.254 219.488 130.035 219.429 129.905 219.313C129.776 219.192 129.711 219.002 129.711 218.742C129.711 218.478 129.776 218.288 129.905 218.172C130.035 218.056 130.254 217.997 130.563 217.997H132.651C132.803 217.997 132.906 218.029 132.96 218.091C133.018 218.154 133.047 218.27 133.047 218.44V225.314ZM129.899 222.012C129.46 222.012 129.095 222.177 128.805 222.508C128.518 222.835 128.375 223.251 128.375 223.757C128.375 224.276 128.518 224.701 128.805 225.032C129.091 225.359 129.456 225.522 129.899 225.522C130.342 225.522 130.706 225.357 130.993 225.025C131.284 224.694 131.429 224.271 131.429 223.757C131.429 223.256 131.284 222.839 130.993 222.508C130.702 222.177 130.337 222.012 129.899 222.012ZM136.618 224.079C136.734 224.576 136.958 224.947 137.289 225.193C137.625 225.439 138.07 225.562 138.625 225.562C139.18 225.562 139.728 225.428 140.27 225.16C140.811 224.887 141.138 224.75 141.25 224.75C141.415 224.75 141.55 224.813 141.652 224.938C141.76 225.059 141.814 225.216 141.814 225.408C141.814 225.829 141.503 226.191 140.881 226.496C140.258 226.8 139.489 226.952 138.571 226.952C137.488 226.952 136.607 226.648 135.927 226.039C135.251 225.43 134.913 224.647 134.913 223.69C134.913 222.736 135.251 221.956 135.927 221.347C136.607 220.738 137.488 220.434 138.571 220.434C139.538 220.434 140.339 220.72 140.975 221.293C141.61 221.862 141.928 222.56 141.928 223.388C141.928 223.652 141.863 223.833 141.733 223.931C141.608 224.03 141.346 224.079 140.948 224.079H136.618ZM140.236 223.032C140.16 222.616 139.963 222.293 139.645 222.065C139.332 221.837 138.923 221.723 138.417 221.723C137.929 221.723 137.535 221.833 137.236 222.052C136.94 222.267 136.734 222.593 136.618 223.032H140.236Z" fill="black"/>
<path opacity="0.6" d="M421.843 225.851C422.474 225.851 422.987 225.652 423.381 225.254C423.774 224.855 423.971 224.339 423.971 223.703C423.971 223.081 423.77 222.569 423.367 222.166C422.969 221.763 422.461 221.562 421.843 221.562C421.221 221.562 420.711 221.763 420.313 222.166C419.919 222.564 419.722 223.077 419.722 223.703C419.722 224.33 419.919 224.844 420.313 225.247C420.711 225.65 421.221 225.851 421.843 225.851ZM419.749 221.548C420 221.235 420.313 220.996 420.689 220.83C421.065 220.665 421.49 220.582 421.964 220.582C422.864 220.582 423.613 220.886 424.213 221.495C424.813 222.099 425.112 222.848 425.112 223.743C425.112 224.625 424.804 225.372 424.186 225.985C423.573 226.598 422.823 226.905 421.937 226.905C421.467 226.905 421.058 226.822 420.709 226.657C420.36 226.491 420.073 226.24 419.85 225.905V226.442C419.85 226.563 419.827 226.65 419.783 226.704C419.742 226.757 419.673 226.784 419.574 226.784H418.346C418.172 226.784 418.042 226.744 417.957 226.663C417.872 226.583 417.829 226.462 417.829 226.301C417.829 226.122 417.881 226.001 417.984 225.938C418.087 225.871 418.29 225.838 418.594 225.838H418.735V218.964H418.608C418.304 218.964 418.095 218.928 417.984 218.857C417.872 218.785 417.816 218.66 417.816 218.481C417.816 218.32 417.861 218.199 417.95 218.118C418.04 218.038 418.172 217.997 418.346 217.997H419.366C419.501 217.997 419.597 218.02 419.655 218.064C419.718 218.109 419.749 218.179 419.749 218.273V221.548ZM427.469 223.978C427.504 224.623 427.721 225.122 428.12 225.475C428.522 225.824 429.071 225.999 429.764 225.999C430.288 225.999 430.858 225.86 431.476 225.583C432.094 225.301 432.467 225.16 432.597 225.16C432.731 225.16 432.843 225.202 432.933 225.287C433.022 225.372 433.067 225.477 433.067 225.603C433.067 225.733 433.02 225.851 432.926 225.959C432.832 226.066 432.682 226.171 432.476 226.274C432.029 226.493 431.565 226.661 431.087 226.777C430.612 226.894 430.14 226.952 429.67 226.952C428.65 226.952 427.833 226.659 427.22 226.073C426.607 225.482 426.301 224.701 426.301 223.73C426.301 222.741 426.625 221.94 427.274 221.327C427.923 220.714 428.769 220.407 429.811 220.407C430.755 220.407 431.539 220.694 432.161 221.266C432.783 221.839 433.094 222.533 433.094 223.347C433.094 223.598 433.04 223.766 432.933 223.851C432.83 223.936 432.546 223.978 432.08 223.978H431.979H427.469ZM427.502 223.099H431.872C431.805 222.566 431.581 222.139 431.201 221.817C430.825 221.49 430.362 221.327 429.811 221.327C429.216 221.327 428.715 221.483 428.308 221.797C427.9 222.11 427.632 222.544 427.502 223.099ZM435.067 226.301V225.106C435.067 224.909 435.103 224.768 435.175 224.683C435.251 224.598 435.372 224.556 435.537 224.556C435.721 224.556 435.866 224.681 435.973 224.931C436.045 225.084 436.11 225.198 436.168 225.274C436.356 225.515 436.634 225.71 437 225.858C437.367 226.001 437.772 226.073 438.215 226.073C438.69 226.073 439.07 225.976 439.357 225.784C439.643 225.592 439.786 225.339 439.786 225.025C439.786 224.708 439.67 224.482 439.437 224.347C439.209 224.213 438.815 224.146 438.256 224.146H437.887C436.974 224.146 436.278 223.987 435.799 223.67C435.32 223.352 435.081 222.891 435.081 222.287C435.081 221.696 435.313 221.237 435.779 220.911C436.249 220.584 436.906 220.421 437.752 220.421C438.097 220.421 438.448 220.47 438.806 220.568C439.164 220.662 439.352 220.709 439.37 220.709C439.419 220.709 439.513 220.667 439.652 220.582C439.791 220.492 439.927 220.447 440.061 220.447C440.214 220.447 440.325 220.503 440.397 220.615C440.473 220.727 440.511 220.895 440.511 221.119V221.904C440.511 222.141 440.475 222.314 440.404 222.421C440.332 222.524 440.218 222.575 440.061 222.575C439.927 222.575 439.762 222.461 439.565 222.233C439.426 222.076 439.312 221.958 439.222 221.877C438.985 221.658 438.732 221.501 438.464 221.407C438.195 221.309 437.88 221.26 437.517 221.26C437.097 221.26 436.757 221.354 436.497 221.542C436.242 221.725 436.114 221.96 436.114 222.246C436.114 222.528 436.246 222.73 436.51 222.851C436.774 222.971 437.343 223.041 438.215 223.059C439.146 223.081 439.826 223.244 440.256 223.549C440.686 223.849 440.9 224.314 440.9 224.945C440.9 225.549 440.663 226.032 440.189 226.395C439.715 226.757 439.075 226.939 438.269 226.939C438.014 226.939 437.73 226.914 437.417 226.865C437.103 226.82 436.71 226.742 436.235 226.63C436.079 226.733 435.944 226.809 435.832 226.858C435.721 226.912 435.627 226.939 435.551 226.939C435.394 226.939 435.273 226.885 435.188 226.777C435.108 226.666 435.067 226.507 435.067 226.301ZM445.633 218.648C445.633 218.165 445.675 217.861 445.76 217.736C445.85 217.61 446.038 217.548 446.324 217.548C446.602 217.548 446.785 217.601 446.875 217.709C446.964 217.812 447.009 218.06 447.009 218.454C447.009 218.839 446.966 219.078 446.881 219.172C446.801 219.262 446.615 219.306 446.324 219.306C446.038 219.306 445.85 219.264 445.76 219.179C445.675 219.094 445.633 218.917 445.633 218.648ZM446.875 225.838H449.029C449.204 225.838 449.332 225.876 449.412 225.952C449.497 226.023 449.54 226.14 449.54 226.301C449.54 226.484 449.499 226.612 449.419 226.683C449.343 226.751 449.2 226.784 448.989 226.784H443.78C443.601 226.784 443.467 226.744 443.377 226.663C443.288 226.583 443.243 226.462 443.243 226.301C443.243 226.144 443.29 226.028 443.384 225.952C443.478 225.876 443.619 225.838 443.807 225.838H445.854V221.535H444.545C444.362 221.535 444.221 221.495 444.123 221.414C444.029 221.329 443.982 221.208 443.982 221.052C443.982 220.895 444.026 220.779 444.116 220.703C444.205 220.622 444.34 220.582 444.519 220.582H446.485C446.606 220.582 446.7 220.606 446.767 220.656C446.839 220.705 446.875 220.772 446.875 220.857V225.838ZM456.527 226.784C456.434 226.784 456.366 226.762 456.326 226.717C456.29 226.668 456.272 226.576 456.272 226.442V225.891C456.004 226.227 455.668 226.489 455.266 226.677C454.863 226.86 454.426 226.952 453.957 226.952C453.111 226.952 452.401 226.652 451.829 226.053C451.26 225.448 450.976 224.699 450.976 223.804C450.976 222.877 451.28 222.108 451.889 221.495C452.498 220.877 453.256 220.568 454.165 220.568C454.626 220.568 455.04 220.651 455.406 220.817C455.773 220.978 456.089 221.217 456.353 221.535V218.964H455.997C455.608 218.964 455.355 218.93 455.239 218.863C455.127 218.792 455.071 218.664 455.071 218.481C455.071 218.32 455.116 218.199 455.205 218.118C455.299 218.038 455.433 217.997 455.608 217.997H456.984C457.118 217.997 457.214 218.02 457.273 218.064C457.335 218.109 457.367 218.179 457.367 218.273V225.838H457.669C457.888 225.838 458.047 225.876 458.145 225.952C458.244 226.023 458.293 226.14 458.293 226.301C458.293 226.453 458.25 226.572 458.165 226.657C458.08 226.742 457.966 226.784 457.823 226.784H456.527ZM452.131 223.77C452.131 224.388 452.33 224.893 452.728 225.287C453.126 225.681 453.632 225.878 454.245 225.878C454.863 225.878 455.371 225.674 455.769 225.267C456.167 224.855 456.366 224.334 456.366 223.703C456.366 223.081 456.167 222.569 455.769 222.166C455.375 221.763 454.867 221.562 454.245 221.562C453.614 221.562 453.104 221.765 452.715 222.173C452.325 222.58 452.131 223.112 452.131 223.77ZM460.495 223.978C460.53 224.623 460.747 225.122 461.146 225.475C461.549 225.824 462.097 225.999 462.79 225.999C463.314 225.999 463.885 225.86 464.502 225.583C465.12 225.301 465.493 225.16 465.623 225.16C465.757 225.16 465.869 225.202 465.959 225.287C466.048 225.372 466.093 225.477 466.093 225.603C466.093 225.733 466.046 225.851 465.952 225.959C465.858 226.066 465.708 226.171 465.502 226.274C465.055 226.493 464.592 226.661 464.113 226.777C463.638 226.894 463.166 226.952 462.696 226.952C461.676 226.952 460.859 226.659 460.246 226.073C459.633 225.482 459.327 224.701 459.327 223.73C459.327 222.741 459.651 221.94 460.3 221.327C460.949 220.714 461.795 220.407 462.837 220.407C463.782 220.407 464.565 220.694 465.187 221.266C465.809 221.839 466.12 222.533 466.12 223.347C466.12 223.598 466.066 223.766 465.959 223.851C465.856 223.936 465.572 223.978 465.106 223.978H465.006H460.495ZM460.528 223.099H464.898C464.831 222.566 464.607 222.139 464.227 221.817C463.851 221.49 463.388 221.327 462.837 221.327C462.242 221.327 461.741 221.483 461.334 221.797C460.926 222.11 460.658 222.544 460.528 223.099Z" fill="black"/>
<path d="M264.578 501.836H266.022C266.33 501.836 266.55 501.894 266.68 502.01C266.809 502.122 266.874 502.308 266.874 502.568C266.874 502.827 266.807 503.015 266.673 503.131C266.543 503.248 266.326 503.306 266.022 503.306H264.578V506.374H265.914C266.223 506.374 266.442 506.43 266.572 506.542C266.702 506.653 266.767 506.839 266.767 507.099C266.767 507.363 266.7 507.553 266.565 507.669C266.436 507.786 266.219 507.844 265.914 507.844H262.216C261.907 507.844 261.688 507.786 261.558 507.669C261.428 507.553 261.363 507.363 261.363 507.099C261.363 506.839 261.426 506.653 261.551 506.542C261.681 506.43 261.902 506.374 262.216 506.374H262.927V503.306H262.216C261.907 503.306 261.688 503.248 261.558 503.131C261.428 503.015 261.363 502.827 261.363 502.568C261.363 502.304 261.426 502.116 261.551 502.004C261.681 501.892 261.902 501.836 262.216 501.836H262.927V501.453C262.927 500.576 263.153 499.954 263.605 499.587C264.057 499.216 264.827 499.03 265.914 499.03C266.478 499.03 266.892 499.097 267.156 499.231C267.425 499.366 267.559 499.574 267.559 499.856C267.559 500.044 267.498 500.194 267.378 500.305C267.261 500.417 267.102 500.473 266.901 500.473C266.753 500.473 266.543 500.453 266.27 500.413C266.002 500.373 265.814 500.352 265.706 500.352C265.29 500.352 264.997 500.446 264.827 500.634C264.661 500.818 264.578 501.145 264.578 501.614V501.836ZM272.405 502.91C271.882 502.91 271.45 503.082 271.11 503.427C270.774 503.767 270.606 504.203 270.606 504.736C270.606 505.273 270.774 505.718 271.11 506.072C271.45 506.421 271.882 506.595 272.405 506.595C272.929 506.595 273.361 506.421 273.701 506.072C274.041 505.718 274.211 505.273 274.211 504.736C274.211 504.203 274.041 503.767 273.701 503.427C273.365 503.082 272.933 502.91 272.405 502.91ZM272.405 501.494C273.493 501.494 274.374 501.798 275.05 502.407C275.726 503.015 276.064 503.796 276.064 504.749C276.064 505.707 275.726 506.49 275.05 507.099C274.374 507.707 273.493 508.012 272.405 508.012C271.322 508.012 270.443 507.707 269.767 507.099C269.092 506.49 268.754 505.707 268.754 504.749C268.754 503.796 269.092 503.015 269.767 502.407C270.448 501.798 271.327 501.494 272.405 501.494ZM280.662 502.91C280.138 502.91 279.706 503.082 279.366 503.427C279.031 503.767 278.863 504.203 278.863 504.736C278.863 505.273 279.031 505.718 279.366 506.072C279.706 506.421 280.138 506.595 280.662 506.595C281.185 506.595 281.617 506.421 281.957 506.072C282.298 505.718 282.468 505.273 282.468 504.736C282.468 504.203 282.298 503.767 281.957 503.427C281.622 503.082 281.19 502.91 280.662 502.91ZM280.662 501.494C281.749 501.494 282.631 501.798 283.307 502.407C283.982 503.015 284.32 503.796 284.32 504.749C284.32 505.707 283.982 506.49 283.307 507.099C282.631 507.707 281.749 508.012 280.662 508.012C279.579 508.012 278.7 507.707 278.024 507.099C277.348 506.49 277.01 505.707 277.01 504.749C277.01 503.796 277.348 503.015 278.024 502.407C278.704 501.798 279.583 501.494 280.662 501.494ZM288.455 502.017H290.503C290.811 502.017 291.031 502.073 291.16 502.185C291.29 502.297 291.355 502.483 291.355 502.742C291.355 503.006 291.288 503.196 291.154 503.313C291.024 503.429 290.807 503.487 290.503 503.487H288.455V505.206C288.455 505.689 288.529 506.02 288.677 506.199C288.824 506.378 289.084 506.468 289.455 506.468C289.804 506.468 290.216 506.367 290.691 506.166C291.165 505.964 291.483 505.864 291.644 505.864C291.827 505.864 291.984 505.937 292.114 506.085C292.248 506.228 292.315 506.403 292.315 506.609C292.315 506.953 292.002 507.269 291.375 507.555C290.753 507.837 290.046 507.978 289.254 507.978C288.793 507.978 288.388 507.915 288.039 507.79C287.69 507.665 287.415 507.486 287.213 507.253C287.066 507.074 286.961 506.859 286.898 506.609C286.835 506.358 286.804 505.94 286.804 505.353V505.206V503.487H286.173C285.869 503.487 285.652 503.429 285.522 503.313C285.397 503.196 285.334 503.006 285.334 502.742C285.334 502.478 285.397 502.292 285.522 502.185C285.647 502.073 285.864 502.017 286.173 502.017H286.804V500.446C286.804 500.138 286.867 499.921 286.992 499.795C287.122 499.67 287.334 499.607 287.63 499.607C287.925 499.607 288.135 499.67 288.261 499.795C288.39 499.921 288.455 500.138 288.455 500.446V502.017ZM295.349 505.139C295.465 505.635 295.689 506.007 296.02 506.253C296.356 506.499 296.801 506.622 297.356 506.622C297.911 506.622 298.459 506.488 299.001 506.219C299.542 505.946 299.869 505.81 299.981 505.81C300.146 505.81 300.281 505.872 300.384 505.998C300.491 506.119 300.545 506.275 300.545 506.468C300.545 506.888 300.234 507.251 299.612 507.555C298.99 507.859 298.22 508.012 297.302 508.012C296.22 508.012 295.338 507.707 294.658 507.099C293.982 506.49 293.644 505.707 293.644 504.749C293.644 503.796 293.982 503.015 294.658 502.407C295.338 501.798 296.22 501.494 297.302 501.494C298.269 501.494 299.07 501.78 299.706 502.353C300.341 502.921 300.659 503.619 300.659 504.447C300.659 504.711 300.594 504.892 300.464 504.991C300.339 505.089 300.077 505.139 299.679 505.139H295.349ZM298.967 504.091C298.891 503.675 298.694 503.353 298.377 503.125C298.063 502.897 297.654 502.782 297.148 502.782C296.66 502.782 296.267 502.892 295.967 503.111C295.671 503.326 295.465 503.653 295.349 504.091H298.967ZM305.129 504.199V506.374H306.714C307.018 506.374 307.233 506.43 307.358 506.542C307.488 506.653 307.553 506.839 307.553 507.099C307.553 507.363 307.488 507.553 307.358 507.669C307.233 507.786 307.018 507.844 306.714 507.844H302.961C302.652 507.844 302.433 507.786 302.303 507.669C302.174 507.553 302.109 507.363 302.109 507.099C302.109 506.839 302.171 506.653 302.297 506.542C302.426 506.43 302.648 506.374 302.961 506.374H303.471V503.111H303.183C302.878 503.111 302.661 503.055 302.532 502.944C302.406 502.827 302.344 502.637 302.344 502.373C302.344 502.109 302.404 501.921 302.525 501.809C302.65 501.697 302.869 501.641 303.183 501.641H304.613C304.733 501.641 304.827 501.668 304.894 501.722C304.962 501.771 304.995 501.84 304.995 501.93V502.923C305.483 502.4 305.937 502.026 306.358 501.802C306.783 501.579 307.239 501.467 307.727 501.467C308.17 501.467 308.522 501.567 308.781 501.769C309.041 501.966 309.17 502.232 309.17 502.568C309.17 502.827 309.081 503.042 308.902 503.212C308.723 503.378 308.492 503.46 308.211 503.46C308.009 503.46 307.77 503.387 307.492 503.239C307.219 503.091 307.029 503.017 306.922 503.017C306.707 503.017 306.454 503.114 306.163 503.306C305.872 503.498 305.528 503.796 305.129 504.199Z" fill="black"/>
<path opacity="0.6" d="M249.117 134.651V133.457C249.117 133.26 249.152 133.119 249.224 133.034C249.3 132.949 249.421 132.906 249.587 132.906C249.77 132.906 249.915 133.031 250.023 133.282C250.094 133.434 250.159 133.548 250.218 133.624C250.405 133.866 250.683 134.061 251.05 134.208C251.417 134.352 251.822 134.423 252.265 134.423C252.739 134.423 253.12 134.327 253.406 134.135C253.692 133.942 253.836 133.689 253.836 133.376C253.836 133.058 253.719 132.832 253.487 132.698C253.258 132.564 252.865 132.497 252.305 132.497H251.936C251.023 132.497 250.327 132.338 249.848 132.02C249.369 131.702 249.13 131.241 249.13 130.637C249.13 130.047 249.363 129.588 249.828 129.261C250.298 128.935 250.956 128.771 251.802 128.771C252.146 128.771 252.498 128.82 252.856 128.919C253.214 129.013 253.402 129.06 253.419 129.06C253.469 129.06 253.563 129.017 253.701 128.932C253.84 128.843 253.977 128.798 254.111 128.798C254.263 128.798 254.375 128.854 254.446 128.966C254.523 129.078 254.561 129.246 254.561 129.469V130.255C254.561 130.492 254.525 130.664 254.453 130.772C254.382 130.874 254.267 130.926 254.111 130.926C253.977 130.926 253.811 130.812 253.614 130.584C253.475 130.427 253.361 130.308 253.272 130.228C253.035 130.009 252.782 129.852 252.513 129.758C252.245 129.66 251.929 129.61 251.567 129.61C251.146 129.61 250.806 129.704 250.546 129.892C250.291 130.076 250.164 130.311 250.164 130.597C250.164 130.879 250.296 131.08 250.56 131.201C250.824 131.322 251.392 131.391 252.265 131.409C253.196 131.432 253.876 131.595 254.306 131.899C254.735 132.199 254.95 132.665 254.95 133.296C254.95 133.9 254.713 134.383 254.238 134.745C253.764 135.108 253.124 135.289 252.319 135.289C252.063 135.289 251.779 135.265 251.466 135.215C251.153 135.171 250.759 135.092 250.285 134.98C250.128 135.083 249.994 135.159 249.882 135.209C249.77 135.262 249.676 135.289 249.6 135.289C249.443 135.289 249.322 135.235 249.237 135.128C249.157 135.016 249.117 134.857 249.117 134.651ZM258.628 132.658C258.628 133.222 258.747 133.633 258.984 133.893C259.221 134.152 259.597 134.282 260.112 134.282C260.6 134.282 261.016 134.128 261.36 133.819C261.71 133.51 261.884 133.123 261.884 132.658V129.885H260.964C260.79 129.885 260.662 129.85 260.582 129.778C260.506 129.702 260.468 129.586 260.468 129.429C260.468 129.259 260.51 129.134 260.595 129.053C260.68 128.973 260.817 128.932 261.005 128.932H262.434C262.605 128.932 262.723 128.97 262.79 129.046C262.862 129.118 262.898 129.297 262.898 129.583V134.188H263.206C263.426 134.188 263.582 134.224 263.676 134.296C263.775 134.367 263.824 134.486 263.824 134.651C263.824 134.813 263.777 134.933 263.683 135.014C263.594 135.094 263.462 135.135 263.287 135.135H262.267C262.146 135.135 262.052 135.11 261.985 135.061C261.918 135.012 261.884 134.945 261.884 134.86V134.403C261.454 134.734 261.085 134.962 260.776 135.088C260.472 135.209 260.15 135.269 259.81 135.269C259.071 135.269 258.517 135.074 258.145 134.685C257.778 134.291 257.595 133.698 257.595 132.906V129.885H257.454C257.149 129.885 256.941 129.85 256.829 129.778C256.718 129.706 256.662 129.581 256.662 129.402C256.662 129.246 256.704 129.129 256.789 129.053C256.879 128.973 257.015 128.932 257.199 128.932H258.212C258.369 128.932 258.476 128.964 258.534 129.026C258.597 129.089 258.628 129.228 258.628 129.442V132.658ZM268.919 134.202C269.55 134.202 270.062 134.003 270.456 133.604C270.85 133.206 271.047 132.689 271.047 132.054C271.047 131.432 270.845 130.919 270.443 130.516C270.044 130.114 269.536 129.912 268.919 129.912C268.297 129.912 267.787 130.114 267.388 130.516C266.995 130.915 266.798 131.427 266.798 132.054C266.798 132.68 266.995 133.195 267.388 133.598C267.787 134 268.297 134.202 268.919 134.202ZM266.825 129.899C267.075 129.586 267.388 129.346 267.764 129.181C268.14 129.015 268.565 128.932 269.04 128.932C269.939 128.932 270.689 129.237 271.288 129.845C271.888 130.449 272.188 131.199 272.188 132.094C272.188 132.976 271.879 133.723 271.262 134.336C270.649 134.949 269.899 135.256 269.013 135.256C268.543 135.256 268.134 135.173 267.784 135.007C267.435 134.842 267.149 134.591 266.925 134.255V134.792C266.925 134.913 266.903 135.001 266.858 135.054C266.818 135.108 266.748 135.135 266.65 135.135H265.422C265.247 135.135 265.117 135.094 265.032 135.014C264.947 134.933 264.905 134.813 264.905 134.651C264.905 134.472 264.956 134.352 265.059 134.289C265.162 134.222 265.366 134.188 265.67 134.188H265.811V127.315H265.683C265.379 127.315 265.171 127.279 265.059 127.207C264.947 127.136 264.891 127.01 264.891 126.831C264.891 126.67 264.936 126.549 265.026 126.469C265.115 126.388 265.247 126.348 265.422 126.348H266.442C266.576 126.348 266.672 126.37 266.731 126.415C266.793 126.46 266.825 126.529 266.825 126.623V129.899ZM274.289 134.188V127.315H274.161C273.857 127.315 273.647 127.279 273.53 127.207C273.419 127.136 273.363 127.01 273.363 126.831C273.363 126.67 273.407 126.549 273.497 126.469C273.591 126.388 273.725 126.348 273.9 126.348H274.92C275.041 126.348 275.135 126.373 275.202 126.422C275.269 126.471 275.303 126.538 275.303 126.623V129.664C275.629 129.36 275.951 129.136 276.269 128.993C276.591 128.845 276.925 128.771 277.269 128.771C277.945 128.771 278.475 128.982 278.86 129.402C279.25 129.823 279.444 130.405 279.444 131.147V134.188H279.76C279.984 134.188 280.145 134.226 280.243 134.302C280.342 134.374 280.391 134.49 280.391 134.651C280.391 134.813 280.346 134.933 280.257 135.014C280.167 135.094 280.033 135.135 279.854 135.135H278.068C277.858 135.135 277.715 135.101 277.639 135.034C277.567 134.962 277.531 134.835 277.531 134.651C277.531 134.472 277.576 134.352 277.665 134.289C277.759 134.222 277.934 134.188 278.189 134.188H278.424V131.396C278.424 130.872 278.305 130.474 278.068 130.201C277.831 129.924 277.486 129.785 277.034 129.785C276.574 129.785 276.169 129.939 275.819 130.248C275.475 130.557 275.303 130.939 275.303 131.396V134.188H275.538C275.806 134.188 275.987 134.222 276.081 134.289C276.175 134.356 276.222 134.477 276.222 134.651C276.222 134.835 276.184 134.962 276.108 135.034C276.037 135.101 275.896 135.135 275.685 135.135H273.9C273.725 135.135 273.593 135.094 273.504 135.014C273.419 134.933 273.376 134.813 273.376 134.651C273.376 134.472 273.428 134.352 273.53 134.289C273.638 134.222 273.844 134.188 274.148 134.188H274.289ZM282.801 132.329C282.836 132.973 283.053 133.472 283.452 133.826C283.854 134.175 284.403 134.349 285.096 134.349C285.62 134.349 286.19 134.211 286.808 133.933C287.426 133.651 287.799 133.51 287.929 133.51C288.063 133.51 288.175 133.553 288.265 133.638C288.354 133.723 288.399 133.828 288.399 133.953C288.399 134.083 288.352 134.202 288.258 134.309C288.164 134.417 288.014 134.522 287.808 134.625C287.361 134.844 286.898 135.012 286.419 135.128C285.944 135.244 285.472 135.303 285.002 135.303C283.982 135.303 283.165 135.009 282.552 134.423C281.939 133.833 281.633 133.052 281.633 132.081C281.633 131.092 281.957 130.29 282.606 129.677C283.255 129.064 284.101 128.758 285.143 128.758C286.088 128.758 286.871 129.044 287.493 129.617C288.115 130.19 288.426 130.883 288.426 131.698C288.426 131.949 288.372 132.116 288.265 132.201C288.162 132.286 287.878 132.329 287.412 132.329H287.311H282.801ZM282.834 131.45H287.204C287.137 130.917 286.913 130.49 286.533 130.167C286.157 129.841 285.694 129.677 285.143 129.677C284.548 129.677 284.047 129.834 283.64 130.147C283.232 130.461 282.964 130.895 282.834 131.45ZM294.816 132.168C294.57 132.087 294.331 132.029 294.098 131.993C293.87 131.953 293.641 131.933 293.413 131.933C292.724 131.933 292.18 132.049 291.782 132.282C291.384 132.515 291.185 132.828 291.185 133.222C291.185 133.526 291.308 133.777 291.554 133.973C291.804 134.17 292.122 134.269 292.507 134.269C293.075 134.269 293.601 134.121 294.085 133.826C294.572 133.526 294.816 133.215 294.816 132.893V132.168ZM294.87 134.282C294.503 134.613 294.102 134.866 293.668 135.041C293.239 135.215 292.796 135.303 292.339 135.303C291.672 135.303 291.133 135.117 290.721 134.745C290.314 134.374 290.111 133.891 290.111 133.296C290.111 132.588 290.381 132.04 290.923 131.651C291.469 131.262 292.234 131.067 293.219 131.067C293.478 131.067 293.74 131.085 294.004 131.121C294.268 131.152 294.539 131.203 294.816 131.275V131.228C294.816 130.713 294.693 130.333 294.447 130.087C294.201 129.841 293.818 129.718 293.299 129.718C292.95 129.718 292.561 129.812 292.131 130C291.702 130.188 291.417 130.282 291.279 130.282C291.149 130.282 291.041 130.23 290.956 130.127C290.871 130.02 290.829 129.883 290.829 129.718C290.829 129.454 291.075 129.23 291.567 129.046C292.064 128.863 292.697 128.771 293.467 128.771C294.255 128.771 294.85 128.973 295.253 129.375C295.655 129.774 295.857 130.364 295.857 131.147V134.188H296.186C296.503 134.188 296.716 134.222 296.823 134.289C296.931 134.356 296.984 134.477 296.984 134.651C296.984 134.813 296.94 134.933 296.85 135.014C296.761 135.094 296.626 135.135 296.447 135.135H295.393C295.268 135.135 295.165 135.097 295.085 135.021C295.004 134.945 294.95 134.835 294.924 134.692L294.87 134.282ZM303.603 135.135C303.509 135.135 303.442 135.112 303.402 135.068C303.366 135.018 303.348 134.927 303.348 134.792V134.242C303.079 134.578 302.744 134.839 302.341 135.027C301.938 135.211 301.502 135.303 301.032 135.303C300.186 135.303 299.477 135.003 298.904 134.403C298.336 133.799 298.052 133.049 298.052 132.154C298.052 131.228 298.356 130.458 298.965 129.845C299.573 129.228 300.332 128.919 301.24 128.919C301.701 128.919 302.115 129.002 302.482 129.167C302.849 129.328 303.164 129.568 303.428 129.885V127.315H303.073C302.683 127.315 302.431 127.281 302.314 127.214C302.202 127.142 302.146 127.015 302.146 126.831C302.146 126.67 302.191 126.549 302.281 126.469C302.375 126.388 302.509 126.348 302.683 126.348H304.059C304.194 126.348 304.29 126.37 304.348 126.415C304.411 126.46 304.442 126.529 304.442 126.623V134.188H304.744C304.963 134.188 305.122 134.226 305.221 134.302C305.319 134.374 305.368 134.49 305.368 134.651C305.368 134.804 305.326 134.922 305.241 135.007C305.156 135.092 305.042 135.135 304.899 135.135H303.603ZM299.206 132.121C299.206 132.738 299.405 133.244 299.804 133.638C300.202 134.032 300.708 134.229 301.321 134.229C301.938 134.229 302.446 134.025 302.844 133.618C303.243 133.206 303.442 132.685 303.442 132.054C303.442 131.432 303.243 130.919 302.844 130.516C302.451 130.114 301.943 129.912 301.321 129.912C300.69 129.912 300.18 130.116 299.79 130.523C299.401 130.93 299.206 131.463 299.206 132.121ZM307.57 132.329C307.606 132.973 307.823 133.472 308.221 133.826C308.624 134.175 309.172 134.349 309.866 134.349C310.389 134.349 310.96 134.211 311.578 133.933C312.195 133.651 312.569 133.51 312.699 133.51C312.833 133.51 312.945 133.553 313.034 133.638C313.124 133.723 313.169 133.828 313.169 133.953C313.169 134.083 313.122 134.202 313.028 134.309C312.934 134.417 312.784 134.522 312.578 134.625C312.13 134.844 311.667 135.012 311.188 135.128C310.714 135.244 310.242 135.303 309.772 135.303C308.752 135.303 307.935 135.009 307.322 134.423C306.709 133.833 306.402 133.052 306.402 132.081C306.402 131.092 306.727 130.29 307.376 129.677C308.024 129.064 308.87 128.758 309.913 128.758C310.857 128.758 311.64 129.044 312.262 129.617C312.884 130.19 313.195 130.883 313.195 131.698C313.195 131.949 313.142 132.116 313.034 132.201C312.931 132.286 312.647 132.329 312.182 132.329H312.081H307.57ZM307.604 131.45H311.974C311.907 130.917 311.683 130.49 311.302 130.167C310.926 129.841 310.463 129.677 309.913 129.677C309.318 129.677 308.816 129.834 308.409 130.147C308.002 130.461 307.734 130.895 307.604 131.45ZM317.438 134.188H319.666C319.841 134.188 319.968 134.226 320.049 134.302C320.134 134.374 320.176 134.49 320.176 134.651C320.176 134.835 320.136 134.962 320.056 135.034C319.98 135.101 319.836 135.135 319.626 135.135H315.236C315.061 135.135 314.929 135.094 314.84 135.014C314.75 134.933 314.706 134.813 314.706 134.651C314.706 134.495 314.75 134.378 314.84 134.302C314.934 134.226 315.077 134.188 315.27 134.188H316.438V129.885H315.981C315.547 129.885 315.276 129.852 315.169 129.785C315.061 129.713 315.008 129.586 315.008 129.402C315.008 129.246 315.05 129.129 315.135 129.053C315.225 128.973 315.359 128.932 315.538 128.932H317.069C317.189 128.932 317.281 128.957 317.344 129.006C317.406 129.051 317.438 129.118 317.438 129.208V130.349C317.863 129.816 318.306 129.42 318.767 129.161C319.228 128.901 319.724 128.771 320.257 128.771C320.655 128.771 320.978 128.852 321.224 129.013C321.47 129.174 321.593 129.382 321.593 129.637C321.593 129.803 321.53 129.95 321.405 130.08C321.284 130.205 321.15 130.268 321.002 130.268C320.899 130.268 320.725 130.201 320.479 130.067C320.237 129.928 320.02 129.859 319.827 129.859C319.478 129.859 319.109 129.984 318.72 130.235C318.335 130.481 317.908 130.872 317.438 131.409V134.188Z" fill="black"/>
<path opacity="0.6" d="M253.494 228.503H255.105C255.276 228.503 255.403 228.543 255.488 228.623C255.573 228.704 255.616 228.825 255.616 228.986C255.616 229.16 255.573 229.284 255.488 229.355C255.408 229.427 255.262 229.463 255.052 229.463H252.092C251.913 229.463 251.776 229.422 251.682 229.342C251.593 229.261 251.548 229.143 251.548 228.986C251.548 228.807 251.604 228.682 251.716 228.61C251.832 228.538 252.045 228.503 252.353 228.503H252.481V221.535H252.353C252.045 221.535 251.832 221.499 251.716 221.428C251.604 221.356 251.548 221.231 251.548 221.052C251.548 220.895 251.593 220.779 251.682 220.703C251.776 220.622 251.913 220.582 252.092 220.582H253.112C253.246 220.582 253.342 220.604 253.4 220.649C253.463 220.694 253.494 220.763 253.494 220.857V221.508C253.799 221.195 254.134 220.96 254.501 220.803C254.873 220.647 255.271 220.568 255.696 220.568C256.596 220.568 257.347 220.873 257.952 221.481C258.556 222.09 258.858 222.853 258.858 223.77C258.858 224.652 258.571 225.377 257.999 225.945C257.426 226.513 256.694 226.798 255.804 226.798C255.329 226.798 254.893 226.715 254.495 226.549C254.096 226.379 253.763 226.138 253.494 225.824V228.503ZM255.575 225.811C256.197 225.811 256.708 225.616 257.106 225.227C257.504 224.833 257.703 224.325 257.703 223.703C257.703 223.094 257.502 222.593 257.099 222.199C256.701 221.801 256.193 221.602 255.575 221.602C254.958 221.602 254.452 221.799 254.058 222.193C253.664 222.587 253.468 223.09 253.468 223.703C253.468 224.321 253.662 224.826 254.052 225.22C254.445 225.614 254.953 225.811 255.575 225.811ZM264.973 223.817C264.727 223.737 264.487 223.678 264.255 223.643C264.027 223.602 263.798 223.582 263.57 223.582C262.881 223.582 262.337 223.699 261.939 223.931C261.541 224.164 261.341 224.477 261.341 224.871C261.341 225.175 261.465 225.426 261.711 225.623C261.961 225.82 262.279 225.918 262.664 225.918C263.232 225.918 263.758 225.771 264.241 225.475C264.729 225.175 264.973 224.864 264.973 224.542V223.817ZM265.027 225.932C264.66 226.263 264.259 226.516 263.825 226.69C263.396 226.865 262.953 226.952 262.496 226.952C261.829 226.952 261.29 226.766 260.878 226.395C260.471 226.023 260.267 225.54 260.267 224.945C260.267 224.238 260.538 223.69 261.08 223.3C261.626 222.911 262.391 222.716 263.375 222.716C263.635 222.716 263.897 222.734 264.161 222.77C264.425 222.801 264.696 222.853 264.973 222.924V222.877C264.973 222.363 264.85 221.982 264.604 221.736C264.358 221.49 263.975 221.367 263.456 221.367C263.107 221.367 262.718 221.461 262.288 221.649C261.858 221.837 261.574 221.931 261.435 221.931C261.306 221.931 261.198 221.879 261.113 221.777C261.028 221.669 260.986 221.533 260.986 221.367C260.986 221.103 261.232 220.879 261.724 220.696C262.221 220.512 262.854 220.421 263.624 220.421C264.411 220.421 265.007 220.622 265.409 221.025C265.812 221.423 266.013 222.014 266.013 222.797V225.838H266.342C266.66 225.838 266.873 225.871 266.98 225.938C267.088 226.006 267.141 226.126 267.141 226.301C267.141 226.462 267.096 226.583 267.007 226.663C266.917 226.744 266.783 226.784 266.604 226.784H265.55C265.425 226.784 265.322 226.746 265.242 226.67C265.161 226.594 265.107 226.484 265.08 226.341L265.027 225.932ZM271.551 221.575C270.965 221.575 270.486 221.756 270.115 222.119C269.743 222.481 269.558 222.951 269.558 223.529C269.558 224.097 269.743 224.565 270.115 224.931C270.486 225.294 270.965 225.475 271.551 225.475C272.133 225.475 272.61 225.294 272.981 224.931C273.357 224.565 273.545 224.097 273.545 223.529C273.545 222.96 273.357 222.493 272.981 222.126C272.61 221.759 272.133 221.575 271.551 221.575ZM274.465 226.428C274.465 227.055 274.433 227.498 274.371 227.758C274.308 228.022 274.201 228.252 274.048 228.449C273.798 228.78 273.447 229.031 272.995 229.201C272.543 229.375 272.01 229.463 271.397 229.463C270.887 229.463 270.513 229.413 270.276 229.315C270.043 229.216 269.927 229.06 269.927 228.845C269.927 228.706 269.983 228.583 270.095 228.476C270.211 228.373 270.348 228.321 270.504 228.321C270.625 228.321 270.811 228.337 271.061 228.368C271.312 228.404 271.502 228.422 271.632 228.422C272.294 228.422 272.764 228.27 273.042 227.966C273.319 227.661 273.458 227.14 273.458 226.402V225.589C273.185 225.907 272.883 226.14 272.552 226.287C272.22 226.435 271.84 226.509 271.41 226.509C270.574 226.509 269.88 226.232 269.33 225.677C268.784 225.117 268.511 224.41 268.511 223.555C268.511 222.696 268.793 221.985 269.356 221.421C269.92 220.852 270.618 220.568 271.451 220.568C271.795 220.568 272.131 220.633 272.458 220.763C272.789 220.888 273.122 221.081 273.458 221.34V220.857C273.458 220.763 273.487 220.694 273.545 220.649C273.608 220.604 273.704 220.582 273.834 220.582H274.847C275.026 220.582 275.161 220.622 275.25 220.703C275.34 220.779 275.384 220.895 275.384 221.052C275.384 221.231 275.328 221.356 275.216 221.428C275.105 221.499 274.894 221.535 274.586 221.535H274.465V226.428ZM277.727 223.978C277.763 224.623 277.98 225.122 278.378 225.475C278.781 225.824 279.329 225.999 280.023 225.999C280.546 225.999 281.117 225.86 281.734 225.583C282.352 225.301 282.726 225.16 282.855 225.16C282.99 225.16 283.102 225.202 283.191 225.287C283.281 225.372 283.325 225.477 283.325 225.603C283.325 225.733 283.278 225.851 283.184 225.959C283.09 226.066 282.94 226.171 282.735 226.274C282.287 226.493 281.824 226.661 281.345 226.777C280.871 226.894 280.399 226.952 279.929 226.952C278.908 226.952 278.092 226.659 277.479 226.073C276.866 225.482 276.559 224.701 276.559 223.73C276.559 222.741 276.883 221.94 277.532 221.327C278.181 220.714 279.027 220.407 280.07 220.407C281.014 220.407 281.797 220.694 282.419 221.266C283.041 221.839 283.352 222.533 283.352 223.347C283.352 223.598 283.298 223.766 283.191 223.851C283.088 223.936 282.804 223.978 282.339 223.978H282.238H277.727ZM277.761 223.099H282.13C282.063 222.566 281.84 222.139 281.459 221.817C281.083 221.49 280.62 221.327 280.07 221.327C279.475 221.327 278.973 221.483 278.566 221.797C278.159 222.11 277.89 222.544 277.761 223.099ZM285.728 225.838V218.964H285.601C285.297 218.964 285.086 218.928 284.97 218.857C284.858 218.785 284.802 218.66 284.802 218.481C284.802 218.32 284.847 218.199 284.936 218.118C285.03 218.038 285.165 217.997 285.339 217.997H286.359C286.48 217.997 286.574 218.022 286.641 218.071C286.709 218.12 286.742 218.188 286.742 218.273V221.313C287.069 221.009 287.391 220.785 287.709 220.642C288.031 220.494 288.364 220.421 288.709 220.421C289.385 220.421 289.915 220.631 290.3 221.052C290.689 221.472 290.884 222.054 290.884 222.797V225.838H291.199C291.423 225.838 291.584 225.876 291.683 225.952C291.781 226.023 291.83 226.14 291.83 226.301C291.83 226.462 291.785 226.583 291.696 226.663C291.606 226.744 291.472 226.784 291.293 226.784H289.508C289.297 226.784 289.154 226.751 289.078 226.683C289.006 226.612 288.971 226.484 288.971 226.301C288.971 226.122 289.015 226.001 289.105 225.938C289.199 225.871 289.373 225.838 289.628 225.838H289.863V223.045C289.863 222.522 289.745 222.123 289.508 221.85C289.27 221.573 288.926 221.434 288.474 221.434C288.013 221.434 287.608 221.589 287.259 221.897C286.914 222.206 286.742 222.589 286.742 223.045V225.838H286.977C287.246 225.838 287.427 225.871 287.521 225.938C287.615 226.006 287.662 226.126 287.662 226.301C287.662 226.484 287.624 226.612 287.548 226.683C287.476 226.751 287.335 226.784 287.125 226.784H285.339C285.165 226.784 285.033 226.744 284.943 226.663C284.858 226.583 284.816 226.462 284.816 226.301C284.816 226.122 284.867 226.001 284.97 225.938C285.077 225.871 285.283 225.838 285.587 225.838H285.728ZM294.24 223.978C294.276 224.623 294.493 225.122 294.891 225.475C295.294 225.824 295.842 225.999 296.536 225.999C297.059 225.999 297.63 225.86 298.248 225.583C298.865 225.301 299.239 225.16 299.369 225.16C299.503 225.16 299.615 225.202 299.704 225.287C299.794 225.372 299.838 225.477 299.838 225.603C299.838 225.733 299.791 225.851 299.697 225.959C299.603 226.066 299.454 226.171 299.248 226.274C298.8 226.493 298.337 226.661 297.858 226.777C297.384 226.894 296.912 226.952 296.442 226.952C295.421 226.952 294.605 226.659 293.992 226.073C293.379 225.482 293.072 224.701 293.072 223.73C293.072 222.741 293.397 221.94 294.045 221.327C294.694 220.714 295.54 220.407 296.583 220.407C297.527 220.407 298.31 220.694 298.932 221.266C299.554 221.839 299.865 222.533 299.865 223.347C299.865 223.598 299.812 223.766 299.704 223.851C299.601 223.936 299.317 223.978 298.852 223.978H298.751H294.24ZM294.274 223.099H298.644C298.576 222.566 298.353 222.139 297.972 221.817C297.596 221.49 297.133 221.327 296.583 221.327C295.988 221.327 295.486 221.483 295.079 221.797C294.672 222.11 294.403 222.544 294.274 223.099ZM306.256 223.817C306.01 223.737 305.77 223.678 305.537 223.643C305.309 223.602 305.081 223.582 304.853 223.582C304.164 223.582 303.62 223.699 303.222 223.931C302.823 224.164 302.624 224.477 302.624 224.871C302.624 225.175 302.747 225.426 302.993 225.623C303.244 225.82 303.562 225.918 303.947 225.918C304.515 225.918 305.041 225.771 305.524 225.475C306.012 225.175 306.256 224.864 306.256 224.542V223.817ZM306.309 225.932C305.942 226.263 305.542 226.516 305.108 226.69C304.678 226.865 304.235 226.952 303.779 226.952C303.112 226.952 302.573 226.766 302.161 226.395C301.754 226.023 301.55 225.54 301.55 224.945C301.55 224.238 301.821 223.69 302.362 223.3C302.908 222.911 303.674 222.716 304.658 222.716C304.918 222.716 305.179 222.734 305.443 222.77C305.707 222.801 305.978 222.853 306.256 222.924V222.877C306.256 222.363 306.133 221.982 305.886 221.736C305.64 221.49 305.258 221.367 304.739 221.367C304.39 221.367 304 221.461 303.571 221.649C303.141 221.837 302.857 221.931 302.718 221.931C302.588 221.931 302.481 221.879 302.396 221.777C302.311 221.669 302.268 221.533 302.268 221.367C302.268 221.103 302.515 220.879 303.007 220.696C303.503 220.512 304.137 220.421 304.906 220.421C305.694 220.421 306.289 220.622 306.692 221.025C307.095 221.423 307.296 222.014 307.296 222.797V225.838H307.625C307.943 225.838 308.155 225.871 308.263 225.938C308.37 226.006 308.424 226.126 308.424 226.301C308.424 226.462 308.379 226.583 308.29 226.663C308.2 226.744 308.066 226.784 307.887 226.784H306.833C306.708 226.784 306.605 226.746 306.524 226.67C306.444 226.594 306.39 226.484 306.363 226.341L306.309 225.932ZM315.042 226.784C314.949 226.784 314.881 226.762 314.841 226.717C314.805 226.668 314.787 226.576 314.787 226.442V225.891C314.519 226.227 314.183 226.489 313.781 226.677C313.378 226.86 312.941 226.952 312.472 226.952C311.626 226.952 310.916 226.652 310.344 226.053C309.775 225.448 309.491 224.699 309.491 223.804C309.491 222.877 309.795 222.108 310.404 221.495C311.013 220.877 311.771 220.568 312.68 220.568C313.141 220.568 313.555 220.651 313.921 220.817C314.288 220.978 314.604 221.217 314.868 221.535V218.964H314.512C314.123 218.964 313.87 218.93 313.754 218.863C313.642 218.792 313.586 218.664 313.586 218.481C313.586 218.32 313.631 218.199 313.72 218.118C313.814 218.038 313.948 217.997 314.123 217.997H315.499C315.633 217.997 315.729 218.02 315.788 218.064C315.85 218.109 315.882 218.179 315.882 218.273V225.838H316.184C316.403 225.838 316.562 225.876 316.66 225.952C316.759 226.023 316.808 226.14 316.808 226.301C316.808 226.453 316.765 226.572 316.68 226.657C316.595 226.742 316.481 226.784 316.338 226.784H315.042ZM310.646 223.77C310.646 224.388 310.845 224.893 311.243 225.287C311.641 225.681 312.147 225.878 312.76 225.878C313.378 225.878 313.886 225.674 314.284 225.267C314.682 224.855 314.881 224.334 314.881 223.703C314.881 223.081 314.682 222.569 314.284 222.166C313.89 221.763 313.382 221.562 312.76 221.562C312.129 221.562 311.619 221.765 311.23 222.173C310.84 222.58 310.646 223.112 310.646 223.77Z" fill="black"/>
<path opacity="0.6" d="M253.494 420.966H255.105C255.276 420.966 255.403 421.007 255.488 421.087C255.573 421.168 255.616 421.289 255.616 421.45C255.616 421.624 255.573 421.747 255.488 421.819C255.408 421.891 255.262 421.926 255.052 421.926H252.092C251.913 421.926 251.776 421.886 251.682 421.806C251.593 421.725 251.548 421.606 251.548 421.45C251.548 421.271 251.604 421.145 251.716 421.074C251.832 421.002 252.045 420.966 252.353 420.966H252.481V413.999H252.353C252.045 413.999 251.832 413.963 251.716 413.891C251.604 413.82 251.548 413.694 251.548 413.515C251.548 413.359 251.593 413.242 251.682 413.166C251.776 413.086 251.913 413.046 252.092 413.046H253.112C253.246 413.046 253.342 413.068 253.4 413.113C253.463 413.157 253.494 413.227 253.494 413.321V413.972C253.799 413.659 254.134 413.424 254.501 413.267C254.873 413.11 255.271 413.032 255.696 413.032C256.596 413.032 257.347 413.336 257.952 413.945C258.556 414.554 258.858 415.317 258.858 416.234C258.858 417.116 258.571 417.841 257.999 418.409C257.426 418.977 256.694 419.261 255.804 419.261C255.329 419.261 254.893 419.179 254.495 419.013C254.096 418.843 253.763 418.601 253.494 418.288V420.966ZM255.575 418.275C256.197 418.275 256.708 418.08 257.106 417.691C257.504 417.297 257.703 416.789 257.703 416.167C257.703 415.558 257.502 415.057 257.099 414.663C256.701 414.265 256.193 414.066 255.575 414.066C254.958 414.066 254.452 414.263 254.058 414.657C253.664 415.05 253.468 415.554 253.468 416.167C253.468 416.785 253.662 417.29 254.052 417.684C254.445 418.078 254.953 418.275 255.575 418.275ZM264.973 416.281C264.727 416.201 264.487 416.142 264.255 416.107C264.027 416.066 263.798 416.046 263.57 416.046C262.881 416.046 262.337 416.162 261.939 416.395C261.541 416.628 261.341 416.941 261.341 417.335C261.341 417.639 261.465 417.89 261.711 418.087C261.961 418.284 262.279 418.382 262.664 418.382C263.232 418.382 263.758 418.234 264.241 417.939C264.729 417.639 264.973 417.328 264.973 417.006V416.281ZM265.027 418.396C264.66 418.727 264.259 418.98 263.825 419.154C263.396 419.329 262.953 419.416 262.496 419.416C261.829 419.416 261.29 419.23 260.878 418.859C260.471 418.487 260.267 418.004 260.267 417.409C260.267 416.702 260.538 416.154 261.08 415.764C261.626 415.375 262.391 415.18 263.375 415.18C263.635 415.18 263.897 415.198 264.161 415.234C264.425 415.265 264.696 415.317 264.973 415.388V415.341C264.973 414.827 264.85 414.446 264.604 414.2C264.358 413.954 263.975 413.831 263.456 413.831C263.107 413.831 262.718 413.925 262.288 414.113C261.858 414.301 261.574 414.395 261.435 414.395C261.306 414.395 261.198 414.343 261.113 414.24C261.028 414.133 260.986 413.997 260.986 413.831C260.986 413.567 261.232 413.343 261.724 413.16C262.221 412.976 262.854 412.884 263.624 412.884C264.411 412.884 265.007 413.086 265.409 413.489C265.812 413.887 266.013 414.478 266.013 415.261V418.302H266.342C266.66 418.302 266.873 418.335 266.98 418.402C267.088 418.469 267.141 418.59 267.141 418.765C267.141 418.926 267.096 419.047 267.007 419.127C266.917 419.208 266.783 419.248 266.604 419.248H265.55C265.425 419.248 265.322 419.21 265.242 419.134C265.161 419.058 265.107 418.948 265.08 418.805L265.027 418.396ZM271.551 414.039C270.965 414.039 270.486 414.22 270.115 414.583C269.743 414.945 269.558 415.415 269.558 415.992C269.558 416.561 269.743 417.028 270.115 417.395C270.486 417.758 270.965 417.939 271.551 417.939C272.133 417.939 272.61 417.758 272.981 417.395C273.357 417.028 273.545 416.561 273.545 415.992C273.545 415.424 273.357 414.956 272.981 414.589C272.61 414.223 272.133 414.039 271.551 414.039ZM274.465 418.892C274.465 419.519 274.433 419.962 274.371 420.221C274.308 420.485 274.201 420.716 274.048 420.913C273.798 421.244 273.447 421.495 272.995 421.665C272.543 421.839 272.01 421.926 271.397 421.926C270.887 421.926 270.513 421.877 270.276 421.779C270.043 421.68 269.927 421.524 269.927 421.309C269.927 421.17 269.983 421.047 270.095 420.94C270.211 420.837 270.348 420.785 270.504 420.785C270.625 420.785 270.811 420.801 271.061 420.832C271.312 420.868 271.502 420.886 271.632 420.886C272.294 420.886 272.764 420.734 273.042 420.429C273.319 420.125 273.458 419.604 273.458 418.865V418.053C273.185 418.371 272.883 418.604 272.552 418.751C272.22 418.899 271.84 418.973 271.41 418.973C270.574 418.973 269.88 418.695 269.33 418.14C268.784 417.581 268.511 416.874 268.511 416.019C268.511 415.16 268.793 414.449 269.356 413.885C269.92 413.316 270.618 413.032 271.451 413.032C271.795 413.032 272.131 413.097 272.458 413.227C272.789 413.352 273.122 413.545 273.458 413.804V413.321C273.458 413.227 273.487 413.157 273.545 413.113C273.608 413.068 273.704 413.046 273.834 413.046H274.847C275.026 413.046 275.161 413.086 275.25 413.166C275.34 413.242 275.384 413.359 275.384 413.515C275.384 413.694 275.328 413.82 275.216 413.891C275.105 413.963 274.894 413.999 274.586 413.999H274.465V418.892ZM277.727 416.442C277.763 417.087 277.98 417.586 278.378 417.939C278.781 418.288 279.329 418.463 280.023 418.463C280.546 418.463 281.117 418.324 281.734 418.046C282.352 417.765 282.726 417.624 282.855 417.624C282.99 417.624 283.102 417.666 283.191 417.751C283.281 417.836 283.325 417.941 283.325 418.067C283.325 418.196 283.278 418.315 283.184 418.422C283.09 418.53 282.94 418.635 282.735 418.738C282.287 418.957 281.824 419.125 281.345 419.241C280.871 419.358 280.399 419.416 279.929 419.416C278.908 419.416 278.092 419.123 277.479 418.537C276.866 417.946 276.559 417.165 276.559 416.194C276.559 415.205 276.883 414.404 277.532 413.791C278.181 413.178 279.027 412.871 280.07 412.871C281.014 412.871 281.797 413.157 282.419 413.73C283.041 414.303 283.352 414.997 283.352 415.811C283.352 416.062 283.298 416.23 283.191 416.315C283.088 416.4 282.804 416.442 282.339 416.442H282.238H277.727ZM277.761 415.563H282.13C282.063 415.03 281.84 414.603 281.459 414.281C281.083 413.954 280.62 413.791 280.07 413.791C279.475 413.791 278.973 413.947 278.566 414.261C278.159 414.574 277.89 415.008 277.761 415.563ZM290.32 418.288C290.503 418.288 290.642 418.328 290.736 418.409C290.835 418.49 290.884 418.608 290.884 418.765C290.884 418.926 290.837 419.047 290.743 419.127C290.653 419.208 290.521 419.248 290.347 419.248H285.957C285.773 419.248 285.632 419.208 285.534 419.127C285.44 419.047 285.393 418.926 285.393 418.765C285.393 418.608 285.438 418.49 285.527 418.409C285.621 418.328 285.755 418.288 285.93 418.288H287.071V414.187H285.97C285.787 414.187 285.643 414.144 285.541 414.059C285.442 413.974 285.393 413.853 285.393 413.697C285.393 413.536 285.44 413.415 285.534 413.334C285.628 413.254 285.764 413.213 285.943 413.213H287.004V412.757C287.004 411.947 287.234 411.361 287.695 410.998C288.156 410.631 288.901 410.448 289.931 410.448C290.432 410.448 290.801 410.504 291.038 410.616C291.28 410.727 291.401 410.902 291.401 411.139C291.401 411.278 291.349 411.392 291.246 411.482C291.143 411.571 291.011 411.616 290.85 411.616C290.77 411.616 290.575 411.589 290.266 411.535C289.962 411.482 289.7 411.455 289.481 411.455C288.975 411.455 288.613 411.562 288.393 411.777C288.174 411.987 288.064 412.339 288.064 412.831V413.213H290.441C290.624 413.213 290.763 413.254 290.857 413.334C290.955 413.415 291.005 413.536 291.005 413.697C291.005 413.849 290.955 413.97 290.857 414.059C290.758 414.144 290.624 414.187 290.454 414.187H288.132V418.288H290.32ZM296.509 418.476C297.198 418.476 297.762 418.259 298.201 417.825C298.644 417.386 298.865 416.829 298.865 416.154C298.865 415.478 298.644 414.921 298.201 414.482C297.757 414.039 297.194 413.818 296.509 413.818C295.824 413.818 295.26 414.039 294.817 414.482C294.379 414.921 294.16 415.478 294.16 416.154C294.16 416.834 294.379 417.391 294.817 417.825C295.256 418.259 295.82 418.476 296.509 418.476ZM300.033 416.154C300.033 417.111 299.706 417.894 299.053 418.503C298.4 419.112 297.552 419.416 296.509 419.416C295.471 419.416 294.625 419.112 293.972 418.503C293.318 417.894 292.992 417.111 292.992 416.154C292.992 415.196 293.318 414.415 293.972 413.811C294.625 413.202 295.471 412.898 296.509 412.898C297.547 412.898 298.393 413.202 299.046 413.811C299.704 414.419 300.033 415.2 300.033 416.154ZM304.765 418.476C305.455 418.476 306.018 418.259 306.457 417.825C306.9 417.386 307.122 416.829 307.122 416.154C307.122 415.478 306.9 414.921 306.457 414.482C306.014 414.039 305.45 413.818 304.765 413.818C304.081 413.818 303.517 414.039 303.074 414.482C302.635 414.921 302.416 415.478 302.416 416.154C302.416 416.834 302.635 417.391 303.074 417.825C303.512 418.259 304.076 418.476 304.765 418.476ZM308.29 416.154C308.29 417.111 307.963 417.894 307.31 418.503C306.656 419.112 305.808 419.416 304.765 419.416C303.727 419.416 302.881 419.112 302.228 418.503C301.575 417.894 301.248 417.111 301.248 416.154C301.248 415.196 301.575 414.415 302.228 413.811C302.881 413.202 303.727 412.898 304.765 412.898C305.804 412.898 306.649 413.202 307.303 413.811C307.961 414.419 308.29 415.2 308.29 416.154ZM314.855 413.421C315.074 413.421 315.233 413.46 315.331 413.536C315.434 413.612 315.486 413.733 315.486 413.898C315.486 414.055 315.439 414.173 315.345 414.254C315.251 414.33 315.11 414.368 314.922 414.368H312.203V416.61C312.203 417.344 312.297 417.827 312.485 418.06C312.677 418.293 313.004 418.409 313.465 418.409C313.872 418.409 314.36 418.29 314.928 418.053C315.497 417.816 315.848 417.697 315.982 417.697C316.108 417.697 316.213 417.742 316.298 417.832C316.387 417.921 316.432 418.031 316.432 418.161C316.432 418.308 316.376 418.438 316.264 418.55C316.157 418.657 315.971 418.763 315.707 418.865C315.268 419.04 314.872 419.167 314.519 419.248C314.17 419.329 313.841 419.369 313.532 419.369C313.009 419.369 312.568 419.286 312.21 419.121C311.856 418.95 311.592 418.7 311.418 418.369C311.328 418.212 311.263 418.026 311.223 417.812C311.187 417.597 311.169 417.266 311.169 416.818V416.61V414.368H310.028C309.84 414.368 309.704 414.332 309.619 414.261C309.534 414.184 309.491 414.064 309.491 413.898C309.491 413.715 309.549 413.589 309.666 413.522C309.782 413.455 310.03 413.421 310.411 413.421H311.169V412.045V411.69C311.169 411.497 311.21 411.356 311.29 411.267C311.375 411.173 311.505 411.126 311.679 411.126C311.876 411.126 312.013 411.182 312.089 411.294C312.165 411.405 312.203 411.661 312.203 412.059V413.421H314.855Z" fill="black"/>
<path opacity="0.6" d="M264.511 543.57C265.142 543.57 265.655 543.371 266.049 542.972C266.442 542.574 266.639 542.057 266.639 541.422C266.639 540.8 266.438 540.287 266.035 539.885C265.637 539.482 265.129 539.281 264.511 539.281C263.889 539.281 263.379 539.482 262.981 539.885C262.587 540.283 262.39 540.795 262.39 541.422C262.39 542.048 262.587 542.563 262.981 542.966C263.379 543.368 263.889 543.57 264.511 543.57ZM262.417 539.267C262.668 538.954 262.981 538.714 263.357 538.549C263.733 538.383 264.158 538.3 264.632 538.3C265.532 538.3 266.281 538.605 266.881 539.213C267.481 539.818 267.78 540.567 267.78 541.462C267.78 542.344 267.472 543.091 266.854 543.704C266.241 544.317 265.491 544.624 264.605 544.624C264.135 544.624 263.726 544.541 263.377 544.375C263.028 544.21 262.741 543.959 262.518 543.624V544.161C262.518 544.281 262.495 544.369 262.451 544.422C262.41 544.476 262.341 544.503 262.242 544.503H261.014C260.84 544.503 260.71 544.463 260.625 544.382C260.54 544.302 260.497 544.181 260.497 544.02C260.497 543.841 260.549 543.72 260.652 543.657C260.754 543.59 260.958 543.556 261.262 543.556H261.403V536.683H261.276C260.972 536.683 260.763 536.647 260.652 536.575C260.54 536.504 260.484 536.378 260.484 536.199C260.484 536.038 260.528 535.917 260.618 535.837C260.708 535.756 260.84 535.716 261.014 535.716H262.034C262.169 535.716 262.265 535.738 262.323 535.783C262.386 535.828 262.417 535.897 262.417 535.991V539.267ZM272.405 543.731C273.095 543.731 273.658 543.514 274.097 543.08C274.54 542.641 274.762 542.084 274.762 541.408C274.762 540.733 274.54 540.176 274.097 539.737C273.654 539.294 273.09 539.072 272.405 539.072C271.721 539.072 271.157 539.294 270.714 539.737C270.275 540.176 270.056 540.733 270.056 541.408C270.056 542.089 270.275 542.646 270.714 543.08C271.152 543.514 271.716 543.731 272.405 543.731ZM275.929 541.408C275.929 542.366 275.603 543.149 274.949 543.758C274.296 544.366 273.448 544.671 272.405 544.671C271.367 544.671 270.521 544.366 269.868 543.758C269.215 543.149 268.888 542.366 268.888 541.408C268.888 540.451 269.215 539.67 269.868 539.066C270.521 538.457 271.367 538.153 272.405 538.153C273.444 538.153 274.289 538.457 274.943 539.066C275.601 539.674 275.929 540.455 275.929 541.408ZM282.494 538.676C282.714 538.676 282.873 538.714 282.971 538.79C283.074 538.867 283.125 538.987 283.125 539.153C283.125 539.31 283.078 539.428 282.984 539.509C282.89 539.585 282.75 539.623 282.562 539.623H279.843V541.865C279.843 542.599 279.937 543.082 280.125 543.315C280.317 543.547 280.644 543.664 281.105 543.664C281.512 543.664 282 543.545 282.568 543.308C283.137 543.071 283.488 542.952 283.622 542.952C283.747 542.952 283.853 542.997 283.938 543.087C284.027 543.176 284.072 543.286 284.072 543.415C284.072 543.563 284.016 543.693 283.904 543.805C283.797 543.912 283.611 544.017 283.347 544.12C282.908 544.295 282.512 544.422 282.159 544.503C281.81 544.583 281.481 544.624 281.172 544.624C280.648 544.624 280.208 544.541 279.85 544.375C279.496 544.205 279.232 543.955 279.058 543.624C278.968 543.467 278.903 543.281 278.863 543.066C278.827 542.852 278.809 542.52 278.809 542.073V541.865V539.623H277.668C277.48 539.623 277.344 539.587 277.259 539.515C277.174 539.439 277.131 539.319 277.131 539.153C277.131 538.969 277.189 538.844 277.306 538.777C277.422 538.71 277.67 538.676 278.051 538.676H278.809V537.3V536.945C278.809 536.752 278.849 536.611 278.93 536.522C279.015 536.428 279.145 536.381 279.319 536.381C279.516 536.381 279.653 536.437 279.729 536.548C279.805 536.66 279.843 536.915 279.843 537.314V538.676H282.494ZM290.751 538.676C290.97 538.676 291.129 538.714 291.228 538.79C291.33 538.867 291.382 538.987 291.382 539.153C291.382 539.31 291.335 539.428 291.241 539.509C291.147 539.585 291.006 539.623 290.818 539.623H288.099V541.865C288.099 542.599 288.193 543.082 288.381 543.315C288.574 543.547 288.901 543.664 289.361 543.664C289.769 543.664 290.256 543.545 290.825 543.308C291.393 543.071 291.744 542.952 291.879 542.952C292.004 542.952 292.109 542.997 292.194 543.087C292.284 543.176 292.328 543.286 292.328 543.415C292.328 543.563 292.273 543.693 292.161 543.805C292.053 543.912 291.868 544.017 291.603 544.12C291.165 544.295 290.769 544.422 290.415 544.503C290.066 544.583 289.737 544.624 289.429 544.624C288.905 544.624 288.464 544.541 288.106 544.375C287.753 544.205 287.489 543.955 287.314 543.624C287.225 543.467 287.16 543.281 287.119 543.066C287.084 542.852 287.066 542.52 287.066 542.073V541.865V539.623H285.925C285.737 539.623 285.6 539.587 285.515 539.515C285.43 539.439 285.388 539.319 285.388 539.153C285.388 538.969 285.446 538.844 285.562 538.777C285.678 538.71 285.927 538.676 286.307 538.676H287.066V537.3V536.945C287.066 536.752 287.106 536.611 287.187 536.522C287.272 536.428 287.401 536.381 287.576 536.381C287.773 536.381 287.909 536.437 287.985 536.548C288.061 536.66 288.099 536.915 288.099 537.314V538.676H290.751ZM297.175 543.731C297.864 543.731 298.428 543.514 298.867 543.08C299.31 542.641 299.531 542.084 299.531 541.408C299.531 540.733 299.31 540.176 298.867 539.737C298.424 539.294 297.86 539.072 297.175 539.072C296.49 539.072 295.926 539.294 295.483 539.737C295.045 540.176 294.826 540.733 294.826 541.408C294.826 542.089 295.045 542.646 295.483 543.08C295.922 543.514 296.486 543.731 297.175 543.731ZM300.699 541.408C300.699 542.366 300.372 543.149 299.719 543.758C299.066 544.366 298.218 544.671 297.175 544.671C296.137 544.671 295.291 544.366 294.638 543.758C293.984 543.149 293.658 542.366 293.658 541.408C293.658 540.451 293.984 539.67 294.638 539.066C295.291 538.457 296.137 538.153 297.175 538.153C298.213 538.153 299.059 538.457 299.712 539.066C300.37 539.674 300.699 540.455 300.699 541.408ZM307.922 540.764C307.922 540.133 307.864 539.708 307.747 539.489C307.635 539.265 307.441 539.153 307.163 539.153C306.832 539.153 306.568 539.296 306.371 539.583C306.179 539.869 306.083 540.263 306.083 540.764V543.556H306.203C306.476 543.556 306.658 543.59 306.747 543.657C306.841 543.72 306.888 543.841 306.888 544.02C306.888 544.181 306.85 544.302 306.774 544.382C306.698 544.463 306.582 544.503 306.425 544.503H305.572C305.38 544.503 305.248 544.458 305.176 544.369C305.109 544.279 305.076 544.087 305.076 543.791V543.597V540.764V540.24C305.076 539.905 305 539.641 304.847 539.448C304.695 539.251 304.487 539.153 304.223 539.153C304.022 539.153 303.836 539.213 303.666 539.334C303.5 539.451 303.357 539.625 303.236 539.858V543.556H303.485C303.753 543.556 303.935 543.59 304.029 543.657C304.123 543.724 304.17 543.845 304.17 544.02C304.17 544.203 304.131 544.331 304.055 544.402C303.979 544.469 303.834 544.503 303.619 544.503H301.834C301.659 544.503 301.529 544.465 301.444 544.389C301.364 544.308 301.323 544.185 301.323 544.02C301.323 543.841 301.375 543.72 301.478 543.657C301.585 543.59 301.791 543.556 302.095 543.556H302.23V539.254H302.109C301.795 539.254 301.581 539.218 301.464 539.146C301.352 539.075 301.297 538.949 301.297 538.77C301.297 538.614 301.341 538.497 301.431 538.421C301.52 538.341 301.655 538.3 301.834 538.3H302.861C303.008 538.3 303.104 538.327 303.149 538.381C303.198 538.43 303.228 538.538 303.236 538.703C303.42 538.506 303.617 538.361 303.827 538.267C304.037 538.173 304.275 538.126 304.539 538.126C304.852 538.126 305.109 538.195 305.311 538.334C305.517 538.468 305.669 538.674 305.767 538.952C305.955 538.67 306.172 538.462 306.418 538.327C306.664 538.193 306.946 538.126 307.264 538.126C307.841 538.126 308.262 538.314 308.526 538.69C308.795 539.066 308.929 539.674 308.929 540.516V543.556H309.036C309.314 543.556 309.499 543.59 309.593 543.657C309.687 543.724 309.734 543.845 309.734 544.02C309.734 544.181 309.694 544.302 309.613 544.382C309.533 544.463 309.414 544.503 309.258 544.503H308.445C308.266 544.503 308.134 544.449 308.049 544.342C307.964 544.234 307.922 544.064 307.922 543.832V540.764Z" fill="black"/>
<path opacity="0.6" d="M274.532 575.896C274.532 575.265 274.474 574.84 274.358 574.62C274.246 574.397 274.051 574.285 273.774 574.285C273.443 574.285 273.179 574.428 272.982 574.714C272.789 575.001 272.693 575.395 272.693 575.896V578.688H272.814C273.087 578.688 273.268 578.722 273.358 578.789C273.452 578.852 273.499 578.972 273.499 579.151C273.499 579.313 273.461 579.433 273.385 579.514C273.309 579.594 273.192 579.635 273.036 579.635H272.183C271.991 579.635 271.859 579.59 271.787 579.501C271.72 579.411 271.686 579.219 271.686 578.923V578.729V575.896V575.372C271.686 575.037 271.61 574.773 271.458 574.58C271.306 574.383 271.098 574.285 270.834 574.285C270.632 574.285 270.447 574.345 270.277 574.466C270.111 574.582 269.968 574.757 269.847 574.99V578.688H270.095C270.364 578.688 270.545 578.722 270.639 578.789C270.733 578.856 270.78 578.977 270.78 579.151C270.78 579.335 270.742 579.462 270.666 579.534C270.59 579.601 270.444 579.635 270.23 579.635H268.444C268.27 579.635 268.14 579.597 268.055 579.521C267.974 579.44 267.934 579.317 267.934 579.151C267.934 578.972 267.985 578.852 268.088 578.789C268.196 578.722 268.402 578.688 268.706 578.688H268.84V574.385H268.719C268.406 574.385 268.191 574.35 268.075 574.278C267.963 574.206 267.907 574.081 267.907 573.902C267.907 573.746 267.952 573.629 268.041 573.553C268.131 573.473 268.265 573.432 268.444 573.432H269.471C269.619 573.432 269.715 573.459 269.76 573.513C269.809 573.562 269.838 573.669 269.847 573.835C270.031 573.638 270.227 573.493 270.438 573.399C270.648 573.305 270.885 573.258 271.149 573.258C271.463 573.258 271.72 573.327 271.921 573.466C272.127 573.6 272.279 573.806 272.378 574.083C272.566 573.801 272.783 573.593 273.029 573.459C273.275 573.325 273.557 573.258 273.875 573.258C274.452 573.258 274.873 573.446 275.137 573.822C275.405 574.198 275.539 574.806 275.539 575.647V578.688H275.647C275.924 578.688 276.11 578.722 276.204 578.789C276.298 578.856 276.345 578.977 276.345 579.151C276.345 579.313 276.305 579.433 276.224 579.514C276.144 579.594 276.025 579.635 275.868 579.635H275.056C274.877 579.635 274.745 579.581 274.66 579.474C274.575 579.366 274.532 579.196 274.532 578.964V575.896ZM278.03 576.829C278.066 577.473 278.283 577.972 278.681 578.326C279.084 578.675 279.632 578.849 280.325 578.849C280.849 578.849 281.42 578.711 282.037 578.433C282.655 578.151 283.028 578.01 283.158 578.01C283.292 578.01 283.404 578.053 283.494 578.138C283.583 578.223 283.628 578.328 283.628 578.453C283.628 578.583 283.581 578.702 283.487 578.809C283.393 578.917 283.243 579.022 283.037 579.125C282.59 579.344 282.127 579.512 281.648 579.628C281.173 579.744 280.701 579.803 280.231 579.803C279.211 579.803 278.394 579.509 277.781 578.923C277.168 578.333 276.862 577.552 276.862 576.581C276.862 575.592 277.186 574.79 277.835 574.177C278.484 573.564 279.33 573.258 280.372 573.258C281.317 573.258 282.1 573.544 282.722 574.117C283.344 574.69 283.655 575.383 283.655 576.198C283.655 576.449 283.601 576.616 283.494 576.701C283.391 576.786 283.107 576.829 282.641 576.829H282.541H278.03ZM278.063 575.95H282.433C282.366 575.417 282.142 574.99 281.762 574.667C281.386 574.341 280.923 574.177 280.372 574.177C279.777 574.177 279.276 574.334 278.869 574.647C278.462 574.961 278.193 575.395 278.063 575.95ZM286.058 578.688V574.385H285.931C285.626 574.385 285.416 574.35 285.3 574.278C285.188 574.206 285.132 574.081 285.132 573.902C285.132 573.737 285.179 573.618 285.273 573.546C285.367 573.47 285.519 573.432 285.729 573.432H286.045H286.689C286.81 573.432 286.904 573.457 286.971 573.506C287.038 573.555 287.072 573.622 287.072 573.708V574.164C287.398 573.86 287.721 573.636 288.038 573.493C288.36 573.345 288.694 573.271 289.038 573.271C289.714 573.271 290.244 573.482 290.629 573.902C291.019 574.323 291.213 574.905 291.213 575.647V578.688H291.529C291.753 578.688 291.914 578.726 292.012 578.802C292.111 578.874 292.16 578.99 292.16 579.151C292.16 579.326 292.106 579.451 291.999 579.527C291.896 579.599 291.71 579.635 291.442 579.635H289.958C289.672 579.635 289.488 579.601 289.408 579.534C289.327 579.467 289.287 579.339 289.287 579.151C289.287 578.977 289.334 578.856 289.428 578.789C289.522 578.722 289.699 578.688 289.958 578.688H290.193V575.896C290.193 575.372 290.074 574.974 289.837 574.701C289.6 574.424 289.255 574.285 288.804 574.285C288.347 574.285 287.944 574.439 287.595 574.748C287.246 575.057 287.072 575.439 287.072 575.896V578.688H287.307C287.575 578.688 287.756 578.722 287.85 578.789C287.944 578.856 287.991 578.977 287.991 579.151C287.991 579.339 287.951 579.467 287.87 579.534C287.79 579.601 287.593 579.635 287.28 579.635H286.058H285.696C285.512 579.635 285.373 579.597 285.279 579.521C285.19 579.44 285.145 579.317 285.145 579.151C285.145 578.972 285.197 578.852 285.3 578.789C285.407 578.722 285.613 578.688 285.917 578.688H286.058ZM295.14 577.158C295.14 577.722 295.259 578.133 295.496 578.393C295.733 578.652 296.109 578.782 296.624 578.782C297.112 578.782 297.528 578.628 297.872 578.319C298.221 578.01 298.396 577.623 298.396 577.158V574.385H297.476C297.302 574.385 297.174 574.35 297.094 574.278C297.018 574.202 296.979 574.086 296.979 573.929C296.979 573.759 297.022 573.634 297.107 573.553C297.192 573.473 297.329 573.432 297.516 573.432H298.946C299.116 573.432 299.235 573.47 299.302 573.546C299.374 573.618 299.409 573.797 299.409 574.083V578.688H299.718C299.938 578.688 300.094 578.724 300.188 578.796C300.287 578.867 300.336 578.986 300.336 579.151C300.336 579.313 300.289 579.433 300.195 579.514C300.105 579.594 299.973 579.635 299.799 579.635H298.778C298.658 579.635 298.564 579.61 298.497 579.561C298.429 579.512 298.396 579.445 298.396 579.36V578.903C297.966 579.234 297.597 579.462 297.288 579.588C296.984 579.709 296.662 579.769 296.322 579.769C295.583 579.769 295.028 579.574 294.657 579.185C294.29 578.791 294.106 578.198 294.106 577.406V574.385H293.966C293.661 574.385 293.453 574.35 293.341 574.278C293.229 574.206 293.173 574.081 293.173 573.902C293.173 573.746 293.216 573.629 293.301 573.553C293.39 573.473 293.527 573.432 293.71 573.432H294.724C294.881 573.432 294.988 573.464 295.046 573.526C295.109 573.589 295.14 573.728 295.14 573.942V577.158Z" fill="black"/>
</svg>
