<svg fill="none" height="82" viewBox="0 0 82 82" width="82" xmlns="http://www.w3.org/2000/svg"><path d="m72.2767 15.6752c-9.3165-12.50001-23.4417-16.600011-38.4684-11.60001-15.0267 5-31.05525 19.10001-33.459523 35.10001-2.504457 16 8.715503 33.6 26.046323 38.9 17.3308 5.4 40.8727-1.5 50.3897-15.3 9.5169-13.8 4.8085-34.6-4.5081-47.1z" fill="#4279f6"/><path d="m57.4382 26.2538c0 2.8711-.0073 5.3393-.0219 7.4048-.0147 2.0508-.022 3.9258-.022 5.625 0 2.1972.0073 4.7387.022 7.6245.0146 2.8711.0219 5.0244.0219 6.4599l-8.3276 3.0542c-2.7685-3.5302-5.2734-6.5771-7.5146-9.1406-2.2413-2.5781-3.772-4.3139-4.5923-5.2075l-.1758.0879c0 2.124.0073 4.5996.022 7.4267.0146 2.8272.0219 4.856.0219 6.0865h-11.184c0-1.2012.0073-3.2154.0219-6.0425.0147-2.8272.022-5.896.022-9.2066 0-1.3916-.0073-3.0834-.022-5.0756-.0146-2.0069-.0293-4.2041-.0439-6.5918l8.789-3.23c1.1719 1.3769 2.6514 3.0835 4.4385 5.1196 1.8018 2.0215 4.2261 4.6948 7.273 8.02l.1318-.0659c0-1.7285-.0073-3.6767-.022-5.8447-.0146-2.168-.0219-4.3359-.0219-6.5039z" fill="#fff"/></svg>