<svg fill="none" height="174" viewBox="0 0 161 174" width="161" xmlns="http://www.w3.org/2000/svg"><path d="m0 24.6001 80.4-24.000002 80.4 24.000002v124.7999l-80.4 24-80.4-24z" fill="#4279f6"/><g fill="#fff"><path d="m79.9961 17.8799 64.3209 19.2v99.8401l-64.32 19.2z" fill-opacity=".2"/><path d="m120.561 51.6395c0 7.3874-.019 13.7383-.057 19.0527-.037 5.2767-.056 10.1011-.056 14.4732 0 5.6536.019 12.1929.056 19.6176.038 7.388.057 12.928.057 16.622l-21.4273 7.859c-7.1235-9.084-13.5686-16.924-19.3353-23.519-5.7667-6.634-9.7054-11.1004-11.816-13.3995l-.4523.2261c0 5.4652.0188 11.8354.0565 19.1094s.0565 12.494.0565 15.66h-28.7768c0-3.09.0188-8.273.0565-15.547s.0565-15.1706.0565-23.6887c0-3.5807-.0188-7.9339-.0565-13.0599-.0377-5.1636-.0754-10.8172-.1131-16.9608l22.6145-8.3108c3.0152 3.5429 6.822 7.9339 11.4203 13.1729 4.6359 5.2013 10.8737 12.0799 18.7134 20.6357l.3392-.1696c0-4.4475-.0188-9.4604-.0565-15.0386-.0377-5.5783-.0565-11.1565-.0565-16.7347z"/></g></svg>