<svg width="652" height="696" viewBox="0 0 652 696" fill="none" xmlns="http://www.w3.org/2000/svg">
<g filter="url(#filter0_d_11781_443)">
<rect x="66.0625" y="52.2373" width="520.876" height="588.086" rx="8.03349" fill="white"/>
<rect x="66.732" y="52.9068" width="519.537" height="586.747" rx="7.36403" stroke="url(#paint0_linear_11781_443)" stroke-width="1.33892"/>
</g>
<rect x="88.9746" y="76.6772" width="471.996" height="29.0224" fill="#F2F2F2"/>
<rect x="88.9746" y="515.068" width="471.996" height="62.6273" fill="#F2F2F2"/>
<rect x="88.9746" y="589.916" width="471.996" height="29.0224" fill="#F2F2F2"/>
<rect x="88.9746" y="120.975" width="471.996" height="375.764" fill="#F2F2F2"/>
<rect opacity="0.4" x="119.525" y="151.524" width="413.951" height="314.664" fill="#D9D9D9"/>
<rect x="156.184" y="200.404" width="340.631" height="105.397" fill="white"/>
<path d="M295.216 93.0788L299.586 95.153C299.832 95.2693 300.004 95.3857 300.103 95.502C300.201 95.6139 300.25 95.7504 300.25 95.9115C300.25 96.0995 300.192 96.2516 300.076 96.368C299.96 96.4843 299.805 96.5425 299.613 96.5425C299.532 96.5425 299.443 96.5291 299.344 96.5022C299.25 96.4754 299.134 96.4306 298.995 96.368L293.706 93.9313C293.679 93.9179 293.636 93.9 293.578 93.8776C293.104 93.6583 292.867 93.401 292.867 93.1056C292.867 92.8058 293.115 92.5418 293.612 92.3135L293.665 92.28L298.995 89.7963C299.174 89.7158 299.306 89.6643 299.391 89.6419C299.476 89.6151 299.55 89.6016 299.613 89.6016C299.805 89.6016 299.96 89.6598 300.076 89.7762C300.192 89.8925 300.25 90.0447 300.25 90.2326C300.25 90.3937 300.199 90.5347 300.096 90.6555C299.998 90.7719 299.828 90.8882 299.586 91.0046L295.216 93.0788ZM303.902 91.79C304.059 91.517 304.28 91.3089 304.567 91.1657C304.853 91.0225 305.195 90.9509 305.594 90.9509C306.301 90.9509 306.844 91.1567 307.225 91.5684C307.61 91.9802 307.802 92.5709 307.802 93.3406V95.8444H307.916C308.153 95.8444 308.332 95.907 308.453 96.0323C308.579 96.1532 308.641 96.3322 308.641 96.5694C308.641 96.8334 308.576 97.0236 308.447 97.1399C308.321 97.2563 308.106 97.3145 307.802 97.3145H306.137C305.838 97.3145 305.623 97.2563 305.493 97.1399C305.368 97.0236 305.305 96.8334 305.305 96.5694C305.305 96.3277 305.365 96.1465 305.486 96.0256C305.607 95.9048 305.788 95.8444 306.03 95.8444H306.137V93.891C306.137 93.3182 306.066 92.9222 305.923 92.7029C305.784 92.4791 305.544 92.3672 305.204 92.3672C304.846 92.3672 304.54 92.5127 304.285 92.8036C304.03 93.09 303.902 93.4525 303.902 93.891V95.8444H304.009C304.251 95.8444 304.432 95.907 304.553 96.0323C304.679 96.1532 304.741 96.3322 304.741 96.5694C304.741 96.8334 304.676 97.0236 304.547 97.1399C304.417 97.2563 304.202 97.3145 303.902 97.3145H302.237C301.929 97.3145 301.712 97.2585 301.586 97.1466C301.461 97.0303 301.398 96.8379 301.398 96.5694C301.398 96.3322 301.459 96.1532 301.58 96.0323C301.705 95.907 301.886 95.8444 302.123 95.8444H302.237V90.0178H302.123C301.886 90.0178 301.703 89.9552 301.573 89.8299C301.448 89.7001 301.385 89.5144 301.385 89.2727C301.385 89.0087 301.45 88.8185 301.58 88.7022C301.709 88.5858 301.929 88.5276 302.237 88.5276H303.499C303.651 88.5276 303.757 88.559 303.815 88.6216C303.873 88.6843 303.902 88.8006 303.902 88.9707V91.79ZM311.414 94.6093C311.53 95.106 311.754 95.4774 312.085 95.7236C312.42 95.9697 312.866 96.0928 313.421 96.0928C313.976 96.0928 314.524 95.9585 315.065 95.69C315.607 95.417 315.933 95.2805 316.045 95.2805C316.211 95.2805 316.345 95.3432 316.448 95.4685C316.555 95.5893 316.609 95.7459 316.609 95.9384C316.609 96.359 316.298 96.7215 315.676 97.0258C315.054 97.3301 314.284 97.4823 313.367 97.4823C312.284 97.4823 311.402 97.178 310.722 96.5694C310.046 95.9607 309.709 95.1776 309.709 94.2199C309.709 93.2667 310.046 92.4858 310.722 91.8772C311.402 91.2686 312.284 90.9643 313.367 90.9643C314.334 90.9643 315.135 91.2507 315.77 91.8235C316.405 92.3919 316.723 93.09 316.723 93.9179C316.723 94.1819 316.658 94.3631 316.529 94.4616C316.403 94.56 316.141 94.6093 315.743 94.6093H311.414ZM315.032 93.5621C314.956 93.1459 314.759 92.8237 314.441 92.5955C314.128 92.3672 313.718 92.2531 313.213 92.2531C312.725 92.2531 312.331 92.3628 312.031 92.5821C311.736 92.7969 311.53 93.1235 311.414 93.5621H315.032ZM324.235 95.8444H324.342C324.584 95.8444 324.767 95.9093 324.892 96.0391C325.022 96.1644 325.087 96.3456 325.087 96.5828C325.087 96.8423 325.02 97.0303 324.886 97.1466C324.756 97.2585 324.539 97.3145 324.235 97.3145H323.604C323.38 97.3145 323.212 97.2719 323.1 97.1869C322.993 97.1019 322.903 96.9475 322.832 96.7237C322.46 96.9699 322.066 97.1578 321.65 97.2876C321.234 97.4174 320.813 97.4823 320.388 97.4823C319.668 97.4823 319.102 97.3033 318.69 96.9453C318.278 96.5873 318.072 96.0972 318.072 95.4752C318.072 94.8039 318.339 94.2826 318.871 93.9112C319.404 93.5397 320.151 93.354 321.113 93.354C321.328 93.354 321.556 93.3652 321.798 93.3876C322.04 93.4099 322.31 93.4457 322.61 93.495V93.3674C322.61 92.9647 322.512 92.6581 322.315 92.4478C322.122 92.2375 321.836 92.1323 321.456 92.1323C321.16 92.1323 320.782 92.2419 320.321 92.4612C319.865 92.6805 319.529 92.7901 319.314 92.7901C319.104 92.7901 318.934 92.7297 318.804 92.6089C318.674 92.4836 318.609 92.3203 318.609 92.1189C318.609 91.7564 318.873 91.47 319.402 91.2597C319.934 91.0449 320.657 90.9375 321.57 90.9375C322.523 90.9375 323.205 91.1209 323.617 91.4879C324.029 91.8549 324.235 92.4769 324.235 93.354V95.8444ZM322.61 94.5489C322.386 94.4996 322.181 94.4638 321.993 94.4414C321.805 94.4146 321.63 94.4012 321.469 94.4012C320.977 94.4012 320.59 94.484 320.308 94.6495C320.03 94.8151 319.892 95.0433 319.892 95.3342C319.892 95.5938 319.981 95.7929 320.16 95.9317C320.339 96.0659 320.596 96.133 320.932 96.133C321.241 96.133 321.532 96.0883 321.805 95.9988C322.078 95.9093 322.346 95.7705 322.61 95.5826V94.5489ZM332.612 95.8444H332.726C332.968 95.8444 333.149 95.907 333.27 96.0323C333.391 96.1532 333.451 96.3322 333.451 96.5694C333.451 96.8334 333.386 97.0236 333.256 97.1399C333.131 97.2563 332.916 97.3145 332.612 97.3145H331.585C331.455 97.3145 331.354 97.2898 331.283 97.2406C331.216 97.1869 331.182 97.1153 331.182 97.0258V96.5559C330.963 96.8558 330.681 97.0862 330.336 97.2473C329.992 97.404 329.605 97.4823 329.175 97.4823C328.298 97.4823 327.564 97.1847 326.973 96.5895C326.383 95.9898 326.087 95.2425 326.087 94.3475C326.087 93.4167 326.385 92.6447 326.98 92.0316C327.58 91.4185 328.341 91.112 329.262 91.112C329.58 91.112 329.889 91.1657 330.189 91.2731C330.493 91.376 330.77 91.5237 331.021 91.7161V90.0178H330.128C329.82 90.0178 329.6 89.9597 329.47 89.8433C329.341 89.7225 329.276 89.5323 329.276 89.2727C329.276 89.0087 329.341 88.8185 329.47 88.7022C329.6 88.5858 329.82 88.5276 330.128 88.5276H332.216C332.368 88.5276 332.471 88.559 332.525 88.6216C332.583 88.6843 332.612 88.8006 332.612 88.9707V95.8444ZM329.464 92.5418C329.025 92.5418 328.66 92.7074 328.37 93.0385C328.083 93.3652 327.94 93.7814 327.94 94.2871C327.94 94.8062 328.083 95.2313 328.37 95.5625C328.656 95.8891 329.021 96.0525 329.464 96.0525C329.907 96.0525 330.272 95.8869 330.558 95.5557C330.849 95.2246 330.994 94.8017 330.994 94.2871C330.994 93.7859 330.849 93.3697 330.558 93.0385C330.267 92.7074 329.902 92.5418 329.464 92.5418ZM336.183 94.6093C336.299 95.106 336.523 95.4774 336.854 95.7236C337.19 95.9697 337.635 96.0928 338.19 96.0928C338.745 96.0928 339.293 95.9585 339.835 95.69C340.376 95.417 340.703 95.2805 340.815 95.2805C340.98 95.2805 341.115 95.3432 341.218 95.4685C341.325 95.5893 341.379 95.7459 341.379 95.9384C341.379 96.359 341.068 96.7215 340.446 97.0258C339.824 97.3301 339.054 97.4823 338.136 97.4823C337.054 97.4823 336.172 97.178 335.492 96.5694C334.816 95.9607 334.478 95.1776 334.478 94.2199C334.478 93.2667 334.816 92.4858 335.492 91.8772C336.172 91.2686 337.054 90.9643 338.136 90.9643C339.103 90.9643 339.904 91.2507 340.54 91.8235C341.175 92.3919 341.493 93.09 341.493 93.9179C341.493 94.1819 341.428 94.3631 341.298 94.4616C341.173 94.56 340.911 94.6093 340.513 94.6093H336.183ZM339.801 93.5621C339.725 93.1459 339.528 92.8237 339.21 92.5955C338.897 92.3672 338.488 92.2531 337.982 92.2531C337.494 92.2531 337.1 92.3628 336.801 92.5821C336.505 92.7969 336.299 93.1235 336.183 93.5621H339.801ZM345.963 93.6695V95.8444H347.548C347.852 95.8444 348.067 95.9003 348.192 96.0122C348.322 96.1241 348.387 96.3098 348.387 96.5694C348.387 96.8334 348.322 97.0236 348.192 97.1399C348.067 97.2563 347.852 97.3145 347.548 97.3145H343.795C343.486 97.3145 343.267 97.2563 343.137 97.1399C343.008 97.0236 342.943 96.8334 342.943 96.5694C342.943 96.3098 343.005 96.1241 343.131 96.0122C343.26 95.9003 343.482 95.8444 343.795 95.8444H344.305V92.5821H344.017C343.712 92.5821 343.495 92.5261 343.366 92.4142C343.24 92.2979 343.178 92.1077 343.178 91.8437C343.178 91.5796 343.238 91.3917 343.359 91.2798C343.484 91.1679 343.703 91.112 344.017 91.112H345.447C345.567 91.112 345.661 91.1388 345.728 91.1925C345.796 91.2418 345.829 91.3111 345.829 91.4006V92.3941C346.317 91.8705 346.771 91.4968 347.192 91.2731C347.617 91.0493 348.073 90.9375 348.561 90.9375C349.004 90.9375 349.356 91.0381 349.615 91.2395C349.875 91.4364 350.004 91.7027 350.004 92.0383C350.004 92.2979 349.915 92.5127 349.736 92.6827C349.557 92.8483 349.326 92.9311 349.044 92.9311C348.843 92.9311 348.604 92.8573 348.326 92.7096C348.053 92.5619 347.863 92.4881 347.756 92.4881C347.541 92.4881 347.288 92.5843 346.997 92.7767C346.706 92.9691 346.362 93.2667 345.963 93.6695ZM356.052 93.0788L351.676 91.0046C351.439 90.8882 351.269 90.7719 351.166 90.6555C351.067 90.5347 351.018 90.3937 351.018 90.2326C351.018 90.0447 351.074 89.8925 351.186 89.7762C351.298 89.6598 351.448 89.6016 351.636 89.6016C351.707 89.6016 351.788 89.6151 351.877 89.6419C351.971 89.6688 352.103 89.7202 352.273 89.7963L357.59 92.28L357.643 92.3135C358.14 92.5418 358.388 92.8058 358.388 93.1056C358.388 93.4055 358.149 93.6628 357.67 93.8776C357.625 93.9044 357.59 93.9223 357.563 93.9313L352.253 96.368C352.119 96.4306 352.003 96.4754 351.904 96.5022C351.81 96.5291 351.721 96.5425 351.636 96.5425C351.448 96.5425 351.298 96.4866 351.186 96.3747C351.074 96.2583 351.018 96.1039 351.018 95.9115C351.018 95.7504 351.065 95.6139 351.159 95.502C351.257 95.3857 351.43 95.2693 351.676 95.153L356.052 93.0788Z" fill="black"/>
<path d="M304.139 137.376L308.508 139.45C308.755 139.567 308.927 139.683 309.025 139.799C309.124 139.911 309.173 140.048 309.173 140.209C309.173 140.397 309.115 140.549 308.998 140.665C308.882 140.782 308.728 140.84 308.535 140.84C308.455 140.84 308.365 140.826 308.267 140.8C308.173 140.773 308.056 140.728 307.918 140.665L302.628 138.229C302.601 138.215 302.559 138.197 302.501 138.175C302.026 137.956 301.789 137.698 301.789 137.403C301.789 137.103 302.037 136.839 302.534 136.611L302.588 136.577L307.918 134.094C308.097 134.013 308.229 133.962 308.314 133.939C308.399 133.912 308.473 133.899 308.535 133.899C308.728 133.899 308.882 133.957 308.998 134.074C309.115 134.19 309.173 134.342 309.173 134.53C309.173 134.691 309.122 134.832 309.019 134.953C308.92 135.069 308.75 135.186 308.508 135.302L304.139 137.376ZM314.335 135.866C314.523 135.664 314.74 135.512 314.986 135.409C315.232 135.302 315.496 135.248 315.778 135.248C316.387 135.248 316.825 135.429 317.094 135.792C317.362 136.15 317.497 136.752 317.497 137.598V140.142H317.591C317.801 140.142 317.958 140.204 318.06 140.33C318.168 140.451 318.222 140.63 318.222 140.867C318.222 141.135 318.166 141.328 318.054 141.444C317.946 141.556 317.761 141.612 317.497 141.612H316.355C316.235 141.612 316.141 141.587 316.074 141.538C316.006 141.484 315.973 141.413 315.973 141.323V137.531C315.973 137.231 315.926 137.007 315.832 136.859C315.738 136.712 315.601 136.638 315.422 136.638C315.199 136.638 315.024 136.738 314.899 136.94C314.778 137.137 314.718 137.421 314.718 137.792V140.142H314.818C315.024 140.142 315.181 140.204 315.288 140.33C315.396 140.451 315.449 140.63 315.449 140.867C315.449 141.135 315.393 141.328 315.281 141.444C315.17 141.556 314.982 141.612 314.718 141.612H313.576C313.456 141.612 313.359 141.587 313.288 141.538C313.216 141.484 313.18 141.413 313.18 141.323V137.531C313.18 137.231 313.136 137.007 313.046 136.859C312.957 136.712 312.822 136.638 312.643 136.638C312.42 136.638 312.243 136.738 312.113 136.94C311.988 137.141 311.925 137.425 311.925 137.792V140.142H312.026C312.236 140.142 312.393 140.202 312.496 140.323C312.603 140.444 312.657 140.625 312.657 140.867C312.657 141.135 312.601 141.328 312.489 141.444C312.377 141.556 312.189 141.612 311.925 141.612H310.401C310.142 141.612 309.956 141.554 309.844 141.437C309.732 141.321 309.676 141.131 309.676 140.867C309.676 140.63 309.728 140.451 309.831 140.33C309.938 140.204 310.097 140.142 310.307 140.142H310.401V136.879H310.307C310.097 136.879 309.936 136.817 309.824 136.691C309.717 136.562 309.663 136.378 309.663 136.141C309.663 135.881 309.719 135.696 309.831 135.584C309.947 135.468 310.137 135.409 310.401 135.409H311.308C311.491 135.409 311.614 135.447 311.677 135.523C311.744 135.595 311.777 135.736 311.777 135.946C311.943 135.718 312.142 135.546 312.375 135.429C312.608 135.309 312.867 135.248 313.154 135.248C313.413 135.248 313.639 135.3 313.832 135.403C314.024 135.501 314.192 135.655 314.335 135.866ZM324.901 140.142H325.008C325.25 140.142 325.433 140.207 325.558 140.336C325.688 140.462 325.753 140.643 325.753 140.88C325.753 141.14 325.686 141.328 325.552 141.444C325.422 141.556 325.205 141.612 324.901 141.612H324.27C324.046 141.612 323.878 141.569 323.766 141.484C323.659 141.399 323.569 141.245 323.498 141.021C323.126 141.267 322.732 141.455 322.316 141.585C321.9 141.715 321.479 141.78 321.054 141.78C320.334 141.78 319.768 141.601 319.356 141.243C318.944 140.885 318.738 140.395 318.738 139.773C318.738 139.101 319.005 138.58 319.537 138.209C320.07 137.837 320.817 137.651 321.779 137.651C321.994 137.651 322.222 137.663 322.464 137.685C322.706 137.707 322.976 137.743 323.276 137.792V137.665C323.276 137.262 323.178 136.955 322.981 136.745C322.788 136.535 322.502 136.43 322.122 136.43C321.826 136.43 321.448 136.539 320.987 136.759C320.531 136.978 320.195 137.088 319.98 137.088C319.77 137.088 319.6 137.027 319.47 136.906C319.34 136.781 319.275 136.618 319.275 136.416C319.275 136.054 319.539 135.767 320.068 135.557C320.6 135.342 321.323 135.235 322.236 135.235C323.189 135.235 323.871 135.418 324.283 135.785C324.695 136.152 324.901 136.774 324.901 137.651V140.142ZM323.276 138.846C323.052 138.797 322.847 138.761 322.659 138.739C322.471 138.712 322.296 138.699 322.135 138.699C321.643 138.699 321.256 138.781 320.974 138.947C320.696 139.112 320.558 139.341 320.558 139.632C320.558 139.891 320.647 140.09 320.826 140.229C321.005 140.363 321.262 140.43 321.598 140.43C321.907 140.43 322.198 140.386 322.471 140.296C322.744 140.207 323.012 140.068 323.276 139.88V138.846ZM331.358 140.142H332.801C333.11 140.142 333.329 140.198 333.459 140.31C333.589 140.421 333.654 140.607 333.654 140.867C333.654 141.131 333.587 141.321 333.453 141.437C333.323 141.554 333.106 141.612 332.801 141.612H328.264C327.959 141.612 327.74 141.554 327.606 141.437C327.476 141.321 327.411 141.131 327.411 140.867C327.411 140.607 327.474 140.421 327.599 140.31C327.729 140.198 327.95 140.142 328.264 140.142H329.707V136.879H328.948C328.649 136.879 328.434 136.823 328.304 136.712C328.174 136.595 328.109 136.405 328.109 136.141C328.109 135.877 328.172 135.689 328.297 135.577C328.423 135.465 328.64 135.409 328.948 135.409H330.969C331.094 135.409 331.19 135.436 331.258 135.49C331.325 135.539 331.358 135.608 331.358 135.698V140.142ZM330.392 132.375C330.718 132.375 330.935 132.438 331.043 132.563C331.15 132.689 331.204 132.988 331.204 133.463C331.204 133.919 331.155 134.203 331.056 134.315C330.962 134.423 330.736 134.476 330.378 134.476C330.029 134.476 329.803 134.425 329.7 134.322C329.602 134.219 329.552 134.013 329.552 133.704C329.552 133.132 329.604 132.767 329.707 132.61C329.81 132.454 330.038 132.375 330.392 132.375ZM341.494 140.128H341.582C341.832 140.128 342.02 140.191 342.145 140.316C342.271 140.437 342.333 140.621 342.333 140.867C342.333 141.131 342.268 141.321 342.139 141.437C342.013 141.554 341.799 141.612 341.494 141.612H339.843C339.543 141.612 339.326 141.554 339.192 141.437C339.062 141.321 338.997 141.131 338.997 140.867C338.997 140.621 339.06 140.437 339.185 140.316C339.315 140.191 339.507 140.128 339.762 140.128H339.843V138.188C339.843 137.651 339.767 137.271 339.615 137.047C339.467 136.819 339.219 136.705 338.87 136.705C338.498 136.705 338.194 136.841 337.957 137.114C337.724 137.383 337.608 137.741 337.608 138.188V140.128H337.688C337.943 140.128 338.133 140.191 338.259 140.316C338.384 140.437 338.447 140.621 338.447 140.867C338.447 141.131 338.382 141.321 338.252 141.437C338.122 141.554 337.907 141.612 337.608 141.612H335.943C335.643 141.612 335.428 141.554 335.299 141.437C335.169 141.321 335.104 141.131 335.104 140.867C335.104 140.621 335.166 140.437 335.292 140.316C335.417 140.191 335.607 140.128 335.862 140.128H335.943V136.879H335.829C335.587 136.879 335.404 136.819 335.278 136.698C335.153 136.573 335.09 136.392 335.09 136.154C335.09 135.89 335.155 135.7 335.285 135.584C335.415 135.468 335.634 135.409 335.943 135.409H337.084C337.209 135.409 337.303 135.434 337.366 135.483C337.433 135.532 337.467 135.604 337.467 135.698V136.222C337.673 135.899 337.934 135.658 338.252 135.497C338.574 135.331 338.946 135.248 339.366 135.248C340.082 135.248 340.615 135.465 340.964 135.899C341.317 136.333 341.494 136.996 341.494 137.886V140.128ZM348.462 137.376L344.085 135.302C343.848 135.186 343.678 135.069 343.575 134.953C343.477 134.832 343.427 134.691 343.427 134.53C343.427 134.342 343.483 134.19 343.595 134.074C343.707 133.957 343.857 133.899 344.045 133.899C344.117 133.899 344.197 133.912 344.287 133.939C344.381 133.966 344.513 134.018 344.683 134.094L349.999 136.577L350.053 136.611C350.55 136.839 350.798 137.103 350.798 137.403C350.798 137.703 350.559 137.96 350.08 138.175C350.035 138.202 349.999 138.22 349.972 138.229L344.663 140.665C344.528 140.728 344.412 140.773 344.314 140.8C344.22 140.826 344.13 140.84 344.045 140.84C343.857 140.84 343.707 140.784 343.595 140.672C343.483 140.556 343.427 140.401 343.427 140.209C343.427 140.048 343.474 139.911 343.568 139.799C343.667 139.683 343.839 139.567 344.085 139.45L348.462 137.376Z" fill="black"/>
<path d="M292.033 177.091L296.403 179.165C296.649 179.282 296.821 179.398 296.92 179.514C297.018 179.626 297.067 179.763 297.067 179.924C297.067 180.112 297.009 180.264 296.893 180.38C296.777 180.497 296.622 180.555 296.43 180.555C296.349 180.555 296.26 180.541 296.161 180.514C296.067 180.488 295.951 180.443 295.812 180.38L290.523 177.943C290.496 177.93 290.453 177.912 290.395 177.89C289.921 177.671 289.684 177.413 289.684 177.118C289.684 176.818 289.932 176.554 290.429 176.326L290.482 176.292L295.812 173.809C295.991 173.728 296.123 173.677 296.208 173.654C296.293 173.627 296.367 173.614 296.43 173.614C296.622 173.614 296.777 173.672 296.893 173.788C297.009 173.905 297.067 174.057 297.067 174.245C297.067 174.406 297.016 174.547 296.913 174.668C296.815 174.784 296.645 174.9 296.403 175.017L292.033 177.091ZM304.539 179.857H304.646C304.888 179.857 305.071 179.921 305.196 180.051C305.326 180.177 305.391 180.358 305.391 180.595C305.391 180.855 305.324 181.042 305.19 181.159C305.06 181.271 304.843 181.327 304.539 181.327H303.908C303.684 181.327 303.516 181.284 303.404 181.199C303.297 181.114 303.207 180.96 303.136 180.736C302.764 180.982 302.37 181.17 301.954 181.3C301.538 181.43 301.117 181.494 300.692 181.494C299.972 181.494 299.406 181.315 298.994 180.957C298.582 180.599 298.376 180.109 298.376 179.487C298.376 178.816 298.643 178.295 299.175 177.923C299.708 177.552 300.455 177.366 301.417 177.366C301.632 177.366 301.86 177.377 302.102 177.4C302.344 177.422 302.614 177.458 302.914 177.507V177.38C302.914 176.977 302.816 176.67 302.619 176.46C302.426 176.25 302.14 176.145 301.76 176.145C301.464 176.145 301.086 176.254 300.625 176.473C300.169 176.693 299.833 176.802 299.618 176.802C299.408 176.802 299.238 176.742 299.108 176.621C298.978 176.496 298.913 176.332 298.913 176.131C298.913 175.769 299.177 175.482 299.706 175.272C300.238 175.057 300.961 174.95 301.874 174.95C302.827 174.95 303.509 175.133 303.921 175.5C304.333 175.867 304.539 176.489 304.539 177.366V179.857ZM302.914 178.561C302.69 178.512 302.485 178.476 302.297 178.454C302.109 178.427 301.934 178.413 301.773 178.413C301.281 178.413 300.894 178.496 300.612 178.662C300.334 178.827 300.196 179.056 300.196 179.346C300.196 179.606 300.285 179.805 300.464 179.944C300.643 180.078 300.9 180.145 301.236 180.145C301.545 180.145 301.836 180.1 302.109 180.011C302.382 179.921 302.65 179.783 302.914 179.595V178.561ZM309.754 177.682V179.857H311.339C311.643 179.857 311.858 179.913 311.983 180.024C312.113 180.136 312.178 180.322 312.178 180.582C312.178 180.846 312.113 181.036 311.983 181.152C311.858 181.268 311.643 181.327 311.339 181.327H307.586C307.277 181.327 307.058 181.268 306.928 181.152C306.799 181.036 306.734 180.846 306.734 180.582C306.734 180.322 306.796 180.136 306.922 180.024C307.051 179.913 307.273 179.857 307.586 179.857H308.096V176.594H307.808C307.503 176.594 307.286 176.538 307.157 176.426C307.031 176.31 306.969 176.12 306.969 175.856C306.969 175.592 307.029 175.404 307.15 175.292C307.275 175.18 307.494 175.124 307.808 175.124H309.237C309.358 175.124 309.452 175.151 309.519 175.205C309.587 175.254 309.62 175.323 309.62 175.413V176.406C310.108 175.883 310.562 175.509 310.983 175.285C311.408 175.062 311.864 174.95 312.352 174.95C312.795 174.95 313.146 175.05 313.406 175.252C313.666 175.449 313.795 175.715 313.795 176.051C313.795 176.31 313.706 176.525 313.527 176.695C313.348 176.861 313.117 176.943 312.835 176.943C312.634 176.943 312.395 176.869 312.117 176.722C311.844 176.574 311.654 176.5 311.547 176.5C311.332 176.5 311.079 176.596 310.788 176.789C310.497 176.981 310.153 177.279 309.754 177.682ZM317.85 175.5H319.897C320.206 175.5 320.425 175.556 320.555 175.668C320.685 175.78 320.75 175.966 320.75 176.225C320.75 176.489 320.682 176.679 320.548 176.796C320.418 176.912 320.201 176.97 319.897 176.97H317.85V178.689C317.85 179.172 317.924 179.503 318.071 179.682C318.219 179.861 318.479 179.951 318.85 179.951C319.199 179.951 319.611 179.85 320.085 179.649C320.559 179.447 320.877 179.346 321.038 179.346C321.222 179.346 321.378 179.42 321.508 179.568C321.642 179.711 321.71 179.886 321.71 180.092C321.71 180.436 321.396 180.752 320.77 181.038C320.148 181.32 319.441 181.461 318.649 181.461C318.188 181.461 317.783 181.398 317.434 181.273C317.085 181.148 316.809 180.969 316.608 180.736C316.46 180.557 316.355 180.342 316.292 180.092C316.23 179.841 316.198 179.423 316.198 178.836V178.689V176.97H315.567C315.263 176.97 315.046 176.912 314.916 176.796C314.791 176.679 314.728 176.489 314.728 176.225C314.728 175.961 314.791 175.775 314.916 175.668C315.042 175.556 315.259 175.5 315.567 175.5H316.198V173.929C316.198 173.621 316.261 173.404 316.386 173.278C316.516 173.153 316.729 173.09 317.024 173.09C317.319 173.09 317.53 173.153 317.655 173.278C317.785 173.404 317.85 173.621 317.85 173.929V175.5ZM327.509 179.857H328.952C329.261 179.857 329.48 179.913 329.61 180.024C329.74 180.136 329.805 180.322 329.805 180.582C329.805 180.846 329.738 181.036 329.604 181.152C329.474 181.268 329.257 181.327 328.952 181.327H324.415C324.11 181.327 323.891 181.268 323.757 181.152C323.627 181.036 323.562 180.846 323.562 180.582C323.562 180.322 323.625 180.136 323.75 180.024C323.88 179.913 324.101 179.857 324.415 179.857H325.858V176.594H325.099C324.8 176.594 324.585 176.538 324.455 176.426C324.325 176.31 324.26 176.12 324.26 175.856C324.26 175.592 324.323 175.404 324.448 175.292C324.574 175.18 324.791 175.124 325.099 175.124H327.12C327.245 175.124 327.341 175.151 327.409 175.205C327.476 175.254 327.509 175.323 327.509 175.413V179.857ZM326.543 172.09C326.869 172.09 327.086 172.153 327.194 172.278C327.301 172.403 327.355 172.703 327.355 173.178C327.355 173.634 327.306 173.918 327.207 174.03C327.113 174.137 326.887 174.191 326.529 174.191C326.18 174.191 325.954 174.14 325.851 174.037C325.753 173.934 325.704 173.728 325.704 173.419C325.704 172.846 325.755 172.482 325.858 172.325C325.961 172.168 326.189 172.09 326.543 172.09ZM336.82 175.487C336.873 175.312 336.956 175.182 337.068 175.097C337.184 175.008 337.332 174.963 337.511 174.963C337.753 174.963 337.925 175.037 338.028 175.185C338.131 175.328 338.182 175.578 338.182 175.936V177.037C338.182 177.31 338.126 177.512 338.014 177.641C337.903 177.771 337.73 177.836 337.498 177.836C337.332 177.836 337.193 177.798 337.081 177.722C336.97 177.646 336.851 177.5 336.726 177.286C336.547 176.981 336.312 176.758 336.021 176.614C335.73 176.467 335.374 176.393 334.954 176.393C334.43 176.393 334 176.565 333.665 176.91C333.334 177.25 333.168 177.686 333.168 178.219C333.168 178.778 333.34 179.228 333.685 179.568C334.029 179.908 334.493 180.078 335.074 180.078C335.602 180.078 336.126 179.933 336.645 179.642C337.169 179.346 337.489 179.199 337.605 179.199C337.771 179.199 337.907 179.264 338.014 179.393C338.126 179.519 338.182 179.678 338.182 179.87C338.182 180.291 337.862 180.667 337.222 180.998C336.587 181.329 335.831 181.494 334.954 181.494C333.871 181.494 332.989 181.19 332.309 180.582C331.633 179.973 331.295 179.19 331.295 178.232C331.295 177.297 331.631 176.518 332.302 175.896C332.973 175.274 333.819 174.963 334.839 174.963C335.184 174.963 335.52 175.006 335.846 175.091C336.173 175.176 336.497 175.308 336.82 175.487ZM343.908 179.857H345.351C345.66 179.857 345.877 179.913 346.003 180.024C346.128 180.136 346.19 180.322 346.19 180.582C346.19 180.846 346.126 181.036 345.996 181.152C345.87 181.268 345.656 181.327 345.351 181.327H340.8C340.5 181.327 340.286 181.268 340.156 181.152C340.031 181.036 339.968 180.846 339.968 180.582C339.968 180.318 340.028 180.132 340.149 180.024C340.274 179.913 340.491 179.857 340.8 179.857H342.243V174.03H341.505C341.201 174.03 340.981 173.972 340.847 173.856C340.717 173.735 340.653 173.544 340.653 173.285C340.653 173.021 340.717 172.831 340.847 172.714C340.977 172.598 341.196 172.54 341.505 172.54H343.512C343.637 172.54 343.734 172.567 343.801 172.62C343.872 172.67 343.908 172.739 343.908 172.828V179.857ZM349.513 178.621C349.63 179.118 349.853 179.49 350.184 179.736C350.52 179.982 350.965 180.105 351.52 180.105C352.075 180.105 352.623 179.971 353.165 179.702C353.706 179.429 354.033 179.293 354.145 179.293C354.31 179.293 354.445 179.355 354.548 179.481C354.655 179.602 354.709 179.758 354.709 179.951C354.709 180.371 354.398 180.734 353.776 181.038C353.154 181.342 352.384 181.494 351.467 181.494C350.384 181.494 349.502 181.19 348.822 180.582C348.146 179.973 347.808 179.19 347.808 178.232C347.808 177.279 348.146 176.498 348.822 175.889C349.502 175.281 350.384 174.977 351.467 174.977C352.433 174.977 353.234 175.263 353.87 175.836C354.505 176.404 354.823 177.102 354.823 177.93C354.823 178.194 354.758 178.375 354.628 178.474C354.503 178.572 354.241 178.621 353.843 178.621H349.513ZM353.131 177.574C353.055 177.158 352.858 176.836 352.541 176.608C352.227 176.379 351.818 176.265 351.312 176.265C350.824 176.265 350.431 176.375 350.131 176.594C349.835 176.809 349.63 177.136 349.513 177.574H353.131ZM361.126 177.091L356.749 175.017C356.512 174.9 356.342 174.784 356.239 174.668C356.141 174.547 356.092 174.406 356.092 174.245C356.092 174.057 356.148 173.905 356.259 173.788C356.371 173.672 356.521 173.614 356.709 173.614C356.781 173.614 356.861 173.627 356.951 173.654C357.045 173.681 357.177 173.732 357.347 173.809L362.663 176.292L362.717 176.326C363.214 176.554 363.462 176.818 363.462 177.118C363.462 177.418 363.223 177.675 362.744 177.89C362.699 177.917 362.663 177.935 362.636 177.943L357.327 180.38C357.192 180.443 357.076 180.488 356.978 180.514C356.884 180.541 356.794 180.555 356.709 180.555C356.521 180.555 356.371 180.499 356.259 180.387C356.148 180.271 356.092 180.116 356.092 179.924C356.092 179.763 356.139 179.626 356.233 179.514C356.331 179.398 356.503 179.282 356.749 179.165L361.126 177.091Z" fill="black"/>
<path d="M292.033 250.411L296.403 252.485C296.649 252.601 296.821 252.718 296.92 252.834C297.018 252.946 297.067 253.082 297.067 253.244C297.067 253.431 297.009 253.584 296.893 253.7C296.777 253.816 296.622 253.875 296.43 253.875C296.349 253.875 296.26 253.861 296.161 253.834C296.067 253.807 295.951 253.763 295.812 253.7L290.523 251.263C290.496 251.25 290.453 251.232 290.395 251.21C289.921 250.99 289.684 250.733 289.684 250.438C289.684 250.138 289.932 249.874 290.429 249.646L290.482 249.612L295.812 247.128C295.991 247.048 296.123 246.996 296.208 246.974C296.293 246.947 296.367 246.934 296.43 246.934C296.622 246.934 296.777 246.992 296.893 247.108C297.009 247.225 297.067 247.377 297.067 247.565C297.067 247.726 297.016 247.867 296.913 247.988C296.815 248.104 296.645 248.22 296.403 248.337L292.033 250.411ZM300.028 254.553C299.911 254.642 299.791 254.709 299.665 254.754C299.544 254.803 299.419 254.828 299.289 254.828C299.097 254.828 298.96 254.776 298.88 254.673C298.804 254.57 298.766 254.378 298.766 254.096V253.203C298.766 252.908 298.815 252.7 298.913 252.579C299.012 252.454 299.182 252.391 299.424 252.391C299.688 252.391 299.902 252.519 300.068 252.774C300.166 252.912 300.249 253.015 300.316 253.082C300.536 253.279 300.791 253.427 301.082 253.525C301.373 253.624 301.704 253.673 302.075 253.673C302.397 253.673 302.655 253.611 302.847 253.485C303.039 253.36 303.136 253.197 303.136 252.995C303.136 252.633 302.619 252.382 301.585 252.243C301.357 252.217 301.178 252.192 301.048 252.17C300.269 252.062 299.69 251.852 299.309 251.539C298.929 251.221 298.739 250.796 298.739 250.263C298.739 249.632 298.967 249.144 299.424 248.8C299.88 248.455 300.531 248.283 301.377 248.283C301.668 248.283 301.965 248.308 302.27 248.357C302.579 248.402 302.894 248.473 303.216 248.572C303.31 248.46 303.409 248.377 303.512 248.323C303.619 248.269 303.738 248.243 303.867 248.243C304.051 248.243 304.19 248.301 304.284 248.417C304.382 248.529 304.431 248.699 304.431 248.927V249.753C304.431 249.945 304.382 250.095 304.284 250.203C304.185 250.306 304.046 250.357 303.867 250.357C303.684 250.357 303.368 250.198 302.921 249.881C302.478 249.558 302.033 249.397 301.585 249.397C301.236 249.397 300.965 249.455 300.773 249.572C300.58 249.684 300.484 249.84 300.484 250.042C300.484 250.355 300.887 250.565 301.692 250.673C301.925 250.699 302.109 250.722 302.243 250.74C303.254 250.887 303.948 251.109 304.324 251.404C304.704 251.695 304.894 252.129 304.894 252.707C304.894 253.382 304.644 253.906 304.143 254.277C303.646 254.644 302.939 254.828 302.021 254.828C301.663 254.828 301.319 254.803 300.988 254.754C300.656 254.709 300.337 254.642 300.028 254.553ZM308.231 251.941C308.347 252.438 308.571 252.809 308.902 253.056C309.237 253.302 309.683 253.425 310.238 253.425C310.793 253.425 311.341 253.291 311.882 253.022C312.424 252.749 312.75 252.613 312.862 252.613C313.028 252.613 313.162 252.675 313.265 252.801C313.372 252.921 313.426 253.078 313.426 253.27C313.426 253.691 313.115 254.054 312.493 254.358C311.871 254.662 311.101 254.814 310.184 254.814C309.101 254.814 308.219 254.51 307.539 253.901C306.863 253.293 306.526 252.51 306.526 251.552C306.526 250.599 306.863 249.818 307.539 249.209C308.219 248.601 309.101 248.296 310.184 248.296C311.151 248.296 311.952 248.583 312.587 249.156C313.223 249.724 313.54 250.422 313.54 251.25C313.54 251.514 313.475 251.695 313.346 251.794C313.22 251.892 312.958 251.941 312.56 251.941H308.231ZM311.849 250.894C311.773 250.478 311.576 250.156 311.258 249.928C310.945 249.699 310.535 249.585 310.03 249.585C309.542 249.585 309.148 249.695 308.848 249.914C308.553 250.129 308.347 250.456 308.231 250.894H311.849ZM320.307 248.807C320.36 248.632 320.443 248.502 320.555 248.417C320.671 248.328 320.819 248.283 320.998 248.283C321.24 248.283 321.412 248.357 321.515 248.504C321.618 248.648 321.669 248.898 321.669 249.256V250.357C321.669 250.63 321.613 250.831 321.501 250.961C321.39 251.091 321.217 251.156 320.985 251.156C320.819 251.156 320.68 251.118 320.568 251.042C320.456 250.966 320.338 250.82 320.213 250.605C320.034 250.301 319.799 250.077 319.508 249.934C319.217 249.787 318.861 249.713 318.44 249.713C317.917 249.713 317.487 249.885 317.152 250.23C316.82 250.57 316.655 251.006 316.655 251.539C316.655 252.098 316.827 252.548 317.172 252.888C317.516 253.228 317.98 253.398 318.561 253.398C319.089 253.398 319.613 253.252 320.132 252.962C320.656 252.666 320.976 252.519 321.092 252.519C321.258 252.519 321.394 252.583 321.501 252.713C321.613 252.839 321.669 252.997 321.669 253.19C321.669 253.611 321.349 253.986 320.709 254.318C320.074 254.649 319.318 254.814 318.44 254.814C317.358 254.814 316.476 254.51 315.796 253.901C315.12 253.293 314.782 252.51 314.782 251.552C314.782 250.617 315.118 249.838 315.789 249.216C316.46 248.594 317.306 248.283 318.326 248.283C318.671 248.283 319.007 248.325 319.333 248.41C319.66 248.495 319.984 248.627 320.307 248.807ZM326.106 248.82H328.154C328.462 248.82 328.682 248.876 328.811 248.988C328.941 249.1 329.006 249.285 329.006 249.545C329.006 249.809 328.939 249.999 328.805 250.115C328.675 250.232 328.458 250.29 328.154 250.29H326.106V252.008C326.106 252.492 326.18 252.823 326.328 253.002C326.475 253.181 326.735 253.27 327.106 253.27C327.456 253.27 327.867 253.17 328.342 252.968C328.816 252.767 329.134 252.666 329.295 252.666C329.478 252.666 329.635 252.74 329.765 252.888C329.899 253.031 329.966 253.206 329.966 253.411C329.966 253.756 329.653 254.071 329.026 254.358C328.404 254.64 327.697 254.781 326.905 254.781C326.444 254.781 326.039 254.718 325.69 254.593C325.341 254.467 325.066 254.288 324.864 254.056C324.717 253.877 324.612 253.662 324.549 253.411C324.486 253.161 324.455 252.742 324.455 252.156V252.008V250.29H323.824C323.52 250.29 323.303 250.232 323.173 250.115C323.048 249.999 322.985 249.809 322.985 249.545C322.985 249.281 323.048 249.095 323.173 248.988C323.298 248.876 323.515 248.82 323.824 248.82H324.455V247.249C324.455 246.94 324.518 246.723 324.643 246.598C324.773 246.473 324.985 246.41 325.281 246.41C325.576 246.41 325.786 246.473 325.912 246.598C326.041 246.723 326.106 246.94 326.106 247.249V248.82ZM335.766 253.176H337.209C337.518 253.176 337.737 253.232 337.867 253.344C337.997 253.456 338.061 253.642 338.061 253.901C338.061 254.165 337.994 254.356 337.86 254.472C337.73 254.588 337.513 254.646 337.209 254.646H332.671C332.367 254.646 332.148 254.588 332.013 254.472C331.884 254.356 331.819 254.165 331.819 253.901C331.819 253.642 331.881 253.456 332.007 253.344C332.136 253.232 332.358 253.176 332.671 253.176H334.114V249.914H333.356C333.056 249.914 332.841 249.858 332.712 249.746C332.582 249.63 332.517 249.44 332.517 249.176C332.517 248.912 332.579 248.724 332.705 248.612C332.83 248.5 333.047 248.444 333.356 248.444H335.376C335.502 248.444 335.598 248.471 335.665 248.525C335.732 248.574 335.766 248.643 335.766 248.733V253.176ZM334.799 245.41C335.126 245.41 335.343 245.473 335.45 245.598C335.558 245.723 335.611 246.023 335.611 246.497C335.611 246.954 335.562 247.238 335.464 247.35C335.37 247.457 335.144 247.511 334.786 247.511C334.437 247.511 334.211 247.46 334.108 247.357C334.009 247.254 333.96 247.048 333.96 246.739C333.96 246.166 334.012 245.801 334.114 245.645C334.217 245.488 334.446 245.41 334.799 245.41ZM343.083 249.713C342.559 249.713 342.127 249.885 341.787 250.23C341.451 250.57 341.284 251.006 341.284 251.539C341.284 252.076 341.451 252.521 341.787 252.874C342.127 253.223 342.559 253.398 343.083 253.398C343.606 253.398 344.038 253.223 344.378 252.874C344.718 252.521 344.888 252.076 344.888 251.539C344.888 251.006 344.718 250.57 344.378 250.23C344.042 249.885 343.611 249.713 343.083 249.713ZM343.083 248.296C344.17 248.296 345.052 248.601 345.727 249.209C346.403 249.818 346.741 250.599 346.741 251.552C346.741 252.51 346.403 253.293 345.727 253.901C345.052 254.51 344.17 254.814 343.083 254.814C342 254.814 341.12 254.51 340.444 253.901C339.769 253.293 339.431 252.51 339.431 251.552C339.431 250.599 339.769 249.818 340.444 249.209C341.125 248.601 342.004 248.296 343.083 248.296ZM354.158 253.163H354.246C354.496 253.163 354.684 253.226 354.809 253.351C354.935 253.472 354.997 253.655 354.997 253.901C354.997 254.165 354.933 254.356 354.803 254.472C354.677 254.588 354.463 254.646 354.158 254.646H352.507C352.207 254.646 351.99 254.588 351.856 254.472C351.726 254.356 351.661 254.165 351.661 253.901C351.661 253.655 351.724 253.472 351.849 253.351C351.979 253.226 352.171 253.163 352.426 253.163H352.507V251.223C352.507 250.686 352.431 250.306 352.279 250.082C352.131 249.854 351.883 249.74 351.534 249.74C351.162 249.74 350.858 249.876 350.621 250.149C350.388 250.418 350.272 250.776 350.272 251.223V253.163H350.352C350.607 253.163 350.798 253.226 350.923 253.351C351.048 253.472 351.111 253.655 351.111 253.901C351.111 254.165 351.046 254.356 350.916 254.472C350.786 254.588 350.572 254.646 350.272 254.646H348.607C348.307 254.646 348.092 254.588 347.963 254.472C347.833 254.356 347.768 254.165 347.768 253.901C347.768 253.655 347.831 253.472 347.956 253.351C348.081 253.226 348.271 253.163 348.526 253.163H348.607V249.914H348.493C348.251 249.914 348.068 249.854 347.942 249.733C347.817 249.608 347.755 249.426 347.755 249.189C347.755 248.925 347.819 248.735 347.949 248.619C348.079 248.502 348.298 248.444 348.607 248.444H349.748C349.873 248.444 349.967 248.469 350.03 248.518C350.097 248.567 350.131 248.639 350.131 248.733V249.256C350.337 248.934 350.598 248.692 350.916 248.531C351.238 248.366 351.61 248.283 352.03 248.283C352.746 248.283 353.279 248.5 353.628 248.934C353.982 249.368 354.158 250.03 354.158 250.921V253.163ZM361.126 250.411L356.749 248.337C356.512 248.22 356.342 248.104 356.239 247.988C356.141 247.867 356.092 247.726 356.092 247.565C356.092 247.377 356.148 247.225 356.259 247.108C356.371 246.992 356.521 246.934 356.709 246.934C356.781 246.934 356.861 246.947 356.951 246.974C357.045 247.001 357.177 247.052 357.347 247.128L362.663 249.612L362.717 249.646C363.214 249.874 363.462 250.138 363.462 250.438C363.462 250.737 363.223 250.995 362.744 251.21C362.699 251.236 362.663 251.254 362.636 251.263L357.327 253.7C357.192 253.763 357.076 253.807 356.978 253.834C356.884 253.861 356.794 253.875 356.709 253.875C356.521 253.875 356.371 253.819 356.259 253.707C356.148 253.59 356.092 253.436 356.092 253.244C356.092 253.082 356.139 252.946 356.233 252.834C356.331 252.718 356.503 252.601 356.749 252.485L361.126 250.411Z" fill="black"/>
<rect x="156.184" y="316.494" width="340.631" height="105.397" fill="white"/>
<path d="M292.033 366.501L296.403 368.575C296.649 368.691 296.821 368.808 296.92 368.924C297.018 369.036 297.067 369.172 297.067 369.333C297.067 369.521 297.009 369.673 296.893 369.79C296.777 369.906 296.622 369.964 296.43 369.964C296.349 369.964 296.26 369.951 296.161 369.924C296.067 369.897 295.951 369.852 295.812 369.79L290.523 367.353C290.496 367.34 290.453 367.322 290.395 367.299C289.921 367.08 289.684 366.823 289.684 366.528C289.684 366.228 289.932 365.964 290.429 365.735L290.482 365.702L295.812 363.218C295.991 363.138 296.123 363.086 296.208 363.064C296.293 363.037 296.367 363.024 296.43 363.024C296.622 363.024 296.777 363.082 296.893 363.198C297.009 363.314 297.067 363.467 297.067 363.655C297.067 363.816 297.016 363.957 296.913 364.077C296.815 364.194 296.645 364.31 296.403 364.426L292.033 366.501ZM300.028 370.642C299.911 370.732 299.791 370.799 299.665 370.844C299.544 370.893 299.419 370.918 299.289 370.918C299.097 370.918 298.96 370.866 298.88 370.763C298.804 370.66 298.766 370.468 298.766 370.186V369.293C298.766 368.998 298.815 368.79 298.913 368.669C299.012 368.544 299.182 368.481 299.424 368.481C299.688 368.481 299.902 368.608 300.068 368.864C300.166 369.002 300.249 369.105 300.316 369.172C300.536 369.369 300.791 369.517 301.082 369.615C301.373 369.714 301.704 369.763 302.075 369.763C302.397 369.763 302.655 369.7 302.847 369.575C303.039 369.45 303.136 369.286 303.136 369.085C303.136 368.723 302.619 368.472 301.585 368.333C301.357 368.306 301.178 368.282 301.048 368.259C300.269 368.152 299.69 367.942 299.309 367.628C298.929 367.311 298.739 366.886 298.739 366.353C298.739 365.722 298.967 365.234 299.424 364.89C299.88 364.545 300.531 364.373 301.377 364.373C301.668 364.373 301.965 364.397 302.27 364.447C302.579 364.491 302.894 364.563 303.216 364.661C303.31 364.55 303.409 364.467 303.512 364.413C303.619 364.359 303.738 364.332 303.867 364.332C304.051 364.332 304.19 364.391 304.284 364.507C304.382 364.619 304.431 364.789 304.431 365.017V365.843C304.431 366.035 304.382 366.185 304.284 366.293C304.185 366.395 304.046 366.447 303.867 366.447C303.684 366.447 303.368 366.288 302.921 365.97C302.478 365.648 302.033 365.487 301.585 365.487C301.236 365.487 300.965 365.545 300.773 365.662C300.58 365.773 300.484 365.93 300.484 366.131C300.484 366.445 300.887 366.655 301.692 366.762C301.925 366.789 302.109 366.812 302.243 366.83C303.254 366.977 303.948 367.199 304.324 367.494C304.704 367.785 304.894 368.219 304.894 368.796C304.894 369.472 304.644 369.996 304.143 370.367C303.646 370.734 302.939 370.918 302.021 370.918C301.663 370.918 301.319 370.893 300.988 370.844C300.656 370.799 300.337 370.732 300.028 370.642ZM308.231 368.031C308.347 368.528 308.571 368.899 308.902 369.145C309.237 369.392 309.683 369.515 310.238 369.515C310.793 369.515 311.341 369.38 311.882 369.112C312.424 368.839 312.75 368.702 312.862 368.702C313.028 368.702 313.162 368.765 313.265 368.89C313.372 369.011 313.426 369.168 313.426 369.36C313.426 369.781 313.115 370.143 312.493 370.448C311.871 370.752 311.101 370.904 310.184 370.904C309.101 370.904 308.219 370.6 307.539 369.991C306.863 369.383 306.526 368.599 306.526 367.642C306.526 366.689 306.863 365.908 307.539 365.299C308.219 364.69 309.101 364.386 310.184 364.386C311.151 364.386 311.952 364.673 312.587 365.245C313.223 365.814 313.54 366.512 313.54 367.34C313.54 367.604 313.475 367.785 313.346 367.883C313.22 367.982 312.958 368.031 312.56 368.031H308.231ZM311.849 366.984C311.773 366.568 311.576 366.246 311.258 366.017C310.945 365.789 310.535 365.675 310.03 365.675C309.542 365.675 309.148 365.785 308.848 366.004C308.553 366.219 308.347 366.545 308.231 366.984H311.849ZM320.307 364.896C320.36 364.722 320.443 364.592 320.555 364.507C320.671 364.418 320.819 364.373 320.998 364.373C321.24 364.373 321.412 364.447 321.515 364.594C321.618 364.737 321.669 364.988 321.669 365.346V366.447C321.669 366.72 321.613 366.921 321.501 367.051C321.39 367.181 321.217 367.246 320.985 367.246C320.819 367.246 320.68 367.208 320.568 367.132C320.456 367.056 320.338 366.91 320.213 366.695C320.034 366.391 319.799 366.167 319.508 366.024C319.217 365.876 318.861 365.803 318.44 365.803C317.917 365.803 317.487 365.975 317.152 366.319C316.82 366.66 316.655 367.096 316.655 367.628C316.655 368.188 316.827 368.638 317.172 368.978C317.516 369.318 317.98 369.488 318.561 369.488C319.089 369.488 319.613 369.342 320.132 369.051C320.656 368.756 320.976 368.608 321.092 368.608C321.258 368.608 321.394 368.673 321.501 368.803C321.613 368.928 321.669 369.087 321.669 369.28C321.669 369.7 321.349 370.076 320.709 370.407C320.074 370.739 319.318 370.904 318.44 370.904C317.358 370.904 316.476 370.6 315.796 369.991C315.12 369.383 314.782 368.599 314.782 367.642C314.782 366.707 315.118 365.928 315.789 365.306C316.46 364.684 317.306 364.373 318.326 364.373C318.671 364.373 319.007 364.415 319.333 364.5C319.66 364.585 319.984 364.717 320.307 364.896ZM326.106 364.91H328.154C328.462 364.91 328.682 364.966 328.811 365.078C328.941 365.189 329.006 365.375 329.006 365.635C329.006 365.899 328.939 366.089 328.805 366.205C328.675 366.322 328.458 366.38 328.154 366.38H326.106V368.098C326.106 368.582 326.18 368.913 326.328 369.092C326.475 369.271 326.735 369.36 327.106 369.36C327.456 369.36 327.867 369.26 328.342 369.058C328.816 368.857 329.134 368.756 329.295 368.756C329.478 368.756 329.635 368.83 329.765 368.978C329.899 369.121 329.966 369.295 329.966 369.501C329.966 369.846 329.653 370.161 329.026 370.448C328.404 370.73 327.697 370.871 326.905 370.871C326.444 370.871 326.039 370.808 325.69 370.683C325.341 370.557 325.066 370.378 324.864 370.146C324.717 369.967 324.612 369.752 324.549 369.501C324.486 369.251 324.455 368.832 324.455 368.246V368.098V366.38H323.824C323.52 366.38 323.303 366.322 323.173 366.205C323.048 366.089 322.985 365.899 322.985 365.635C322.985 365.371 323.048 365.185 323.173 365.078C323.298 364.966 323.515 364.91 323.824 364.91H324.455V363.339C324.455 363.03 324.518 362.813 324.643 362.688C324.773 362.563 324.985 362.5 325.281 362.5C325.576 362.5 325.786 362.563 325.912 362.688C326.041 362.813 326.106 363.03 326.106 363.339V364.91ZM335.766 369.266H337.209C337.518 369.266 337.737 369.322 337.867 369.434C337.997 369.546 338.061 369.732 338.061 369.991C338.061 370.255 337.994 370.445 337.86 370.562C337.73 370.678 337.513 370.736 337.209 370.736H332.671C332.367 370.736 332.148 370.678 332.013 370.562C331.884 370.445 331.819 370.255 331.819 369.991C331.819 369.732 331.881 369.546 332.007 369.434C332.136 369.322 332.358 369.266 332.671 369.266H334.114V366.004H333.356C333.056 366.004 332.841 365.948 332.712 365.836C332.582 365.72 332.517 365.53 332.517 365.266C332.517 365.002 332.579 364.814 332.705 364.702C332.83 364.59 333.047 364.534 333.356 364.534H335.376C335.502 364.534 335.598 364.561 335.665 364.614C335.732 364.664 335.766 364.733 335.766 364.823V369.266ZM334.799 361.5C335.126 361.5 335.343 361.562 335.45 361.688C335.558 361.813 335.611 362.113 335.611 362.587C335.611 363.044 335.562 363.328 335.464 363.44C335.37 363.547 335.144 363.601 334.786 363.601C334.437 363.601 334.211 363.549 334.108 363.446C334.009 363.343 333.96 363.138 333.96 362.829C333.96 362.256 334.012 361.891 334.114 361.735C334.217 361.578 334.446 361.5 334.799 361.5ZM343.083 365.803C342.559 365.803 342.127 365.975 341.787 366.319C341.451 366.66 341.284 367.096 341.284 367.628C341.284 368.165 341.451 368.611 341.787 368.964C342.127 369.313 342.559 369.488 343.083 369.488C343.606 369.488 344.038 369.313 344.378 368.964C344.718 368.611 344.888 368.165 344.888 367.628C344.888 367.096 344.718 366.66 344.378 366.319C344.042 365.975 343.611 365.803 343.083 365.803ZM343.083 364.386C344.17 364.386 345.052 364.69 345.727 365.299C346.403 365.908 346.741 366.689 346.741 367.642C346.741 368.599 346.403 369.383 345.727 369.991C345.052 370.6 344.17 370.904 343.083 370.904C342 370.904 341.12 370.6 340.444 369.991C339.769 369.383 339.431 368.599 339.431 367.642C339.431 366.689 339.769 365.908 340.444 365.299C341.125 364.69 342.004 364.386 343.083 364.386ZM354.158 369.253H354.246C354.496 369.253 354.684 369.315 354.809 369.441C354.935 369.562 354.997 369.745 354.997 369.991C354.997 370.255 354.933 370.445 354.803 370.562C354.677 370.678 354.463 370.736 354.158 370.736H352.507C352.207 370.736 351.99 370.678 351.856 370.562C351.726 370.445 351.661 370.255 351.661 369.991C351.661 369.745 351.724 369.562 351.849 369.441C351.979 369.315 352.171 369.253 352.426 369.253H352.507V367.313C352.507 366.776 352.431 366.395 352.279 366.172C352.131 365.944 351.883 365.829 351.534 365.829C351.162 365.829 350.858 365.966 350.621 366.239C350.388 366.507 350.272 366.865 350.272 367.313V369.253H350.352C350.607 369.253 350.798 369.315 350.923 369.441C351.048 369.562 351.111 369.745 351.111 369.991C351.111 370.255 351.046 370.445 350.916 370.562C350.786 370.678 350.572 370.736 350.272 370.736H348.607C348.307 370.736 348.092 370.678 347.963 370.562C347.833 370.445 347.768 370.255 347.768 369.991C347.768 369.745 347.831 369.562 347.956 369.441C348.081 369.315 348.271 369.253 348.526 369.253H348.607V366.004H348.493C348.251 366.004 348.068 365.944 347.942 365.823C347.817 365.697 347.755 365.516 347.755 365.279C347.755 365.015 347.819 364.825 347.949 364.708C348.079 364.592 348.298 364.534 348.607 364.534H349.748C349.873 364.534 349.967 364.558 350.03 364.608C350.097 364.657 350.131 364.729 350.131 364.823V365.346C350.337 365.024 350.598 364.782 350.916 364.621C351.238 364.456 351.61 364.373 352.03 364.373C352.746 364.373 353.279 364.59 353.628 365.024C353.982 365.458 354.158 366.12 354.158 367.011V369.253ZM361.126 366.501L356.749 364.426C356.512 364.31 356.342 364.194 356.239 364.077C356.141 363.957 356.092 363.816 356.092 363.655C356.092 363.467 356.148 363.314 356.259 363.198C356.371 363.082 356.521 363.024 356.709 363.024C356.781 363.024 356.861 363.037 356.951 363.064C357.045 363.091 357.177 363.142 357.347 363.218L362.663 365.702L362.717 365.735C363.214 365.964 363.462 366.228 363.462 366.528C363.462 366.827 363.223 367.085 362.744 367.299C362.699 367.326 362.663 367.344 362.636 367.353L357.327 369.79C357.192 369.852 357.076 369.897 356.978 369.924C356.884 369.951 356.794 369.964 356.709 369.964C356.521 369.964 356.371 369.908 356.259 369.797C356.148 369.68 356.092 369.526 356.092 369.333C356.092 369.172 356.139 369.036 356.233 368.924C356.331 368.808 356.503 368.691 356.749 368.575L361.126 366.501Z" fill="black"/>
<path d="M295.216 549.8L299.586 551.874C299.832 551.991 300.004 552.107 300.103 552.223C300.201 552.335 300.25 552.472 300.25 552.633C300.25 552.821 300.192 552.973 300.076 553.089C299.96 553.206 299.805 553.264 299.613 553.264C299.532 553.264 299.443 553.25 299.344 553.223C299.25 553.197 299.134 553.152 298.995 553.089L293.706 550.652C293.679 550.639 293.636 550.621 293.578 550.599C293.104 550.38 292.867 550.122 292.867 549.827C292.867 549.527 293.115 549.263 293.612 549.035L293.665 549.001L298.995 546.518C299.174 546.437 299.306 546.385 299.391 546.363C299.476 546.336 299.55 546.323 299.613 546.323C299.805 546.323 299.96 546.381 300.076 546.497C300.192 546.614 300.25 546.766 300.25 546.954C300.25 547.115 300.199 547.256 300.096 547.377C299.998 547.493 299.828 547.609 299.586 547.726L295.216 549.8ZM305.412 548.028H306.856C307.164 548.028 307.384 548.086 307.513 548.202C307.643 548.314 307.708 548.5 307.708 548.76C307.708 549.019 307.641 549.207 307.507 549.323C307.377 549.44 307.16 549.498 306.856 549.498H305.412V552.566H306.748C307.057 552.566 307.276 552.622 307.406 552.733C307.536 552.845 307.601 553.031 307.601 553.291C307.601 553.555 307.534 553.745 307.399 553.861C307.27 553.977 307.053 554.036 306.748 554.036H303.05C302.741 554.036 302.522 553.977 302.392 553.861C302.262 553.745 302.197 553.555 302.197 553.291C302.197 553.031 302.26 552.845 302.385 552.733C302.515 552.622 302.736 552.566 303.05 552.566H303.761V549.498H303.05C302.741 549.498 302.522 549.44 302.392 549.323C302.262 549.207 302.197 549.019 302.197 548.76C302.197 548.495 302.26 548.308 302.385 548.196C302.515 548.084 302.736 548.028 303.05 548.028H303.761V547.645C303.761 546.768 303.987 546.146 304.439 545.779C304.891 545.408 305.661 545.222 306.748 545.222C307.312 545.222 307.726 545.289 307.99 545.423C308.259 545.558 308.393 545.766 308.393 546.048C308.393 546.236 308.332 546.385 308.212 546.497C308.095 546.609 307.936 546.665 307.735 546.665C307.587 546.665 307.377 546.645 307.104 546.605C306.836 546.564 306.648 546.544 306.54 546.544C306.124 546.544 305.831 546.638 305.661 546.826C305.495 547.01 305.412 547.336 305.412 547.806V548.028ZM313.239 549.102C312.716 549.102 312.284 549.274 311.944 549.619C311.608 549.959 311.44 550.395 311.44 550.928C311.44 551.465 311.608 551.91 311.944 552.264C312.284 552.613 312.716 552.787 313.239 552.787C313.763 552.787 314.195 552.613 314.535 552.264C314.875 551.91 315.045 551.465 315.045 550.928C315.045 550.395 314.875 549.959 314.535 549.619C314.199 549.274 313.767 549.102 313.239 549.102ZM313.239 547.686C314.327 547.686 315.208 547.99 315.884 548.598C316.56 549.207 316.898 549.988 316.898 550.941C316.898 551.899 316.56 552.682 315.884 553.291C315.208 553.899 314.327 554.203 313.239 554.203C312.156 554.203 311.277 553.899 310.601 553.291C309.926 552.682 309.588 551.899 309.588 550.941C309.588 549.988 309.926 549.207 310.601 548.598C311.282 547.99 312.161 547.686 313.239 547.686ZM321.496 549.102C320.972 549.102 320.54 549.274 320.2 549.619C319.865 549.959 319.697 550.395 319.697 550.928C319.697 551.465 319.865 551.91 320.2 552.264C320.54 552.613 320.972 552.787 321.496 552.787C322.019 552.787 322.451 552.613 322.791 552.264C323.132 551.91 323.302 551.465 323.302 550.928C323.302 550.395 323.132 549.959 322.791 549.619C322.456 549.274 322.024 549.102 321.496 549.102ZM321.496 547.686C322.583 547.686 323.465 547.99 324.141 548.598C324.816 549.207 325.154 549.988 325.154 550.941C325.154 551.899 324.816 552.682 324.141 553.291C323.465 553.899 322.583 554.203 321.496 554.203C320.413 554.203 319.534 553.899 318.858 553.291C318.182 552.682 317.844 551.899 317.844 550.941C317.844 549.988 318.182 549.207 318.858 548.598C319.538 547.99 320.417 547.686 321.496 547.686ZM329.289 548.209H331.337C331.645 548.209 331.865 548.265 331.994 548.377C332.124 548.489 332.189 548.674 332.189 548.934C332.189 549.198 332.122 549.388 331.988 549.505C331.858 549.621 331.641 549.679 331.337 549.679H329.289V551.398C329.289 551.881 329.363 552.212 329.511 552.391C329.658 552.57 329.918 552.66 330.289 552.66C330.638 552.66 331.05 552.559 331.525 552.357C331.999 552.156 332.317 552.055 332.478 552.055C332.661 552.055 332.818 552.129 332.948 552.277C333.082 552.42 333.149 552.595 333.149 552.801C333.149 553.145 332.836 553.461 332.209 553.747C331.587 554.029 330.88 554.17 330.088 554.17C329.627 554.17 329.222 554.107 328.873 553.982C328.524 553.857 328.249 553.678 328.047 553.445C327.9 553.266 327.795 553.051 327.732 552.801C327.669 552.55 327.638 552.131 327.638 551.545V551.398V549.679H327.007C326.703 549.679 326.486 549.621 326.356 549.505C326.231 549.388 326.168 549.198 326.168 548.934C326.168 548.67 326.231 548.484 326.356 548.377C326.481 548.265 326.698 548.209 327.007 548.209H327.638V546.638C327.638 546.33 327.701 546.113 327.826 545.987C327.956 545.862 328.168 545.799 328.464 545.799C328.759 545.799 328.969 545.862 329.095 545.987C329.224 546.113 329.289 546.33 329.289 546.638V548.209ZM336.183 551.33C336.299 551.827 336.523 552.199 336.854 552.445C337.19 552.691 337.635 552.814 338.19 552.814C338.745 552.814 339.293 552.68 339.835 552.411C340.376 552.138 340.703 552.002 340.815 552.002C340.98 552.002 341.115 552.064 341.218 552.19C341.325 552.311 341.379 552.467 341.379 552.66C341.379 553.08 341.068 553.443 340.446 553.747C339.824 554.051 339.054 554.203 338.136 554.203C337.054 554.203 336.172 553.899 335.492 553.291C334.816 552.682 334.478 551.899 334.478 550.941C334.478 549.988 334.816 549.207 335.492 548.598C336.172 547.99 337.054 547.686 338.136 547.686C339.103 547.686 339.904 547.972 340.54 548.545C341.175 549.113 341.493 549.811 341.493 550.639C341.493 550.903 341.428 551.084 341.298 551.183C341.173 551.281 340.911 551.33 340.513 551.33H336.183ZM339.801 550.283C339.725 549.867 339.528 549.545 339.21 549.317C338.897 549.088 338.488 548.974 337.982 548.974C337.494 548.974 337.1 549.084 336.801 549.303C336.505 549.518 336.299 549.845 336.183 550.283H339.801ZM345.963 550.391V552.566H347.548C347.852 552.566 348.067 552.622 348.192 552.733C348.322 552.845 348.387 553.031 348.387 553.291C348.387 553.555 348.322 553.745 348.192 553.861C348.067 553.977 347.852 554.036 347.548 554.036H343.795C343.486 554.036 343.267 553.977 343.137 553.861C343.008 553.745 342.943 553.555 342.943 553.291C342.943 553.031 343.005 552.845 343.131 552.733C343.26 552.622 343.482 552.566 343.795 552.566H344.305V549.303H344.017C343.712 549.303 343.495 549.247 343.366 549.135C343.24 549.019 343.178 548.829 343.178 548.565C343.178 548.301 343.238 548.113 343.359 548.001C343.484 547.889 343.703 547.833 344.017 547.833H345.447C345.567 547.833 345.661 547.86 345.728 547.914C345.796 547.963 345.829 548.032 345.829 548.122V549.115C346.317 548.592 346.771 548.218 347.192 547.994C347.617 547.771 348.073 547.659 348.561 547.659C349.004 547.659 349.356 547.759 349.615 547.961C349.875 548.158 350.004 548.424 350.004 548.76C350.004 549.019 349.915 549.234 349.736 549.404C349.557 549.57 349.326 549.652 349.044 549.652C348.843 549.652 348.604 549.578 348.326 549.431C348.053 549.283 347.863 549.209 347.756 549.209C347.541 549.209 347.288 549.305 346.997 549.498C346.706 549.69 346.362 549.988 345.963 550.391ZM356.052 549.8L351.676 547.726C351.439 547.609 351.269 547.493 351.166 547.377C351.067 547.256 351.018 547.115 351.018 546.954C351.018 546.766 351.074 546.614 351.186 546.497C351.298 546.381 351.448 546.323 351.636 546.323C351.707 546.323 351.788 546.336 351.877 546.363C351.971 546.39 352.103 546.441 352.273 546.518L357.59 549.001L357.643 549.035C358.14 549.263 358.388 549.527 358.388 549.827C358.388 550.127 358.149 550.384 357.67 550.599C357.625 550.626 357.59 550.644 357.563 550.652L352.253 553.089C352.119 553.152 352.003 553.197 351.904 553.223C351.81 553.25 351.721 553.264 351.636 553.264C351.448 553.264 351.298 553.208 351.186 553.096C351.074 552.98 351.018 552.825 351.018 552.633C351.018 552.472 351.065 552.335 351.159 552.223C351.257 552.107 351.43 551.991 351.676 551.874L356.052 549.8Z" fill="black"/>
<path d="M295.216 604.79L299.586 606.864C299.832 606.98 300.004 607.097 300.103 607.213C300.201 607.325 300.25 607.461 300.25 607.622C300.25 607.81 300.192 607.963 300.076 608.079C299.96 608.195 299.805 608.253 299.613 608.253C299.532 608.253 299.443 608.24 299.344 608.213C299.25 608.186 299.134 608.142 298.995 608.079L293.706 605.642C293.679 605.629 293.636 605.611 293.578 605.589C293.104 605.369 292.867 605.112 292.867 604.817C292.867 604.517 293.115 604.253 293.612 604.024L293.665 603.991L298.995 601.507C299.174 601.427 299.306 601.375 299.391 601.353C299.476 601.326 299.55 601.313 299.613 601.313C299.805 601.313 299.96 601.371 300.076 601.487C300.192 601.603 300.25 601.756 300.25 601.944C300.25 602.105 300.199 602.246 300.096 602.366C299.998 602.483 299.828 602.599 299.586 602.716L295.216 604.79ZM307.842 607.555H307.957C308.198 607.555 308.379 607.618 308.5 607.743C308.621 607.864 308.681 608.043 308.681 608.28C308.681 608.544 308.617 608.735 308.487 608.851C308.362 608.967 308.147 609.025 307.842 609.025H306.815C306.686 609.025 306.585 609.001 306.513 608.952C306.446 608.898 306.413 608.826 306.413 608.737V608.267C306.193 608.567 305.911 608.797 305.567 608.958C305.222 609.115 304.835 609.193 304.406 609.193C303.528 609.193 302.795 608.896 302.204 608.3C301.613 607.701 301.318 606.953 301.318 606.058C301.318 605.128 301.615 604.356 302.211 603.743C302.81 603.129 303.571 602.823 304.493 602.823C304.811 602.823 305.119 602.877 305.419 602.984C305.723 603.087 306.001 603.235 306.252 603.427V601.729H305.359C305.05 601.729 304.831 601.671 304.701 601.554C304.571 601.433 304.506 601.243 304.506 600.984C304.506 600.72 304.571 600.529 304.701 600.413C304.831 600.297 305.05 600.239 305.359 600.239H307.446C307.599 600.239 307.701 600.27 307.755 600.333C307.813 600.395 307.842 600.512 307.842 600.682V607.555ZM304.694 604.253C304.256 604.253 303.891 604.418 303.6 604.749C303.314 605.076 303.17 605.492 303.17 605.998C303.17 606.517 303.314 606.942 303.6 607.273C303.886 607.6 304.251 607.763 304.694 607.763C305.137 607.763 305.502 607.598 305.788 607.267C306.079 606.936 306.225 606.513 306.225 605.998C306.225 605.497 306.079 605.081 305.788 604.749C305.497 604.418 305.133 604.253 304.694 604.253ZM314.179 607.555H315.622C315.931 607.555 316.15 607.611 316.28 607.723C316.41 607.835 316.475 608.021 316.475 608.28C316.475 608.544 316.408 608.735 316.273 608.851C316.144 608.967 315.927 609.025 315.622 609.025H311.085C310.78 609.025 310.561 608.967 310.427 608.851C310.297 608.735 310.232 608.544 310.232 608.28C310.232 608.021 310.295 607.835 310.42 607.723C310.55 607.611 310.771 607.555 311.085 607.555H312.528V604.293H311.769C311.469 604.293 311.255 604.237 311.125 604.125C310.995 604.009 310.93 603.819 310.93 603.555C310.93 603.291 310.993 603.103 311.118 602.991C311.243 602.879 311.461 602.823 311.769 602.823H313.79C313.915 602.823 314.011 602.85 314.078 602.903C314.146 602.953 314.179 603.022 314.179 603.112V607.555ZM313.213 599.789C313.539 599.789 313.756 599.851 313.864 599.977C313.971 600.102 314.025 600.402 314.025 600.876C314.025 601.333 313.976 601.617 313.877 601.729C313.783 601.836 313.557 601.89 313.199 601.89C312.85 601.89 312.624 601.838 312.521 601.735C312.423 601.633 312.373 601.427 312.373 601.118C312.373 600.545 312.425 600.18 312.528 600.024C312.631 599.867 312.859 599.789 313.213 599.789ZM324.235 607.555H324.342C324.584 607.555 324.767 607.62 324.892 607.75C325.022 607.875 325.087 608.057 325.087 608.294C325.087 608.553 325.02 608.741 324.886 608.858C324.756 608.969 324.539 609.025 324.235 609.025H323.604C323.38 609.025 323.212 608.983 323.1 608.898C322.993 608.813 322.903 608.658 322.832 608.435C322.46 608.681 322.066 608.869 321.65 608.999C321.234 609.128 320.813 609.193 320.388 609.193C319.668 609.193 319.102 609.014 318.69 608.656C318.278 608.298 318.072 607.808 318.072 607.186C318.072 606.515 318.339 605.994 318.871 605.622C319.404 605.251 320.151 605.065 321.113 605.065C321.328 605.065 321.556 605.076 321.798 605.099C322.04 605.121 322.31 605.157 322.61 605.206V605.078C322.61 604.676 322.512 604.369 322.315 604.159C322.122 603.948 321.836 603.843 321.456 603.843C321.16 603.843 320.782 603.953 320.321 604.172C319.865 604.391 319.529 604.501 319.314 604.501C319.104 604.501 318.934 604.441 318.804 604.32C318.674 604.195 318.609 604.031 318.609 603.83C318.609 603.467 318.873 603.181 319.402 602.971C319.934 602.756 320.657 602.648 321.57 602.648C322.523 602.648 323.205 602.832 323.617 603.199C324.029 603.566 324.235 604.188 324.235 605.065V607.555ZM322.61 606.26C322.386 606.211 322.181 606.175 321.993 606.152C321.805 606.126 321.63 606.112 321.469 606.112C320.977 606.112 320.59 606.195 320.308 606.36C320.03 606.526 319.892 606.754 319.892 607.045C319.892 607.305 319.981 607.504 320.16 607.643C320.339 607.777 320.596 607.844 320.932 607.844C321.241 607.844 321.532 607.799 321.805 607.71C322.078 607.62 322.346 607.481 322.61 607.294V606.26ZM330.578 607.555H332.021C332.33 607.555 332.547 607.611 332.672 607.723C332.798 607.835 332.86 608.021 332.86 608.28C332.86 608.544 332.795 608.735 332.666 608.851C332.54 608.967 332.326 609.025 332.021 609.025H327.47C327.17 609.025 326.955 608.967 326.826 608.851C326.7 608.735 326.638 608.544 326.638 608.28C326.638 608.016 326.698 607.831 326.819 607.723C326.944 607.611 327.161 607.555 327.47 607.555H328.913V601.729H328.175C327.871 601.729 327.651 601.671 327.517 601.554C327.387 601.433 327.322 601.243 327.322 600.984C327.322 600.72 327.387 600.529 327.517 600.413C327.647 600.297 327.866 600.239 328.175 600.239H330.182C330.307 600.239 330.404 600.265 330.471 600.319C330.542 600.368 330.578 600.438 330.578 600.527V607.555ZM338.009 604.092C337.485 604.092 337.054 604.264 336.713 604.608C336.378 604.949 336.21 605.385 336.21 605.917C336.21 606.454 336.378 606.9 336.713 607.253C337.054 607.602 337.485 607.777 338.009 607.777C338.533 607.777 338.964 607.602 339.304 607.253C339.645 606.9 339.815 606.454 339.815 605.917C339.815 605.385 339.645 604.949 339.304 604.608C338.969 604.264 338.537 604.092 338.009 604.092ZM338.009 602.675C339.096 602.675 339.978 602.98 340.654 603.588C341.329 604.197 341.667 604.978 341.667 605.931C341.667 606.889 341.329 607.672 340.654 608.28C339.978 608.889 339.096 609.193 338.009 609.193C336.926 609.193 336.047 608.889 335.371 608.28C334.695 607.672 334.357 606.889 334.357 605.931C334.357 604.978 334.695 604.197 335.371 603.588C336.051 602.98 336.93 602.675 338.009 602.675ZM345.977 604.078C345.538 604.078 345.174 604.237 344.883 604.555C344.596 604.873 344.453 605.278 344.453 605.77C344.453 606.253 344.596 606.654 344.883 606.971C345.174 607.285 345.538 607.441 345.977 607.441C346.42 607.441 346.785 607.285 347.071 606.971C347.362 606.654 347.507 606.253 347.507 605.77C347.507 605.278 347.362 604.873 347.071 604.555C346.785 604.237 346.42 604.078 345.977 604.078ZM347.642 603.447V603.098C347.642 603.009 347.673 602.942 347.736 602.897C347.803 602.848 347.901 602.823 348.031 602.823H349.125C349.434 602.823 349.651 602.881 349.776 602.997C349.901 603.109 349.964 603.295 349.964 603.555C349.964 603.796 349.901 603.98 349.776 604.105C349.655 604.23 349.476 604.293 349.239 604.293H349.125V608.918C349.125 609.898 348.859 610.61 348.326 611.053C347.794 611.496 346.939 611.717 345.762 611.717C345.033 611.717 344.496 611.646 344.151 611.502C343.811 611.359 343.641 611.133 343.641 610.824C343.641 610.61 343.71 610.435 343.849 610.301C343.988 610.167 344.171 610.099 344.399 610.099C344.458 610.099 344.65 610.12 344.977 610.16C345.303 610.2 345.605 610.22 345.883 610.22C346.523 610.22 346.964 610.099 347.205 609.858C347.451 609.616 347.574 609.182 347.574 608.556V608.253C347.257 608.437 346.941 608.573 346.628 608.663C346.319 608.748 345.997 608.79 345.661 608.79C344.762 608.79 344.026 608.511 343.453 607.951C342.885 607.388 342.6 606.665 342.6 605.783C342.6 604.875 342.898 604.127 343.493 603.541C344.093 602.955 344.858 602.662 345.789 602.662C346.192 602.662 346.545 602.727 346.849 602.856C347.154 602.982 347.418 603.179 347.642 603.447ZM356.052 604.79L351.676 602.716C351.439 602.599 351.269 602.483 351.166 602.366C351.067 602.246 351.018 602.105 351.018 601.944C351.018 601.756 351.074 601.603 351.186 601.487C351.298 601.371 351.448 601.313 351.636 601.313C351.707 601.313 351.788 601.326 351.877 601.353C351.971 601.38 352.103 601.431 352.273 601.507L357.59 603.991L357.643 604.024C358.14 604.253 358.388 604.517 358.388 604.817C358.388 605.116 358.149 605.374 357.67 605.589C357.625 605.615 357.59 605.633 357.563 605.642L352.253 608.079C352.119 608.142 352.003 608.186 351.904 608.213C351.81 608.24 351.721 608.253 351.636 608.253C351.448 608.253 351.298 608.198 351.186 608.086C351.074 607.969 351.018 607.815 351.018 607.622C351.018 607.461 351.065 607.325 351.159 607.213C351.257 607.097 351.43 606.98 351.676 606.864L356.052 604.79Z" fill="black"/>
<defs>
<filter id="filter0_d_11781_443" x="47.3177" y="40.1871" width="558.365" height="625.575" filterUnits="userSpaceOnUse" color-interpolation-filters="sRGB">
<feFlood flood-opacity="0" result="BackgroundImageFix"/>
<feColorMatrix in="SourceAlpha" type="matrix" values="0 0 0 0 0 0 0 0 0 0 0 0 0 0 0 0 0 0 127 0" result="hardAlpha"/>
<feOffset dy="6.69458"/>
<feGaussianBlur stdDeviation="9.37241"/>
<feComposite in2="hardAlpha" operator="out"/>
<feColorMatrix type="matrix" values="0 0 0 0 0 0 0 0 0 0 0 0 0 0 0 0 0 0 0.13 0"/>
<feBlend mode="normal" in2="BackgroundImageFix" result="effect1_dropShadow_11781_443"/>
<feBlend mode="normal" in="SourceGraphic" in2="effect1_dropShadow_11781_443" result="shape"/>
</filter>
<linearGradient id="paint0_linear_11781_443" x1="326.5" y1="52.2373" x2="326.5" y2="640.323" gradientUnits="userSpaceOnUse">
<stop stop-color="#E8E8E8"/>
<stop offset="1" stop-color="#CCCCCC"/>
</linearGradient>
</defs>
</svg>
