<svg width="575" height="641" viewBox="0 0 575 641" fill="none" xmlns="http://www.w3.org/2000/svg">
<rect width="575" height="641" rx="8.03349" fill="white"/>
<rect x="49.9746" y="44.6777" width="471.996" height="33.02" rx="4" fill="#E3F8FF"/>
<rect x="49.9746" y="485.068" width="471.996" height="62.6273" rx="4" fill="#E3F8FF"/>
<rect x="49.9746" y="562.916" width="471.996" height="33.02" rx="4" fill="#E3F8FF"/>
<rect x="49.9746" y="90.9746" width="471.996" height="375.764" rx="4" fill="#E3F8FF"/>
<rect opacity="0.4" x="80.5254" y="121.524" width="413.951" height="314.664" rx="5" fill="#D9D9D9"/>
<rect x="117.184" y="170.404" width="340.631" height="105.397" fill="white"/>
<path d="M256.216 61.0788L260.586 63.153C260.832 63.2693 261.004 63.3857 261.103 63.502C261.201 63.6139 261.25 63.7504 261.25 63.9115C261.25 64.0995 261.192 64.2516 261.076 64.368C260.96 64.4843 260.805 64.5425 260.613 64.5425C260.532 64.5425 260.443 64.5291 260.344 64.5022C260.25 64.4754 260.134 64.4306 259.995 64.368L254.706 61.9313C254.679 61.9179 254.636 61.9 254.578 61.8776C254.104 61.6583 253.867 61.401 253.867 61.1056C253.867 60.8058 254.115 60.5418 254.612 60.3135L254.665 60.28L259.995 57.7963C260.174 57.7158 260.306 57.6643 260.391 57.6419C260.476 57.6151 260.55 57.6016 260.613 57.6016C260.805 57.6016 260.96 57.6598 261.076 57.7762C261.192 57.8925 261.25 58.0447 261.25 58.2326C261.25 58.3937 261.199 58.5347 261.096 58.6555C260.998 58.7719 260.828 58.8882 260.586 59.0046L256.216 61.0788ZM264.902 59.79C265.059 59.517 265.28 59.3089 265.567 59.1657C265.853 59.0225 266.195 58.9509 266.594 58.9509C267.301 58.9509 267.844 59.1567 268.225 59.5684C268.61 59.9802 268.802 60.5709 268.802 61.3406V63.8444H268.916C269.153 63.8444 269.332 63.907 269.453 64.0323C269.579 64.1532 269.641 64.3322 269.641 64.5694C269.641 64.8334 269.576 65.0236 269.447 65.1399C269.321 65.2563 269.106 65.3145 268.802 65.3145H267.137C266.838 65.3145 266.623 65.2563 266.493 65.1399C266.368 65.0236 266.305 64.8334 266.305 64.5694C266.305 64.3277 266.365 64.1465 266.486 64.0256C266.607 63.9048 266.788 63.8444 267.03 63.8444H267.137V61.891C267.137 61.3182 267.066 60.9222 266.923 60.7029C266.784 60.4791 266.544 60.3672 266.204 60.3672C265.846 60.3672 265.54 60.5127 265.285 60.8036C265.03 61.09 264.902 61.4525 264.902 61.891V63.8444H265.009C265.251 63.8444 265.432 63.907 265.553 64.0323C265.679 64.1532 265.741 64.3322 265.741 64.5694C265.741 64.8334 265.676 65.0236 265.547 65.1399C265.417 65.2563 265.202 65.3145 264.902 65.3145H263.237C262.929 65.3145 262.712 65.2585 262.586 65.1466C262.461 65.0303 262.398 64.8379 262.398 64.5694C262.398 64.3322 262.459 64.1532 262.58 64.0323C262.705 63.907 262.886 63.8444 263.123 63.8444H263.237V58.0178H263.123C262.886 58.0178 262.703 57.9552 262.573 57.8299C262.448 57.7001 262.385 57.5144 262.385 57.2727C262.385 57.0087 262.45 56.8185 262.58 56.7022C262.709 56.5858 262.929 56.5276 263.237 56.5276H264.499C264.651 56.5276 264.757 56.559 264.815 56.6216C264.873 56.6843 264.902 56.8006 264.902 56.9707V59.79ZM272.414 62.6093C272.53 63.106 272.754 63.4774 273.085 63.7236C273.42 63.9697 273.866 64.0928 274.421 64.0928C274.976 64.0928 275.524 63.9585 276.065 63.69C276.607 63.417 276.933 63.2805 277.045 63.2805C277.211 63.2805 277.345 63.3432 277.448 63.4685C277.555 63.5893 277.609 63.7459 277.609 63.9384C277.609 64.359 277.298 64.7215 276.676 65.0258C276.054 65.3301 275.284 65.4823 274.367 65.4823C273.284 65.4823 272.402 65.178 271.722 64.5694C271.046 63.9607 270.709 63.1776 270.709 62.2199C270.709 61.2667 271.046 60.4858 271.722 59.8772C272.402 59.2686 273.284 58.9643 274.367 58.9643C275.334 58.9643 276.135 59.2507 276.77 59.8235C277.405 60.3919 277.723 61.09 277.723 61.9179C277.723 62.1819 277.658 62.3631 277.529 62.4616C277.403 62.56 277.141 62.6093 276.743 62.6093H272.414ZM276.032 61.5621C275.956 61.1459 275.759 60.8237 275.441 60.5955C275.128 60.3672 274.718 60.2531 274.213 60.2531C273.725 60.2531 273.331 60.3628 273.031 60.5821C272.736 60.7969 272.53 61.1235 272.414 61.5621H276.032ZM285.235 63.8444H285.342C285.584 63.8444 285.767 63.9093 285.892 64.0391C286.022 64.1644 286.087 64.3456 286.087 64.5828C286.087 64.8423 286.02 65.0303 285.886 65.1466C285.756 65.2585 285.539 65.3145 285.235 65.3145H284.604C284.38 65.3145 284.212 65.2719 284.1 65.1869C283.993 65.1019 283.903 64.9475 283.832 64.7237C283.46 64.9699 283.066 65.1578 282.65 65.2876C282.234 65.4174 281.813 65.4823 281.388 65.4823C280.668 65.4823 280.102 65.3033 279.69 64.9453C279.278 64.5873 279.072 64.0972 279.072 63.4752C279.072 62.8039 279.339 62.2826 279.871 61.9112C280.404 61.5397 281.151 61.354 282.113 61.354C282.328 61.354 282.556 61.3652 282.798 61.3876C283.04 61.4099 283.31 61.4457 283.61 61.495V61.3674C283.61 60.9647 283.512 60.6581 283.315 60.4478C283.122 60.2375 282.836 60.1323 282.456 60.1323C282.16 60.1323 281.782 60.2419 281.321 60.4612C280.865 60.6805 280.529 60.7901 280.314 60.7901C280.104 60.7901 279.934 60.7297 279.804 60.6089C279.674 60.4836 279.609 60.3203 279.609 60.1189C279.609 59.7564 279.873 59.47 280.402 59.2597C280.934 59.0449 281.657 58.9375 282.57 58.9375C283.523 58.9375 284.205 59.1209 284.617 59.4879C285.029 59.8549 285.235 60.4769 285.235 61.354V63.8444ZM283.61 62.5489C283.386 62.4996 283.181 62.4638 282.993 62.4414C282.805 62.4146 282.63 62.4012 282.469 62.4012C281.977 62.4012 281.59 62.484 281.308 62.6495C281.03 62.8151 280.892 63.0433 280.892 63.3342C280.892 63.5938 280.981 63.7929 281.16 63.9317C281.339 64.0659 281.596 64.133 281.932 64.133C282.241 64.133 282.532 64.0883 282.805 63.9988C283.078 63.9093 283.346 63.7705 283.61 63.5826V62.5489ZM293.612 63.8444H293.726C293.968 63.8444 294.149 63.907 294.27 64.0323C294.391 64.1532 294.451 64.3322 294.451 64.5694C294.451 64.8334 294.386 65.0236 294.256 65.1399C294.131 65.2563 293.916 65.3145 293.612 65.3145H292.585C292.455 65.3145 292.354 65.2898 292.283 65.2406C292.216 65.1869 292.182 65.1153 292.182 65.0258V64.5559C291.963 64.8558 291.681 65.0862 291.336 65.2473C290.992 65.404 290.605 65.4823 290.175 65.4823C289.298 65.4823 288.564 65.1847 287.973 64.5895C287.383 63.9898 287.087 63.2425 287.087 62.3475C287.087 61.4167 287.385 60.6447 287.98 60.0316C288.58 59.4185 289.341 59.112 290.262 59.112C290.58 59.112 290.889 59.1657 291.189 59.2731C291.493 59.376 291.77 59.5237 292.021 59.7161V58.0178H291.128C290.82 58.0178 290.6 57.9597 290.47 57.8433C290.341 57.7225 290.276 57.5323 290.276 57.2727C290.276 57.0087 290.341 56.8185 290.47 56.7022C290.6 56.5858 290.82 56.5276 291.128 56.5276H293.216C293.368 56.5276 293.471 56.559 293.525 56.6216C293.583 56.6843 293.612 56.8006 293.612 56.9707V63.8444ZM290.464 60.5418C290.025 60.5418 289.66 60.7074 289.37 61.0385C289.083 61.3652 288.94 61.7814 288.94 62.2871C288.94 62.8062 289.083 63.2313 289.37 63.5625C289.656 63.8891 290.021 64.0525 290.464 64.0525C290.907 64.0525 291.272 63.8869 291.558 63.5557C291.849 63.2246 291.994 62.8017 291.994 62.2871C291.994 61.7859 291.849 61.3697 291.558 61.0385C291.267 60.7074 290.902 60.5418 290.464 60.5418ZM297.183 62.6093C297.299 63.106 297.523 63.4774 297.854 63.7236C298.19 63.9697 298.635 64.0928 299.19 64.0928C299.745 64.0928 300.293 63.9585 300.835 63.69C301.376 63.417 301.703 63.2805 301.815 63.2805C301.98 63.2805 302.115 63.3432 302.218 63.4685C302.325 63.5893 302.379 63.7459 302.379 63.9384C302.379 64.359 302.068 64.7215 301.446 65.0258C300.824 65.3301 300.054 65.4823 299.136 65.4823C298.054 65.4823 297.172 65.178 296.492 64.5694C295.816 63.9607 295.478 63.1776 295.478 62.2199C295.478 61.2667 295.816 60.4858 296.492 59.8772C297.172 59.2686 298.054 58.9643 299.136 58.9643C300.103 58.9643 300.904 59.2507 301.54 59.8235C302.175 60.3919 302.493 61.09 302.493 61.9179C302.493 62.1819 302.428 62.3631 302.298 62.4616C302.173 62.56 301.911 62.6093 301.513 62.6093H297.183ZM300.801 61.5621C300.725 61.1459 300.528 60.8237 300.21 60.5955C299.897 60.3672 299.488 60.2531 298.982 60.2531C298.494 60.2531 298.1 60.3628 297.801 60.5821C297.505 60.7969 297.299 61.1235 297.183 61.5621H300.801ZM306.963 61.6695V63.8444H308.548C308.852 63.8444 309.067 63.9003 309.192 64.0122C309.322 64.1241 309.387 64.3098 309.387 64.5694C309.387 64.8334 309.322 65.0236 309.192 65.1399C309.067 65.2563 308.852 65.3145 308.548 65.3145H304.795C304.486 65.3145 304.267 65.2563 304.137 65.1399C304.008 65.0236 303.943 64.8334 303.943 64.5694C303.943 64.3098 304.005 64.1241 304.131 64.0122C304.26 63.9003 304.482 63.8444 304.795 63.8444H305.305V60.5821H305.017C304.712 60.5821 304.495 60.5261 304.366 60.4142C304.24 60.2979 304.178 60.1077 304.178 59.8437C304.178 59.5796 304.238 59.3917 304.359 59.2798C304.484 59.1679 304.703 59.112 305.017 59.112H306.447C306.567 59.112 306.661 59.1388 306.728 59.1925C306.796 59.2418 306.829 59.3111 306.829 59.4006V60.3941C307.317 59.8705 307.771 59.4968 308.192 59.2731C308.617 59.0493 309.073 58.9375 309.561 58.9375C310.004 58.9375 310.356 59.0381 310.615 59.2395C310.875 59.4364 311.004 59.7027 311.004 60.0383C311.004 60.2979 310.915 60.5127 310.736 60.6827C310.557 60.8483 310.326 60.9311 310.044 60.9311C309.843 60.9311 309.604 60.8573 309.326 60.7096C309.053 60.5619 308.863 60.4881 308.756 60.4881C308.541 60.4881 308.288 60.5843 307.997 60.7767C307.706 60.9691 307.362 61.2667 306.963 61.6695ZM317.052 61.0788L312.676 59.0046C312.439 58.8882 312.269 58.7719 312.166 58.6555C312.067 58.5347 312.018 58.3937 312.018 58.2326C312.018 58.0447 312.074 57.8925 312.186 57.7762C312.298 57.6598 312.448 57.6016 312.636 57.6016C312.707 57.6016 312.788 57.6151 312.877 57.6419C312.971 57.6688 313.103 57.7202 313.273 57.7963L318.59 60.28L318.643 60.3135C319.14 60.5418 319.388 60.8058 319.388 61.1056C319.388 61.4055 319.149 61.6628 318.67 61.8776C318.625 61.9044 318.59 61.9223 318.563 61.9313L313.253 64.368C313.119 64.4306 313.003 64.4754 312.904 64.5022C312.81 64.5291 312.721 64.5425 312.636 64.5425C312.448 64.5425 312.298 64.4866 312.186 64.3747C312.074 64.2583 312.018 64.1039 312.018 63.9115C312.018 63.7504 312.065 63.6139 312.159 63.502C312.257 63.3857 312.43 63.2693 312.676 63.153L317.052 61.0788Z" fill="black"/>
<path d="M265.139 107.376L269.508 109.45C269.755 109.566 269.927 109.683 270.025 109.799C270.124 109.911 270.173 110.047 270.173 110.208C270.173 110.396 270.115 110.548 269.998 110.665C269.882 110.781 269.728 110.839 269.535 110.839C269.455 110.839 269.365 110.826 269.267 110.799C269.173 110.772 269.056 110.727 268.918 110.665L263.628 108.228C263.601 108.215 263.559 108.197 263.501 108.174C263.026 107.955 262.789 107.698 262.789 107.403C262.789 107.103 263.037 106.839 263.534 106.61L263.588 106.577L268.918 104.093C269.097 104.013 269.229 103.961 269.314 103.939C269.399 103.912 269.473 103.899 269.535 103.899C269.728 103.899 269.882 103.957 269.998 104.073C270.115 104.189 270.173 104.342 270.173 104.53C270.173 104.691 270.122 104.832 270.019 104.952C269.92 105.069 269.75 105.185 269.508 105.301L265.139 107.376ZM275.335 105.865C275.523 105.664 275.74 105.512 275.986 105.409C276.232 105.301 276.496 105.248 276.778 105.248C277.387 105.248 277.825 105.429 278.094 105.791C278.362 106.149 278.497 106.751 278.497 107.597V110.141H278.591C278.801 110.141 278.958 110.204 279.06 110.329C279.168 110.45 279.222 110.629 279.222 110.866C279.222 111.135 279.166 111.327 279.054 111.444C278.946 111.555 278.761 111.611 278.497 111.611H277.355C277.235 111.611 277.141 111.587 277.074 111.537C277.006 111.484 276.973 111.412 276.973 111.323V107.53C276.973 107.23 276.926 107.006 276.832 106.859C276.738 106.711 276.601 106.637 276.422 106.637C276.199 106.637 276.024 106.738 275.899 106.939C275.778 107.136 275.718 107.42 275.718 107.792V110.141H275.818C276.024 110.141 276.181 110.204 276.288 110.329C276.396 110.45 276.449 110.629 276.449 110.866C276.449 111.135 276.393 111.327 276.281 111.444C276.17 111.555 275.982 111.611 275.718 111.611H274.576C274.456 111.611 274.359 111.587 274.288 111.537C274.216 111.484 274.18 111.412 274.18 111.323V107.53C274.18 107.23 274.136 107.006 274.046 106.859C273.957 106.711 273.822 106.637 273.643 106.637C273.42 106.637 273.243 106.738 273.113 106.939C272.988 107.141 272.925 107.425 272.925 107.792V110.141H273.026C273.236 110.141 273.393 110.202 273.496 110.323C273.603 110.443 273.657 110.625 273.657 110.866C273.657 111.135 273.601 111.327 273.489 111.444C273.377 111.555 273.189 111.611 272.925 111.611H271.401C271.142 111.611 270.956 111.553 270.844 111.437C270.732 111.32 270.676 111.13 270.676 110.866C270.676 110.629 270.728 110.45 270.831 110.329C270.938 110.204 271.097 110.141 271.307 110.141H271.401V106.879H271.307C271.097 106.879 270.936 106.816 270.824 106.691C270.717 106.561 270.663 106.378 270.663 106.141C270.663 105.881 270.719 105.695 270.831 105.583C270.947 105.467 271.137 105.409 271.401 105.409H272.308C272.491 105.409 272.614 105.447 272.677 105.523C272.744 105.595 272.777 105.736 272.777 105.946C272.943 105.718 273.142 105.545 273.375 105.429C273.608 105.308 273.867 105.248 274.154 105.248C274.413 105.248 274.639 105.299 274.832 105.402C275.024 105.501 275.192 105.655 275.335 105.865ZM285.901 110.141H286.008C286.25 110.141 286.433 110.206 286.558 110.336C286.688 110.461 286.753 110.642 286.753 110.88C286.753 111.139 286.686 111.327 286.552 111.444C286.422 111.555 286.205 111.611 285.901 111.611H285.27C285.046 111.611 284.878 111.569 284.766 111.484C284.659 111.399 284.569 111.244 284.498 111.021C284.126 111.267 283.732 111.455 283.316 111.584C282.9 111.714 282.479 111.779 282.054 111.779C281.334 111.779 280.768 111.6 280.356 111.242C279.944 110.884 279.738 110.394 279.738 109.772C279.738 109.101 280.005 108.579 280.537 108.208C281.07 107.837 281.817 107.651 282.779 107.651C282.994 107.651 283.222 107.662 283.464 107.684C283.706 107.707 283.976 107.743 284.276 107.792V107.664C284.276 107.262 284.178 106.955 283.981 106.745C283.788 106.534 283.502 106.429 283.122 106.429C282.826 106.429 282.448 106.539 281.987 106.758C281.531 106.977 281.195 107.087 280.98 107.087C280.77 107.087 280.6 107.027 280.47 106.906C280.34 106.78 280.275 106.617 280.275 106.416C280.275 106.053 280.539 105.767 281.068 105.557C281.6 105.342 282.323 105.234 283.236 105.234C284.189 105.234 284.871 105.418 285.283 105.785C285.695 106.152 285.901 106.774 285.901 107.651V110.141ZM284.276 108.846C284.052 108.797 283.847 108.761 283.659 108.738C283.471 108.711 283.296 108.698 283.135 108.698C282.643 108.698 282.256 108.781 281.974 108.946C281.696 109.112 281.558 109.34 281.558 109.631C281.558 109.891 281.647 110.09 281.826 110.229C282.005 110.363 282.262 110.43 282.598 110.43C282.907 110.43 283.198 110.385 283.471 110.296C283.744 110.206 284.012 110.067 284.276 109.879V108.846ZM292.358 110.141H293.801C294.11 110.141 294.329 110.197 294.459 110.309C294.589 110.421 294.654 110.607 294.654 110.866C294.654 111.13 294.587 111.32 294.453 111.437C294.323 111.553 294.106 111.611 293.801 111.611H289.264C288.959 111.611 288.74 111.553 288.606 111.437C288.476 111.32 288.411 111.13 288.411 110.866C288.411 110.607 288.474 110.421 288.599 110.309C288.729 110.197 288.95 110.141 289.264 110.141H290.707V106.879H289.948C289.649 106.879 289.434 106.823 289.304 106.711C289.174 106.595 289.109 106.405 289.109 106.141C289.109 105.877 289.172 105.689 289.297 105.577C289.423 105.465 289.64 105.409 289.948 105.409H291.969C292.094 105.409 292.19 105.436 292.258 105.489C292.325 105.539 292.358 105.608 292.358 105.698V110.141ZM291.392 102.375C291.718 102.375 291.935 102.437 292.043 102.563C292.15 102.688 292.204 102.988 292.204 103.462C292.204 103.919 292.155 104.203 292.056 104.315C291.962 104.422 291.736 104.476 291.378 104.476C291.029 104.476 290.803 104.424 290.7 104.321C290.602 104.218 290.552 104.013 290.552 103.704C290.552 103.131 290.604 102.766 290.707 102.61C290.81 102.453 291.038 102.375 291.392 102.375ZM302.494 110.128H302.582C302.832 110.128 303.02 110.19 303.145 110.316C303.271 110.437 303.333 110.62 303.333 110.866C303.333 111.13 303.268 111.32 303.139 111.437C303.013 111.553 302.799 111.611 302.494 111.611H300.843C300.543 111.611 300.326 111.553 300.192 111.437C300.062 111.32 299.997 111.13 299.997 110.866C299.997 110.62 300.06 110.437 300.185 110.316C300.315 110.19 300.507 110.128 300.762 110.128H300.843V108.188C300.843 107.651 300.767 107.27 300.615 107.047C300.467 106.819 300.219 106.704 299.87 106.704C299.498 106.704 299.194 106.841 298.957 107.114C298.724 107.382 298.608 107.74 298.608 108.188V110.128H298.688C298.943 110.128 299.133 110.19 299.259 110.316C299.384 110.437 299.447 110.62 299.447 110.866C299.447 111.13 299.382 111.32 299.252 111.437C299.122 111.553 298.907 111.611 298.608 111.611H296.943C296.643 111.611 296.428 111.553 296.299 111.437C296.169 111.32 296.104 111.13 296.104 110.866C296.104 110.62 296.166 110.437 296.292 110.316C296.417 110.19 296.607 110.128 296.862 110.128H296.943V106.879H296.829C296.587 106.879 296.404 106.819 296.278 106.698C296.153 106.572 296.09 106.391 296.09 106.154C296.09 105.89 296.155 105.7 296.285 105.583C296.415 105.467 296.634 105.409 296.943 105.409H298.084C298.209 105.409 298.303 105.433 298.366 105.483C298.433 105.532 298.467 105.604 298.467 105.698V106.221C298.673 105.899 298.934 105.657 299.252 105.496C299.574 105.331 299.946 105.248 300.366 105.248C301.082 105.248 301.615 105.465 301.964 105.899C302.317 106.333 302.494 106.995 302.494 107.886V110.128ZM309.462 107.376L305.085 105.301C304.848 105.185 304.678 105.069 304.575 104.952C304.477 104.832 304.427 104.691 304.427 104.53C304.427 104.342 304.483 104.189 304.595 104.073C304.707 103.957 304.857 103.899 305.045 103.899C305.117 103.899 305.197 103.912 305.287 103.939C305.381 103.966 305.513 104.017 305.683 104.093L310.999 106.577L311.053 106.61C311.55 106.839 311.798 107.103 311.798 107.403C311.798 107.702 311.559 107.96 311.08 108.174C311.035 108.201 310.999 108.219 310.972 108.228L305.663 110.665C305.528 110.727 305.412 110.772 305.314 110.799C305.22 110.826 305.13 110.839 305.045 110.839C304.857 110.839 304.707 110.783 304.595 110.672C304.483 110.555 304.427 110.401 304.427 110.208C304.427 110.047 304.474 109.911 304.568 109.799C304.667 109.683 304.839 109.566 305.085 109.45L309.462 107.376Z" fill="black"/>
<path d="M253.033 147.091L257.403 149.165C257.649 149.281 257.821 149.397 257.92 149.514C258.018 149.626 258.067 149.762 258.067 149.923C258.067 150.111 258.009 150.263 257.893 150.38C257.777 150.496 257.622 150.554 257.43 150.554C257.349 150.554 257.26 150.541 257.161 150.514C257.067 150.487 256.951 150.442 256.812 150.38L251.523 147.943C251.496 147.93 251.453 147.912 251.395 147.889C250.921 147.67 250.684 147.413 250.684 147.117C250.684 146.818 250.932 146.553 251.429 146.325L251.482 146.292L256.812 143.808C256.991 143.727 257.123 143.676 257.208 143.654C257.293 143.627 257.367 143.613 257.43 143.613C257.622 143.613 257.777 143.672 257.893 143.788C258.009 143.904 258.067 144.056 258.067 144.244C258.067 144.405 258.016 144.546 257.913 144.667C257.815 144.784 257.645 144.9 257.403 145.016L253.033 147.091ZM265.539 149.856H265.646C265.888 149.856 266.071 149.921 266.196 150.051C266.326 150.176 266.391 150.357 266.391 150.594C266.391 150.854 266.324 151.042 266.19 151.158C266.06 151.27 265.843 151.326 265.539 151.326H264.908C264.684 151.326 264.516 151.284 264.404 151.199C264.297 151.114 264.207 150.959 264.136 150.735C263.764 150.982 263.37 151.17 262.954 151.299C262.538 151.429 262.117 151.494 261.692 151.494C260.972 151.494 260.406 151.315 259.994 150.957C259.582 150.599 259.376 150.109 259.376 149.487C259.376 148.816 259.643 148.294 260.175 147.923C260.708 147.551 261.455 147.366 262.417 147.366C262.632 147.366 262.86 147.377 263.102 147.399C263.344 147.422 263.614 147.457 263.914 147.507V147.379C263.914 146.976 263.816 146.67 263.619 146.46C263.426 146.249 263.14 146.144 262.76 146.144C262.464 146.144 262.086 146.254 261.625 146.473C261.169 146.692 260.833 146.802 260.618 146.802C260.408 146.802 260.238 146.741 260.108 146.621C259.978 146.495 259.913 146.332 259.913 146.131C259.913 145.768 260.177 145.482 260.706 145.271C261.238 145.057 261.961 144.949 262.874 144.949C263.827 144.949 264.509 145.133 264.921 145.5C265.333 145.867 265.539 146.489 265.539 147.366V149.856ZM263.914 148.561C263.69 148.511 263.485 148.476 263.297 148.453C263.109 148.426 262.934 148.413 262.773 148.413C262.281 148.413 261.894 148.496 261.612 148.661C261.334 148.827 261.196 149.055 261.196 149.346C261.196 149.606 261.285 149.805 261.464 149.943C261.643 150.078 261.9 150.145 262.236 150.145C262.545 150.145 262.836 150.1 263.109 150.01C263.382 149.921 263.65 149.782 263.914 149.594V148.561ZM270.754 147.681V149.856H272.339C272.643 149.856 272.858 149.912 272.983 150.024C273.113 150.136 273.178 150.322 273.178 150.581C273.178 150.845 273.113 151.035 272.983 151.152C272.858 151.268 272.643 151.326 272.339 151.326H268.586C268.277 151.326 268.058 151.268 267.928 151.152C267.799 151.035 267.734 150.845 267.734 150.581C267.734 150.322 267.796 150.136 267.922 150.024C268.051 149.912 268.273 149.856 268.586 149.856H269.096V146.594H268.808C268.503 146.594 268.286 146.538 268.157 146.426C268.031 146.31 267.969 146.119 267.969 145.855C267.969 145.591 268.029 145.403 268.15 145.292C268.275 145.18 268.494 145.124 268.808 145.124H270.237C270.358 145.124 270.452 145.151 270.519 145.204C270.587 145.253 270.62 145.323 270.62 145.412V146.406C271.108 145.882 271.562 145.509 271.983 145.285C272.408 145.061 272.864 144.949 273.352 144.949C273.795 144.949 274.146 145.05 274.406 145.251C274.666 145.448 274.795 145.714 274.795 146.05C274.795 146.31 274.706 146.524 274.527 146.694C274.348 146.86 274.117 146.943 273.835 146.943C273.634 146.943 273.395 146.869 273.117 146.721C272.844 146.574 272.654 146.5 272.547 146.5C272.332 146.5 272.079 146.596 271.788 146.788C271.497 146.981 271.153 147.278 270.754 147.681ZM278.85 145.5H280.897C281.206 145.5 281.425 145.556 281.555 145.667C281.685 145.779 281.75 145.965 281.75 146.225C281.75 146.489 281.682 146.679 281.548 146.795C281.418 146.912 281.201 146.97 280.897 146.97H278.85V148.688C278.85 149.171 278.924 149.503 279.071 149.682C279.219 149.861 279.479 149.95 279.85 149.95C280.199 149.95 280.611 149.849 281.085 149.648C281.559 149.447 281.877 149.346 282.038 149.346C282.222 149.346 282.378 149.42 282.508 149.567C282.642 149.711 282.71 149.885 282.71 150.091C282.71 150.436 282.396 150.751 281.77 151.038C281.148 151.319 280.441 151.46 279.649 151.46C279.188 151.46 278.783 151.398 278.434 151.272C278.085 151.147 277.809 150.968 277.608 150.735C277.46 150.556 277.355 150.342 277.292 150.091C277.23 149.84 277.198 149.422 277.198 148.836V148.688V146.97H276.567C276.263 146.97 276.046 146.912 275.916 146.795C275.791 146.679 275.728 146.489 275.728 146.225C275.728 145.961 275.791 145.775 275.916 145.667C276.042 145.556 276.259 145.5 276.567 145.5H277.198V143.929C277.198 143.62 277.261 143.403 277.386 143.278C277.516 143.152 277.729 143.09 278.024 143.09C278.319 143.09 278.53 143.152 278.655 143.278C278.785 143.403 278.85 143.62 278.85 143.929V145.5ZM288.509 149.856H289.952C290.261 149.856 290.48 149.912 290.61 150.024C290.74 150.136 290.805 150.322 290.805 150.581C290.805 150.845 290.738 151.035 290.604 151.152C290.474 151.268 290.257 151.326 289.952 151.326H285.415C285.11 151.326 284.891 151.268 284.757 151.152C284.627 151.035 284.562 150.845 284.562 150.581C284.562 150.322 284.625 150.136 284.75 150.024C284.88 149.912 285.101 149.856 285.415 149.856H286.858V146.594H286.099C285.8 146.594 285.585 146.538 285.455 146.426C285.325 146.31 285.26 146.119 285.26 145.855C285.26 145.591 285.323 145.403 285.448 145.292C285.574 145.18 285.791 145.124 286.099 145.124H288.12C288.245 145.124 288.341 145.151 288.409 145.204C288.476 145.253 288.509 145.323 288.509 145.412V149.856ZM287.543 142.09C287.869 142.09 288.086 142.152 288.194 142.278C288.301 142.403 288.355 142.703 288.355 143.177C288.355 143.634 288.306 143.918 288.207 144.03C288.113 144.137 287.887 144.191 287.529 144.191C287.18 144.191 286.954 144.139 286.851 144.036C286.753 143.933 286.704 143.727 286.704 143.419C286.704 142.846 286.755 142.481 286.858 142.325C286.961 142.168 287.189 142.09 287.543 142.09ZM297.82 145.486C297.873 145.312 297.956 145.182 298.068 145.097C298.184 145.007 298.332 144.963 298.511 144.963C298.753 144.963 298.925 145.036 299.028 145.184C299.131 145.327 299.182 145.578 299.182 145.936V147.037C299.182 147.31 299.126 147.511 299.014 147.641C298.903 147.771 298.73 147.836 298.498 147.836C298.332 147.836 298.193 147.798 298.081 147.721C297.97 147.645 297.851 147.5 297.726 147.285C297.547 146.981 297.312 146.757 297.021 146.614C296.73 146.466 296.374 146.392 295.954 146.392C295.43 146.392 295 146.565 294.665 146.909C294.334 147.249 294.168 147.686 294.168 148.218C294.168 148.778 294.34 149.227 294.685 149.567C295.029 149.908 295.493 150.078 296.074 150.078C296.602 150.078 297.126 149.932 297.645 149.641C298.169 149.346 298.489 149.198 298.605 149.198C298.771 149.198 298.907 149.263 299.014 149.393C299.126 149.518 299.182 149.677 299.182 149.87C299.182 150.29 298.862 150.666 298.222 150.997C297.587 151.328 296.831 151.494 295.954 151.494C294.871 151.494 293.989 151.19 293.309 150.581C292.633 149.972 292.295 149.189 292.295 148.232C292.295 147.296 292.631 146.518 293.302 145.896C293.973 145.274 294.819 144.963 295.839 144.963C296.184 144.963 296.52 145.005 296.846 145.09C297.173 145.175 297.497 145.307 297.82 145.486ZM304.908 149.856H306.351C306.66 149.856 306.877 149.912 307.003 150.024C307.128 150.136 307.19 150.322 307.19 150.581C307.19 150.845 307.126 151.035 306.996 151.152C306.87 151.268 306.656 151.326 306.351 151.326H301.8C301.5 151.326 301.286 151.268 301.156 151.152C301.031 151.035 300.968 150.845 300.968 150.581C300.968 150.317 301.028 150.131 301.149 150.024C301.274 149.912 301.491 149.856 301.8 149.856H303.243V144.03H302.505C302.201 144.03 301.981 143.971 301.847 143.855C301.717 143.734 301.653 143.544 301.653 143.284C301.653 143.02 301.717 142.83 301.847 142.714C301.977 142.598 302.196 142.539 302.505 142.539H304.512C304.637 142.539 304.734 142.566 304.801 142.62C304.872 142.669 304.908 142.738 304.908 142.828V149.856ZM310.513 148.621C310.63 149.118 310.853 149.489 311.184 149.735C311.52 149.981 311.965 150.104 312.52 150.104C313.075 150.104 313.623 149.97 314.165 149.702C314.706 149.429 315.033 149.292 315.145 149.292C315.31 149.292 315.445 149.355 315.548 149.48C315.655 149.601 315.709 149.758 315.709 149.95C315.709 150.371 315.398 150.733 314.776 151.038C314.154 151.342 313.384 151.494 312.467 151.494C311.384 151.494 310.502 151.19 309.822 150.581C309.146 149.972 308.808 149.189 308.808 148.232C308.808 147.278 309.146 146.498 309.822 145.889C310.502 145.28 311.384 144.976 312.467 144.976C313.433 144.976 314.234 145.262 314.87 145.835C315.505 146.404 315.823 147.102 315.823 147.93C315.823 148.194 315.758 148.375 315.628 148.473C315.503 148.572 315.241 148.621 314.843 148.621H310.513ZM314.131 147.574C314.055 147.158 313.858 146.835 313.541 146.607C313.227 146.379 312.818 146.265 312.312 146.265C311.824 146.265 311.431 146.374 311.131 146.594C310.835 146.809 310.63 147.135 310.513 147.574H314.131ZM322.126 147.091L317.749 145.016C317.512 144.9 317.342 144.784 317.239 144.667C317.141 144.546 317.092 144.405 317.092 144.244C317.092 144.056 317.148 143.904 317.259 143.788C317.371 143.672 317.521 143.613 317.709 143.613C317.781 143.613 317.861 143.627 317.951 143.654C318.045 143.68 318.177 143.732 318.347 143.808L323.663 146.292L323.717 146.325C324.214 146.553 324.462 146.818 324.462 147.117C324.462 147.417 324.223 147.675 323.744 147.889C323.699 147.916 323.663 147.934 323.636 147.943L318.327 150.38C318.192 150.442 318.076 150.487 317.978 150.514C317.884 150.541 317.794 150.554 317.709 150.554C317.521 150.554 317.371 150.498 317.259 150.386C317.148 150.27 317.092 150.116 317.092 149.923C317.092 149.762 317.139 149.626 317.233 149.514C317.331 149.397 317.503 149.281 317.749 149.165L322.126 147.091Z" fill="black"/>
<path d="M253.033 220.411L257.403 222.485C257.649 222.601 257.821 222.718 257.92 222.834C258.018 222.946 258.067 223.082 258.067 223.244C258.067 223.431 258.009 223.584 257.893 223.7C257.777 223.816 257.622 223.875 257.43 223.875C257.349 223.875 257.26 223.861 257.161 223.834C257.067 223.807 256.951 223.763 256.812 223.7L251.523 221.263C251.496 221.25 251.453 221.232 251.395 221.21C250.921 220.99 250.684 220.733 250.684 220.438C250.684 220.138 250.932 219.874 251.429 219.646L251.482 219.612L256.812 217.128C256.991 217.048 257.123 216.996 257.208 216.974C257.293 216.947 257.367 216.934 257.43 216.934C257.622 216.934 257.777 216.992 257.893 217.108C258.009 217.225 258.067 217.377 258.067 217.565C258.067 217.726 258.016 217.867 257.913 217.988C257.815 218.104 257.645 218.22 257.403 218.337L253.033 220.411ZM261.028 224.553C260.911 224.642 260.791 224.709 260.665 224.754C260.544 224.803 260.419 224.828 260.289 224.828C260.097 224.828 259.96 224.776 259.88 224.673C259.804 224.57 259.766 224.378 259.766 224.096V223.203C259.766 222.908 259.815 222.7 259.913 222.579C260.012 222.454 260.182 222.391 260.424 222.391C260.688 222.391 260.902 222.519 261.068 222.774C261.166 222.912 261.249 223.015 261.316 223.082C261.536 223.279 261.791 223.427 262.082 223.525C262.373 223.624 262.704 223.673 263.075 223.673C263.397 223.673 263.655 223.611 263.847 223.485C264.039 223.36 264.136 223.197 264.136 222.995C264.136 222.633 263.619 222.382 262.585 222.243C262.357 222.217 262.178 222.192 262.048 222.17C261.269 222.062 260.69 221.852 260.309 221.539C259.929 221.221 259.739 220.796 259.739 220.263C259.739 219.632 259.967 219.144 260.424 218.8C260.88 218.455 261.531 218.283 262.377 218.283C262.668 218.283 262.965 218.308 263.27 218.357C263.579 218.402 263.894 218.473 264.216 218.572C264.31 218.46 264.409 218.377 264.512 218.323C264.619 218.269 264.738 218.243 264.867 218.243C265.051 218.243 265.19 218.301 265.284 218.417C265.382 218.529 265.431 218.699 265.431 218.927V219.753C265.431 219.945 265.382 220.095 265.284 220.203C265.185 220.306 265.046 220.357 264.867 220.357C264.684 220.357 264.368 220.198 263.921 219.881C263.478 219.558 263.033 219.397 262.585 219.397C262.236 219.397 261.965 219.455 261.773 219.572C261.58 219.684 261.484 219.84 261.484 220.042C261.484 220.355 261.887 220.565 262.692 220.673C262.925 220.699 263.109 220.722 263.243 220.74C264.254 220.887 264.948 221.109 265.324 221.404C265.704 221.695 265.894 222.129 265.894 222.707C265.894 223.382 265.644 223.906 265.143 224.277C264.646 224.644 263.939 224.828 263.021 224.828C262.663 224.828 262.319 224.803 261.988 224.754C261.656 224.709 261.337 224.642 261.028 224.553ZM269.231 221.941C269.347 222.438 269.571 222.809 269.902 223.056C270.237 223.302 270.683 223.425 271.238 223.425C271.793 223.425 272.341 223.291 272.882 223.022C273.424 222.749 273.75 222.613 273.862 222.613C274.028 222.613 274.162 222.675 274.265 222.801C274.372 222.921 274.426 223.078 274.426 223.27C274.426 223.691 274.115 224.054 273.493 224.358C272.871 224.662 272.101 224.814 271.184 224.814C270.101 224.814 269.219 224.51 268.539 223.901C267.863 223.293 267.526 222.51 267.526 221.552C267.526 220.599 267.863 219.818 268.539 219.209C269.219 218.601 270.101 218.296 271.184 218.296C272.151 218.296 272.952 218.583 273.587 219.156C274.223 219.724 274.54 220.422 274.54 221.25C274.54 221.514 274.475 221.695 274.346 221.794C274.22 221.892 273.958 221.941 273.56 221.941H269.231ZM272.849 220.894C272.773 220.478 272.576 220.156 272.258 219.928C271.945 219.699 271.535 219.585 271.03 219.585C270.542 219.585 270.148 219.695 269.848 219.914C269.553 220.129 269.347 220.456 269.231 220.894H272.849ZM281.307 218.807C281.36 218.632 281.443 218.502 281.555 218.417C281.671 218.328 281.819 218.283 281.998 218.283C282.24 218.283 282.412 218.357 282.515 218.504C282.618 218.648 282.669 218.898 282.669 219.256V220.357C282.669 220.63 282.613 220.831 282.501 220.961C282.39 221.091 282.217 221.156 281.985 221.156C281.819 221.156 281.68 221.118 281.568 221.042C281.456 220.966 281.338 220.82 281.213 220.605C281.034 220.301 280.799 220.077 280.508 219.934C280.217 219.787 279.861 219.713 279.44 219.713C278.917 219.713 278.487 219.885 278.152 220.23C277.82 220.57 277.655 221.006 277.655 221.539C277.655 222.098 277.827 222.548 278.172 222.888C278.516 223.228 278.98 223.398 279.561 223.398C280.089 223.398 280.613 223.252 281.132 222.962C281.656 222.666 281.976 222.519 282.092 222.519C282.258 222.519 282.394 222.583 282.501 222.713C282.613 222.839 282.669 222.997 282.669 223.19C282.669 223.611 282.349 223.986 281.709 224.318C281.074 224.649 280.318 224.814 279.44 224.814C278.358 224.814 277.476 224.51 276.796 223.901C276.12 223.293 275.782 222.51 275.782 221.552C275.782 220.617 276.118 219.838 276.789 219.216C277.46 218.594 278.306 218.283 279.326 218.283C279.671 218.283 280.007 218.325 280.333 218.41C280.66 218.495 280.984 218.627 281.307 218.807ZM287.106 218.82H289.154C289.462 218.82 289.682 218.876 289.811 218.988C289.941 219.1 290.006 219.285 290.006 219.545C290.006 219.809 289.939 219.999 289.805 220.115C289.675 220.232 289.458 220.29 289.154 220.29H287.106V222.008C287.106 222.492 287.18 222.823 287.328 223.002C287.475 223.181 287.735 223.27 288.106 223.27C288.456 223.27 288.867 223.17 289.342 222.968C289.816 222.767 290.134 222.666 290.295 222.666C290.478 222.666 290.635 222.74 290.765 222.888C290.899 223.031 290.966 223.206 290.966 223.411C290.966 223.756 290.653 224.071 290.026 224.358C289.404 224.64 288.697 224.781 287.905 224.781C287.444 224.781 287.039 224.718 286.69 224.593C286.341 224.467 286.066 224.288 285.864 224.056C285.717 223.877 285.612 223.662 285.549 223.411C285.486 223.161 285.455 222.742 285.455 222.156V222.008V220.29H284.824C284.52 220.29 284.303 220.232 284.173 220.115C284.048 219.999 283.985 219.809 283.985 219.545C283.985 219.281 284.048 219.095 284.173 218.988C284.298 218.876 284.515 218.82 284.824 218.82H285.455V217.249C285.455 216.94 285.518 216.723 285.643 216.598C285.773 216.473 285.985 216.41 286.281 216.41C286.576 216.41 286.786 216.473 286.912 216.598C287.041 216.723 287.106 216.94 287.106 217.249V218.82ZM296.766 223.176H298.209C298.518 223.176 298.737 223.232 298.867 223.344C298.997 223.456 299.061 223.642 299.061 223.901C299.061 224.165 298.994 224.356 298.86 224.472C298.73 224.588 298.513 224.646 298.209 224.646H293.671C293.367 224.646 293.148 224.588 293.013 224.472C292.884 224.356 292.819 224.165 292.819 223.901C292.819 223.642 292.881 223.456 293.007 223.344C293.136 223.232 293.358 223.176 293.671 223.176H295.114V219.914H294.356C294.056 219.914 293.841 219.858 293.712 219.746C293.582 219.63 293.517 219.44 293.517 219.176C293.517 218.912 293.579 218.724 293.705 218.612C293.83 218.5 294.047 218.444 294.356 218.444H296.376C296.502 218.444 296.598 218.471 296.665 218.525C296.732 218.574 296.766 218.643 296.766 218.733V223.176ZM295.799 215.41C296.126 215.41 296.343 215.473 296.45 215.598C296.558 215.723 296.611 216.023 296.611 216.497C296.611 216.954 296.562 217.238 296.464 217.35C296.37 217.457 296.144 217.511 295.786 217.511C295.437 217.511 295.211 217.46 295.108 217.357C295.009 217.254 294.96 217.048 294.96 216.739C294.96 216.166 295.012 215.801 295.114 215.645C295.217 215.488 295.446 215.41 295.799 215.41ZM304.083 219.713C303.559 219.713 303.127 219.885 302.787 220.23C302.451 220.57 302.284 221.006 302.284 221.539C302.284 222.076 302.451 222.521 302.787 222.874C303.127 223.223 303.559 223.398 304.083 223.398C304.606 223.398 305.038 223.223 305.378 222.874C305.718 222.521 305.888 222.076 305.888 221.539C305.888 221.006 305.718 220.57 305.378 220.23C305.042 219.885 304.611 219.713 304.083 219.713ZM304.083 218.296C305.17 218.296 306.052 218.601 306.727 219.209C307.403 219.818 307.741 220.599 307.741 221.552C307.741 222.51 307.403 223.293 306.727 223.901C306.052 224.51 305.17 224.814 304.083 224.814C303 224.814 302.12 224.51 301.444 223.901C300.769 223.293 300.431 222.51 300.431 221.552C300.431 220.599 300.769 219.818 301.444 219.209C302.125 218.601 303.004 218.296 304.083 218.296ZM315.158 223.163H315.246C315.496 223.163 315.684 223.226 315.809 223.351C315.935 223.472 315.997 223.655 315.997 223.901C315.997 224.165 315.933 224.356 315.803 224.472C315.677 224.588 315.463 224.646 315.158 224.646H313.507C313.207 224.646 312.99 224.588 312.856 224.472C312.726 224.356 312.661 224.165 312.661 223.901C312.661 223.655 312.724 223.472 312.849 223.351C312.979 223.226 313.171 223.163 313.426 223.163H313.507V221.223C313.507 220.686 313.431 220.306 313.279 220.082C313.131 219.854 312.883 219.74 312.534 219.74C312.162 219.74 311.858 219.876 311.621 220.149C311.388 220.418 311.272 220.776 311.272 221.223V223.163H311.352C311.607 223.163 311.798 223.226 311.923 223.351C312.048 223.472 312.111 223.655 312.111 223.901C312.111 224.165 312.046 224.356 311.916 224.472C311.786 224.588 311.572 224.646 311.272 224.646H309.607C309.307 224.646 309.092 224.588 308.963 224.472C308.833 224.356 308.768 224.165 308.768 223.901C308.768 223.655 308.831 223.472 308.956 223.351C309.081 223.226 309.271 223.163 309.526 223.163H309.607V219.914H309.493C309.251 219.914 309.068 219.854 308.942 219.733C308.817 219.608 308.755 219.426 308.755 219.189C308.755 218.925 308.819 218.735 308.949 218.619C309.079 218.502 309.298 218.444 309.607 218.444H310.748C310.873 218.444 310.967 218.469 311.03 218.518C311.097 218.567 311.131 218.639 311.131 218.733V219.256C311.337 218.934 311.598 218.692 311.916 218.531C312.238 218.366 312.61 218.283 313.03 218.283C313.746 218.283 314.279 218.5 314.628 218.934C314.982 219.368 315.158 220.03 315.158 220.921V223.163ZM322.126 220.411L317.749 218.337C317.512 218.22 317.342 218.104 317.239 217.988C317.141 217.867 317.092 217.726 317.092 217.565C317.092 217.377 317.148 217.225 317.259 217.108C317.371 216.992 317.521 216.934 317.709 216.934C317.781 216.934 317.861 216.947 317.951 216.974C318.045 217.001 318.177 217.052 318.347 217.128L323.663 219.612L323.717 219.646C324.214 219.874 324.462 220.138 324.462 220.438C324.462 220.737 324.223 220.995 323.744 221.21C323.699 221.236 323.663 221.254 323.636 221.263L318.327 223.7C318.192 223.763 318.076 223.807 317.978 223.834C317.884 223.861 317.794 223.875 317.709 223.875C317.521 223.875 317.371 223.819 317.259 223.707C317.148 223.59 317.092 223.436 317.092 223.244C317.092 223.082 317.139 222.946 317.233 222.834C317.331 222.718 317.503 222.601 317.749 222.485L322.126 220.411Z" fill="black"/>
<rect x="117.184" y="286.494" width="340.631" height="105.397" fill="white"/>
<path d="M253.033 336.501L257.403 338.575C257.649 338.691 257.821 338.808 257.92 338.924C258.018 339.036 258.067 339.172 258.067 339.333C258.067 339.521 258.009 339.673 257.893 339.79C257.777 339.906 257.622 339.964 257.43 339.964C257.349 339.964 257.26 339.951 257.161 339.924C257.067 339.897 256.951 339.852 256.812 339.79L251.523 337.353C251.496 337.34 251.453 337.322 251.395 337.299C250.921 337.08 250.684 336.823 250.684 336.528C250.684 336.228 250.932 335.964 251.429 335.735L251.482 335.702L256.812 333.218C256.991 333.138 257.123 333.086 257.208 333.064C257.293 333.037 257.367 333.024 257.43 333.024C257.622 333.024 257.777 333.082 257.893 333.198C258.009 333.314 258.067 333.467 258.067 333.655C258.067 333.816 258.016 333.957 257.913 334.077C257.815 334.194 257.645 334.31 257.403 334.426L253.033 336.501ZM261.028 340.642C260.911 340.732 260.791 340.799 260.665 340.844C260.544 340.893 260.419 340.918 260.289 340.918C260.097 340.918 259.96 340.866 259.88 340.763C259.804 340.66 259.766 340.468 259.766 340.186V339.293C259.766 338.998 259.815 338.79 259.913 338.669C260.012 338.544 260.182 338.481 260.424 338.481C260.688 338.481 260.902 338.608 261.068 338.864C261.166 339.002 261.249 339.105 261.316 339.172C261.536 339.369 261.791 339.517 262.082 339.615C262.373 339.714 262.704 339.763 263.075 339.763C263.397 339.763 263.655 339.7 263.847 339.575C264.039 339.45 264.136 339.286 264.136 339.085C264.136 338.723 263.619 338.472 262.585 338.333C262.357 338.306 262.178 338.282 262.048 338.259C261.269 338.152 260.69 337.942 260.309 337.628C259.929 337.311 259.739 336.886 259.739 336.353C259.739 335.722 259.967 335.234 260.424 334.89C260.88 334.545 261.531 334.373 262.377 334.373C262.668 334.373 262.965 334.397 263.27 334.447C263.579 334.491 263.894 334.563 264.216 334.661C264.31 334.55 264.409 334.467 264.512 334.413C264.619 334.359 264.738 334.332 264.867 334.332C265.051 334.332 265.19 334.391 265.284 334.507C265.382 334.619 265.431 334.789 265.431 335.017V335.843C265.431 336.035 265.382 336.185 265.284 336.293C265.185 336.395 265.046 336.447 264.867 336.447C264.684 336.447 264.368 336.288 263.921 335.97C263.478 335.648 263.033 335.487 262.585 335.487C262.236 335.487 261.965 335.545 261.773 335.662C261.58 335.773 261.484 335.93 261.484 336.131C261.484 336.445 261.887 336.655 262.692 336.762C262.925 336.789 263.109 336.812 263.243 336.83C264.254 336.977 264.948 337.199 265.324 337.494C265.704 337.785 265.894 338.219 265.894 338.796C265.894 339.472 265.644 339.996 265.143 340.367C264.646 340.734 263.939 340.918 263.021 340.918C262.663 340.918 262.319 340.893 261.988 340.844C261.656 340.799 261.337 340.732 261.028 340.642ZM269.231 338.031C269.347 338.528 269.571 338.899 269.902 339.145C270.237 339.392 270.683 339.515 271.238 339.515C271.793 339.515 272.341 339.38 272.882 339.112C273.424 338.839 273.75 338.702 273.862 338.702C274.028 338.702 274.162 338.765 274.265 338.89C274.372 339.011 274.426 339.168 274.426 339.36C274.426 339.781 274.115 340.143 273.493 340.448C272.871 340.752 272.101 340.904 271.184 340.904C270.101 340.904 269.219 340.6 268.539 339.991C267.863 339.383 267.526 338.599 267.526 337.642C267.526 336.689 267.863 335.908 268.539 335.299C269.219 334.69 270.101 334.386 271.184 334.386C272.151 334.386 272.952 334.673 273.587 335.245C274.223 335.814 274.54 336.512 274.54 337.34C274.54 337.604 274.475 337.785 274.346 337.883C274.22 337.982 273.958 338.031 273.56 338.031H269.231ZM272.849 336.984C272.773 336.568 272.576 336.246 272.258 336.017C271.945 335.789 271.535 335.675 271.03 335.675C270.542 335.675 270.148 335.785 269.848 336.004C269.553 336.219 269.347 336.545 269.231 336.984H272.849ZM281.307 334.896C281.36 334.722 281.443 334.592 281.555 334.507C281.671 334.418 281.819 334.373 281.998 334.373C282.24 334.373 282.412 334.447 282.515 334.594C282.618 334.737 282.669 334.988 282.669 335.346V336.447C282.669 336.72 282.613 336.921 282.501 337.051C282.39 337.181 282.217 337.246 281.985 337.246C281.819 337.246 281.68 337.208 281.568 337.132C281.456 337.056 281.338 336.91 281.213 336.695C281.034 336.391 280.799 336.167 280.508 336.024C280.217 335.876 279.861 335.803 279.44 335.803C278.917 335.803 278.487 335.975 278.152 336.319C277.82 336.66 277.655 337.096 277.655 337.628C277.655 338.188 277.827 338.638 278.172 338.978C278.516 339.318 278.98 339.488 279.561 339.488C280.089 339.488 280.613 339.342 281.132 339.051C281.656 338.756 281.976 338.608 282.092 338.608C282.258 338.608 282.394 338.673 282.501 338.803C282.613 338.928 282.669 339.087 282.669 339.28C282.669 339.7 282.349 340.076 281.709 340.407C281.074 340.739 280.318 340.904 279.44 340.904C278.358 340.904 277.476 340.6 276.796 339.991C276.12 339.383 275.782 338.599 275.782 337.642C275.782 336.707 276.118 335.928 276.789 335.306C277.46 334.684 278.306 334.373 279.326 334.373C279.671 334.373 280.007 334.415 280.333 334.5C280.66 334.585 280.984 334.717 281.307 334.896ZM287.106 334.91H289.154C289.462 334.91 289.682 334.966 289.811 335.078C289.941 335.189 290.006 335.375 290.006 335.635C290.006 335.899 289.939 336.089 289.805 336.205C289.675 336.322 289.458 336.38 289.154 336.38H287.106V338.098C287.106 338.582 287.18 338.913 287.328 339.092C287.475 339.271 287.735 339.36 288.106 339.36C288.456 339.36 288.867 339.26 289.342 339.058C289.816 338.857 290.134 338.756 290.295 338.756C290.478 338.756 290.635 338.83 290.765 338.978C290.899 339.121 290.966 339.295 290.966 339.501C290.966 339.846 290.653 340.161 290.026 340.448C289.404 340.73 288.697 340.871 287.905 340.871C287.444 340.871 287.039 340.808 286.69 340.683C286.341 340.557 286.066 340.378 285.864 340.146C285.717 339.967 285.612 339.752 285.549 339.501C285.486 339.251 285.455 338.832 285.455 338.246V338.098V336.38H284.824C284.52 336.38 284.303 336.322 284.173 336.205C284.048 336.089 283.985 335.899 283.985 335.635C283.985 335.371 284.048 335.185 284.173 335.078C284.298 334.966 284.515 334.91 284.824 334.91H285.455V333.339C285.455 333.03 285.518 332.813 285.643 332.688C285.773 332.563 285.985 332.5 286.281 332.5C286.576 332.5 286.786 332.563 286.912 332.688C287.041 332.813 287.106 333.03 287.106 333.339V334.91ZM296.766 339.266H298.209C298.518 339.266 298.737 339.322 298.867 339.434C298.997 339.546 299.061 339.732 299.061 339.991C299.061 340.255 298.994 340.445 298.86 340.562C298.73 340.678 298.513 340.736 298.209 340.736H293.671C293.367 340.736 293.148 340.678 293.013 340.562C292.884 340.445 292.819 340.255 292.819 339.991C292.819 339.732 292.881 339.546 293.007 339.434C293.136 339.322 293.358 339.266 293.671 339.266H295.114V336.004H294.356C294.056 336.004 293.841 335.948 293.712 335.836C293.582 335.72 293.517 335.53 293.517 335.266C293.517 335.002 293.579 334.814 293.705 334.702C293.83 334.59 294.047 334.534 294.356 334.534H296.376C296.502 334.534 296.598 334.561 296.665 334.614C296.732 334.664 296.766 334.733 296.766 334.823V339.266ZM295.799 331.5C296.126 331.5 296.343 331.562 296.45 331.688C296.558 331.813 296.611 332.113 296.611 332.587C296.611 333.044 296.562 333.328 296.464 333.44C296.37 333.547 296.144 333.601 295.786 333.601C295.437 333.601 295.211 333.549 295.108 333.446C295.009 333.343 294.96 333.138 294.96 332.829C294.96 332.256 295.012 331.891 295.114 331.735C295.217 331.578 295.446 331.5 295.799 331.5ZM304.083 335.803C303.559 335.803 303.127 335.975 302.787 336.319C302.451 336.66 302.284 337.096 302.284 337.628C302.284 338.165 302.451 338.611 302.787 338.964C303.127 339.313 303.559 339.488 304.083 339.488C304.606 339.488 305.038 339.313 305.378 338.964C305.718 338.611 305.888 338.165 305.888 337.628C305.888 337.096 305.718 336.66 305.378 336.319C305.042 335.975 304.611 335.803 304.083 335.803ZM304.083 334.386C305.17 334.386 306.052 334.69 306.727 335.299C307.403 335.908 307.741 336.689 307.741 337.642C307.741 338.599 307.403 339.383 306.727 339.991C306.052 340.6 305.17 340.904 304.083 340.904C303 340.904 302.12 340.6 301.444 339.991C300.769 339.383 300.431 338.599 300.431 337.642C300.431 336.689 300.769 335.908 301.444 335.299C302.125 334.69 303.004 334.386 304.083 334.386ZM315.158 339.253H315.246C315.496 339.253 315.684 339.315 315.809 339.441C315.935 339.562 315.997 339.745 315.997 339.991C315.997 340.255 315.933 340.445 315.803 340.562C315.677 340.678 315.463 340.736 315.158 340.736H313.507C313.207 340.736 312.99 340.678 312.856 340.562C312.726 340.445 312.661 340.255 312.661 339.991C312.661 339.745 312.724 339.562 312.849 339.441C312.979 339.315 313.171 339.253 313.426 339.253H313.507V337.313C313.507 336.776 313.431 336.395 313.279 336.172C313.131 335.944 312.883 335.829 312.534 335.829C312.162 335.829 311.858 335.966 311.621 336.239C311.388 336.507 311.272 336.865 311.272 337.313V339.253H311.352C311.607 339.253 311.798 339.315 311.923 339.441C312.048 339.562 312.111 339.745 312.111 339.991C312.111 340.255 312.046 340.445 311.916 340.562C311.786 340.678 311.572 340.736 311.272 340.736H309.607C309.307 340.736 309.092 340.678 308.963 340.562C308.833 340.445 308.768 340.255 308.768 339.991C308.768 339.745 308.831 339.562 308.956 339.441C309.081 339.315 309.271 339.253 309.526 339.253H309.607V336.004H309.493C309.251 336.004 309.068 335.944 308.942 335.823C308.817 335.697 308.755 335.516 308.755 335.279C308.755 335.015 308.819 334.825 308.949 334.708C309.079 334.592 309.298 334.534 309.607 334.534H310.748C310.873 334.534 310.967 334.558 311.03 334.608C311.097 334.657 311.131 334.729 311.131 334.823V335.346C311.337 335.024 311.598 334.782 311.916 334.621C312.238 334.456 312.61 334.373 313.03 334.373C313.746 334.373 314.279 334.59 314.628 335.024C314.982 335.458 315.158 336.12 315.158 337.011V339.253ZM322.126 336.501L317.749 334.426C317.512 334.31 317.342 334.194 317.239 334.077C317.141 333.957 317.092 333.816 317.092 333.655C317.092 333.467 317.148 333.314 317.259 333.198C317.371 333.082 317.521 333.024 317.709 333.024C317.781 333.024 317.861 333.037 317.951 333.064C318.045 333.091 318.177 333.142 318.347 333.218L323.663 335.702L323.717 335.735C324.214 335.964 324.462 336.228 324.462 336.528C324.462 336.827 324.223 337.085 323.744 337.299C323.699 337.326 323.663 337.344 323.636 337.353L318.327 339.79C318.192 339.852 318.076 339.897 317.978 339.924C317.884 339.951 317.794 339.964 317.709 339.964C317.521 339.964 317.371 339.908 317.259 339.797C317.148 339.68 317.092 339.526 317.092 339.333C317.092 339.172 317.139 339.036 317.233 338.924C317.331 338.808 317.503 338.691 317.749 338.575L322.126 336.501Z" fill="black"/>
<path d="M256.216 519.799L260.586 521.874C260.832 521.99 261.004 522.106 261.103 522.223C261.201 522.335 261.25 522.471 261.25 522.632C261.25 522.82 261.192 522.972 261.076 523.089C260.96 523.205 260.805 523.263 260.613 523.263C260.532 523.263 260.443 523.25 260.344 523.223C260.25 523.196 260.134 523.151 259.995 523.089L254.706 520.652C254.679 520.639 254.636 520.621 254.578 520.598C254.104 520.379 253.867 520.122 253.867 519.826C253.867 519.527 254.115 519.262 254.612 519.034L254.665 519.001L259.995 516.517C260.174 516.436 260.306 516.385 260.391 516.363C260.476 516.336 260.55 516.322 260.613 516.322C260.805 516.322 260.96 516.381 261.076 516.497C261.192 516.613 261.25 516.765 261.25 516.953C261.25 517.114 261.199 517.255 261.096 517.376C260.998 517.493 260.828 517.609 260.586 517.725L256.216 519.799ZM266.412 518.027H267.856C268.164 518.027 268.384 518.086 268.513 518.202C268.643 518.314 268.708 518.499 268.708 518.759C268.708 519.019 268.641 519.207 268.507 519.323C268.377 519.439 268.16 519.497 267.856 519.497H266.412V522.565H267.748C268.057 522.565 268.276 522.621 268.406 522.733C268.536 522.845 268.601 523.031 268.601 523.29C268.601 523.554 268.534 523.744 268.399 523.861C268.27 523.977 268.053 524.035 267.748 524.035H264.05C263.741 524.035 263.522 523.977 263.392 523.861C263.262 523.744 263.197 523.554 263.197 523.29C263.197 523.031 263.26 522.845 263.385 522.733C263.515 522.621 263.736 522.565 264.05 522.565H264.761V519.497H264.05C263.741 519.497 263.522 519.439 263.392 519.323C263.262 519.207 263.197 519.019 263.197 518.759C263.197 518.495 263.26 518.307 263.385 518.195C263.515 518.083 263.736 518.027 264.05 518.027H264.761V517.645C264.761 516.768 264.987 516.146 265.439 515.779C265.891 515.407 266.661 515.221 267.748 515.221C268.312 515.221 268.726 515.289 268.99 515.423C269.259 515.557 269.393 515.765 269.393 516.047C269.393 516.235 269.332 516.385 269.212 516.497C269.095 516.609 268.936 516.665 268.735 516.665C268.587 516.665 268.377 516.645 268.104 516.604C267.836 516.564 267.648 516.544 267.54 516.544C267.124 516.544 266.831 516.638 266.661 516.826C266.495 517.009 266.412 517.336 266.412 517.806V518.027ZM274.239 519.101C273.716 519.101 273.284 519.274 272.944 519.618C272.608 519.958 272.44 520.395 272.44 520.927C272.44 521.464 272.608 521.909 272.944 522.263C273.284 522.612 273.716 522.787 274.239 522.787C274.763 522.787 275.195 522.612 275.535 522.263C275.875 521.909 276.045 521.464 276.045 520.927C276.045 520.395 275.875 519.958 275.535 519.618C275.199 519.274 274.767 519.101 274.239 519.101ZM274.239 517.685C275.327 517.685 276.208 517.989 276.884 518.598C277.56 519.207 277.898 519.987 277.898 520.941C277.898 521.898 277.56 522.681 276.884 523.29C276.208 523.899 275.327 524.203 274.239 524.203C273.156 524.203 272.277 523.899 271.601 523.29C270.926 522.681 270.588 521.898 270.588 520.941C270.588 519.987 270.926 519.207 271.601 518.598C272.282 517.989 273.161 517.685 274.239 517.685ZM282.496 519.101C281.972 519.101 281.54 519.274 281.2 519.618C280.865 519.958 280.697 520.395 280.697 520.927C280.697 521.464 280.865 521.909 281.2 522.263C281.54 522.612 281.972 522.787 282.496 522.787C283.019 522.787 283.451 522.612 283.791 522.263C284.132 521.909 284.302 521.464 284.302 520.927C284.302 520.395 284.132 519.958 283.791 519.618C283.456 519.274 283.024 519.101 282.496 519.101ZM282.496 517.685C283.583 517.685 284.465 517.989 285.141 518.598C285.816 519.207 286.154 519.987 286.154 520.941C286.154 521.898 285.816 522.681 285.141 523.29C284.465 523.899 283.583 524.203 282.496 524.203C281.413 524.203 280.534 523.899 279.858 523.29C279.182 522.681 278.844 521.898 278.844 520.941C278.844 519.987 279.182 519.207 279.858 518.598C280.538 517.989 281.417 517.685 282.496 517.685ZM290.289 518.209H292.337C292.645 518.209 292.865 518.265 292.994 518.376C293.124 518.488 293.189 518.674 293.189 518.934C293.189 519.198 293.122 519.388 292.988 519.504C292.858 519.62 292.641 519.679 292.337 519.679H290.289V521.397C290.289 521.88 290.363 522.212 290.511 522.391C290.658 522.57 290.918 522.659 291.289 522.659C291.638 522.659 292.05 522.558 292.525 522.357C292.999 522.156 293.317 522.055 293.478 522.055C293.661 522.055 293.818 522.129 293.948 522.276C294.082 522.42 294.149 522.594 294.149 522.8C294.149 523.145 293.836 523.46 293.209 523.747C292.587 524.028 291.88 524.169 291.088 524.169C290.627 524.169 290.222 524.107 289.873 523.981C289.524 523.856 289.249 523.677 289.047 523.444C288.9 523.265 288.795 523.051 288.732 522.8C288.669 522.549 288.638 522.131 288.638 521.545V521.397V519.679H288.007C287.703 519.679 287.486 519.62 287.356 519.504C287.231 519.388 287.168 519.198 287.168 518.934C287.168 518.67 287.231 518.484 287.356 518.376C287.481 518.265 287.698 518.209 288.007 518.209H288.638V516.638C288.638 516.329 288.701 516.112 288.826 515.987C288.956 515.861 289.168 515.799 289.464 515.799C289.759 515.799 289.969 515.861 290.095 515.987C290.224 516.112 290.289 516.329 290.289 516.638V518.209ZM297.183 521.33C297.299 521.827 297.523 522.198 297.854 522.444C298.19 522.69 298.635 522.813 299.19 522.813C299.745 522.813 300.293 522.679 300.835 522.411C301.376 522.138 301.703 522.001 301.815 522.001C301.98 522.001 302.115 522.064 302.218 522.189C302.325 522.31 302.379 522.467 302.379 522.659C302.379 523.08 302.068 523.442 301.446 523.747C300.824 524.051 300.054 524.203 299.136 524.203C298.054 524.203 297.172 523.899 296.492 523.29C295.816 522.681 295.478 521.898 295.478 520.941C295.478 519.987 295.816 519.207 296.492 518.598C297.172 517.989 298.054 517.685 299.136 517.685C300.103 517.685 300.904 517.971 301.54 518.544C302.175 519.113 302.493 519.811 302.493 520.639C302.493 520.903 302.428 521.084 302.298 521.182C302.173 521.281 301.911 521.33 301.513 521.33H297.183ZM300.801 520.283C300.725 519.867 300.528 519.544 300.21 519.316C299.897 519.088 299.488 518.974 298.982 518.974C298.494 518.974 298.1 519.083 297.801 519.303C297.505 519.518 297.299 519.844 297.183 520.283H300.801ZM306.963 520.39V522.565H308.548C308.852 522.565 309.067 522.621 309.192 522.733C309.322 522.845 309.387 523.031 309.387 523.29C309.387 523.554 309.322 523.744 309.192 523.861C309.067 523.977 308.852 524.035 308.548 524.035H304.795C304.486 524.035 304.267 523.977 304.137 523.861C304.008 523.744 303.943 523.554 303.943 523.29C303.943 523.031 304.005 522.845 304.131 522.733C304.26 522.621 304.482 522.565 304.795 522.565H305.305V519.303H305.017C304.712 519.303 304.495 519.247 304.366 519.135C304.24 519.019 304.178 518.828 304.178 518.564C304.178 518.3 304.238 518.112 304.359 518.001C304.484 517.889 304.703 517.833 305.017 517.833H306.447C306.567 517.833 306.661 517.86 306.728 517.913C306.796 517.962 306.829 518.032 306.829 518.121V519.115C307.317 518.591 307.771 518.218 308.192 517.994C308.617 517.77 309.073 517.658 309.561 517.658C310.004 517.658 310.356 517.759 310.615 517.96C310.875 518.157 311.004 518.423 311.004 518.759C311.004 519.019 310.915 519.233 310.736 519.403C310.557 519.569 310.326 519.652 310.044 519.652C309.843 519.652 309.604 519.578 309.326 519.43C309.053 519.283 308.863 519.209 308.756 519.209C308.541 519.209 308.288 519.305 307.997 519.497C307.706 519.69 307.362 519.987 306.963 520.39ZM317.052 519.799L312.676 517.725C312.439 517.609 312.269 517.493 312.166 517.376C312.067 517.255 312.018 517.114 312.018 516.953C312.018 516.765 312.074 516.613 312.186 516.497C312.298 516.381 312.448 516.322 312.636 516.322C312.707 516.322 312.788 516.336 312.877 516.363C312.971 516.389 313.103 516.441 313.273 516.517L318.59 519.001L318.643 519.034C319.14 519.262 319.388 519.527 319.388 519.826C319.388 520.126 319.149 520.383 318.67 520.598C318.625 520.625 318.59 520.643 318.563 520.652L313.253 523.089C313.119 523.151 313.003 523.196 312.904 523.223C312.81 523.25 312.721 523.263 312.636 523.263C312.448 523.263 312.298 523.207 312.186 523.095C312.074 522.979 312.018 522.825 312.018 522.632C312.018 522.471 312.065 522.335 312.159 522.223C312.257 522.106 312.43 521.99 312.676 521.874L317.052 519.799Z" fill="black"/>
<path d="M256.216 578.79L260.586 580.864C260.832 580.98 261.004 581.097 261.103 581.213C261.201 581.325 261.25 581.461 261.25 581.622C261.25 581.81 261.192 581.963 261.076 582.079C260.96 582.195 260.805 582.253 260.613 582.253C260.532 582.253 260.443 582.24 260.344 582.213C260.25 582.186 260.134 582.142 259.995 582.079L254.706 579.642C254.679 579.629 254.636 579.611 254.578 579.589C254.104 579.369 253.867 579.112 253.867 578.817C253.867 578.517 254.115 578.253 254.612 578.024L254.665 577.991L259.995 575.507C260.174 575.427 260.306 575.375 260.391 575.353C260.476 575.326 260.55 575.313 260.613 575.313C260.805 575.313 260.96 575.371 261.076 575.487C261.192 575.603 261.25 575.756 261.25 575.944C261.25 576.105 261.199 576.246 261.096 576.366C260.998 576.483 260.828 576.599 260.586 576.716L256.216 578.79ZM268.842 581.555H268.957C269.198 581.555 269.379 581.618 269.5 581.743C269.621 581.864 269.681 582.043 269.681 582.28C269.681 582.544 269.617 582.735 269.487 582.851C269.362 582.967 269.147 583.025 268.842 583.025H267.815C267.686 583.025 267.585 583.001 267.513 582.952C267.446 582.898 267.413 582.826 267.413 582.737V582.267C267.193 582.567 266.911 582.797 266.567 582.958C266.222 583.115 265.835 583.193 265.406 583.193C264.528 583.193 263.795 582.896 263.204 582.3C262.613 581.701 262.318 580.953 262.318 580.058C262.318 579.128 262.615 578.356 263.211 577.743C263.81 577.129 264.571 576.823 265.493 576.823C265.811 576.823 266.119 576.877 266.419 576.984C266.723 577.087 267.001 577.235 267.252 577.427V575.729H266.359C266.05 575.729 265.831 575.671 265.701 575.554C265.571 575.433 265.506 575.243 265.506 574.984C265.506 574.72 265.571 574.529 265.701 574.413C265.831 574.297 266.05 574.239 266.359 574.239H268.446C268.599 574.239 268.701 574.27 268.755 574.333C268.813 574.395 268.842 574.512 268.842 574.682V581.555ZM265.694 578.253C265.256 578.253 264.891 578.418 264.6 578.749C264.314 579.076 264.17 579.492 264.17 579.998C264.17 580.517 264.314 580.942 264.6 581.273C264.886 581.6 265.251 581.763 265.694 581.763C266.137 581.763 266.502 581.598 266.788 581.267C267.079 580.936 267.225 580.513 267.225 579.998C267.225 579.497 267.079 579.081 266.788 578.749C266.497 578.418 266.133 578.253 265.694 578.253ZM275.179 581.555H276.622C276.931 581.555 277.15 581.611 277.28 581.723C277.41 581.835 277.475 582.021 277.475 582.28C277.475 582.544 277.408 582.735 277.273 582.851C277.144 582.967 276.927 583.025 276.622 583.025H272.085C271.78 583.025 271.561 582.967 271.427 582.851C271.297 582.735 271.232 582.544 271.232 582.28C271.232 582.021 271.295 581.835 271.42 581.723C271.55 581.611 271.771 581.555 272.085 581.555H273.528V578.293H272.769C272.469 578.293 272.255 578.237 272.125 578.125C271.995 578.009 271.93 577.819 271.93 577.555C271.93 577.291 271.993 577.103 272.118 576.991C272.243 576.879 272.461 576.823 272.769 576.823H274.79C274.915 576.823 275.011 576.85 275.078 576.903C275.146 576.953 275.179 577.022 275.179 577.112V581.555ZM274.213 573.789C274.539 573.789 274.756 573.851 274.864 573.977C274.971 574.102 275.025 574.402 275.025 574.876C275.025 575.333 274.976 575.617 274.877 575.729C274.783 575.836 274.557 575.89 274.199 575.89C273.85 575.89 273.624 575.838 273.521 575.735C273.423 575.633 273.373 575.427 273.373 575.118C273.373 574.545 273.425 574.18 273.528 574.024C273.631 573.867 273.859 573.789 274.213 573.789ZM285.235 581.555H285.342C285.584 581.555 285.767 581.62 285.892 581.75C286.022 581.875 286.087 582.057 286.087 582.294C286.087 582.553 286.02 582.741 285.886 582.858C285.756 582.969 285.539 583.025 285.235 583.025H284.604C284.38 583.025 284.212 582.983 284.1 582.898C283.993 582.813 283.903 582.658 283.832 582.435C283.46 582.681 283.066 582.869 282.65 582.999C282.234 583.128 281.813 583.193 281.388 583.193C280.668 583.193 280.102 583.014 279.69 582.656C279.278 582.298 279.072 581.808 279.072 581.186C279.072 580.515 279.339 579.994 279.871 579.622C280.404 579.251 281.151 579.065 282.113 579.065C282.328 579.065 282.556 579.076 282.798 579.099C283.04 579.121 283.31 579.157 283.61 579.206V579.078C283.61 578.676 283.512 578.369 283.315 578.159C283.122 577.948 282.836 577.843 282.456 577.843C282.16 577.843 281.782 577.953 281.321 578.172C280.865 578.391 280.529 578.501 280.314 578.501C280.104 578.501 279.934 578.441 279.804 578.32C279.674 578.195 279.609 578.031 279.609 577.83C279.609 577.467 279.873 577.181 280.402 576.971C280.934 576.756 281.657 576.648 282.57 576.648C283.523 576.648 284.205 576.832 284.617 577.199C285.029 577.566 285.235 578.188 285.235 579.065V581.555ZM283.61 580.26C283.386 580.211 283.181 580.175 282.993 580.152C282.805 580.126 282.63 580.112 282.469 580.112C281.977 580.112 281.59 580.195 281.308 580.36C281.03 580.526 280.892 580.754 280.892 581.045C280.892 581.305 280.981 581.504 281.16 581.643C281.339 581.777 281.596 581.844 281.932 581.844C282.241 581.844 282.532 581.799 282.805 581.71C283.078 581.62 283.346 581.481 283.61 581.294V580.26ZM291.578 581.555H293.021C293.33 581.555 293.547 581.611 293.672 581.723C293.798 581.835 293.86 582.021 293.86 582.28C293.86 582.544 293.795 582.735 293.666 582.851C293.54 582.967 293.326 583.025 293.021 583.025H288.47C288.17 583.025 287.955 582.967 287.826 582.851C287.7 582.735 287.638 582.544 287.638 582.28C287.638 582.016 287.698 581.831 287.819 581.723C287.944 581.611 288.161 581.555 288.47 581.555H289.913V575.729H289.175C288.871 575.729 288.651 575.671 288.517 575.554C288.387 575.433 288.322 575.243 288.322 574.984C288.322 574.72 288.387 574.529 288.517 574.413C288.647 574.297 288.866 574.239 289.175 574.239H291.182C291.307 574.239 291.404 574.265 291.471 574.319C291.542 574.368 291.578 574.438 291.578 574.527V581.555ZM299.009 578.092C298.485 578.092 298.054 578.264 297.713 578.608C297.378 578.949 297.21 579.385 297.21 579.917C297.21 580.454 297.378 580.9 297.713 581.253C298.054 581.602 298.485 581.777 299.009 581.777C299.533 581.777 299.964 581.602 300.304 581.253C300.645 580.9 300.815 580.454 300.815 579.917C300.815 579.385 300.645 578.949 300.304 578.608C299.969 578.264 299.537 578.092 299.009 578.092ZM299.009 576.675C300.096 576.675 300.978 576.98 301.654 577.588C302.329 578.197 302.667 578.978 302.667 579.931C302.667 580.889 302.329 581.672 301.654 582.28C300.978 582.889 300.096 583.193 299.009 583.193C297.926 583.193 297.047 582.889 296.371 582.28C295.695 581.672 295.357 580.889 295.357 579.931C295.357 578.978 295.695 578.197 296.371 577.588C297.051 576.98 297.93 576.675 299.009 576.675ZM306.977 578.078C306.538 578.078 306.174 578.237 305.883 578.555C305.596 578.873 305.453 579.278 305.453 579.77C305.453 580.253 305.596 580.654 305.883 580.971C306.174 581.285 306.538 581.441 306.977 581.441C307.42 581.441 307.785 581.285 308.071 580.971C308.362 580.654 308.507 580.253 308.507 579.77C308.507 579.278 308.362 578.873 308.071 578.555C307.785 578.237 307.42 578.078 306.977 578.078ZM308.642 577.447V577.098C308.642 577.009 308.673 576.942 308.736 576.897C308.803 576.848 308.901 576.823 309.031 576.823H310.125C310.434 576.823 310.651 576.881 310.776 576.997C310.901 577.109 310.964 577.295 310.964 577.555C310.964 577.796 310.901 577.98 310.776 578.105C310.655 578.23 310.476 578.293 310.239 578.293H310.125V582.918C310.125 583.898 309.859 584.61 309.326 585.053C308.794 585.496 307.939 585.717 306.762 585.717C306.033 585.717 305.496 585.646 305.151 585.502C304.811 585.359 304.641 585.133 304.641 584.824C304.641 584.61 304.71 584.435 304.849 584.301C304.988 584.167 305.171 584.099 305.399 584.099C305.458 584.099 305.65 584.12 305.977 584.16C306.303 584.2 306.605 584.22 306.883 584.22C307.523 584.22 307.964 584.099 308.205 583.858C308.451 583.616 308.574 583.182 308.574 582.556V582.253C308.257 582.437 307.941 582.573 307.628 582.663C307.319 582.748 306.997 582.79 306.661 582.79C305.762 582.79 305.026 582.511 304.453 581.951C303.885 581.388 303.6 580.665 303.6 579.783C303.6 578.875 303.898 578.127 304.493 577.541C305.093 576.955 305.858 576.662 306.789 576.662C307.192 576.662 307.545 576.727 307.849 576.856C308.154 576.982 308.418 577.179 308.642 577.447ZM317.052 578.79L312.676 576.716C312.439 576.599 312.269 576.483 312.166 576.366C312.067 576.246 312.018 576.105 312.018 575.944C312.018 575.756 312.074 575.603 312.186 575.487C312.298 575.371 312.448 575.313 312.636 575.313C312.707 575.313 312.788 575.326 312.877 575.353C312.971 575.38 313.103 575.431 313.273 575.507L318.59 577.991L318.643 578.024C319.14 578.253 319.388 578.517 319.388 578.817C319.388 579.116 319.149 579.374 318.67 579.589C318.625 579.615 318.59 579.633 318.563 579.642L313.253 582.079C313.119 582.142 313.003 582.186 312.904 582.213C312.81 582.24 312.721 582.253 312.636 582.253C312.448 582.253 312.298 582.198 312.186 582.086C312.074 581.969 312.018 581.815 312.018 581.622C312.018 581.461 312.065 581.325 312.159 581.213C312.257 581.097 312.43 580.98 312.676 580.864L317.052 578.79Z" fill="black"/>
</svg>
