<svg fill="none" height="209" viewBox="0 0 800 209" width="800" xmlns="http://www.w3.org/2000/svg" xmlns:xlink="http://www.w3.org/1999/xlink"><clipPath id="a"><path d="m0 0h800v209h-800z"/></clipPath><g clip-path="url(#a)"><path d="m0 0h800v209h-800z" fill="#fff"/><path d="m801.08 106.133c.596-.596.596-1.563 0-2.159l-9.716-9.7158c-.596-.5962-1.563-.5962-2.159 0s-.596 1.5629 0 2.1591l8.636 8.6367-8.636 8.636c-.596.596-.596 1.563 0 2.159s1.563.596 2.159 0zm-776.6523.447h3.0296v-3.053h-3.0296zm9.0888 0h6.0591v-3.053h-6.0591zm12.1183 0h6.0592v-3.053h-6.0592zm12.1183 0h6.0592v-3.053h-6.0592zm12.1183 0h6.0592v-3.053h-6.0592zm12.1184 0h6.0591v-3.053h-6.0591zm12.1183 0h6.0589v-3.053h-6.0589zm12.1179 0h6.06v-3.053h-6.06zm12.119 0h6.059v-3.053h-6.059zm12.118 0h6.059v-3.053h-6.059zm12.118 0h6.06v-3.053h-6.06zm12.119 0h6.059v-3.053h-6.059zm12.118 0h6.059v-3.053h-6.059zm12.118 0h6.059v-3.053h-6.059zm12.119 0h6.059v-3.053h-6.059zm12.118 0h6.059v-3.053h-6.059zm12.118 0h6.059v-3.053h-6.059zm12.119 0h6.059v-3.053h-6.059zm12.118 0h6.059v-3.053h-6.059zm12.118 0h6.059v-3.053h-6.059zm12.119 0h6.059v-3.053h-6.059zm12.118 0h6.059v-3.053h-6.059zm12.118 0h6.059v-3.053h-6.059zm12.119 0h6.059v-3.053h-6.059zm12.118 0h6.059v-3.053h-6.059zm12.118 0h6.059v-3.053h-6.059zm12.119 0h6.059v-3.053h-6.059zm12.118 0h6.059v-3.053h-6.059zm12.118 0h6.059v-3.053h-6.059zm12.119 0h6.059v-3.053h-6.059zm12.118 0h6.059v-3.053h-6.059zm12.118 0h6.059v-3.053h-6.059zm12.119 0h6.059v-3.053h-6.059zm12.118 0h6.059v-3.053h-6.059zm12.118 0h6.06v-3.053h-6.06zm12.119 0h6.059v-3.053h-6.059zm12.118 0h6.059v-3.053h-6.059zm12.118 0h6.06v-3.053h-6.06zm12.119 0h6.059v-3.053h-6.059zm12.118 0h6.059v-3.053h-6.059zm12.118 0h6.06v-3.053h-6.06zm12.119 0h6.059v-3.053h-6.059zm12.118 0h6.059v-3.053h-6.059zm12.118 0h6.06v-3.053h-6.06zm12.119 0h6.059v-3.053h-6.059zm12.118 0h6.059v-3.053h-6.059zm12.118 0h6.059v-3.053h-6.059zm12.119 0h6.059v-3.053h-6.059zm12.118 0h6.059v-3.053h-6.059zm12.118 0h6.059v-3.053h-6.059zm12.118 0h6.06v-3.053h-6.06zm12.119 0h6.059v-3.053h-6.059zm12.118 0h6.059v-3.053h-6.059zm12.118 0h6.059v-3.053h-6.059zm12.119 0h6.059v-3.053h-6.059zm12.118 0h6.059v-3.053h-6.059zm12.118 0h6.059v-3.053h-6.059zm12.118 0h6.06v-3.053h-6.06zm12.119 0h6.059v-3.053h-6.059zm12.118 0h6.059v-3.053h-6.059zm12.118 0h6.059v-3.053h-6.059zm12.119 0h6.059v-3.053h-6.059zm12.118 0h6.059v-3.053h-6.059zm12.118 0h6.059v-3.053h-6.059zm12.119 0h3.029v-3.053h-3.029z" fill="#bccacf"/><path d="m-29.0078 105.816h187.7858" stroke="#00c2ff" stroke-width="4.58015"/><path d="m19.7324 41.3664h4.9327c4.1575 0 6.619 2.5584 6.619 6.9678 0 4.4192-2.4518 7.0164-6.619 7.0164h-4.9327zm2.1708 1.8703v10.2338h2.5584c2.9655 0 4.6033-1.8122 4.6033-5.1169 0-3.2949-1.6475-5.1169-4.6033-5.1169zm17.9575 9.1193h1.9867c-.2907 1.8607-2.0545 3.1884-4.39 3.1884-2.9946 0-4.8068-2.0254-4.8068-5.2429 0-3.198 1.8413-5.3301 4.7195-5.3301 2.8298 0 4.5936 1.9964 4.5936 5.0879v.7171h-7.2005v.126c0 1.7734 1.0661 2.9461 2.7426 2.9461 1.192 0 2.0739-.6009 2.3549-1.4925zm-2.4906-5.6983c-1.4633 0-2.4906 1.1145-2.5972 2.6553h5.0975c-.0484-1.5602-1.0369-2.6553-2.5003-2.6553zm6.0376 1.3858c0-1.8219 1.5893-3.0721 3.9346-3.0721 2.3743 0 3.9151 1.318 3.983 3.1981h-1.9673c-.1163-.9885-.8431-1.6087-2.0157-1.6087-1.1339 0-1.8898.5524-1.8898 1.3664 0 .6396.4652 1.0757 1.5699 1.3277l1.6572.3779c2.0836.4846 2.8783 1.2987 2.8783 2.7717 0 1.8607-1.7347 3.1399-4.1381 3.1399-2.5488 0-4.08-1.2501-4.2738-3.1884h2.0739c.1938 1.0661.9207 1.5894 2.1999 1.5894 1.2598 0 2.0351-.5233 2.0351-1.3568 0-.659-.3779-1.0466-1.4924-1.2986l-1.6572-.3876c-1.9382-.4458-2.8976-1.3762-2.8976-2.8589zm10.8927-4.5354c-.6686 0-1.2113-.5427-1.2113-1.2017 0-.6687.5427-1.2017 1.2113-1.2017.6687 0 1.2017.533 1.2017 1.2017 0 .659-.533 1.2017-1.2017 1.2017zm-1.0466 11.8425v-10.195h2.0933v10.195zm8.596 3.8377c-2.4034 0-4.1865-1.2793-4.4482-3.043h2.103c.3004.8528 1.2307 1.4149 2.4227 1.4149 1.6378 0 2.6069-.9304 2.6069-2.3259v-1.6766h-.0387c-.5718 1.1048-1.7735 1.8317-3.2272 1.8317-2.5584 0-4.235-1.9964-4.235-5.1751 0-3.2077 1.6669-5.2235 4.2835-5.2235 1.444 0 2.6263.7269 3.2465 1.9092h.0388v-1.7444h2.0351v10.0109c0 2.4324-1.8801 4.0218-4.7874 4.0218zm-.0194-5.5337c1.6378 0 2.7135-1.3276 2.7135-3.4306 0-2.0933-1.0757-3.4694-2.7135-3.4694-1.6087 0-2.6553 1.3471-2.6553 3.4694 0 2.132 1.0466 3.4306 2.6553 3.4306zm6.8807 1.696v-10.195h1.9963v1.7056h.0485c.5524-1.1629 1.6378-1.8801 3.2077-1.8801 2.2484 0 3.5373 1.4343 3.5373 3.7699v6.5996h-2.103v-6.1926c0-1.5312-.7171-2.3743-2.1708-2.3743-1.473 0-2.4227 1.0466-2.4227 2.6263v5.9406zm14.4688-3.8377h2.1126c.1938 1.3858 1.5118 2.2193 3.3725 2.2193 1.7735 0 3.043-.911 3.043-2.1611 0-1.0854-.7365-1.7638-2.6069-2.1708l-1.5215-.3198c-2.8007-.5912-4.0702-1.8898-4.0702-3.9055 0-2.3937 2.1029-4.0412 5.0781-4.0412 2.9655 0 4.9909 1.6765 5.0587 4.1187h-2.1029c-.1357-1.4052-1.289-2.2677-2.9849-2.2677-1.6378 0-2.8395.7946-2.8395 2.0739 0 1.0175.7172 1.6959 2.5294 2.0835l1.5312.3198c2.9267.6203 4.1284 1.7929 4.1284 3.828 0 2.636-2.0739 4.2932-5.3301 4.2932-3.1593 0-5.2623-1.5797-5.3979-4.0703zm13.4512 7.6366c-.1745 0-.6978-.0194-.8528-.0485v-1.6959c.155.0388.5039.0388.6783.0388.9691 0 1.4925-.4071 1.8123-1.4537 0-.0194.1841-.6202.1841-.6299l-3.6826-10.2047h2.2677l2.5778 8.2955h.0388l2.5783-8.2955h2.209l-3.818 10.728c-.8724 2.4712-1.8803 3.2659-3.9929 3.2659zm8.8379-11.106c0-1.8219 1.59-3.0721 3.935-3.0721 2.374 0 3.915 1.318 3.983 3.1981h-1.967c-.117-.9885-.843-1.6087-2.016-1.6087-1.134 0-1.89.5524-1.89 1.3664 0 .6396.465 1.0757 1.57 1.3277l1.657.3779c2.084.4846 2.879 1.2987 2.879 2.7717 0 1.8607-1.735 3.1399-4.139 3.1399-2.548 0-4.079-1.2501-4.273-3.1884h2.074c.193 1.0661.92 1.5894 2.199 1.5894 1.26 0 2.036-.5233 2.036-1.3568 0-.659-.378-1.0466-1.493-1.2986l-1.657-.3876c-1.938-.4458-2.898-1.3762-2.898-2.8589zm10.389-5.301h2.103v2.4131h1.938v1.6571h-1.938v5.6209c0 .8819.388 1.2792 1.241 1.2792.213 0 .552-.0194.688-.0485v1.6572c-.233.0582-.698.0969-1.163.0969-2.064 0-2.869-.785-2.869-2.7522v-5.8535h-1.483v-1.6571h1.483zm12.269 9.6135h1.987c-.291 1.8607-2.055 3.1884-4.39 3.1884-2.995 0-4.807-2.0254-4.807-5.2429 0-3.198 1.841-5.3301 4.719-5.3301 2.83 0 4.594 1.9964 4.594 5.0879v.7171h-7.2v.126c0 1.7734 1.066 2.9461 2.742 2.9461 1.192 0 2.074-.6009 2.355-1.4925zm-2.491-5.6983c-1.463 0-2.49 1.1145-2.597 2.6553h5.098c-.049-1.5602-1.037-2.6553-2.501-2.6553zm6.222 8.6929v-10.195h1.997v1.7153h.048c.455-1.1339 1.521-1.8898 2.898-1.8898 1.414 0 2.442.7269 2.849 1.9964h.048c.524-1.2405 1.725-1.9964 3.179-1.9964 2.016 0 3.334 1.3374 3.334 3.3628v7.0067h-2.103v-6.5027c0-1.318-.708-2.0739-1.948-2.0739-1.241 0-2.103.9206-2.103 2.2095v6.3671h-2.055v-6.6578c0-1.1726-.746-1.9188-1.928-1.9188-1.241 0-2.123.9691-2.123 2.2774v6.2992z" fill="#000"/><path d="m41.5926 165.545h1.9681c.0268 1.073.8051 1.807 1.9233 1.807 1.315 0 2.0306-.788 2.0306-2.264v-9.142h2.0038v9.151c0 2.559-1.5028 4.044-4.0165 4.044-2.3259 0-3.9093-1.449-3.9093-3.596zm18.1686-6.101v9.41h-1.8518v-1.592h-.0447c-.5189 1.127-1.476 1.762-2.9163 1.762-2.0485 0-3.3009-1.332-3.3009-3.488v-6.092h1.9322v5.716c0 1.431.6799 2.201 2.0128 2.201 1.3955 0 2.2364-.967 2.2364-2.434v-5.483zm1.9859 9.41v-12.908h1.9322v12.908zm4.8575 3.507c-.1611 0-.6441-.018-.7873-.045v-1.565c.1432.036.4652.036.6262.036.8946 0 1.3777-.376 1.6729-1.342 0-.018.1699-.573.1699-.582l-3.3993-9.419h2.0933l2.3795 7.657h.0358l2.3795-7.657h2.0396l-3.5246 9.903c-.8051 2.281-1.7354 3.014-3.6855 3.014zm12.005-12.613c0-2.344 1.8964-4.044 4.4907-4.044 2.5316 0 4.2402 1.62 4.2402 3.65 0 1.485-.6978 2.514-3.0057 4.822l-2.9342 2.943v.045h6.1456v1.69h-8.8293v-1.377l4.5533-4.589c1.6997-1.736 2.0933-2.398 2.0933-3.409 0-1.189-.8946-2.12-2.2632-2.12-1.4761 0-2.5943 1.011-2.5943 2.389zm15.4222 9.348c-3.1131 0-4.9469-2.594-4.9469-6.709 0-4.088 1.8607-6.683 4.9469-6.683s4.929 2.586 4.929 6.674c0 4.115-1.8249 6.718-4.929 6.718zm0-1.682c1.8607 0 2.9073-1.896 2.9073-5.027 0-3.086-1.0645-5.001-2.9073-5.001s-2.9163 1.924-2.9163 5.001c0 3.122 1.0467 5.027 2.9163 5.027zm6.4592-7.666c0-2.344 1.896-4.044 4.49-4.044 2.532 0 4.24 1.62 4.24 3.65 0 1.485-.697 2.514-3.005 4.822l-2.934 2.943v.045h6.145v1.69h-8.829v-1.377l4.553-4.589c1.7-1.736 2.093-2.398 2.093-3.409 0-1.189-.894-2.12-2.263-2.12-1.476 0-2.594 1.011-2.594 2.389zm16.477 9.106v-2.567h-6.458v-1.744c1.109-2.076 2.585-4.393 5.483-8.597h2.899v8.659h1.78v1.682h-1.78v2.567zm-4.598-4.276v.054h4.616v-7.129h-.036c-2.236 3.202-3.551 5.242-4.58 7.075z" fill="#95a1a6"/><rect fill="#00c2ff" height="22.9008" rx="11.4504" stroke="#00c2ff" stroke-width="4.58015" width="22.9008" x="69.4668" y="93.6025"/><path d="m269.978 55.3506h-2.171v-12.1139h-4.283v-1.8703h10.728v1.8703h-4.274zm10.05-2.9946h1.986c-.291 1.8607-2.054 3.1884-4.39 3.1884-2.994 0-4.807-2.0254-4.807-5.2429 0-3.198 1.842-5.3301 4.72-5.3301 2.83 0 4.594 1.9964 4.594 5.0879v.7171h-7.201v.126c0 1.7734 1.066 2.9461 2.743 2.9461 1.192 0 2.074-.6009 2.355-1.4925zm-2.491-5.6983c-1.463 0-2.491 1.1145-2.597 2.6553h5.097c-.048-1.5602-1.037-2.6553-2.5-2.6553zm6.222 8.6929v-10.195h1.996v1.7153h.048c.456-1.1339 1.522-1.8898 2.898-1.8898 1.415 0 2.442.7269 2.849 1.9964h.049c.523-1.2405 1.725-1.9964 3.178-1.9964 2.016 0 3.334 1.3374 3.334 3.3628v7.0067h-2.103v-6.5027c0-1.318-.707-2.0739-1.948-2.0739-1.24 0-2.103.9206-2.103 2.2095v6.3671h-2.054v-6.6578c0-1.1726-.746-1.9188-1.929-1.9188-1.24 0-2.122.9691-2.122 2.2774v6.2992zm21.688-10.3598c2.588 0 4.293 2.0351 4.293 5.2623 0 3.2271-1.696 5.2719-4.254 5.2719-1.463 0-2.626-.7171-3.208-1.851h-.048v5.0491h-2.093v-13.5675h2.025v1.7541h.039c.601-1.1727 1.773-1.9189 3.246-1.9189zm-.552 8.7608c1.657 0 2.694-1.3568 2.694-3.4985 0-2.1321-1.037-3.4985-2.694-3.4985-1.599 0-2.675 1.3955-2.675 3.4985 0 2.1223 1.066 3.4985 2.675 3.4985zm6.541 1.599v-13.9842h2.094v13.9842zm7.23.1744c-1.996 0-3.392-1.2404-3.392-3.072 0-1.7832 1.366-2.8783 3.789-3.014l2.791-.1647v-.785c0-1.1339-.765-1.8122-2.045-1.8122-1.211 0-1.967.5814-2.151 1.4924h-1.977c.116-1.8413 1.686-3.1981 4.206-3.1981 2.471 0 4.051 1.3083 4.051 3.3532v7.026h-2.006v-1.6766h-.049c-.591 1.1339-1.88 1.851-3.217 1.851zm.581-1.6571c1.464 0 2.607-1.0079 2.607-2.3356v-.8044l-2.51.1551c-1.25.0872-1.957.6396-1.957 1.5118 0 .8916.736 1.4731 1.86 1.4731zm7.336-11.1254h2.103v2.4131h1.939v1.6571h-1.939v5.6209c0 .8819.388 1.2792 1.241 1.2792.213 0 .552-.0194.688-.0485v1.6572c-.233.0582-.698.0969-1.163.0969-2.064 0-2.869-.785-2.869-2.7522v-5.8535h-1.482v-1.6571h1.482zm12.269 9.6135h1.987c-.291 1.8607-2.054 3.1884-4.39 3.1884-2.995 0-4.807-2.0254-4.807-5.2429 0-3.198 1.842-5.3301 4.72-5.3301 2.83 0 4.593 1.9964 4.593 5.0879v.7171h-7.2v.126c0 1.7734 1.066 2.9461 2.742 2.9461 1.192 0 2.074-.6009 2.355-1.4925zm-2.49-5.6983c-1.464 0-2.491 1.1145-2.597 2.6553h5.097c-.048-1.5602-1.037-2.6553-2.5-2.6553zm6.037 1.3858c0-1.8219 1.59-3.0721 3.935-3.0721 2.374 0 3.915 1.318 3.983 3.1981h-1.967c-.117-.9885-.843-1.6087-2.016-1.6087-1.134 0-1.89.5524-1.89 1.3664 0 .6396.465 1.0757 1.57 1.3277l1.657.3779c2.084.4846 2.879 1.2987 2.879 2.7717 0 1.8607-1.735 3.1399-4.139 3.1399-2.548 0-4.08-1.2501-4.273-3.1884h2.074c.193 1.0661.92 1.5894 2.199 1.5894 1.26 0 2.036-.5233 2.036-1.3568 0-.659-.378-1.0466-1.493-1.2986l-1.657-.3876c-1.938-.4458-2.898-1.3762-2.898-2.8589z" fill="#000"/><path d="m275.927 155.731c3.713 0 6.048 2.568 6.048 6.674s-2.335 6.664-6.048 6.664c-3.721 0-6.047-2.558-6.047-6.664s2.326-6.674 6.047-6.674zm0 1.763c-2.451 0-3.998 1.896-3.998 4.911 0 3.005 1.547 4.902 3.998 4.902s3.99-1.897 3.99-4.902c0-3.015-1.539-4.911-3.99-4.911zm15.807 5.188h-1.843c-.196-1.002-.948-1.798-2.209-1.798-1.494 0-2.478 1.243-2.478 3.265 0 2.067.993 3.265 2.496 3.265 1.19 0 1.968-.653 2.191-1.744h1.861c-.206 2.004-1.807 3.363-4.07 3.363-2.693 0-4.446-1.842-4.446-4.884 0-2.988 1.753-4.875 4.428-4.875 2.424 0 3.9 1.556 4.07 3.408zm1.95-5.466h1.942v2.228h1.789v1.529h-1.789v5.189c0 .814.357 1.181 1.145 1.181.196 0 .509-.018.635-.045v1.53c-.215.053-.644.089-1.074.089-1.905 0-2.648-.724-2.648-2.54v-5.404h-1.368v-1.529h1.368zm8.982 2.532c0-2.344 1.896-4.044 4.49-4.044 2.532 0 4.241 1.62 4.241 3.65 0 1.485-.698 2.514-3.006 4.822l-2.934 2.943v.045h6.145v1.69h-8.829v-1.377l4.553-4.589c1.7-1.736 2.094-2.398 2.094-3.409 0-1.189-.895-2.12-2.264-2.12-1.476 0-2.594 1.011-2.594 2.389zm15.422 9.348c-3.113 0-4.947-2.594-4.947-6.709 0-4.088 1.861-6.683 4.947-6.683s4.929 2.586 4.929 6.674c0 4.115-1.825 6.718-4.929 6.718zm0-1.682c1.861 0 2.907-1.896 2.907-5.027 0-3.086-1.064-5.001-2.907-5.001s-2.916 1.924-2.916 5.001c0 3.122 1.046 5.027 2.916 5.027zm6.459-7.666c0-2.344 1.896-4.044 4.49-4.044 2.532 0 4.241 1.62 4.241 3.65 0 1.485-.698 2.514-3.006 4.822l-2.934 2.943v.045h6.145v1.69h-8.829v-1.377l4.553-4.589c1.7-1.736 2.094-2.398 2.094-3.409 0-1.189-.895-2.12-2.264-2.12-1.476 0-2.594 1.011-2.594 2.389zm16.478 9.106v-2.567h-6.459v-1.744c1.109-2.076 2.585-4.393 5.483-8.597h2.899v8.659h1.78v1.682h-1.78v2.567zm-4.599-4.276v.054h4.616v-7.129h-.035c-2.237 3.202-3.552 5.242-4.581 7.075z" fill="#95a1a6"/><rect fill="#fff" height="22.9008" rx="11.4504" stroke="#000" stroke-width="4.58015" width="22.9008" x="295.419" y="93.6025"/><path d="m466.711 51.5129h2.112c.194 1.3858 1.512 2.2193 3.373 2.2193 1.773 0 3.043-.911 3.043-2.1611 0-1.0854-.737-1.7638-2.607-2.1708l-1.522-.3198c-2.8-.5912-4.07-1.8898-4.07-3.9055 0-2.3937 2.103-4.0412 5.078-4.0412 2.966 0 4.991 1.6765 5.059 4.1187h-2.103c-.136-1.4052-1.289-2.2677-2.985-2.2677-1.638 0-2.839.7946-2.839 2.0739 0 1.0175.717 1.6959 2.529 2.0835l1.531.3198c2.927.6203 4.129 1.7929 4.129 3.828 0 2.636-2.074 4.2932-5.33 4.2932-3.16 0-5.263-1.5797-5.398-4.0703zm12.685-10.1465h5.243c2.714 0 4.603 1.8703 4.603 4.5935 0 2.7329-1.928 4.613-4.671 4.613h-3.004v4.7777h-2.171zm2.171 1.8316v5.553h2.491c1.889 0 2.965-1.0176 2.965-2.7814s-1.076-2.7716-2.956-2.7716zm17.522 12.1526-1.28-3.7795h-5.33l-1.279 3.7795h-2.258l5.049-13.9842h2.345l5.049 13.9842zm-3.974-11.6584-2.083 6.1345h4.225l-2.084-6.1345zm11.407 4.3513c0-1.8219 1.589-3.0721 3.934-3.0721 2.374 0 3.915 1.318 3.983 3.1981h-1.967c-.116-.9885-.843-1.6087-2.016-1.6087-1.134 0-1.89.5524-1.89 1.3664 0 .6396.466 1.0757 1.57 1.3277l1.658.3779c2.083.4846 2.878 1.2987 2.878 2.7717 0 1.8607-1.735 3.1399-4.138 3.1399-2.549 0-4.08-1.2501-4.274-3.1884h2.074c.194 1.0661.92 1.5894 2.2 1.5894 1.26 0 2.035-.5233 2.035-1.3568 0-.659-.378-1.0466-1.493-1.2986l-1.657-.3876c-1.938-.4458-2.897-1.3762-2.897-2.8589zm10.388-5.301h2.103v2.4131h1.939v1.6571h-1.939v5.6209c0 .8819.388 1.2792 1.241 1.2792.213 0 .552-.0194.688-.0485v1.6572c-.233.0582-.698.0969-1.163.0969-2.064 0-2.869-.785-2.869-2.7522v-5.8535h-1.482v-1.6571h1.482zm14.508 2.4131v10.195h-2.006v-1.725h-.049c-.562 1.221-1.599 1.9091-3.159 1.9091-2.219 0-3.576-1.444-3.576-3.7795v-6.5996h2.093v6.1926c0 1.5505.737 2.384 2.181 2.384 1.512 0 2.423-1.0467 2.423-2.636v-5.9406zm2.684 10.195v-8.5379h-1.405v-1.6377h1.405v-.9982c0-1.977.931-2.9074 3.005-2.9074.426 0 .901.0485 1.172.097v1.5505c-.203-.0387-.484-.0581-.765-.0581-.911 0-1.338.4555-1.338 1.3567v.9595h2.065v1.6377h-2.036v8.5379zm6.397 0v-8.5379h-1.406v-1.6377h1.406v-.9982c0-1.977.93-2.9074 3.004-2.9074.426 0 .901.0485 1.172.097v1.5505c-.203-.0387-.484-.0581-.765-.0581-.911 0-1.338.4555-1.338 1.3567v.9595h2.065v1.6377h-2.036v8.5379z" fill="#000"/><path d="m467.934 165.545h1.968c.027 1.073.805 1.807 1.924 1.807 1.315 0 2.03-.788 2.03-2.264v-9.142h2.004v9.151c0 2.559-1.503 4.044-4.017 4.044-2.325 0-3.909-1.449-3.909-3.596zm12.855 3.471c-1.843 0-3.131-1.146-3.131-2.836 0-1.646 1.261-2.657 3.498-2.782l2.576-.152v-.725c0-1.047-.707-1.673-1.887-1.673-1.119 0-1.816.537-1.986 1.378h-1.825c.107-1.7 1.556-2.952 3.882-2.952 2.281 0 3.74 1.207 3.74 3.095v6.485h-1.852v-1.547h-.045c-.546 1.047-1.735 1.709-2.97 1.709zm.537-1.53c1.351 0 2.406-.931 2.406-2.156v-.743l-2.317.144c-1.154.08-1.807.59-1.807 1.395 0 .823.68 1.36 1.718 1.36zm6.208 1.368v-9.41h1.843v1.574h.045c.51-1.073 1.511-1.735 2.961-1.735 2.075 0 3.265 1.324 3.265 3.48v6.091h-1.941v-5.716c0-1.413-.662-2.191-2.004-2.191-1.36 0-2.237.966-2.237 2.424v5.483zm13.642-9.106c0-2.344 1.897-4.044 4.491-4.044 2.531 0 4.24 1.62 4.24 3.65 0 1.485-.698 2.514-3.006 4.822l-2.934 2.943v.045h6.146v1.69h-8.83v-1.377l4.554-4.589c1.699-1.736 2.093-2.398 2.093-3.409 0-1.189-.894-2.12-2.263-2.12-1.476 0-2.594 1.011-2.594 2.389zm15.422 9.348c-3.113 0-4.947-2.594-4.947-6.709 0-4.088 1.861-6.683 4.947-6.683 3.087 0 4.929 2.586 4.929 6.674 0 4.115-1.825 6.718-4.929 6.718zm0-1.682c1.861 0 2.908-1.896 2.908-5.027 0-3.086-1.065-5.001-2.908-5.001-1.842 0-2.916 1.924-2.916 5.001 0 3.122 1.047 5.027 2.916 5.027zm6.459-7.666c0-2.344 1.897-4.044 4.491-4.044 2.531 0 4.24 1.62 4.24 3.65 0 1.485-.698 2.514-3.006 4.822l-2.934 2.943v.045h6.146v1.69h-8.83v-1.377l4.554-4.589c1.699-1.736 2.093-2.398 2.093-3.409 0-1.189-.895-2.12-2.263-2.12-1.476 0-2.594 1.011-2.594 2.389zm15.333 9.348c-2.576 0-4.455-1.574-4.571-3.829h1.914c.143 1.28 1.235 2.156 2.675 2.156 1.637 0 2.764-1.136 2.764-2.746 0-1.592-1.136-2.729-2.746-2.729-1.154 0-2.076.492-2.621 1.441h-1.754l.635-7.443h7.694v1.691h-6.074l-.394 4.088h.045c.581-.868 1.655-1.36 2.925-1.36 2.469 0 4.249 1.789 4.249 4.258 0 2.639-1.95 4.473-4.741 4.473z" fill="#95a1a6"/><rect fill="#fff" height="22.9008" rx="11.4504" stroke="#000" stroke-width="4.58015" width="22.9008" x="493.894" y="93.6025"/><path d="m666.892 55.5832c-3.925 0-6.406-2.7717-6.406-7.2296 0-4.4288 2.5-7.2198 6.406-7.2198 3.169 0 5.563 1.9479 5.931 4.8649h-2.152c-.387-1.7929-1.88-2.9655-3.779-2.9655-2.539 0-4.187 2.0836-4.187 5.3204 0 3.2659 1.628 5.3301 4.197 5.3301 1.947 0 3.333-.9982 3.769-2.6844h2.161c-.533 2.8879-2.723 4.5839-5.94 4.5839zm7.724-.2326v-13.9842h2.093v13.9842zm8.625.1938c-2.917 0-4.836-2.006-4.836-5.2913 0-3.2756 1.928-5.2817 4.836-5.2817 2.907 0 4.836 2.0061 4.836 5.2817 0 3.2853-1.919 5.2913-4.836 5.2913zm0-1.725c1.647 0 2.704-1.2986 2.704-3.5663 0-2.258-1.067-3.5566-2.704-3.5566-1.638 0-2.704 1.2986-2.704 3.5566 0 2.2677 1.066 3.5663 2.704 3.5663zm15.195-8.6638v10.195h-2.006v-1.725h-.048c-.562 1.221-1.599 1.9091-3.159 1.9091-2.22 0-3.576-1.444-3.576-3.7795v-6.5996h2.093v6.1926c0 1.5505.736 2.384 2.18 2.384 1.512 0 2.423-1.0467 2.423-2.636v-5.9406zm5.902 10.3694c-2.578 0-4.283-2.0545-4.283-5.2719 0-3.2175 1.705-5.2623 4.264-5.2623 1.463 0 2.626.7365 3.198 1.8607h.039v-5.4851h2.103v13.9842h-2.036v-1.7347h-.038c-.601 1.1629-1.764 1.9091-3.247 1.9091zm.553-8.7704c-1.658 0-2.695 1.3568-2.695 3.4985 0 2.1514 1.037 3.4985 2.695 3.4985 1.608 0 2.684-1.3665 2.684-3.4985 0-2.1127-1.076-3.4985-2.684-3.4985zm10.766 1.2889c0-1.8219 1.59-3.0721 3.935-3.0721 2.374 0 3.915 1.318 3.983 3.1981h-1.967c-.117-.9885-.843-1.6087-2.016-1.6087-1.134 0-1.89.5524-1.89 1.3664 0 .6396.465 1.0757 1.57 1.3277l1.657.3779c2.084.4846 2.879 1.2987 2.879 2.7717 0 1.8607-1.735 3.1399-4.139 3.1399-2.548 0-4.079-1.2501-4.273-3.1884h2.074c.193 1.0661.92 1.5894 2.199 1.5894 1.26 0 2.036-.5233 2.036-1.3568 0-.659-.378-1.0466-1.493-1.2986l-1.657-.3876c-1.938-.4458-2.898-1.3762-2.898-2.8589zm10.389-5.301h2.103v2.4131h1.938v1.6571h-1.938v5.6209c0 .8819.388 1.2792 1.241 1.2792.213 0 .552-.0194.688-.0485v1.6572c-.233.0582-.698.0969-1.163.0969-2.064 0-2.869-.785-2.869-2.7522v-5.8535h-1.483v-1.6571h1.483zm14.508 2.4131v10.195h-2.006v-1.725h-.049c-.562 1.221-1.599 1.9091-3.159 1.9091-2.219 0-3.576-1.444-3.576-3.7795v-6.5996h2.093v6.1926c0 1.5505.737 2.384 2.181 2.384 1.512 0 2.422-1.0467 2.422-2.636v-5.9406zm2.684 10.195v-8.5379h-1.405v-1.6377h1.405v-.9982c0-1.977.931-2.9074 3.004-2.9074.427 0 .902.0485 1.173.097v1.5505c-.203-.0387-.485-.0581-.766-.0581-.911 0-1.337.4555-1.337 1.3567v.9595h2.064v1.6377h-2.035v8.5379zm6.396 0v-8.5379h-1.405v-1.6377h1.405v-.9982c0-1.977.931-2.9074 3.005-2.9074.426 0 .901.0485 1.172.097v1.5505c-.203-.0387-.484-.0581-.765-.0581-.911 0-1.338.4555-1.338 1.3567v.9595h2.064v1.6377h-2.035v8.5379z" fill="#000"/><path d="m678.541 168.854-1.18-3.488h-4.921l-1.18 3.488h-2.085l4.661-12.908h2.165l4.66 12.908zm-3.667-10.761-1.924 5.662h3.901l-1.924-5.662zm11.879 1.199c2.389 0 3.963 1.878 3.963 4.857s-1.565 4.867-3.927 4.867c-1.351 0-2.424-.662-2.961-1.709h-.045v4.661h-1.932v-12.524h1.87v1.619h.036c.554-1.083 1.637-1.771 2.996-1.771zm-.509 8.086c1.529 0 2.486-1.252 2.486-3.229 0-1.968-.957-3.229-2.486-3.229-1.476 0-2.469 1.288-2.469 3.229 0 1.959.984 3.229 2.469 3.229zm5.966 1.476v-9.41h1.843v1.601h.045c.313-1.1 1.154-1.753 2.263-1.753.277 0 .519.044.662.071v1.798c-.152-.062-.492-.107-.868-.107-1.243 0-2.012.832-2.012 2.165v5.635zm9.67-9.106c0-2.344 1.897-4.044 4.491-4.044 2.532 0 4.24 1.62 4.24 3.65 0 1.485-.697 2.514-3.005 4.822l-2.935 2.943v.045h6.146v1.69h-8.829v-1.377l4.553-4.589c1.7-1.736 2.093-2.398 2.093-3.409 0-1.189-.894-2.12-2.263-2.12-1.476 0-2.594 1.011-2.594 2.389zm15.423 9.348c-3.113 0-4.947-2.594-4.947-6.709 0-4.088 1.86-6.683 4.947-6.683 3.086 0 4.929 2.586 4.929 6.674 0 4.115-1.825 6.718-4.929 6.718zm0-1.682c1.86 0 2.907-1.896 2.907-5.027 0-3.086-1.065-5.001-2.907-5.001-1.843 0-2.917 1.924-2.917 5.001 0 3.122 1.047 5.027 2.917 5.027zm6.458-7.666c0-2.344 1.897-4.044 4.491-4.044 2.532 0 4.24 1.62 4.24 3.65 0 1.485-.697 2.514-3.005 4.822l-2.935 2.943v.045h6.146v1.69h-8.829v-1.377l4.553-4.589c1.7-1.736 2.093-2.398 2.093-3.409 0-1.189-.894-2.12-2.263-2.12-1.476 0-2.594 1.011-2.594 2.389zm15.333 9.348c-2.576 0-4.455-1.574-4.571-3.829h1.914c.143 1.28 1.235 2.156 2.675 2.156 1.637 0 2.764-1.136 2.764-2.746 0-1.592-1.136-2.729-2.746-2.729-1.154 0-2.075.492-2.621 1.441h-1.753l.635-7.443h7.693v1.691h-6.074l-.394 4.088h.045c.581-.868 1.655-1.36 2.925-1.36 2.469 0 4.249 1.789 4.249 4.258 0 2.639-1.95 4.473-4.741 4.473z" fill="#95a1a6"/><rect fill="#fff" height="22.9008" rx="11.4504" stroke="#000" stroke-width="4.58015" width="22.9008" x="695.42" y="93.6025"/></g></svg>