<svg fill="none" height="377" viewBox="0 0 630 377" width="630" xmlns="http://www.w3.org/2000/svg"><rect height="376" rx="9.5" stroke="#e1e1e1" width="629" x=".5" y=".5"/><path d="m55.0078 164.727v7.117c0 1.539.9453 2.586 2.6172 2.586s2.625-1.047 2.625-2.586v-7.117h2.0078v7.296c0 2.461-1.7734 4.165-4.6328 4.165-2.8516 0-4.6328-1.704-4.6328-4.165v-7.296zm8.6016 11.273 3.6718-5.648v-.055l-3.6406-5.57h2.3828l2.6094 4.234h.0625l2.6406-4.234h2.2579l-3.7579 5.617v.054l3.6953 5.602h-2.3203l-2.6562-4.141h-.0625l-2.6875 4.141zm17.4218.133c-2.0859 0-3.4374-1.649-3.4374-4.281 0-2.618 1.3515-4.274 3.4374-4.274 1.1876 0 2.125.617 2.5626 1.531h.0468v-4.382h1.9453v11.273h-1.9062v-1.414h-.0313c-.4531.93-1.4062 1.547-2.6172 1.547zm.586-6.953c-1.25 0-2.0313 1.039-2.0313 2.679 0 1.649.7735 2.68 2.0313 2.68 1.2266 0 2.0312-1.039 2.0312-2.68 0-1.625-.8046-2.679-2.0312-2.679zm11.0859 4.343h1.8203c-.25 1.563-1.7031 2.641-3.664 2.641-2.4844 0-3.9844-1.633-3.9844-4.273 0-2.618 1.5156-4.344 3.9062-4.344 2.3516 0 3.8204 1.633 3.8204 4.148v.633h-5.7891v.117c0 1.328.8125 2.219 2.0859 2.219.9063 0 1.5938-.453 1.8047-1.141zm-1.914-4.468c-1.0938 0-1.8829.836-1.961 1.992h3.8672c-.0391-1.172-.7891-1.992-1.9062-1.992zm12.2809-1.336-2.914 8.281h-2.1404l-2.9375-8.281h2.0781l1.9219 6.476h.0391l1.9218-6.476zm6.149 5.804h1.82c-.25 1.563-1.703 2.641-3.664 2.641-2.484 0-3.984-1.633-3.984-4.273 0-2.618 1.515-4.344 3.906-4.344 2.351 0 3.82 1.633 3.82 4.148v.633h-5.789v.117c0 1.328.813 2.219 2.086 2.219.906 0 1.594-.453 1.805-1.141zm-1.914-4.468c-1.094 0-1.883.836-1.961 1.992h3.867c-.039-1.172-.789-1.992-1.906-1.992zm5.125 6.945v-11.273h1.945v11.273zm7.265.164c-2.429 0-4.007-1.617-4.007-4.305 0-2.671 1.593-4.312 4.007-4.312s4.008 1.633 4.008 4.312c0 2.688-1.578 4.305-4.008 4.305zm0-1.539c1.235 0 2.032-1 2.032-2.766 0-1.757-.797-2.765-2.032-2.765-1.226 0-2.031 1.008-2.031 2.765 0 1.766.797 2.766 2.031 2.766zm9.805-7.047c2.102 0 3.438 1.633 3.438 4.281 0 2.641-1.329 4.274-3.407 4.274-1.203 0-2.14-.578-2.593-1.508h-.04v4.102h-1.945v-11.008h1.899v1.429h.039c.468-.96 1.406-1.57 2.609-1.57zm-.594 6.961c1.258 0 2.039-1.039 2.039-2.68 0-1.632-.781-2.679-2.039-2.679-1.211 0-2.015 1.07-2.023 2.679.008 1.625.812 2.68 2.023 2.68zm10.766-1.016h1.82c-.25 1.563-1.703 2.641-3.664 2.641-2.484 0-3.984-1.633-3.984-4.273 0-2.618 1.515-4.344 3.906-4.344 2.352 0 3.82 1.633 3.82 4.148v.633h-5.789v.117c0 1.328.813 2.219 2.086 2.219.906 0 1.594-.453 1.805-1.141zm-1.914-4.468c-1.094 0-1.883.836-1.961 1.992h3.867c-.039-1.172-.789-1.992-1.906-1.992zm5.07 6.945v-8.281h1.867v1.445h.039c.282-1.008 1.008-1.586 1.985-1.586.25 0 .469.047.609.078v1.758c-.164-.062-.461-.109-.789-.109-1.101 0-1.766.711-1.766 1.875v4.82zm5.352-5.906c0-1.516 1.32-2.547 3.32-2.547 2.016 0 3.297 1.086 3.344 2.656h-1.813c-.078-.75-.633-1.226-1.531-1.226-.859 0-1.43.406-1.43 1.015 0 .477.344.805 1.211 1l1.375.305c1.719.383 2.383 1.047 2.383 2.25 0 1.562-1.437 2.617-3.469 2.617-2.164 0-3.445-1.031-3.601-2.633h1.914c.148.805.703 1.211 1.687 1.211.946 0 1.532-.39 1.532-1.008 0-.5-.297-.781-1.164-.976l-1.376-.305c-1.585-.351-2.382-1.133-2.382-2.359z" fill="#000"/><path d="m492.061 188.061c.585-.586.585-1.536 0-2.122l-9.546-9.546c-.586-.585-1.536-.585-2.122 0-.585.586-.585 1.536 0 2.122l8.486 8.485-8.486 8.485c-.585.586-.585 1.536 0 2.122.586.585 1.536.585 2.122 0zm-440.061.439h439v-3h-439z" fill="#008ff6"/><path d="m61.4629 212h-1.3184v-4.812h-5.8007v4.812h-1.3184v-10.569h1.3184v4.57h5.8007v-4.57h1.3184zm6.0425 0h-1.3184v-9.382h-3.3325v-1.187h7.9834v1.187h-3.3325zm15.1391 0h-1.2304v-8.145h-.0513l-3.3691 8.145h-1.1133l-3.3692-8.145h-.0512v8.145h-1.2305v-10.569h1.5308l3.6474 8.892h.0586l3.6475-8.892h1.5307zm8.4668-1.187v1.187h-6.416v-10.569h1.3184v9.382zm2.1241 3.289h-1.0621l.7105-3.728h1.355zm9.8286-1.926c-2.915 0-4.7603-2.117-4.7603-5.464 0-3.318 1.8673-5.457 4.7603-5.457 2.3 0 4.051 1.399 4.388 3.509h-1.333c-.337-1.385-1.546-2.293-3.055-2.293-2.065 0-3.4053 1.67-3.4053 4.241 0 2.593 1.3253 4.248 3.4133 4.248 1.553 0 2.666-.747 3.047-2.036h1.333c-.484 2.087-2.051 3.252-4.388 3.252zm5.435-3.01h1.318c.154 1.135 1.209 1.823 2.725 1.823 1.436 0 2.476-.754 2.476-1.794 0-.886-.586-1.472-2.051-1.795l-1.172-.256c-2.117-.461-3.032-1.421-3.032-2.922 0-1.743 1.538-2.967 3.728-2.967 2.109 0 3.633 1.26 3.691 3.055h-1.318c-.117-1.158-1.033-1.868-2.41-1.868-1.318 0-2.336.644-2.336 1.721 0 .835.564 1.406 2.007 1.721l1.171.257c2.205.483 3.077 1.362 3.077 2.856 0 1.956-1.539 3.179-3.904 3.179-2.307 0-3.845-1.187-3.97-3.01zm8.906 0h1.319c.153 1.135 1.208 1.823 2.724 1.823 1.436 0 2.476-.754 2.476-1.794 0-.886-.586-1.472-2.051-1.795l-1.172-.256c-2.117-.461-3.032-1.421-3.032-2.922 0-1.743 1.538-2.967 3.728-2.967 2.109 0 3.633 1.26 3.691 3.055h-1.318c-.117-1.158-1.033-1.868-2.41-1.868-1.318 0-2.336.644-2.336 1.721 0 .835.564 1.406 2.007 1.721l1.172.257c2.204.483 3.076 1.362 3.076 2.856 0 1.956-1.538 3.179-3.904 3.179-2.307 0-3.845-1.187-3.97-3.01zm10.093 4.936h-1.062l.71-3.728h1.355zm9.873-2.102h-1.318v-10.569h1.318zm1.853 0v-7.617h1.201v1.216h.03c.424-.821 1.237-1.348 2.417-1.348 1.67 0 2.636 1.077 2.636 2.805v4.944h-1.274v-4.717c0-1.23-.579-1.904-1.751-1.904-1.201 0-1.984.85-1.984 2.139v4.482zm8.32-9.456h1.275v1.839h1.479v1.047h-1.479v4.527c0 .695.293 1.01.945 1.01.146 0 .439-.022.527-.036v1.069c-.154.037-.505.059-.806.059-1.399 0-1.941-.572-1.941-2.037v-4.592h-1.135v-1.047h1.135zm8.951 7.273h1.252c-.22 1.333-1.509 2.315-3.171 2.315-2.183 0-3.509-1.516-3.509-3.911 0-2.366 1.348-3.97 3.45-3.97 2.058 0 3.325 1.494 3.325 3.801v.484h-5.464v.073c0 1.457.857 2.417 2.227 2.417.967 0 1.677-.491 1.89-1.209zm-2-4.46c-1.194 0-2.029.915-2.109 2.183h4.138c-.029-1.275-.828-2.183-2.029-2.183zm4.636 6.643v-7.617h1.202v1.245h.029c.249-.842.952-1.377 1.846-1.377.219 0 .41.037.512.051v1.238c-.102-.037-.373-.073-.681-.073-.989 0-1.633.71-1.633 1.787v4.746zm6.709.132c-1.516 0-2.534-.916-2.534-2.285 0-1.304 1.004-2.124 2.761-2.227l2.183-.124v-.638c0-.93-.615-1.486-1.67-1.486-.981 0-1.597.461-1.758 1.208h-1.23c.088-1.318 1.216-2.329 3.017-2.329 1.787 0 2.915.967 2.915 2.483v5.266h-1.208v-1.311h-.029c-.454.872-1.421 1.443-2.447 1.443zm.286-1.084c1.201 0 2.124-.842 2.124-1.941v-.623l-2.036.125c-1.026.066-1.611.52-1.611 1.238 0 .725.607 1.201 1.523 1.201zm11.345-4.168h-1.245c-.183-.827-.828-1.508-1.948-1.508-1.319 0-2.212 1.091-2.212 2.819 0 1.773.908 2.82 2.226 2.82 1.041 0 1.722-.549 1.941-1.465h1.253c-.198 1.516-1.472 2.586-3.201 2.586-2.109 0-3.515-1.487-3.515-3.941 0-2.402 1.398-3.94 3.501-3.94 1.904 0 3.039 1.26 3.2 2.629zm1.597-4.336h1.274v1.839h1.48v1.047h-1.48v4.527c0 .695.293 1.01.945 1.01.147 0 .44-.022.527-.036v1.069c-.153.037-.505.059-.805.059-1.399 0-1.941-.572-1.941-2.037v-4.592h-1.135v-1.047h1.135zm4.819.484c-.439 0-.798-.359-.798-.799 0-.446.359-.798.798-.798.447 0 .799.352.799.798 0 .44-.352.799-.799.799zm-.637 8.972v-7.617h1.274v7.617zm6.152.132c-2.109 0-3.53-1.516-3.53-3.941 0-2.431 1.421-3.94 3.53-3.94 2.102 0 3.523 1.509 3.523 3.94 0 2.425-1.421 3.941-3.523 3.941zm0-1.121c1.348 0 2.227-1.025 2.227-2.82 0-1.794-.879-2.819-2.227-2.819-1.347 0-2.234 1.025-2.234 2.819 0 1.795.887 2.82 2.234 2.82zm4.812.989v-7.617h1.202v1.216h.029c.425-.821 1.238-1.348 2.417-1.348 1.67 0 2.637 1.077 2.637 2.805v4.944h-1.275v-4.717c0-1.23-.578-1.904-1.75-1.904-1.202 0-1.985.85-1.985 2.139v4.482zm7.779-5.515c0-1.304 1.15-2.234 2.798-2.234 1.669 0 2.783.981 2.834 2.329h-1.216c-.095-.798-.681-1.289-1.618-1.289-.931 0-1.546.461-1.546 1.128 0 .527.388.886 1.238 1.091l1.208.293c1.538.374 2.095.974 2.095 2.066 0 1.325-1.252 2.263-2.952 2.263-1.787 0-2.9-.901-3.046-2.329h1.274c.154.871.74 1.289 1.772 1.289 1.033 0 1.67-.44 1.67-1.128 0-.549-.3-.864-1.171-1.077l-1.209-.293c-1.436-.344-2.131-1.011-2.131-2.109zm7.99 7.617h-1.062l.711-3.728h1.355zm9.471-2.102h-3.992v-10.569h4.006c1.809 0 3.032 1.055 3.032 2.637 0 1.099-.805 2.124-1.823 2.307v.059c1.435.183 2.358 1.193 2.358 2.6 0 1.86-1.333 2.966-3.581 2.966zm-2.674-9.404v3.391h1.978c1.56 0 2.409-.623 2.409-1.765 0-1.048-.717-1.626-1.999-1.626zm0 8.239h2.476c1.589 0 2.424-.644 2.424-1.867s-.864-1.846-2.549-1.846h-2.351zm7.552 1.165v-7.617h1.201v1.245h.029c.249-.842.952-1.377 1.846-1.377.219 0 .41.037.512.051v1.238c-.102-.037-.373-.073-.681-.073-.989 0-1.633.71-1.633 1.787v4.746zm6.709.132c-1.517 0-2.535-.916-2.535-2.285 0-1.304 1.004-2.124 2.762-2.227l2.182-.124v-.638c0-.93-.615-1.486-1.67-1.486-.981 0-1.596.461-1.758 1.208h-1.23c.088-1.318 1.216-2.329 3.018-2.329 1.787 0 2.915.967 2.915 2.483v5.266h-1.209v-1.311h-.029c-.454.872-1.421 1.443-2.446 1.443zm.285-1.084c1.201 0 2.124-.842 2.124-1.941v-.623l-2.036.125c-1.025.066-1.611.52-1.611 1.238 0 .725.608 1.201 1.523 1.201zm5.017.952v-7.617h1.201v1.216h.03c.425-.821 1.238-1.348 2.417-1.348 1.67 0 2.636 1.077 2.636 2.805v4.944h-1.274v-4.717c0-1.23-.579-1.904-1.75-1.904-1.202 0-1.985.85-1.985 2.139v4.482zm10.796.132c-1.941 0-3.259-1.553-3.259-3.941 0-2.387 1.311-3.94 3.23-3.94 1.091 0 1.97.535 2.424 1.37h.029v-4.19h1.275v10.569h-1.216v-1.289h-.022c-.491.879-1.362 1.421-2.461 1.421zm.242-6.76c-1.348 0-2.197 1.098-2.197 2.819 0 1.729.849 2.82 2.197 2.82 1.311 0 2.19-1.113 2.19-2.82 0-1.699-.879-2.819-2.19-2.819zm5.881-2.344c-.439 0-.798-.359-.798-.799 0-.446.359-.798.798-.798.447 0 .799.352.799.798 0 .44-.352.799-.799.799zm-.637 8.972v-7.617h1.274v7.617zm2.996 0v-7.617h1.201v1.216h.029c.425-.821 1.238-1.348 2.417-1.348 1.67 0 2.637 1.077 2.637 2.805v4.944h-1.275v-4.717c0-1.23-.578-1.904-1.75-1.904-1.201 0-1.985.85-1.985 2.139v4.482zm11.052 2.871c-1.677 0-3.003-.945-3.215-2.241h1.311c.249.696 1.003 1.157 1.955 1.157 1.318 0 2.117-.762 2.117-1.897v-1.201h-.029c-.469.828-1.37 1.37-2.439 1.37-1.941 0-3.216-1.531-3.216-3.897 0-2.388 1.275-3.911 3.245-3.911 1.077 0 1.97.527 2.475 1.414h.022v-1.282h1.216v7.463c0 1.817-1.34 3.025-3.442 3.025zm-.044-3.933c1.326 0 2.212-1.099 2.212-2.776s-.886-2.79-2.212-2.79c-1.311 0-2.168 1.084-2.168 2.79 0 1.707.857 2.776 2.168 2.776zm6.02 3.164h-1.062l.711-3.728h1.355zm5.479-12.671h3.552c3.135 0 4.988 1.956 4.988 5.281 0 3.332-1.846 5.288-4.988 5.288h-3.552zm1.318 1.187v8.195h2.146c2.395 0 3.728-1.464 3.728-4.086 0-2.644-1.325-4.109-3.728-4.109zm13.719 7.199h1.252c-.22 1.333-1.509 2.315-3.171 2.315-2.183 0-3.509-1.516-3.509-3.911 0-2.366 1.348-3.97 3.45-3.97 2.058 0 3.325 1.494 3.325 3.801v.484h-5.464v.073c0 1.457.857 2.417 2.227 2.417.967 0 1.677-.491 1.89-1.209zm-2-4.46c-1.194 0-2.029.915-2.109 2.183h4.138c-.029-1.275-.828-2.183-2.029-2.183zm4.504 1.128c0-1.304 1.15-2.234 2.798-2.234 1.67 0 2.783.981 2.835 2.329h-1.216c-.095-.798-.681-1.289-1.619-1.289-.93 0-1.545.461-1.545 1.128 0 .527.388.886 1.238 1.091l1.208.293c1.538.374 2.095.974 2.095 2.066 0 1.325-1.253 2.263-2.952 2.263-1.787 0-2.9-.901-3.047-2.329h1.275c.154.871.74 1.289 1.772 1.289 1.033 0 1.67-.44 1.67-1.128 0-.549-.3-.864-1.172-1.077l-1.208-.293c-1.436-.344-2.132-1.011-2.132-2.109zm7.823-3.457c-.44 0-.799-.359-.799-.799 0-.446.359-.798.799-.798.446 0 .798.352.798.798 0 .44-.352.799-.798.799zm-.638 8.972v-7.617h1.275v7.617zm6.138 2.871c-1.677 0-3.003-.945-3.215-2.241h1.311c.249.696 1.003 1.157 1.955 1.157 1.319 0 2.117-.762 2.117-1.897v-1.201h-.029c-.469.828-1.37 1.37-2.439 1.37-1.941 0-3.215-1.531-3.215-3.897 0-2.388 1.274-3.911 3.244-3.911 1.077 0 1.97.527 2.476 1.414h.022v-1.282h1.216v7.463c0 1.817-1.341 3.025-3.443 3.025zm-.044-3.933c1.326 0 2.212-1.099 2.212-2.776s-.886-2.79-2.212-2.79c-1.311 0-2.168 1.084-2.168 2.79 0 1.707.857 2.776 2.168 2.776zm5.149 1.062v-7.617h1.201v1.216h.03c.424-.821 1.237-1.348 2.417-1.348 1.67 0 2.636 1.077 2.636 2.805v4.944h-1.274v-4.717c0-1.23-.579-1.904-1.751-1.904-1.201 0-1.984.85-1.984 2.139v4.482zm12.063.073c-.469 0-.835-.366-.835-.835 0-.468.366-.835.835-.835s.835.367.835.835c0 .469-.366.835-.835.835zm3.809 0c-.469 0-.835-.366-.835-.835 0-.468.366-.835.835-.835s.835.367.835.835c0 .469-.366.835-.835.835zm3.808 0c-.468 0-.835-.366-.835-.835 0-.468.367-.835.835-.835.469 0 .835.367.835.835 0 .469-.366.835-.835.835z" fill="#000" opacity=".5"/><path d="m56.8516 66.1875c-3.2188 0-5.2422-2.2109-5.2422-5.8281 0-3.5938 2.039-5.8203 5.2422-5.8203 2.6172 0 4.6093 1.6328 4.8593 4.0547h-1.9843c-.2657-1.4141-1.4141-2.3438-2.875-2.3438-1.9375 0-3.1797 1.5938-3.1797 4.1094 0 2.5312 1.2343 4.1172 3.1875 4.1172 1.4922 0 2.5625-.8047 2.875-2.1641h1.9765c-.3515 2.4141-2.1953 3.875-4.8593 3.875zm9.8593-.0234c-2.4297 0-4.0078-1.6172-4.0078-4.3047 0-2.6719 1.5938-4.3125 4.0078-4.3125 2.4141 0 4.0079 1.6328 4.0079 4.3125 0 2.6875-1.5782 4.3047-4.0079 4.3047zm0-1.5391c1.2344 0 2.0313-1 2.0313-2.7656 0-1.7578-.7969-2.7656-2.0313-2.7656-1.2265 0-2.0312 1.0078-2.0312 2.7656 0 1.7656.7969 2.7656 2.0312 2.7656zm5.2579 1.375v-8.2812h1.8671v1.4218h.0391c.4453-.9844 1.3281-1.5781 2.6016-1.5781 1.8281 0 2.8672 1.1719 2.8672 3.0859v5.3516h-1.9454v-4.9609c0-1.1719-.5468-1.8282-1.6562-1.8282-1.1172 0-1.8281.8047-1.8281 1.9922v4.7969zm9.4765-10.2188h1.9453v1.9376h1.5625v1.5h-1.5625v4.3046c0 .6797.3125.9922 1 .9922.1797 0 .4297-.0156.5547-.039v1.4843c-.2109.0469-.5937.0782-1.0078.0782-1.7891 0-2.4922-.6329-2.4922-2.2422v-4.5781h-1.1875v-1.5h1.1875zm10.1641 7.7422h1.8203c-.25 1.5625-1.7031 2.6407-3.6641 2.6407-2.4844 0-3.9844-1.6329-3.9844-4.2735 0-2.6172 1.5157-4.3437 3.9063-4.3437 2.3516 0 3.8203 1.6328 3.8203 4.1484v.6328h-5.789v.1172c0 1.3281.8124 2.2188 2.0859 2.2188.9062 0 1.5937-.4532 1.8047-1.1407zm-1.9141-4.4687c-1.0937 0-1.8828.8359-1.9609 1.9922h3.8672c-.0391-1.1719-.7891-1.9922-1.9063-1.9922zm5.0703 6.9453v-8.2812h1.8672v1.4218h.0391c.4453-.9844 1.3281-1.5781 2.6015-1.5781 1.8286 0 2.8676 1.1719 2.8676 3.0859v5.3516h-1.946v-4.9609c0-1.1719-.5466-1.8282-1.6559-1.8282-1.1172 0-1.8282.8047-1.8282 1.9922v4.7969zm9.4764-10.2188h1.946v1.9376h1.562v1.5h-1.562v4.3046c0 .6797.312.9922 1 .9922.179 0 .429-.0156.554-.039v1.4843c-.211.0469-.594.0782-1.008.0782-1.789 0-2.492-.6329-2.492-2.2422v-4.5781h-1.187v-1.5h1.187zm12.586 1.7969c2.102 0 3.438 1.6328 3.438 4.2813 0 2.6406-1.328 4.2734-3.407 4.2734-1.203 0-2.14-.5781-2.593-1.5078h-.039v4.1016h-1.946v-11.0078h1.899v1.4296h.039c.469-.9609 1.406-1.5703 2.609-1.5703zm-.594 6.961c1.258 0 2.039-1.0391 2.039-2.6797 0-1.6328-.781-2.6797-2.039-2.6797-1.211 0-2.015 1.0703-2.023 2.6797.008 1.625.812 2.6797 2.023 2.6797zm10.766-1.0157h1.82c-.25 1.5625-1.703 2.6407-3.664 2.6407-2.484 0-3.984-1.6329-3.984-4.2735 0-2.6172 1.516-4.3437 3.906-4.3437 2.352 0 3.82 1.6328 3.82 4.1484v.6328h-5.789v.1172c0 1.3281.813 2.2188 2.086 2.2188.907 0 1.594-.4532 1.805-1.1407zm-1.914-4.4687c-1.094 0-1.883.8359-1.961 1.9922h3.867c-.039-1.1719-.789-1.9922-1.906-1.9922zm8.734 7.1094c-2.429 0-4.008-1.6172-4.008-4.3047 0-2.6719 1.594-4.3125 4.008-4.3125s4.008 1.6328 4.008 4.3125c0 2.6875-1.578 4.3047-4.008 4.3047zm0-1.5391c1.235 0 2.032-1 2.032-2.7656 0-1.7578-.797-2.7656-2.032-2.7656-1.226 0-2.031 1.0078-2.031 2.7656 0 1.7656.797 2.7656 2.031 2.7656zm9.805-7.0469c2.102 0 3.437 1.6328 3.437 4.2813 0 2.6406-1.328 4.2734-3.406 4.2734-1.203 0-2.14-.5781-2.594-1.5078h-.039v4.1016h-1.945v-11.0078h1.899v1.4296h.039c.468-.9609 1.406-1.5703 2.609-1.5703zm-.594 6.961c1.258 0 2.039-1.0391 2.039-2.6797 0-1.6328-.781-2.6797-2.039-2.6797-1.211 0-2.015 1.0703-2.023 2.6797.008 1.625.812 2.6797 2.023 2.6797zm5.336 1.4609v-11.2734h1.945v11.2734zm9.086-2.4766h1.82c-.25 1.5625-1.703 2.6407-3.664 2.6407-2.484 0-3.984-1.6329-3.984-4.2735 0-2.6172 1.516-4.3437 3.906-4.3437 2.352 0 3.821 1.6328 3.821 4.1484v.6328h-5.79v.1172c0 1.3281.813 2.2188 2.086 2.2188.907 0 1.594-.4532 1.805-1.1407zm-1.914-4.4687c-1.094 0-1.883.8359-1.961 1.9922h3.867c-.039-1.1719-.789-1.9922-1.906-1.9922z" fill="#000"/><path d="m580.061 77.5607c.585-.5858.585-1.5356 0-2.1214l-9.546-9.5459c-.586-.5858-1.536-.5858-2.122 0-.585.5858-.585 1.5355 0 2.1213l8.486 8.4853-8.486 8.4853c-.585.5858-.585 1.5355 0 2.1213.586.5858 1.536.5858 2.122 0zm-528.061.4393h527v-3h-527z" fill="#008ff6"/><path d="m52.5127 99.1655h1.3184c.1538 1.1355 1.2085 1.8235 2.7246 1.8235 1.4355 0 2.4755-.754 2.4755-1.7942 0-.8862-.5859-1.4721-2.0507-1.7944l-1.1719-.2564c-2.1167-.4614-3.0322-1.4209-3.0322-2.9223 0-1.7432 1.5381-2.9663 3.728-2.9663 2.1094 0 3.6328 1.2597 3.6914 3.0542h-1.3184c-.1171-1.1573-1.0327-1.8677-2.4096-1.8677-1.3184 0-2.3365.6445-2.3365 1.7212 0 .8349.564 1.4062 2.0069 1.7212l1.1719.2563c2.2045.4834 3.0761 1.3623 3.0761 2.8565 0 1.9559-1.5381 3.1789-3.9038 3.1789-2.3071 0-3.8452-1.187-3.9697-3.0105zm9.6313-6.6211h1.2745v1.8384h1.4794v1.0474h-1.4794v4.5263c0 .6955.2929 1.0105.9448 1.0105.1465 0 .4394-.022.5273-.036v1.069c-.1538.037-.5053.059-.8056.059-1.399 0-1.941-.572-1.941-2.037v-4.5918h-1.1352v-1.0474h1.1352zm7.0533 9.5876c-2.1094 0-3.5303-1.516-3.5303-3.9406 0-2.4316 1.4209-3.9404 3.5303-3.9404 2.102 0 3.5229 1.5088 3.5229 3.9404 0 2.4246-1.4209 3.9406-3.5229 3.9406zm0-1.121c1.3476 0 2.2265-1.0252 2.2265-2.8196s-.8789-2.8198-2.2265-2.8198c-1.3477 0-2.2339 1.0254-2.2339 2.8198s.8862 2.8196 2.2339 2.8196zm4.812.989v-7.6172h1.2011v1.2451h.0293c.2491-.8423.9522-1.3769 1.8457-1.3769.2198 0 .4102.0366.5127.0512v1.2378c-.1025-.0366-.3735-.0732-.6811-.0732-.9888 0-1.6333.7104-1.6333 1.7871v4.7461zm5.2661 2.849c-.1538 0-.4102-.015-.5493-.044v-1.069c.1391.029.3369.036.498.036.7105 0 1.106-.344 1.3989-1.23l.1758-.535-2.8125-7.6242h1.3623l2.1094 6.3432h.022l2.1094-6.3432h1.3403l-2.9956 8.1522c-.6519 1.779-1.2818 2.314-2.6587 2.314zm7.0679-12.3046h1.2744v1.8384h1.4795v1.0474h-1.4795v4.5263c0 .6955.2929 1.0105.9448 1.0105.1465 0 .4395-.022.5273-.036v1.069c-.1538.037-.5053.059-.8056.059-1.3989 0-1.9409-.572-1.9409-2.037v-4.5918h-1.1353v-1.0474h1.1353zm8.9502 7.273h1.2524c-.2197 1.3326-1.5088 2.3146-3.1714 2.3146-2.1826 0-3.5083-1.516-3.5083-3.9113 0-2.3657 1.3477-3.9697 3.4497-3.9697 2.0581 0 3.3252 1.4941 3.3252 3.8012v.4834h-5.4639v.0733c0 1.4571.857 2.4171 2.2266 2.4171.9668 0 1.6773-.491 1.8897-1.2086zm-1.9996-4.4605c-1.1938 0-2.0288.9156-2.1093 2.1827h4.1382c-.0293-1.2745-.8277-2.1827-2.0289-2.1827zm4.7022 6.6431v-10.5688h1.2744v10.5688zm3.0619 0v-10.5688h1.274v10.5688zm3.698-8.9722c-.439 0-.798-.3589-.798-.7983 0-.4468.359-.7983.798-.7983.447 0 .799.3515.799.7983 0 .4394-.352.7983-.799.7983zm-.637 8.9722v-7.6172h1.275v7.6172zm2.996 0v-7.6172h1.201v1.2158h.029c.425-.8203 1.238-1.3476 2.417-1.3476 1.67 0 2.637 1.0766 2.637 2.8052v4.9438h-1.274v-4.7168c0-1.2305-.579-1.9043-1.751-1.9043-1.201 0-1.985.8496-1.985 2.1387v4.4824zm11.052 2.871c-1.677 0-3.003-.945-3.215-2.241h1.311c.249.696 1.003 1.157 1.955 1.157 1.319 0 2.117-.762 2.117-1.897v-1.201h-.029c-.469.828-1.37 1.37-2.439 1.37-1.941 0-3.216-1.531-3.216-3.8969 0-2.3877 1.275-3.9111 3.245-3.9111 1.077 0 1.97.5273 2.476 1.4136h.022v-1.2818h1.215v7.4632c0 1.817-1.34 3.025-3.442 3.025zm-.044-3.933c1.326 0 2.212-1.0986 2.212-2.7759 0-1.6772-.886-2.7905-2.212-2.7905-1.311 0-2.168 1.084-2.168 2.7905 0 1.7066.857 2.7759 2.168 2.7759zm6.021 3.164h-1.062l.71-3.728h1.355zm6.796-2.102h-1.318v-10.5688h1.318zm1.853 0v-7.6172h1.202v1.2158h.029c.425-.8203 1.238-1.3476 2.417-1.3476 1.67 0 2.637 1.0766 2.637 2.8052v4.9438h-1.275v-4.7168c0-1.2305-.578-1.9043-1.75-1.9043-1.201 0-1.985.8496-1.985 2.1387v4.4824zm8.321-9.4556h1.274v1.8384h1.48v1.0474h-1.48v4.5263c0 .6955.293 1.0105.945 1.0105.146 0 .439-.022.527-.036v1.069c-.153.037-.505.059-.805.059-1.399 0-1.941-.572-1.941-2.037v-4.5918h-1.135v-1.0474h1.135zm8.95 7.273h1.252c-.219 1.3326-1.508 2.3146-3.171 2.3146-2.183 0-3.508-1.516-3.508-3.9113 0-2.3657 1.347-3.9697 3.449-3.9697 2.059 0 3.326 1.4941 3.326 3.8012v.4834h-5.464v.0733c0 1.4571.857 2.4171 2.226 2.4171.967 0 1.678-.491 1.89-1.2086zm-2-4.4605c-1.193 0-2.028.9156-2.109 2.1827h4.138c-.029-1.2745-.827-2.1827-2.029-2.1827zm4.637 6.6431v-7.6172h1.201v1.2451h.029c.249-.8423.952-1.3769 1.846-1.3769.22 0 .41.0366.513.0512v1.2378c-.103-.0366-.374-.0732-.682-.0732-.988 0-1.633.7104-1.633 1.7871v4.7461zm6.709.132c-1.516 0-2.535-.916-2.535-2.2853 0-1.3037 1.004-2.124 2.762-2.2266l2.182-.1245v-.6372c0-.9302-.615-1.4868-1.67-1.4868-.981 0-1.596.4614-1.757 1.2085h-1.231c.088-1.3184 1.216-2.3291 3.018-2.3291 1.787 0 2.915.9668 2.915 2.4829v5.2661h-1.209v-1.311h-.029c-.454.872-1.421 1.443-2.446 1.443zm.285-1.084c1.201 0 2.124-.842 2.124-1.9411v-.6225l-2.036.1245c-1.025.0659-1.611.52-1.611 1.2378 0 .7253.608 1.2013 1.523 1.2013zm11.346-4.1676h-1.246c-.183-.8277-.827-1.5088-1.948-1.5088-1.318 0-2.212 1.0913-2.212 2.8198 0 1.7725.908 2.8196 2.227 2.8196 1.04 0 1.721-.549 1.941-1.4646h1.252c-.198 1.5156-1.472 2.5856-3.201 2.5856-2.109 0-3.515-1.487-3.515-3.9406 0-2.4023 1.399-3.9404 3.501-3.9404 1.904 0 3.039 1.2597 3.201 2.6294zm1.596-4.336h1.275v1.8384h1.479v1.0474h-1.479v4.5263c0 .6955.293 1.0105.944 1.0105.147 0 .44-.022.528-.036v1.069c-.154.037-.506.059-.806.059-1.399 0-1.941-.572-1.941-2.037v-4.5918h-1.135v-1.0474h1.135zm4.82.4834c-.44 0-.799-.3589-.799-.7983 0-.4468.359-.7983.799-.7983.446 0 .798.3515.798.7983 0 .4394-.352.7983-.798.7983zm-.638 8.9722v-7.6172h1.275v7.6172zm9.243-7.6172-2.797 7.6172h-1.304l-2.805-7.6172h1.34l2.102 6.2622h.029l2.11-6.2622zm5.838 5.4346h1.252c-.219 1.3326-1.508 2.3146-3.171 2.3146-2.183 0-3.508-1.516-3.508-3.9113 0-2.3657 1.347-3.9697 3.449-3.9697 2.058 0 3.326 1.4941 3.326 3.8012v.4834h-5.464v.0733c0 1.4571.857 2.4171 2.226 2.4171.967 0 1.678-.491 1.89-1.2086zm-2-4.4605c-1.193 0-2.028.9156-2.109 2.1827h4.138c-.029-1.2745-.827-2.1827-2.029-2.1827zm14.041 1.5235h-1.245c-.183-.8277-.828-1.5088-1.948-1.5088-1.319 0-2.212 1.0913-2.212 2.8198 0 1.7725.908 2.8196 2.226 2.8196 1.04 0 1.721-.549 1.941-1.4646h1.253c-.198 1.5156-1.473 2.5856-3.201 2.5856-2.109 0-3.516-1.487-3.516-3.9406 0-2.4023 1.399-3.9404 3.501-3.9404 1.905 0 3.04 1.2597 3.201 2.6294zm4.343 5.2516c-2.109 0-3.53-1.516-3.53-3.9406 0-2.4316 1.421-3.9404 3.53-3.9404 2.102 0 3.523 1.5088 3.523 3.9404 0 2.4246-1.421 3.9406-3.523 3.9406zm0-1.121c1.348 0 2.227-1.0252 2.227-2.8196s-.879-2.8198-2.227-2.8198c-1.347 0-2.234 1.0254-2.234 2.8198s.887 2.8196 2.234 2.8196zm4.812.989v-7.6172h1.201v1.2158h.03c.424-.8203 1.237-1.3476 2.417-1.3476 1.67 0 2.636 1.0766 2.636 2.8052v4.9438h-1.274v-4.7168c0-1.2305-.579-1.9043-1.751-1.9043-1.201 0-1.984.8496-1.984 2.1387v4.4824zm8.321-9.4556h1.274v1.8384h1.479v1.0474h-1.479v4.5263c0 .6955.293 1.0105.945 1.0105.146 0 .439-.022.527-.036v1.069c-.154.037-.505.059-.806.059-1.399 0-1.94-.572-1.94-2.037v-4.5918h-1.136v-1.0474h1.136zm8.95 7.273h1.252c-.22 1.3326-1.509 2.3146-3.171 2.3146-2.183 0-3.509-1.516-3.509-3.9113 0-2.3657 1.348-3.9697 3.45-3.9697 2.058 0 3.325 1.4941 3.325 3.8012v.4834h-5.464v.0733c0 1.4571.857 2.4171 2.227 2.4171.967 0 1.677-.491 1.89-1.2086zm-2-4.4605c-1.194 0-2.029.9156-2.109 2.1827h4.138c-.029-1.2745-.828-2.1827-2.029-2.1827zm4.636 6.6431v-7.6172h1.202v1.2158h.029c.425-.8203 1.238-1.3476 2.417-1.3476 1.67 0 2.637 1.0766 2.637 2.8052v4.9438h-1.275v-4.7168c0-1.2305-.578-1.9043-1.75-1.9043-1.201 0-1.985.8496-1.985 2.1387v4.4824zm8.321-9.4556h1.274v1.8384h1.48v1.0474h-1.48v4.5263c0 .6955.293 1.0105.945 1.0105.146 0 .439-.022.527-.036v1.069c-.153.037-.505.059-.805.059-1.399 0-1.941-.572-1.941-2.037v-4.5918h-1.136v-1.0474h1.136zm4.988 11.5576h-1.062l.71-3.728h1.355zm9.47-2.102h-1.319v-9.3823h-3.332v-1.1865h7.983v1.1865h-3.332zm7.602-2.1826h1.253c-.22 1.3326-1.509 2.3146-3.172 2.3146-2.182 0-3.508-1.516-3.508-3.9113 0-2.3657 1.348-3.9697 3.45-3.9697 2.058 0 3.325 1.4941 3.325 3.8012v.4834h-5.464v.0733c0 1.4571.857 2.4171 2.227 2.4171.966 0 1.677-.491 1.889-1.2086zm-1.999-4.4605c-1.194 0-2.029.9156-2.11 2.1827h4.139c-.03-1.2745-.828-2.1827-2.029-2.1827zm10.964 1.5235h-1.245c-.183-.8277-.828-1.5088-1.948-1.5088-1.319 0-2.212 1.0913-2.212 2.8198 0 1.7725.908 2.8196 2.226 2.8196 1.04 0 1.722-.549 1.941-1.4646h1.253c-.198 1.5156-1.472 2.5856-3.201 2.5856-2.109 0-3.516-1.487-3.516-3.9406 0-2.4023 1.399-3.9404 3.501-3.9404 1.905 0 3.04 1.2597 3.201 2.6294zm1.253 5.1196v-10.5688h1.274v4.1674h.029c.425-.8496 1.26-1.3476 2.417-1.3476 1.67 0 2.681 1.1279 2.681 2.8271v4.9219h-1.274v-4.6875c0-1.2085-.608-1.9336-1.802-1.9336-1.267 0-2.051.8643-2.051 2.1826v4.4385zm8.02 0v-7.6172h1.201v1.2158h.029c.425-.8203 1.238-1.3476 2.417-1.3476 1.67 0 2.637 1.0766 2.637 2.8052v4.9438h-1.275v-4.7168c0-1.2305-.578-1.9043-1.75-1.9043-1.201 0-1.985.8496-1.985 2.1387v4.4824zm8.613-8.9722c-.44 0-.798-.3589-.798-.7983 0-.4468.358-.7983.798-.7983.447 0 .798.3515.798.7983 0 .4394-.351.7983-.798.7983zm-.637 8.9722v-7.6172h1.274v7.6172zm9.323-5.1196h-1.245c-.183-.8277-.827-1.5088-1.948-1.5088-1.318 0-2.212 1.0913-2.212 2.8198 0 1.7725.908 2.8196 2.227 2.8196 1.04 0 1.721-.549 1.941-1.4646h1.252c-.198 1.5156-1.472 2.5856-3.201 2.5856-2.109 0-3.515-1.487-3.515-3.9406 0-2.4023 1.399-3.9404 3.501-3.9404 1.904 0 3.039 1.2597 3.2 2.6294zm3.413 5.2516c-1.516 0-2.534-.916-2.534-2.2853 0-1.3037 1.004-2.124 2.762-2.2266l2.182-.1245v-.6372c0-.9302-.615-1.4868-1.67-1.4868-.981 0-1.596.4614-1.758 1.2085h-1.23c.088-1.3184 1.216-2.3291 3.018-2.3291 1.787 0 2.915.9668 2.915 2.4829v5.2661h-1.209v-1.311h-.029c-.454.872-1.421 1.443-2.447 1.443zm.286-1.084c1.201 0 2.124-.842 2.124-1.9411v-.6225l-2.036.1245c-1.025.0659-1.611.52-1.611 1.2378 0 .7253.608 1.2013 1.523 1.2013zm5.083.952v-10.5688h1.275v10.5688zm8.958.132c-1.941 0-3.26-1.553-3.26-3.9406 0-2.3877 1.311-3.9404 3.23-3.9404 1.092 0 1.971.5346 2.425 1.3696h.029v-4.1894h1.274v10.5688h-1.215v-1.289h-.022c-.491.879-1.363 1.421-2.461 1.421zm.241-6.7604c-1.347 0-2.197 1.0986-2.197 2.8198 0 1.7285.85 2.8196 2.197 2.8196 1.311 0 2.19-1.1131 2.19-2.8196 0-1.6992-.879-2.8198-2.19-2.8198zm8.335 6.7604c-2.109 0-3.53-1.516-3.53-3.9406 0-2.4316 1.421-3.9404 3.53-3.9404 2.102 0 3.523 1.5088 3.523 3.9404 0 2.4246-1.421 3.9406-3.523 3.9406zm0-1.121c1.348 0 2.227-1.0252 2.227-2.8196s-.879-2.8198-2.227-2.8198c-1.347 0-2.234 1.0254-2.234 2.8198s.887 2.8196 2.234 2.8196zm11.14-4.1306h-1.245c-.183-.8277-.827-1.5088-1.948-1.5088-1.318 0-2.212 1.0913-2.212 2.8198 0 1.7725.908 2.8196 2.227 2.8196 1.04 0 1.721-.549 1.941-1.4646h1.252c-.198 1.5156-1.472 2.5856-3.201 2.5856-2.109 0-3.515-1.487-3.515-3.9406 0-2.4023 1.399-3.9404 3.501-3.9404 1.904 0 3.039 1.2597 3.2 2.6294zm7.442-2.4976v7.6172h-1.209v-1.238h-.029c-.454.879-1.245 1.37-2.417 1.37-1.663 0-2.637-1.077-2.637-2.8053v-4.9439h1.275v4.7168c0 1.2374.578 1.9044 1.758 1.9044 1.237 0 1.984-.85 1.984-2.1461v-4.4751zm1.655 7.6172v-7.6172h1.201v1.2158h.03c.358-.8056 1.135-1.3476 2.16-1.3476 1.04 0 1.809.5273 2.139 1.4502h.029c.425-.9082 1.319-1.4502 2.388-1.4502 1.509 0 2.483.9814 2.483 2.4902v5.2588h-1.275v-4.9658c0-1.0401-.578-1.6553-1.582-1.6553-1.01 0-1.721.7471-1.721 1.7798v4.8413h-1.274v-5.105c0-.9155-.615-1.5161-1.56-1.5161-1.011 0-1.743.791-1.743 1.8457v4.7754zm17.109-2.1826h1.253c-.22 1.3326-1.509 2.3146-3.171 2.3146-2.183 0-3.509-1.516-3.509-3.9113 0-2.3657 1.348-3.9697 3.45-3.9697 2.058 0 3.325 1.4941 3.325 3.8012v.4834h-5.464v.0733c0 1.4571.857 2.4171 2.227 2.4171.967 0 1.677-.491 1.889-1.2086zm-1.999-4.4605c-1.194 0-2.029.9156-2.109 2.1827h4.138c-.03-1.2745-.828-2.1827-2.029-2.1827zm4.636 6.6431v-7.6172h1.201v1.2158h.03c.424-.8203 1.237-1.3476 2.417-1.3476 1.67 0 2.636 1.0766 2.636 2.8052v4.9438h-1.274v-4.7168c0-1.2305-.579-1.9043-1.751-1.9043-1.201 0-1.984.8496-1.984 2.1387v4.4824zm8.321-9.4556h1.274v1.8384h1.479v1.0474h-1.479v4.5263c0 .6955.293 1.0105.945 1.0105.146 0 .439-.022.527-.036v1.069c-.154.037-.505.059-.806.059-1.398 0-1.94-.572-1.94-2.037v-4.5918h-1.136v-1.0474h1.136zm6.196 9.5876c-1.516 0-2.534-.916-2.534-2.2853 0-1.3037 1.003-2.124 2.761-2.2266l2.182-.1245v-.6372c0-.9302-.615-1.4868-1.669-1.4868-.982 0-1.597.4614-1.758 1.2085h-1.231c.088-1.3184 1.216-2.3291 3.018-2.3291 1.787 0 2.915.9668 2.915 2.4829v5.2661h-1.209v-1.311h-.029c-.454.872-1.421 1.443-2.446 1.443zm.285-1.084c1.202 0 2.124-.842 2.124-1.9411v-.6225l-2.036.1245c-1.025.0659-1.611.52-1.611 1.2378 0 .7253.608 1.2013 1.523 1.2013zm5.428-8.5036h1.274v1.8384h1.48v1.0474h-1.48v4.5263c0 .6955.293 1.0105.945 1.0105.146 0 .439-.022.527-.036v1.069c-.154.037-.505.059-.805.059-1.399 0-1.941-.572-1.941-2.037v-4.5918h-1.136v-1.0474h1.136zm4.819.4834c-.439 0-.798-.3589-.798-.7983 0-.4468.359-.7983.798-.7983.447 0 .798.3515.798.7983 0 .4394-.351.7983-.798.7983zm-.637 8.9722v-7.6172h1.274v7.6172zm6.152.132c-2.109 0-3.53-1.516-3.53-3.9406 0-2.4316 1.421-3.9404 3.53-3.9404 2.102 0 3.523 1.5088 3.523 3.9404 0 2.4246-1.421 3.9406-3.523 3.9406zm0-1.121c1.348 0 2.227-1.0252 2.227-2.8196s-.879-2.8198-2.227-2.8198c-1.347 0-2.234 1.0254-2.234 2.8198s.887 2.8196 2.234 2.8196zm4.812.989v-7.6172h1.201v1.2158h.03c.424-.8203 1.237-1.3476 2.417-1.3476 1.67 0 2.636 1.0766 2.636 2.8052v4.9438h-1.274v-4.7168c0-1.2305-.579-1.9043-1.751-1.9043-1.201 0-1.984.8496-1.984 2.1387v4.4824zm8.782 2.102h-1.062l.71-3.728h1.355zm9.47-2.102h-3.992v-10.5688h4.007c1.809 0 3.032 1.0546 3.032 2.6367 0 1.0986-.806 2.124-1.824 2.3071v.0586c1.436.1831 2.359 1.1938 2.359 2.6001 0 1.8603-1.333 2.9663-3.582 2.9663zm-2.673-9.4043v3.3911h1.977c1.56 0 2.41-.6225 2.41-1.7651 0-1.0474-.718-1.626-2-1.626zm0 8.2393h2.475c1.59 0 2.425-.644 2.425-1.8672s-.865-1.8457-2.549-1.8457h-2.351zm7.617 1.165v-10.5688h1.274v10.5688zm6.152.132c-2.109 0-3.53-1.516-3.53-3.9406 0-2.4316 1.421-3.9404 3.53-3.9404 2.102 0 3.523 1.5088 3.523 3.9404 0 2.4246-1.421 3.9406-3.523 3.9406zm0-1.121c1.348 0 2.227-1.0252 2.227-2.8196s-.879-2.8198-2.227-2.8198c-1.347 0-2.234 1.0254-2.234 2.8198s.887 2.8196 2.234 2.8196zm7.954 3.86c-1.677 0-3.002-.945-3.215-2.241h1.311c.249.696 1.004 1.157 1.956 1.157 1.318 0 2.116-.762 2.116-1.897v-1.201h-.029c-.469.828-1.37 1.37-2.439 1.37-1.941 0-3.215-1.531-3.215-3.8969 0-2.3877 1.274-3.9111 3.244-3.9111 1.077 0 1.971.5273 2.476 1.4136h.022v-1.2818h1.216v7.4632c0 1.817-1.341 3.025-3.443 3.025zm-.044-3.933c1.326 0 2.212-1.0986 2.212-2.7759 0-1.6772-.886-2.7905-2.212-2.7905-1.311 0-2.167 1.084-2.167 2.7905 0 1.7066.856 2.7759 2.167 2.7759zm8.292 3.933c-1.678 0-3.003-.945-3.216-2.241h1.311c.249.696 1.004 1.157 1.956 1.157 1.318 0 2.116-.762 2.116-1.897v-1.201h-.029c-.469.828-1.369 1.37-2.439 1.37-1.941 0-3.215-1.531-3.215-3.8969 0-2.3877 1.274-3.9111 3.245-3.9111 1.076 0 1.97.5273 2.475 1.4136h.022v-1.2818h1.216v7.4632c0 1.817-1.34 3.025-3.442 3.025zm-.044-3.933c1.325 0 2.211-1.0986 2.211-2.7759 0-1.6772-.886-2.7905-2.211-2.7905-1.311 0-2.168 1.084-2.168 2.7905 0 1.7066.857 2.7759 2.168 2.7759zm5.852-7.9102c-.44 0-.799-.3589-.799-.7983 0-.4468.359-.7983.799-.7983.446 0 .798.3515.798.7983 0 .4394-.352.7983-.798.7983zm-.638 8.9722v-7.6172h1.275v7.6172zm2.996 0v-7.6172h1.201v1.2158h.029c.425-.8203 1.238-1.3476 2.417-1.3476 1.67 0 2.637 1.0766 2.637 2.8052v4.9438h-1.274v-4.7168c0-1.2305-.579-1.9043-1.751-1.9043-1.201 0-1.985.8496-1.985 2.1387v4.4824zm11.052 2.871c-1.677 0-3.003-.945-3.215-2.241h1.311c.249.696 1.003 1.157 1.956 1.157 1.318 0 2.116-.762 2.116-1.897v-1.201h-.029c-.469.828-1.37 1.37-2.439 1.37-1.941 0-3.215-1.531-3.215-3.8969 0-2.3877 1.274-3.9111 3.244-3.9111 1.077 0 1.97.5273 2.476 1.4136h.022v-1.2818h1.216v7.4632c0 1.817-1.341 3.025-3.443 3.025zm-.044-3.933c1.326 0 2.212-1.0986 2.212-2.7759 0-1.6772-.886-2.7905-2.212-2.7905-1.311 0-2.168 1.084-2.168 2.7905 0 1.7066.857 2.7759 2.168 2.7759zm6.021 3.164h-1.062l.71-3.728h1.355zm6.357-2.029c-.469 0-.835-.366-.835-.835 0-.468.366-.835.835-.835s.835.367.835.835c0 .469-.366.835-.835.835zm3.809 0c-.469 0-.835-.366-.835-.835 0-.468.366-.835.835-.835s.835.367.835.835c0 .469-.366.835-.835.835zm3.808 0c-.468 0-.835-.366-.835-.835 0-.468.367-.835.835-.835.469 0 .835.367.835.835 0 .469-.366.835-.835.835z" fill="#000" opacity=".5"/><path d="m51.2734 282.922h1.961c.0234.93.664 1.555 1.6015 1.555 1.0782 0 1.6641-.657 1.6641-1.875v-7.875h2.0078v7.89c0 2.297-1.3594 3.625-3.6484 3.625-2.1485 0-3.586-1.32-3.586-3.32zm11.5235 3.211c-1.6016 0-2.7657-1.008-2.7657-2.5 0-1.469 1.1329-2.352 3.1485-2.477l2.1875-.125v-.593c0-.868-.586-1.368-1.5469-1.368-.9219 0-1.5078.446-1.6328 1.133h-1.8047c.086-1.547 1.4063-2.656 3.5156-2.656 2.0547 0 3.3907 1.086 3.3907 2.75v5.703h-1.875v-1.32h-.0391c-.4766.898-1.5156 1.453-2.5781 1.453zm.5859-1.469c1.1016 0 1.9844-.734 1.9844-1.734v-.633l-1.9141.117c-.9375.063-1.4765.484-1.4765 1.141 0 .679.5625 1.109 1.4062 1.109zm12.7344-6.945-2.9141 8.281h-2.1406l-2.9375-8.281h2.0781l1.9219 6.476h.0391l1.9218-6.476zm3.1484 8.414c-1.6015 0-2.7656-1.008-2.7656-2.5 0-1.469 1.1328-2.352 3.1484-2.477l2.1875-.125v-.593c0-.868-.5859-1.368-1.5468-1.368-.9219 0-1.5079.446-1.6329 1.133h-1.8046c.0859-1.547 1.4062-2.656 3.5156-2.656 2.0547 0 3.3906 1.086 3.3906 2.75v5.703h-1.875v-1.32h-.039c-.4766.898-1.5157 1.453-2.5782 1.453zm.586-1.469c1.1015 0 1.9843-.734 1.9843-1.734v-.633l-1.914.117c-.9375.063-1.4766.484-1.4766 1.141 0 .679.5625 1.109 1.4063 1.109zm5.2031-1.812h1.9297c.1484 1.039 1.164 1.664 2.5703 1.664 1.3594 0 2.3047-.672 2.3047-1.61 0-.812-.5625-1.312-2.0313-1.617l-1.2109-.25c-2.2578-.461-3.3125-1.523-3.3125-3.172 0-1.984 1.7422-3.328 4.1875-3.328 2.4922 0 4.1406 1.359 4.1875 3.375h-1.9297c-.0938-1.062-.9844-1.703-2.2734-1.703-1.25 0-2.1407.594-2.1407 1.539 0 .766.5625 1.258 1.9688 1.555l1.2187.25c2.375.492 3.3672 1.445 3.3672 3.117 0 2.156-1.6953 3.516-4.4062 3.516-2.6094 0-4.336-1.274-4.4297-3.336zm17.4453-2.18h-1.836c-.156-.883-.7734-1.547-1.8124-1.547-1.2266 0-2.0157 1.031-2.0157 2.734 0 1.735.7969 2.735 2.0313 2.735.9844 0 1.6248-.563 1.8048-1.5h1.836c-.156 1.851-1.586 3.07-3.6642 3.07-2.4219 0-3.9844-1.617-3.9844-4.305 0-2.648 1.5625-4.312 3.9687-4.312 2.1879 0 3.5389 1.383 3.6719 3.125zm1.172 5.328v-8.281h1.867v1.445h.039c.281-1.008 1.008-1.586 1.984-1.586.25 0 .469.047.61.078v1.758c-.164-.062-.461-.109-.789-.109-1.102 0-1.766.711-1.766 1.875v4.82zm6.516-9.531c-.594 0-1.071-.477-1.071-1.055 0-.586.477-1.055 1.071-1.055.593 0 1.062.469 1.062 1.055 0 .578-.469 1.055-1.062 1.055zm-.969 9.531v-8.281h1.945v8.281zm8.125-8.422c2.101 0 3.437 1.633 3.437 4.281 0 2.641-1.328 4.274-3.406 4.274-1.203 0-2.141-.578-2.594-1.508h-.039v4.102h-1.945v-11.008h1.898v1.429h.039c.469-.96 1.407-1.57 2.61-1.57zm-.594 6.961c1.258 0 2.039-1.039 2.039-2.68 0-1.632-.781-2.679-2.039-2.679-1.211 0-2.016 1.07-2.023 2.679.007 1.625.812 2.68 2.023 2.68zm5.82-8.758h1.946v1.938h1.562v1.5h-1.562v4.304c0 .68.312.993 1 .993.179 0 .429-.016.554-.039v1.484c-.211.047-.593.078-1.008.078-1.789 0-2.492-.633-2.492-2.242v-4.578h-1.187v-1.5h1.187zm11.133 10.352c-2.086 0-3.437-1.649-3.437-4.281 0-2.618 1.351-4.274 3.437-4.274 1.188 0 2.125.617 2.563 1.531h.046v-4.382h1.946v11.273h-1.906v-1.414h-.032c-.453.93-1.406 1.547-2.617 1.547zm.586-6.953c-1.25 0-2.031 1.039-2.031 2.679 0 1.649.773 2.68 2.031 2.68 1.227 0 2.031-1.039 2.031-2.68 0-1.625-.804-2.679-2.031-2.679zm11.086 4.343h1.82c-.25 1.563-1.703 2.641-3.664 2.641-2.484 0-3.984-1.633-3.984-4.273 0-2.618 1.515-4.344 3.906-4.344 2.352 0 3.82 1.633 3.82 4.148v.633h-5.789v.117c0 1.328.813 2.219 2.086 2.219.907 0 1.594-.453 1.805-1.141zm-1.914-4.468c-1.094 0-1.883.836-1.961 1.992h3.867c-.039-1.172-.789-1.992-1.906-1.992zm12.281-1.336-2.914 8.281h-2.14l-2.938-8.281h2.078l1.922 6.476h.039l1.922-6.476zm6.149 5.804h1.82c-.25 1.563-1.703 2.641-3.664 2.641-2.485 0-3.985-1.633-3.985-4.273 0-2.618 1.516-4.344 3.907-4.344 2.351 0 3.82 1.633 3.82 4.148v.633h-5.789v.117c0 1.328.812 2.219 2.086 2.219.906 0 1.594-.453 1.805-1.141zm-1.914-4.468c-1.094 0-1.883.836-1.961 1.992h3.867c-.039-1.172-.789-1.992-1.906-1.992zm5.125 6.945v-11.273h1.945v11.273zm7.265.164c-2.429 0-4.008-1.617-4.008-4.305 0-2.671 1.594-4.312 4.008-4.312s4.008 1.633 4.008 4.312c0 2.688-1.578 4.305-4.008 4.305zm0-1.539c1.235 0 2.031-1 2.031-2.766 0-1.757-.796-2.765-2.031-2.765-1.226 0-2.031 1.008-2.031 2.765 0 1.766.797 2.766 2.031 2.766zm9.805-7.047c2.101 0 3.437 1.633 3.437 4.281 0 2.641-1.328 4.274-3.406 4.274-1.203 0-2.141-.578-2.594-1.508h-.039v4.102h-1.945v-11.008h1.898v1.429h.039c.469-.96 1.407-1.57 2.61-1.57zm-.594 6.961c1.258 0 2.039-1.039 2.039-2.68 0-1.632-.781-2.679-2.039-2.679-1.211 0-2.016 1.07-2.023 2.679.007 1.625.812 2.68 2.023 2.68zm10.766-1.016h1.82c-.25 1.563-1.703 2.641-3.664 2.641-2.484 0-3.984-1.633-3.984-4.273 0-2.618 1.515-4.344 3.906-4.344 2.351 0 3.82 1.633 3.82 4.148v.633h-5.789v.117c0 1.328.813 2.219 2.086 2.219.906 0 1.594-.453 1.805-1.141zm-1.914-4.468c-1.094 0-1.883.836-1.961 1.992h3.867c-.039-1.172-.789-1.992-1.906-1.992zm5.07 6.945v-8.281h1.867v1.445h.039c.282-1.008 1.008-1.586 1.985-1.586.25 0 .468.047.609.078v1.758c-.164-.062-.461-.109-.789-.109-1.102 0-1.766.711-1.766 1.875v4.82zm5.352-5.906c0-1.516 1.32-2.547 3.32-2.547 2.016 0 3.297 1.086 3.344 2.656h-1.813c-.078-.75-.633-1.226-1.531-1.226-.86 0-1.43.406-1.43 1.015 0 .477.344.805 1.211 1l1.375.305c1.719.383 2.383 1.047 2.383 2.25 0 1.562-1.438 2.617-3.469 2.617-2.164 0-3.445-1.031-3.601-2.633h1.914c.148.805.703 1.211 1.687 1.211.946 0 1.531-.39 1.531-1.008 0-.5-.296-.781-1.164-.976l-1.375-.305c-1.586-.351-2.382-1.133-2.382-2.359z" fill="#000"/><path d="m534.061 299.061c.585-.586.585-1.536 0-2.122l-9.546-9.546c-.586-.585-1.536-.585-2.122 0-.585.586-.585 1.536 0 2.122l8.486 8.485-8.486 8.485c-.585.586-.585 1.536 0 2.122.586.585 1.536.585 2.122 0zm-482.061.439h481v-3h-481z" fill="#008ff6"/><path d="m52.0254 311.431h3.5522c3.1348 0 4.9878 1.956 4.9878 5.281 0 3.332-1.8457 5.288-4.9878 5.288h-3.5522zm1.3184 1.187v8.195h2.1459c2.3951 0 3.7281-1.464 3.7281-4.086 0-2.644-1.3257-4.109-3.7281-4.109zm10.8911 9.514c-1.5161 0-2.5342-.916-2.5342-2.285 0-1.304 1.0034-2.124 2.7612-2.227l2.1826-.124v-.638c0-.93-.6152-1.486-1.6699-1.486-.9814 0-1.5967.461-1.7578 1.208h-1.2305c.0879-1.318 1.2158-2.329 3.0176-2.329 1.7871 0 2.915.967 2.915 2.483v5.266h-1.2085v-1.311h-.0292c-.4541.872-1.4209 1.443-2.4463 1.443zm.2856-1.084c1.2012 0 2.124-.842 2.124-1.941v-.623l-2.0361.125c-1.0254.066-1.6113.52-1.6113 1.238 0 .725.6079 1.201 1.5234 1.201zm5.4273-8.504h1.2744v1.839h1.4795v1.047h-1.4795v4.527c0 .695.2929 1.01.9448 1.01.1465 0 .4394-.022.5273-.036v1.069c-.1538.037-.5053.059-.8056.059-1.399 0-1.9409-.572-1.9409-2.037v-4.592h-1.1353v-1.047h1.1353zm6.1962 9.588c-1.5161 0-2.5341-.916-2.5341-2.285 0-1.304 1.0034-2.124 2.7612-2.227l2.1826-.124v-.638c0-.93-.6152-1.486-1.6699-1.486-.9815 0-1.5967.461-1.7578 1.208h-1.2305c.0879-1.318 1.2158-2.329 3.0176-2.329 1.7871 0 2.915.967 2.915 2.483v5.266h-1.2085v-1.311h-.0293c-.4541.872-1.4209 1.443-2.4463 1.443zm.2857-1.084c1.2012 0 2.124-.842 2.124-1.941v-.623l-2.0361.125c-1.0254.066-1.6114.52-1.6114 1.238 0 .725.608 1.201 1.5235 1.201zm8.0932.952v-7.617h1.2012v1.216h.0293c.3589-.806 1.1353-1.348 2.1607-1.348 1.04 0 1.809.527 2.1386 1.45h.0293c.4248-.908 1.3184-1.45 2.3877-1.45 1.5088 0 2.4829.981 2.4829 2.49v5.259h-1.2744v-4.966c0-1.04-.5786-1.655-1.582-1.655-1.0108 0-1.7212.747-1.7212 1.78v4.841h-1.2744v-5.105c0-.916-.6152-1.516-1.5601-1.516-1.0107 0-1.7431.791-1.7431 1.846v4.775zm15.2125.132c-2.1094 0-3.5303-1.516-3.5303-3.941 0-2.431 1.4209-3.94 3.5303-3.94 2.1016 0 3.5226 1.509 3.5226 3.94 0 2.425-1.421 3.941-3.5226 3.941zm0-1.121c1.3476 0 2.2266-1.025 2.2266-2.82 0-1.794-.879-2.819-2.2266-2.819-1.3477 0-2.2339 1.025-2.2339 2.819 0 1.795.8862 2.82 2.2339 2.82zm7.6976 1.121c-1.941 0-3.259-1.553-3.259-3.941 0-2.387 1.311-3.94 3.23-3.94 1.091 0 1.97.535 2.424 1.37h.029v-4.19h1.275v10.569h-1.216v-1.289h-.022c-.491.879-1.362 1.421-2.461 1.421zm.242-6.76c-1.348 0-2.197 1.098-2.197 2.819 0 1.729.849 2.82 2.197 2.82 1.311 0 2.19-1.113 2.19-2.82 0-1.699-.879-2.819-2.19-2.819zm10.232 4.445h1.252c-.22 1.333-1.509 2.315-3.171 2.315-2.183 0-3.509-1.516-3.509-3.911 0-2.366 1.348-3.97 3.45-3.97 2.058 0 3.325 1.494 3.325 3.801v.484h-5.463v.073c0 1.457.856 2.417 2.226 2.417.967 0 1.677-.491 1.89-1.209zm-2-4.46c-1.194 0-2.029.915-2.109 2.183h4.138c-.029-1.275-.828-2.183-2.029-2.183zm4.702 6.643v-10.569h1.275v10.569zm2.864-5.515c0-1.304 1.15-2.234 2.798-2.234 1.67 0 2.783.981 2.834 2.329h-1.215c-.096-.798-.682-1.289-1.619-1.289-.93 0-1.545.461-1.545 1.128 0 .527.388.886 1.237 1.091l1.209.293c1.538.374 2.095.974 2.095 2.066 0 1.325-1.253 2.263-2.952 2.263-1.787 0-2.9-.901-3.047-2.329h1.274c.154.871.74 1.289 1.773 1.289s1.67-.44 1.67-1.128c0-.549-.3-.864-1.172-1.077l-1.209-.293c-1.435-.344-2.131-1.011-2.131-2.109zm7.991 7.617h-1.062l.71-3.728h1.355zm6.782-2.102h-1.304v-10.569h1.282l5.786 8.298h.066v-8.298h1.304v10.569h-1.282l-5.786-8.269h-.066zm14.041-2.183h1.252c-.22 1.333-1.509 2.315-3.171 2.315-2.183 0-3.509-1.516-3.509-3.911 0-2.366 1.348-3.97 3.45-3.97 2.058 0 3.325 1.494 3.325 3.801v.484h-5.464v.073c0 1.457.857 2.417 2.227 2.417.967 0 1.677-.491 1.89-1.209zm-2-4.46c-1.194 0-2.029.915-2.109 2.183h4.138c-.029-1.275-.828-2.183-2.029-2.183zm5.046-2.813h1.275v1.839h1.479v1.047h-1.479v4.527c0 .695.293 1.01.945 1.01.146 0 .439-.022.527-.036v1.069c-.154.037-.505.059-.806.059-1.399 0-1.941-.572-1.941-2.037v-4.592h-1.135v-1.047h1.135zm13.807 1.839-2.124 7.617h-1.297l-1.721-5.896h-.029l-1.714 5.896h-1.297l-2.131-7.617h1.267l1.524 6.196h.029l1.721-6.196h1.231l1.728 6.196h.029l1.524-6.196zm4.204 7.749c-2.11 0-3.531-1.516-3.531-3.941 0-2.431 1.421-3.94 3.531-3.94 2.102 0 3.523 1.509 3.523 3.94 0 2.425-1.421 3.941-3.523 3.941zm0-1.121c1.347 0 2.226-1.025 2.226-2.82 0-1.794-.879-2.819-2.226-2.819-1.348 0-2.234 1.025-2.234 2.819 0 1.795.886 2.82 2.234 2.82zm4.812.989v-7.617h1.201v1.245h.029c.249-.842.952-1.377 1.846-1.377.22 0 .41.037.513.051v1.238c-.103-.037-.374-.073-.682-.073-.988 0-1.633.71-1.633 1.787v4.746zm5.969-2.871v2.871h-1.274v-10.569h1.274v6.336l3.369-3.384h1.546l-3.304 3.288 3.406 4.329h-1.479l-2.828-3.545zm6.643-6.101c-.439 0-.798-.359-.798-.799 0-.446.359-.798.798-.798.447 0 .798.352.798.798 0 .44-.351.799-.798.799zm-.637 8.972v-7.617h1.274v7.617zm2.995 0v-7.617h1.202v1.216h.029c.425-.821 1.238-1.348 2.417-1.348 1.67 0 2.637 1.077 2.637 2.805v4.944h-1.275v-4.717c0-1.23-.578-1.904-1.75-1.904-1.201 0-1.985.85-1.985 2.139v4.482zm11.053 2.871c-1.678 0-3.003-.945-3.216-2.241h1.311c.249.696 1.004 1.157 1.956 1.157 1.318 0 2.117-.762 2.117-1.897v-1.201h-.03c-.468.828-1.369 1.37-2.439 1.37-1.94 0-3.215-1.531-3.215-3.897 0-2.388 1.275-3.911 3.245-3.911 1.076 0 1.97.527 2.475 1.414h.022v-1.282h1.216v7.463c0 1.817-1.34 3.025-3.442 3.025zm-.044-3.933c1.325 0 2.212-1.099 2.212-2.776s-.887-2.79-2.212-2.79c-1.311 0-2.168 1.084-2.168 2.79 0 1.707.857 2.776 2.168 2.776zm6.02 3.164h-1.062l.711-3.728h1.355zm9.47-2.102h-1.318v-9.382h-3.332v-1.187h7.983v1.187h-3.333zm3.406 2.849c-.154 0-.41-.015-.549-.044v-1.069c.139.029.337.036.498.036.71 0 1.106-.344 1.399-1.23l.176-.535-2.813-7.624h1.362l2.11 6.343h.022l2.109-6.343h1.341l-2.996 8.152c-.652 1.779-1.282 2.314-2.659 2.314zm10.357-10.598c1.941 0 3.259 1.553 3.259 3.94 0 2.388-1.311 3.941-3.23 3.941-1.091 0-1.97-.535-2.424-1.37h-.03v3.78h-1.274v-10.159h1.208v1.289h.03c.469-.857 1.355-1.421 2.461-1.421zm-.249 6.76c1.355 0 2.204-1.091 2.204-2.82 0-1.721-.849-2.819-2.204-2.819-1.304 0-2.183 1.128-2.183 2.819 0 1.7.879 2.82 2.183 2.82zm9.851-1.194h1.252c-.22 1.333-1.509 2.315-3.171 2.315-2.183 0-3.509-1.516-3.509-3.911 0-2.366 1.348-3.97 3.45-3.97 2.058 0 3.325 1.494 3.325 3.801v.484h-5.463v.073c0 1.457.856 2.417 2.226 2.417.967 0 1.677-.491 1.89-1.209zm-2-4.46c-1.194 0-2.029.915-2.109 2.183h4.138c-.029-1.275-.828-2.183-2.029-2.183zm7.581 1.128c0-1.304 1.15-2.234 2.798-2.234 1.67 0 2.783.981 2.834 2.329h-1.216c-.095-.798-.681-1.289-1.618-1.289-.931 0-1.546.461-1.546 1.128 0 .527.388.886 1.238 1.091l1.209.293c1.538.374 2.094.974 2.094 2.066 0 1.325-1.252 2.263-2.951 2.263-1.788 0-2.901-.901-3.047-2.329h1.274c.154.871.74 1.289 1.773 1.289 1.032 0 1.67-.44 1.67-1.128 0-.549-.301-.864-1.172-1.077l-1.209-.293c-1.435-.344-2.131-1.011-2.131-2.109zm9.346 5.647c-1.517 0-2.535-.916-2.535-2.285 0-1.304 1.004-2.124 2.762-2.227l2.182-.124v-.638c0-.93-.615-1.486-1.67-1.486-.981 0-1.596.461-1.758 1.208h-1.23c.088-1.318 1.216-2.329 3.018-2.329 1.787 0 2.915.967 2.915 2.483v5.266h-1.209v-1.311h-.029c-.454.872-1.421 1.443-2.446 1.443zm.285-1.084c1.201 0 2.124-.842 2.124-1.941v-.623l-2.036.125c-1.025.066-1.611.52-1.611 1.238 0 .725.608 1.201 1.523 1.201zm5.427.952v-6.57h-1.062v-1.047h1.062v-.85c0-1.465.682-2.16 2.088-2.16.285 0 .593.029.776.058v1.033c-.154-.022-.366-.044-.578-.044-.689 0-1.019.366-1.019 1.121v.842h1.561v1.047h-1.553v6.57zm8.833-2.183h1.253c-.22 1.333-1.509 2.315-3.172 2.315-2.182 0-3.508-1.516-3.508-3.911 0-2.366 1.348-3.97 3.45-3.97 2.058 0 3.325 1.494 3.325 3.801v.484h-5.464v.073c0 1.457.857 2.417 2.227 2.417.967 0 1.677-.491 1.889-1.209zm-1.999-4.46c-1.194 0-2.029.915-2.109 2.183h4.138c-.03-1.275-.828-2.183-2.029-2.183zm5.046-2.813h1.275v1.839h1.479v1.047h-1.479v4.527c0 .695.293 1.01.945 1.01.146 0 .439-.022.527-.036v1.069c-.154.037-.506.059-.806.059-1.399 0-1.941-.572-1.941-2.037v-4.592h-1.135v-1.047h1.135zm4.754 12.305c-.154 0-.41-.015-.55-.044v-1.069c.14.029.337.036.498.036.711 0 1.106-.344 1.399-1.23l.176-.535-2.812-7.624h1.362l2.109 6.343h.022l2.11-6.343h1.34l-2.996 8.152c-.651 1.779-1.281 2.314-2.658 2.314zm6.43-.747h-1.062l.711-3.728h1.355zm9.471-2.102h-1.319v-9.382h-3.332v-1.187h7.983v1.187h-3.332zm7.602-2.183h1.253c-.22 1.333-1.509 2.315-3.172 2.315-2.182 0-3.508-1.516-3.508-3.911 0-2.366 1.348-3.97 3.45-3.97 2.058 0 3.325 1.494 3.325 3.801v.484h-5.464v.073c0 1.457.857 2.417 2.226 2.417.967 0 1.678-.491 1.89-1.209zm-1.999-4.46c-1.194 0-2.029.915-2.11 2.183h4.138c-.029-1.275-.827-2.183-2.028-2.183zm4.504 1.128c0-1.304 1.15-2.234 2.798-2.234 1.67 0 2.783.981 2.834 2.329h-1.215c-.096-.798-.682-1.289-1.619-1.289-.93 0-1.546.461-1.546 1.128 0 .527.389.886 1.238 1.091l1.209.293c1.538.374 2.094.974 2.094 2.066 0 1.325-1.252 2.263-2.951 2.263-1.787 0-2.901-.901-3.047-2.329h1.274c.154.871.74 1.289 1.773 1.289s1.67-.44 1.67-1.128c0-.549-.301-.864-1.172-1.077l-1.209-.293c-1.435-.344-2.131-1.011-2.131-2.109zm7.529-3.941h1.275v1.839h1.479v1.047h-1.479v4.527c0 .695.293 1.01.945 1.01.146 0 .439-.022.527-.036v1.069c-.154.037-.505.059-.806.059-1.399 0-1.941-.572-1.941-2.037v-4.592h-1.135v-1.047h1.135zm7.061 3.941c0-1.304 1.15-2.234 2.798-2.234 1.67 0 2.783.981 2.834 2.329h-1.216c-.095-.798-.681-1.289-1.618-1.289-.93 0-1.546.461-1.546 1.128 0 .527.388.886 1.238 1.091l1.209.293c1.538.374 2.094.974 2.094 2.066 0 1.325-1.252 2.263-2.951 2.263-1.787 0-2.901-.901-3.047-2.329h1.274c.154.871.74 1.289 1.773 1.289 1.032 0 1.67-.44 1.67-1.128 0-.549-.301-.864-1.172-1.077l-1.209-.293c-1.435-.344-2.131-1.011-2.131-2.109zm13.374-2.102v7.617h-1.209v-1.238h-.029c-.454.879-1.245 1.37-2.417 1.37-1.663 0-2.637-1.077-2.637-2.805v-4.944h1.275v4.717c0 1.237.578 1.904 1.758 1.904 1.237 0 1.984-.85 1.984-2.146v-4.475zm2.358-1.355c-.439 0-.798-.359-.798-.799 0-.446.359-.798.798-.798.447 0 .799.352.799.798 0 .44-.352.799-.799.799zm-.637 8.972v-7.617h1.274v7.617zm3.406-9.456h1.274v1.839h1.48v1.047h-1.48v4.527c0 .695.293 1.01.945 1.01.147 0 .44-.022.527-.036v1.069c-.153.037-.505.059-.805.059-1.399 0-1.941-.572-1.941-2.037v-4.592h-1.135v-1.047h1.135zm8.95 7.273h1.252c-.219 1.333-1.508 2.315-3.171 2.315-2.183 0-3.508-1.516-3.508-3.911 0-2.366 1.347-3.97 3.449-3.97 2.059 0 3.326 1.494 3.326 3.801v.484h-5.464v.073c0 1.457.857 2.417 2.226 2.417.967 0 1.678-.491 1.89-1.209zm-2-4.46c-1.193 0-2.028.915-2.109 2.183h4.138c-.029-1.275-.827-2.183-2.029-2.183zm4.505 1.128c0-1.304 1.15-2.234 2.798-2.234 1.67 0 2.783.981 2.834 2.329h-1.216c-.095-.798-.681-1.289-1.618-1.289-.93 0-1.546.461-1.546 1.128 0 .527.389.886 1.238 1.091l1.209.293c1.538.374 2.094.974 2.094 2.066 0 1.325-1.252 2.263-2.951 2.263-1.787 0-2.901-.901-3.047-2.329h1.274c.154.871.74 1.289 1.773 1.289 1.032 0 1.67-.44 1.67-1.128 0-.549-.301-.864-1.172-1.077l-1.209-.293c-1.435-.344-2.131-1.011-2.131-2.109zm7.991 7.617h-1.062l.71-3.728h1.355zm5.478-12.671h3.552c3.135 0 4.988 1.956 4.988 5.281 0 3.332-1.846 5.288-4.988 5.288h-3.552zm1.318 1.187v8.195h2.146c2.396 0 3.729-1.464 3.729-4.086 0-2.644-1.326-4.109-3.729-4.109zm13.719 7.199h1.252c-.22 1.333-1.509 2.315-3.171 2.315-2.183 0-3.508-1.516-3.508-3.911 0-2.366 1.347-3.97 3.449-3.97 2.058 0 3.325 1.494 3.325 3.801v.484h-5.463v.073c0 1.457.856 2.417 2.226 2.417.967 0 1.677-.491 1.89-1.209zm-2-4.46c-1.194 0-2.029.915-2.109 2.183h4.138c-.029-1.275-.828-2.183-2.029-2.183zm10.884-.974-2.798 7.617h-1.304l-2.805-7.617h1.341l2.102 6.262h.029l2.109-6.262zm3.94 7.749c-2.109 0-3.53-1.516-3.53-3.941 0-2.431 1.421-3.94 3.53-3.94 2.103 0 3.523 1.509 3.523 3.94 0 2.425-1.42 3.941-3.523 3.941zm0-1.121c1.348 0 2.227-1.025 2.227-2.82 0-1.794-.879-2.819-2.227-2.819-1.347 0-2.233 1.025-2.233 2.819 0 1.795.886 2.82 2.233 2.82zm8.511-6.76c1.941 0 3.259 1.553 3.259 3.94 0 2.388-1.311 3.941-3.229 3.941-1.092 0-1.971-.535-2.425-1.37h-.029v3.78h-1.275v-10.159h1.209v1.289h.029c.469-.857 1.355-1.421 2.461-1.421zm-.249 6.76c1.355 0 2.205-1.091 2.205-2.82 0-1.721-.85-2.819-2.205-2.819-1.304 0-2.182 1.128-2.182 2.819 0 1.7.878 2.82 2.182 2.82zm4.666-4.526c0-1.304 1.15-2.234 2.798-2.234 1.669 0 2.783.981 2.834 2.329h-1.216c-.095-.798-.681-1.289-1.618-1.289-.931 0-1.546.461-1.546 1.128 0 .527.388.886 1.238 1.091l1.208.293c1.539.374 2.095.974 2.095 2.066 0 1.325-1.252 2.263-2.951 2.263-1.788 0-2.901-.901-3.047-2.329h1.274c.154.871.74 1.289 1.773 1.289 1.032 0 1.669-.44 1.669-1.128 0-.549-.3-.864-1.171-1.077l-1.209-.293c-1.435-.344-2.131-1.011-2.131-2.109zm7.99 7.617h-1.062l.711-3.728h1.355zm6.358-2.029c-.469 0-.835-.366-.835-.835 0-.468.366-.835.835-.835s.835.367.835.835c0 .469-.366.835-.835.835zm3.808 0c-.468 0-.835-.366-.835-.835 0-.468.367-.835.835-.835.469 0 .835.367.835.835 0 .469-.366.835-.835.835zm3.809 0c-.469 0-.835-.366-.835-.835 0-.468.366-.835.835-.835s.835.367.835.835c0 .469-.366.835-.835.835z" fill="#000" opacity=".5"/></svg>