
<!-- 
  https://codepen.io/ksenia-k/pen/jXbWaJ
-->

<svg xmlns="http://www.w3.org/2000/svg" preserveAspectRatio="xMidYMid slice"
  viewBox="10 10 80 80" style="background-image: linear-gradient(45deg,#000, #091D3B)">

  <defs>
    <linearGradient id="linear" x1="0%" y1="0%" x2="100%" y2="0%">
      <stop offset="0%" stop-color="#222"/>
      <stop offset="100%" stop-color="#444"/>
    </linearGradient>

    <style>
      @keyframes rotate {
        0% { transform: rotate(0deg) }
        100% { transform: rotate(360deg) }
      }

      path {
        fill: rgba(255,255,255,0.05);
        stroke: rgba(255,255,255,0.02);
      }

      .p1 {
        animation: rotate 55s linear infinite;
        transform-origin: 3px 25px;
        stroke-width: 13px;
      }

      .p2 {
        animation: rotate 70s linear infinite;
        transform-origin: 3px 25px;
        stroke: rgba(255,255,255,0.1);
        stroke-width: 8px;
        fill: #2A64F6;
      }

      .p3 {
        animation: rotate 80s linear infinite;
        transform-origin: 84px 93px;
        stroke-width: 12px;
      }

      .p4 {
        animation: rotate 90s linear infinite;
        transform-origin: 84px 93px;
        stroke: #5D2196;
        stroke-width:6px;
        fill: #B22CF6;
      }
    </style>
  </defs>

  <path class="p1" d="M37-5C25.1-14.7,5.7-19.1-9.2-10-28.5,1.8-32.7,31.1-19.8,49c15.5,21.5,52.6,22,67.2,2.3C59.4,35,53.7,8.5,37-5Z"/>

  <path class="p2" d="M20.6,4.1C11.6,1.5-1.9,2.5-8,11.2-16.3,23.1-8.2,45.6,7.4,50S42.1,38.9,41,24.5C40.2,14.1,29.4,6.6,20.6,4.1Z"/>

  <path class="p3" d="M105.9,48.6c-12.4-8.2-29.3-4.8-39.4.8-23.4,12.8-37.7,51.9-19.1,74.1s63.9,15.3,76-5.6c7.6-13.3,1.8-31.1-2.3-43.8C117.6,63.3,114.7,54.3,105.9,48.6Z"/>

  <path class="p4" d="M102,67.1c-9.6-6.1-22-3.1-29.5,2-15.4,10.7-19.6,37.5-7.6,47.8s35.9,3.9,44.5-12.5C115.5,92.6,113.9,74.6,102,67.1Z"/>
</svg>