<svg fill="none" height="329" viewBox="0 0 522 329" width="522" xmlns="http://www.w3.org/2000/svg" xmlns:xlink="http://www.w3.org/1999/xlink"><filter id="a" color-interpolation-filters="sRGB" filterUnits="userSpaceOnUse" height="367.897" width="256.897" x="153.552" y="30.5517"><feFlood flood-opacity="0" result="BackgroundImageFix"/><feColorMatrix in="SourceAlpha" result="hardAlpha" type="matrix" values="0 0 0 0 0 0 0 0 0 0 0 0 0 0 0 0 0 0 127 0"/><feOffset dx="2" dy="-1"/><feGaussianBlur stdDeviation="1.72414"/><feComposite in2="hardAlpha" operator="out"/><feColorMatrix type="matrix" values="0 0 0 0 0 0 0 0 0 0 0 0 0 0 0 0 0 0 0.25 0"/><feBlend in2="BackgroundImageFix" mode="normal" result="effect1_dropShadow_10066_11828"/><feBlend in="SourceGraphic" in2="effect1_dropShadow_10066_11828" mode="normal" result="shape"/></filter><filter id="b" color-interpolation-filters="sRGB" filterUnits="userSpaceOnUse" height="367.897" width="256.897" x="133.552" y="46.5517"><feFlood flood-opacity="0" result="BackgroundImageFix"/><feColorMatrix in="SourceAlpha" result="hardAlpha" type="matrix" values="0 0 0 0 0 0 0 0 0 0 0 0 0 0 0 0 0 0 127 0"/><feOffset dx="2" dy="-1"/><feGaussianBlur stdDeviation="1.72414"/><feComposite in2="hardAlpha" operator="out"/><feColorMatrix type="matrix" values="0 0 0 0 0 0 0 0 0 0 0 0 0 0 0 0 0 0 0.25 0"/><feBlend in2="BackgroundImageFix" mode="normal" result="effect1_dropShadow_10066_11828"/><feBlend in="SourceGraphic" in2="effect1_dropShadow_10066_11828" mode="normal" result="shape"/></filter><filter id="c" color-interpolation-filters="sRGB" filterUnits="userSpaceOnUse" height="303.448" width="256.897" x="113.552" y="65.2758"><feFlood flood-opacity="0" result="BackgroundImageFix"/><feColorMatrix in="SourceAlpha" result="hardAlpha" type="matrix" values="0 0 0 0 0 0 0 0 0 0 0 0 0 0 0 0 0 0 127 0"/><feOffset dx="2" dy="-1"/><feGaussianBlur stdDeviation="1.72414"/><feComposite in2="hardAlpha" operator="out"/><feColorMatrix type="matrix" values="0 0 0 0 0 0 0 0 0 0 0 0 0 0 0 0 0 0 0.25 0"/><feBlend in2="BackgroundImageFix" mode="normal" result="effect1_dropShadow_10066_11828"/><feBlend in="SourceGraphic" in2="effect1_dropShadow_10066_11828" mode="normal" result="shape"/></filter><clipPath id="d"><path d="m0 0h522v329h-522z"/></clipPath><g clip-path="url(#d)"><path d="m0 0h522v329h-522z" fill="#d988ff"/><g filter="url(#a)" opacity=".5"><rect fill="#fff" height="361" rx="5.72803" width="250" x="155" y="35"/></g><g filter="url(#b)" opacity=".9"><rect fill="#fff" height="361" rx="5.72803" width="250" x="135" y="51"/></g><g filter="url(#c)"><rect fill="#fff" height="296.552" rx="5.72803" width="250" x="115" y="69.7241"/></g><rect fill="#fff" height="38.7931" rx="2.15517" stroke="#dbdbdb" stroke-width=".862069" width="59.4828" x="143.876" y="261.845"/><rect fill="#fff" height="38.7931" rx="2.15517" stroke="#dbdbdb" stroke-width=".862069" width="59.4828" x="211.119" y="261.845"/><rect fill="#fff" height="38.7931" rx="2.15517" stroke="#dbdbdb" stroke-width=".862069" width="59.4828" x="278.359" y="261.845"/><rect fill="#fff" height="38.7931" rx="2.15517" stroke="#dbdbdb" stroke-width=".862069" width="59.4828" x="143.876" y="310.12"/><rect fill="#fff" height="38.7931" rx="2.15517" stroke="#dbdbdb" stroke-width=".862069" width="59.4828" x="211.119" y="310.12"/><rect fill="#fff" height="38.7931" rx="2.15517" stroke="#dbdbdb" stroke-width=".862069" width="59.4828" x="278.359" y="310.12"/><rect fill="#fff" height="85.3448" rx="2.15517" stroke="#dbdbdb" stroke-width=".862069" width="100.862" x="236.984" y="153.224"/><rect fill="#d9d9d9" height="4" rx="1.72414" width="73.2758" x="143.445" y="164"/><rect fill="#d9d9d9" height="4" rx="1.72414" width="64.6552" x="143.445" y="174.034"/><rect fill="#d9d9d9" height="4" rx="1.72414" width="73.2758" x="143.445" y="184.069"/><rect fill="#d9d9d9" height="4" rx="1.72414" width="56.0345" x="143.445" y="194.103"/><rect fill="#d9d9d9" height="4" rx="1.72414" width="73.2758" x="143.445" y="204.138"/><rect fill="#d9d9d9" height="4" rx="1.72414" width="47.4138" x="143.445" y="214.172"/><rect fill="#d9d9d9" height="4" rx="1.72414" width="21.5517" x="143.445" y="224.207"/><path d="m238.862 236.945 96.551-81.034" opacity=".1" stroke="#000" stroke-width=".862069"/><g fill="#d9d9d9"><rect height="4" rx="1.72414" width="193.966" x="145.172" y="102.793"/><rect height="4" rx="1.72414" width="130.172" x="177.068" y="112.827"/><rect height="4" rx="1.72414" width="108" x="188.154" y="122.862"/><rect height="2.58621" rx="1.2931" width="37.931" x="153.789" y="273.482"/><rect height="2.58621" rx="1.2931" width="17.2414" x="153.789" y="281.241"/><rect height="2.58621" rx="1.2931" width="37.931" x="221.891" y="273.482"/><rect height="2.58621" rx="1.2931" width="37.931" x="289.133" y="273.482"/><rect height="2.58621" rx="1.2931" width="17.2414" x="221.891" y="281.241"/><rect height="2.58621" rx="1.2931" width="17.2414" x="289.133" y="281.241"/><rect height="2.58621" rx="1.2931" width="37.931" x="153.789" y="320.896"/><rect height="2.58621" rx="1.2931" width="17.2414" x="153.789" y="328.655"/><rect height="2.58621" rx="1.2931" width="37.931" x="221.891" y="320.896"/><rect height="2.58621" rx="1.2931" width="37.931" x="289.133" y="320.896"/><rect height="2.58621" rx="1.2931" width="17.2414" x="221.891" y="328.655"/><rect height="2.58621" rx="1.2931" width="17.2414" x="289.133" y="328.655"/></g></g></svg>