<svg fill="none" height="167" viewBox="0 0 368 167" width="368" xmlns="http://www.w3.org/2000/svg" xmlns:xlink="http://www.w3.org/1999/xlink"><filter id="a" color-interpolation-filters="sRGB" filterUnits="userSpaceOnUse" height="22" width="15" x="58" y="145"><feFlood flood-opacity="0" result="BackgroundImageFix"/><feBlend in="SourceGraphic" in2="BackgroundImageFix" mode="normal" result="shape"/><feColorMatrix in="SourceAlpha" result="hardAlpha" type="matrix" values="0 0 0 0 0 0 0 0 0 0 0 0 0 0 0 0 0 0 127 0"/><feOffset dy="-2"/><feGaussianBlur stdDeviation="2"/><feComposite in2="hardAlpha" k2="-1" k3="1" operator="arithmetic"/><feColorMatrix type="matrix" values="0 0 0 0 0 0 0 0 0 0 0 0 0 0 0 0 0 0 0.55 0"/><feBlend in2="shape" mode="normal" result="effect1_innerShadow_10075_11958"/></filter><filter id="b" color-interpolation-filters="sRGB" filterUnits="userSpaceOnUse" height="22" width="15" x="98" y="145"><feFlood flood-opacity="0" result="BackgroundImageFix"/><feBlend in="SourceGraphic" in2="BackgroundImageFix" mode="normal" result="shape"/><feColorMatrix in="SourceAlpha" result="hardAlpha" type="matrix" values="0 0 0 0 0 0 0 0 0 0 0 0 0 0 0 0 0 0 127 0"/><feOffset dy="-2"/><feGaussianBlur stdDeviation="2"/><feComposite in2="hardAlpha" k2="-1" k3="1" operator="arithmetic"/><feColorMatrix type="matrix" values="0 0 0 0 0 0 0 0 0 0 0 0 0 0 0 0 0 0 0.55 0"/><feBlend in2="shape" mode="normal" result="effect1_innerShadow_10075_11958"/></filter><filter id="c" color-interpolation-filters="sRGB" filterUnits="userSpaceOnUse" height="22" width="15" x="138" y="145"><feFlood flood-opacity="0" result="BackgroundImageFix"/><feBlend in="SourceGraphic" in2="BackgroundImageFix" mode="normal" result="shape"/><feColorMatrix in="SourceAlpha" result="hardAlpha" type="matrix" values="0 0 0 0 0 0 0 0 0 0 0 0 0 0 0 0 0 0 127 0"/><feOffset dy="-2"/><feGaussianBlur stdDeviation="2"/><feComposite in2="hardAlpha" k2="-1" k3="1" operator="arithmetic"/><feColorMatrix type="matrix" values="0 0 0 0 0 0 0 0 0 0 0 0 0 0 0 0 0 0 0.55 0"/><feBlend in2="shape" mode="normal" result="effect1_innerShadow_10075_11958"/></filter><filter id="d" color-interpolation-filters="sRGB" filterUnits="userSpaceOnUse" height="22" width="15" x="178" y="145"><feFlood flood-opacity="0" result="BackgroundImageFix"/><feBlend in="SourceGraphic" in2="BackgroundImageFix" mode="normal" result="shape"/><feColorMatrix in="SourceAlpha" result="hardAlpha" type="matrix" values="0 0 0 0 0 0 0 0 0 0 0 0 0 0 0 0 0 0 127 0"/><feOffset dy="-2"/><feGaussianBlur stdDeviation="2"/><feComposite in2="hardAlpha" k2="-1" k3="1" operator="arithmetic"/><feColorMatrix type="matrix" values="0 0 0 0 0 0 0 0 0 0 0 0 0 0 0 0 0 0 0.55 0"/><feBlend in2="shape" mode="normal" result="effect1_innerShadow_10075_11958"/></filter><filter id="e" color-interpolation-filters="sRGB" filterUnits="userSpaceOnUse" height="22" width="15" x="218" y="145"><feFlood flood-opacity="0" result="BackgroundImageFix"/><feBlend in="SourceGraphic" in2="BackgroundImageFix" mode="normal" result="shape"/><feColorMatrix in="SourceAlpha" result="hardAlpha" type="matrix" values="0 0 0 0 0 0 0 0 0 0 0 0 0 0 0 0 0 0 127 0"/><feOffset dy="-2"/><feGaussianBlur stdDeviation="2"/><feComposite in2="hardAlpha" k2="-1" k3="1" operator="arithmetic"/><feColorMatrix type="matrix" values="0 0 0 0 0 0 0 0 0 0 0 0 0 0 0 0 0 0 0.55 0"/><feBlend in2="shape" mode="normal" result="effect1_innerShadow_10075_11958"/></filter><filter id="f" color-interpolation-filters="sRGB" filterUnits="userSpaceOnUse" height="22" width="15" x="258" y="145"><feFlood flood-opacity="0" result="BackgroundImageFix"/><feBlend in="SourceGraphic" in2="BackgroundImageFix" mode="normal" result="shape"/><feColorMatrix in="SourceAlpha" result="hardAlpha" type="matrix" values="0 0 0 0 0 0 0 0 0 0 0 0 0 0 0 0 0 0 127 0"/><feOffset dy="-2"/><feGaussianBlur stdDeviation="2"/><feComposite in2="hardAlpha" k2="-1" k3="1" operator="arithmetic"/><feColorMatrix type="matrix" values="0 0 0 0 0 0 0 0 0 0 0 0 0 0 0 0 0 0 0.55 0"/><feBlend in2="shape" mode="normal" result="effect1_innerShadow_10075_11958"/></filter><filter id="g" color-interpolation-filters="sRGB" filterUnits="userSpaceOnUse" height="22" width="15" x="298" y="145"><feFlood flood-opacity="0" result="BackgroundImageFix"/><feBlend in="SourceGraphic" in2="BackgroundImageFix" mode="normal" result="shape"/><feColorMatrix in="SourceAlpha" result="hardAlpha" type="matrix" values="0 0 0 0 0 0 0 0 0 0 0 0 0 0 0 0 0 0 127 0"/><feOffset dy="-2"/><feGaussianBlur stdDeviation="2"/><feComposite in2="hardAlpha" k2="-1" k3="1" operator="arithmetic"/><feColorMatrix type="matrix" values="0 0 0 0 0 0 0 0 0 0 0 0 0 0 0 0 0 0 0.55 0"/><feBlend in2="shape" mode="normal" result="effect1_innerShadow_10075_11958"/></filter><filter id="h" color-interpolation-filters="sRGB" filterUnits="userSpaceOnUse" height="15" width="22" x="346" y="112.5"><feFlood flood-opacity="0" result="BackgroundImageFix"/><feBlend in="SourceGraphic" in2="BackgroundImageFix" mode="normal" result="shape"/><feColorMatrix in="SourceAlpha" result="hardAlpha" type="matrix" values="0 0 0 0 0 0 0 0 0 0 0 0 0 0 0 0 0 0 127 0"/><feOffset dx="-2"/><feGaussianBlur stdDeviation="2"/><feComposite in2="hardAlpha" k2="-1" k3="1" operator="arithmetic"/><feColorMatrix type="matrix" values="0 0 0 0 0 0 0 0 0 0 0 0 0 0 0 0 0 0 0.55 0"/><feBlend in2="shape" mode="normal" result="effect1_innerShadow_10075_11958"/></filter><filter id="i" color-interpolation-filters="sRGB" filterUnits="userSpaceOnUse" height="15" width="22" x="346" y="76.5"><feFlood flood-opacity="0" result="BackgroundImageFix"/><feBlend in="SourceGraphic" in2="BackgroundImageFix" mode="normal" result="shape"/><feColorMatrix in="SourceAlpha" result="hardAlpha" type="matrix" values="0 0 0 0 0 0 0 0 0 0 0 0 0 0 0 0 0 0 127 0"/><feOffset dx="-2"/><feGaussianBlur stdDeviation="2"/><feComposite in2="hardAlpha" k2="-1" k3="1" operator="arithmetic"/><feColorMatrix type="matrix" values="0 0 0 0 0 0 0 0 0 0 0 0 0 0 0 0 0 0 0.55 0"/><feBlend in2="shape" mode="normal" result="effect1_innerShadow_10075_11958"/></filter><filter id="j" color-interpolation-filters="sRGB" filterUnits="userSpaceOnUse" height="15" width="22" x="346" y="40.5"><feFlood flood-opacity="0" result="BackgroundImageFix"/><feBlend in="SourceGraphic" in2="BackgroundImageFix" mode="normal" result="shape"/><feColorMatrix in="SourceAlpha" result="hardAlpha" type="matrix" values="0 0 0 0 0 0 0 0 0 0 0 0 0 0 0 0 0 0 127 0"/><feOffset dx="-2"/><feGaussianBlur stdDeviation="2"/><feComposite in2="hardAlpha" k2="-1" k3="1" operator="arithmetic"/><feColorMatrix type="matrix" values="0 0 0 0 0 0 0 0 0 0 0 0 0 0 0 0 0 0 0.55 0"/><feBlend in2="shape" mode="normal" result="effect1_innerShadow_10075_11958"/></filter><filter id="k" color-interpolation-filters="sRGB" filterUnits="userSpaceOnUse" height="15" width="22" x="0" y="112.5"><feFlood flood-opacity="0" result="BackgroundImageFix"/><feBlend in="SourceGraphic" in2="BackgroundImageFix" mode="normal" result="shape"/><feColorMatrix in="SourceAlpha" result="hardAlpha" type="matrix" values="0 0 0 0 0 0 0 0 0 0 0 0 0 0 0 0 0 0 127 0"/><feOffset dx="2"/><feGaussianBlur stdDeviation="2"/><feComposite in2="hardAlpha" k2="-1" k3="1" operator="arithmetic"/><feColorMatrix type="matrix" values="0 0 0 0 0 0 0 0 0 0 0 0 0 0 0 0 0 0 0.55 0"/><feBlend in2="shape" mode="normal" result="effect1_innerShadow_10075_11958"/></filter><filter id="l" color-interpolation-filters="sRGB" filterUnits="userSpaceOnUse" height="15" width="22" x="0" y="76.5"><feFlood flood-opacity="0" result="BackgroundImageFix"/><feBlend in="SourceGraphic" in2="BackgroundImageFix" mode="normal" result="shape"/><feColorMatrix in="SourceAlpha" result="hardAlpha" type="matrix" values="0 0 0 0 0 0 0 0 0 0 0 0 0 0 0 0 0 0 127 0"/><feOffset dx="2"/><feGaussianBlur stdDeviation="2"/><feComposite in2="hardAlpha" k2="-1" k3="1" operator="arithmetic"/><feColorMatrix type="matrix" values="0 0 0 0 0 0 0 0 0 0 0 0 0 0 0 0 0 0 0.55 0"/><feBlend in2="shape" mode="normal" result="effect1_innerShadow_10075_11958"/></filter><filter id="m" color-interpolation-filters="sRGB" filterUnits="userSpaceOnUse" height="15" width="22" x="0" y="40.5"><feFlood flood-opacity="0" result="BackgroundImageFix"/><feBlend in="SourceGraphic" in2="BackgroundImageFix" mode="normal" result="shape"/><feColorMatrix in="SourceAlpha" result="hardAlpha" type="matrix" values="0 0 0 0 0 0 0 0 0 0 0 0 0 0 0 0 0 0 127 0"/><feOffset dx="2"/><feGaussianBlur stdDeviation="2"/><feComposite in2="hardAlpha" k2="-1" k3="1" operator="arithmetic"/><feColorMatrix type="matrix" values="0 0 0 0 0 0 0 0 0 0 0 0 0 0 0 0 0 0 0.55 0"/><feBlend in2="shape" mode="normal" result="effect1_innerShadow_10075_11958"/></filter><filter id="n" color-interpolation-filters="sRGB" filterUnits="userSpaceOnUse" height="22" width="15" x="58" y="0"><feFlood flood-opacity="0" result="BackgroundImageFix"/><feBlend in="SourceGraphic" in2="BackgroundImageFix" mode="normal" result="shape"/><feColorMatrix in="SourceAlpha" result="hardAlpha" type="matrix" values="0 0 0 0 0 0 0 0 0 0 0 0 0 0 0 0 0 0 127 0"/><feOffset dy="2"/><feGaussianBlur stdDeviation="2"/><feComposite in2="hardAlpha" k2="-1" k3="1" operator="arithmetic"/><feColorMatrix type="matrix" values="0 0 0 0 0 0 0 0 0 0 0 0 0 0 0 0 0 0 0.55 0"/><feBlend in2="shape" mode="normal" result="effect1_innerShadow_10075_11958"/></filter><filter id="o" color-interpolation-filters="sRGB" filterUnits="userSpaceOnUse" height="22" width="15" x="98" y="0"><feFlood flood-opacity="0" result="BackgroundImageFix"/><feBlend in="SourceGraphic" in2="BackgroundImageFix" mode="normal" result="shape"/><feColorMatrix in="SourceAlpha" result="hardAlpha" type="matrix" values="0 0 0 0 0 0 0 0 0 0 0 0 0 0 0 0 0 0 127 0"/><feOffset dy="2"/><feGaussianBlur stdDeviation="2"/><feComposite in2="hardAlpha" k2="-1" k3="1" operator="arithmetic"/><feColorMatrix type="matrix" values="0 0 0 0 0 0 0 0 0 0 0 0 0 0 0 0 0 0 0.55 0"/><feBlend in2="shape" mode="normal" result="effect1_innerShadow_10075_11958"/></filter><filter id="p" color-interpolation-filters="sRGB" filterUnits="userSpaceOnUse" height="22" width="15" x="138" y="0"><feFlood flood-opacity="0" result="BackgroundImageFix"/><feBlend in="SourceGraphic" in2="BackgroundImageFix" mode="normal" result="shape"/><feColorMatrix in="SourceAlpha" result="hardAlpha" type="matrix" values="0 0 0 0 0 0 0 0 0 0 0 0 0 0 0 0 0 0 127 0"/><feOffset dy="2"/><feGaussianBlur stdDeviation="2"/><feComposite in2="hardAlpha" k2="-1" k3="1" operator="arithmetic"/><feColorMatrix type="matrix" values="0 0 0 0 0 0 0 0 0 0 0 0 0 0 0 0 0 0 0.55 0"/><feBlend in2="shape" mode="normal" result="effect1_innerShadow_10075_11958"/></filter><filter id="q" color-interpolation-filters="sRGB" filterUnits="userSpaceOnUse" height="22" width="15" x="178" y="0"><feFlood flood-opacity="0" result="BackgroundImageFix"/><feBlend in="SourceGraphic" in2="BackgroundImageFix" mode="normal" result="shape"/><feColorMatrix in="SourceAlpha" result="hardAlpha" type="matrix" values="0 0 0 0 0 0 0 0 0 0 0 0 0 0 0 0 0 0 127 0"/><feOffset dy="2"/><feGaussianBlur stdDeviation="2"/><feComposite in2="hardAlpha" k2="-1" k3="1" operator="arithmetic"/><feColorMatrix type="matrix" values="0 0 0 0 0 0 0 0 0 0 0 0 0 0 0 0 0 0 0.55 0"/><feBlend in2="shape" mode="normal" result="effect1_innerShadow_10075_11958"/></filter><filter id="r" color-interpolation-filters="sRGB" filterUnits="userSpaceOnUse" height="22" width="15" x="218" y="0"><feFlood flood-opacity="0" result="BackgroundImageFix"/><feBlend in="SourceGraphic" in2="BackgroundImageFix" mode="normal" result="shape"/><feColorMatrix in="SourceAlpha" result="hardAlpha" type="matrix" values="0 0 0 0 0 0 0 0 0 0 0 0 0 0 0 0 0 0 127 0"/><feOffset dy="2"/><feGaussianBlur stdDeviation="2"/><feComposite in2="hardAlpha" k2="-1" k3="1" operator="arithmetic"/><feColorMatrix type="matrix" values="0 0 0 0 0 0 0 0 0 0 0 0 0 0 0 0 0 0 0.55 0"/><feBlend in2="shape" mode="normal" result="effect1_innerShadow_10075_11958"/></filter><filter id="s" color-interpolation-filters="sRGB" filterUnits="userSpaceOnUse" height="22" width="15" x="258" y="0"><feFlood flood-opacity="0" result="BackgroundImageFix"/><feBlend in="SourceGraphic" in2="BackgroundImageFix" mode="normal" result="shape"/><feColorMatrix in="SourceAlpha" result="hardAlpha" type="matrix" values="0 0 0 0 0 0 0 0 0 0 0 0 0 0 0 0 0 0 127 0"/><feOffset dy="2"/><feGaussianBlur stdDeviation="2"/><feComposite in2="hardAlpha" k2="-1" k3="1" operator="arithmetic"/><feColorMatrix type="matrix" values="0 0 0 0 0 0 0 0 0 0 0 0 0 0 0 0 0 0 0.55 0"/><feBlend in2="shape" mode="normal" result="effect1_innerShadow_10075_11958"/></filter><filter id="t" color-interpolation-filters="sRGB" filterUnits="userSpaceOnUse" height="22" width="15" x="298" y="0"><feFlood flood-opacity="0" result="BackgroundImageFix"/><feBlend in="SourceGraphic" in2="BackgroundImageFix" mode="normal" result="shape"/><feColorMatrix in="SourceAlpha" result="hardAlpha" type="matrix" values="0 0 0 0 0 0 0 0 0 0 0 0 0 0 0 0 0 0 127 0"/><feOffset dy="2"/><feGaussianBlur stdDeviation="2"/><feComposite in2="hardAlpha" k2="-1" k3="1" operator="arithmetic"/><feColorMatrix type="matrix" values="0 0 0 0 0 0 0 0 0 0 0 0 0 0 0 0 0 0 0.55 0"/><feBlend in2="shape" mode="normal" result="effect1_innerShadow_10075_11958"/></filter><linearGradient id="u" gradientUnits="userSpaceOnUse" x1="18" x2="344" y1="45.5" y2="101.5"><stop offset="0" stop-color="#6c6c6c"/><stop offset=".5" stop-color="#5e5e5e"/><stop offset="1" stop-color="#2f2f2f"/></linearGradient><linearGradient id="v" gradientUnits="userSpaceOnUse" x1="94" x2="248" y1="24" y2="148"><stop offset="0" stop-color="#d4d4d4"/><stop offset="1" stop-color="#505050"/></linearGradient><linearGradient id="w" gradientUnits="userSpaceOnUse" x1="63" x2="95" y1="53" y2="115"><stop offset="0" stop-color="#515151"/><stop offset="1" stop-color="#373737"/></linearGradient><linearGradient id="x" gradientUnits="userSpaceOnUse" x1="85.855" x2="85.855" y1="64" y2="102.612"><stop offset="0" stop-color="#fff"/><stop offset="1" stop-color="#d1d1d1"/></linearGradient><linearGradient id="y" gradientUnits="userSpaceOnUse" x1="141" x2="307" y1="84" y2="84"><stop offset="0" stop-color="#fff"/><stop offset="1" stop-color="#929292"/></linearGradient><clipPath id="z"><path d="m0 0h368v167h-368z"/></clipPath><g clip-path="url(#z)"><path d="m0 0h368v167h-368z" fill="#fff"/><rect fill="url(#u)" height="123" rx="12" stroke="url(#v)" stroke-width="4" width="324" x="22" y="22"/><rect fill="url(#w)" height="72" rx="5" width="72" x="50" y="48"/><path d="m105.71 64.9062c0 3.5884-.009 6.6733-.027 9.2547-.019 2.5631-.028 4.9066-.028 7.0303 0 2.7462.009 5.9226.028 9.5293.018 3.5884.027 6.2796.027 8.0738l-10.4081 3.8177c-3.4602-4.4127-6.5909-8.2208-9.392-11.4247-2.8011-3.2222-4.7143-5.3917-5.7395-6.5084l-.2197.1098c0 2.6547.0091 5.7487.0274 9.2822.0183 3.5334.0275 6.0691.0275 7.6071h-13.9781c0-1.501.0091-4.0188.0274-7.5522.0183-3.5335.0275-7.369.0275-11.5066 0-1.7392-.0092-3.8538-.0275-6.3437-.0183-2.5082-.0366-5.2544-.0549-8.2386l10.9848-4.0369c1.4646 1.7209 3.3137 3.8538 5.5473 6.3986 2.2519 2.5265 5.2819 5.8677 9.0899 10.0237l.1648-.0824c0-2.1604-.0092-4.5953-.0275-7.3049s-.0274-5.4192-.0274-8.1288z" fill="url(#x)"/><path d="m150.623 78.3047c-5.332 0-8.671-3.5547-8.671-9.4707 0-5.9033 3.364-9.4707 8.671-9.4707 4.405 0 7.757 2.7929 8.049 6.8935h-3.733c-.355-2.247-2.082-3.7197-4.316-3.7197-2.894 0-4.761 2.4248-4.761 6.2842 0 3.9101 1.841 6.3223 4.774 6.3223 2.272 0 3.91-1.3331 4.316-3.504h3.733c-.432 4.0879-3.568 6.6651-8.062 6.6651zm15.844-.0127c-4.113 0-6.741-2.6406-6.741-7.1094 0-4.4053 2.666-7.084 6.741-7.084s6.742 2.666 6.742 7.084c0 4.4815-2.628 7.1094-6.742 7.1094zm0-2.8311c1.816 0 2.971-1.5361 2.971-4.2656 0-2.7041-1.168-4.2656-2.971-4.2656-1.802 0-2.983 1.5615-2.983 4.2656 0 2.7295 1.155 4.2656 2.983 4.2656zm8.139 2.5391v-13.6094h3.58v2.4248h.076c.723-1.6884 2.158-2.6787 4.253-2.6787 3.021 0 4.722 1.9043 4.722 5.0908v8.7725h-3.707v-7.998c0-1.7774-.838-2.793-2.501-2.793s-2.716 1.2187-2.716 2.9834v7.8076zm15.45-16.7451h3.707v3.1357h2.514v2.793h-2.514v6.5127c0 1.041.508 1.5361 1.6 1.5361.33 0 .673-.0254.901-.0635v2.7295c-.381.0889-1.015.1524-1.764.1524-3.2 0-4.444-1.0664-4.444-3.7197v-7.1475h-1.917v-2.793h1.917zm16.543 12.581h3.402c-.406 2.6661-2.844 4.4561-6.208 4.4561-4.189 0-6.703-2.6787-6.703-7.0332 0-4.3418 2.539-7.1602 6.563-7.1602 3.961 0 6.462 2.6787 6.462 6.8174v1.1299h-9.382v.2285c0 1.9424 1.232 3.2754 3.124 3.2754 1.358 0 2.399-.6728 2.742-1.7139zm-2.908-6.9951c-1.625 0-2.792 1.2315-2.919 2.9326h5.776c-.076-1.7392-1.206-2.9326-2.857-2.9326zm7.821 11.1592v-13.6094h3.58v2.4248h.077c.723-1.6884 2.158-2.6787 4.252-2.6787 3.022 0 4.723 1.9043 4.723 5.0908v8.7725h-3.707v-7.998c0-1.7774-.838-2.793-2.501-2.793s-2.717 1.2187-2.717 2.9834v7.8076zm15.451-16.7451h3.707v3.1357h2.514v2.793h-2.514v6.5127c0 1.041.508 1.5361 1.6 1.5361.33 0 .672-.0254.901-.0635v2.7295c-.381.0889-1.016.1524-1.765.1524-3.199 0-4.443-1.0664-4.443-3.7197v-7.1475h-1.917v-2.793h1.917zm16.518 16.7451h-3.834v-18.3193h11.997v3.1611h-8.163v4.9131h7.452v3.0342h-7.452zm11.502-15.4502c-1.079 0-1.93-.8633-1.93-1.9043 0-1.0537.851-1.9043 1.93-1.9043s1.93.8506 1.93 1.9043c0 1.041-.851 1.9043-1.93 1.9043zm-1.841 15.4502v-13.6094h3.707v13.6094zm5.663 0v-13.6094h3.58v2.4502h.076c.483-1.7265 1.638-2.666 3.237-2.666.432 0 .8.0635 1.054.1397v3.2626c-.305-.1269-.812-.2158-1.346-.2158-1.828 0-2.894 1.1172-2.894 3.0342v7.6045zm8.722-9.6104c0-2.5898 2.234-4.291 5.7-4.291 3.491 0 5.65 1.7901 5.726 4.4561h-3.415c-.114-1.1045-.94-1.8535-2.311-1.8535-1.282 0-2.133.584-2.133 1.4853 0 .6983.508 1.168 1.879 1.46l2.324.4951c2.843.5967 4.011 1.7139 4.011 3.707 0 2.6787-2.45 4.4434-5.954 4.4434-3.758 0-5.928-1.752-6.17-4.4307h3.618c.229 1.1934 1.08 1.8282 2.552 1.8282 1.397 0 2.26-.5713 2.26-1.46 0-.7236-.47-1.1299-1.803-1.4346l-2.323-.4824c-2.628-.5586-3.961-1.8789-3.961-3.9229zm14.08-7.1347h3.707v3.1357h2.513v2.793h-2.513v6.5127c0 1.041.508 1.5361 1.599 1.5361.33 0 .673-.0254.902-.0635v2.7295c-.381.0889-1.016.1524-1.765.1524-3.199 0-4.443-1.0664-4.443-3.7197v-7.1475h-1.917v-2.793h1.917zm-135.25 46.7451h-3.834v-18.3193h11.998v3.1611h-8.164v4.9131h7.453v3.0341h-7.453zm9.599 0v-13.6094h3.58v2.4502h.076c.482-1.7265 1.638-2.666 3.237-2.666.432 0 .8.0635 1.054.1397v3.2626c-.305-.1269-.813-.2158-1.346-.2158-1.828 0-2.894 1.1172-2.894 3.0347v7.604zm12.657.216c-2.59 0-4.557-1.676-4.557-4.126 0-2.476 1.904-3.91 5.294-4.1134l3.427-.2032v-.9013c0-1.2696-.888-2.0059-2.285-2.0059-1.384 0-2.26.6856-2.437 1.6885h-3.39c.14-2.6406 2.387-4.4561 5.992-4.4561 3.491 0 5.764 1.8028 5.764 4.545v9.3564h-3.58v-2.082h-.076c-.762 1.447-2.451 2.298-4.152 2.298zm1.219-2.679c1.612 0 2.945-1.054 2.945-2.526v-.99l-2.869.177c-1.384.102-2.171.724-2.171 1.689 0 1.015.838 1.65 2.095 1.65zm8.468 2.463v-13.6094h3.58v2.4629h.077c.571-1.6377 2.031-2.7168 3.884-2.7168 1.968 0 3.339 1.0156 3.796 2.793h.076c.61-1.7139 2.235-2.793 4.228-2.793 2.666 0 4.456 1.8281 4.456 4.5703v9.293h-3.707v-8.3662c0-1.5742-.787-2.4375-2.222-2.4375-1.409 0-2.336 1.0283-2.336 2.5391v8.2646h-3.567v-8.4805c0-1.4599-.825-2.3232-2.196-2.3232-1.409 0-2.362 1.0664-2.362 2.5898v8.2139zm30.939-4.164h3.403c-.407 2.666-2.844 4.456-6.208 4.456-4.19 0-6.703-2.679-6.703-7.033 0-4.342 2.539-7.1604 6.563-7.1604 3.961 0 6.462 2.6787 6.462 6.8174v1.13h-9.382v.228c0 1.943 1.232 3.276 3.123 3.276 1.359 0 2.4-.673 2.742-1.714zm-2.907-6.9952c-1.625 0-2.793 1.2315-2.92 2.9326h5.777c-.077-1.7392-1.207-2.9326-2.857-2.9326zm26.839-2.4502-3.606 13.6094h-3.948l-2.463-9.623h-.076l-2.45 9.623h-3.898l-3.618-13.6094h3.732l2.057 10.0924h.076l2.412-10.0924h3.555l2.425 10.0924h.076l2.069-10.0924zm6.97 13.9014c-4.114 0-6.741-2.641-6.741-7.109 0-4.4057 2.666-7.0844 6.741-7.0844s6.741 2.666 6.741 7.0844c0 4.481-2.628 7.109-6.741 7.109zm0-2.831c1.815 0 2.97-1.536 2.97-4.266 0-2.7038-1.168-4.2653-2.97-4.2653-1.803 0-2.984 1.5615-2.984 4.2653 0 2.73 1.156 4.266 2.984 4.266zm8.138 2.539v-13.6094h3.58v2.4502h.076c.483-1.7265 1.638-2.666 3.238-2.666.431 0 .799.0635 1.053.1397v3.2626c-.304-.1269-.812-.2158-1.345-.2158-1.829 0-2.895 1.1172-2.895 3.0347v7.604zm12.797-8.1504 4.621-5.459h4.203l-5.193 5.8394 5.446 7.77h-4.265l-3.898-5.535-.964 1.041v4.494h-3.707v-18.3193h3.707v10.1689z" fill="url(#y)"/><g filter="url(#a)"><path d="m58 147h15v18c0 1.105-.8954 2-2 2h-11c-1.1046 0-2-.895-2-2z" fill="#fff"/></g><g filter="url(#b)"><path d="m98 147h15v18c0 1.105-.895 2-2 2h-11c-1.1046 0-2-.895-2-2z" fill="#fff"/></g><g filter="url(#c)"><path d="m138 147h15v18c0 1.105-.895 2-2 2h-11c-1.105 0-2-.895-2-2z" fill="#fff"/></g><g filter="url(#d)"><path d="m178 147h15v18c0 1.105-.895 2-2 2h-11c-1.105 0-2-.895-2-2z" fill="#fff"/></g><g filter="url(#e)"><path d="m218 147h15v18c0 1.105-.895 2-2 2h-11c-1.105 0-2-.895-2-2z" fill="#fff"/></g><g filter="url(#f)"><path d="m258 147h15v18c0 1.105-.895 2-2 2h-11c-1.105 0-2-.895-2-2z" fill="#fff"/></g><g filter="url(#g)"><path d="m298 147h15v18c0 1.105-.895 2-2 2h-11c-1.105 0-2-.895-2-2z" fill="#fff"/></g><g filter="url(#h)"><path d="m348 127.5v-15h18c1.105 0 2 .895 2 2v11c0 1.105-.895 2-2 2z" fill="#fff"/></g><g filter="url(#i)"><path d="m348 91.5v-15h18c1.105 0 2 .8954 2 2v11c0 1.1046-.895 2-2 2z" fill="#fff"/></g><g filter="url(#j)"><path d="m348 55.5v-15h18c1.105 0 2 .8954 2 2v11c0 1.1046-.895 2-2 2z" fill="#fff"/></g><g filter="url(#k)"><path d="m2 127.5c-1.104569 0-2.00000004-.895-2.00000009-2l-.00000048-11c-.00000005-1.105.89543057-2 2.00000057-2h18v15z" fill="#fff"/></g><g filter="url(#l)"><path d="m2 91.5c-1.104569 0-2.00000004-.8954-2.00000009-2l-.00000048-11c-.00000005-1.1046.89543057-2 2.00000057-2h18v15z" fill="#fff"/></g><g filter="url(#m)"><path d="m2 55.5c-1.104569 0-2.00000004-.8954-2.00000009-2l-.00000048-11c-.00000005-1.1046.89543057-2 2.00000057-2h18v15z" fill="#fff"/></g><g filter="url(#n)"><path d="m58 2c0-1.104569.8954-2 2-2h11c1.1046 0 2 .895431 2 2v18h-15z" fill="#fff"/></g><g filter="url(#o)"><path d="m98 2c0-1.104569.8954-2 2-2h11c1.105 0 2 .895431 2 2v18h-15z" fill="#fff"/></g><g filter="url(#p)"><path d="m138 2c0-1.104569.895-2 2-2h11c1.105 0 2 .895431 2 2v18h-15z" fill="#fff"/></g><g filter="url(#q)"><path d="m178 2c0-1.104569.895-2 2-2h11c1.105 0 2 .895431 2 2v18h-15z" fill="#fff"/></g><g filter="url(#r)"><path d="m218 2c0-1.104569.895-2 2-2h11c1.105 0 2 .895431 2 2v18h-15z" fill="#fff"/></g><g filter="url(#s)"><path d="m258 2c0-1.104569.895-2 2-2h11c1.105 0 2 .895431 2 2v18h-15z" fill="#fff"/></g><g filter="url(#t)"><path d="m298 2c0-1.104569.895-2 2-2h11c1.105 0 2 .895431 2 2v18h-15z" fill="#fff"/></g></g></svg>