<svg fill="none" height="86" viewBox="0 0 179 86" width="179" xmlns="http://www.w3.org/2000/svg" xmlns:xlink="http://www.w3.org/1999/xlink"><linearGradient id="a" gradientUnits="userSpaceOnUse" x1="8.8705" x2="125.665" y1="41.25" y2="41.25"><stop offset="0" stop-color="#0080f6"/><stop offset="1" stop-color="#82caff"/></linearGradient><path d="m41.7235 26.3192-1.8231 1.2051c-1.1124-1.648-2.5647-2.9458-4.3569-3.8934-1.7716-.9682-3.6977-1.4523-5.7783-1.4523-3.3784 0-6.2623 1.1948-8.6519 3.5844s-3.5844 5.2736-3.5844 8.652c0 3.3783 1.1948 6.2623 3.5844 8.6519s5.2735 3.5844 8.6519 3.5844c2.0806 0 4.0067-.4841 5.7783-1.4523 1.7922-.9682 3.2445-2.2763 4.3569-3.9243l1.7922 1.2978c-1.3184 1.9364-3.0282 3.4711-5.1294 4.6041s-4.3672 1.6995-6.798 1.6995c-1.957 0-3.8316-.3811-5.6237-1.1433-1.7716-.7622-3.3063-1.7922-4.6041-3.09s-2.3278-2.8325-3.09-4.6041c-.7622-1.7922-1.1433-3.6668-1.1433-5.6237 0-1.957.3811-3.8213 1.1433-5.5929.7622-1.7922 1.7922-3.3372 3.09-4.635s2.8325-2.3278 4.6041-3.09c1.7921-.7622 3.6667-1.1433 5.6237-1.1433 2.4514 0 4.7277.5768 6.8289 1.7304 2.1012 1.133 3.811 2.678 5.1294 4.635zm3.677-2.5338-1.854 1.2051c-1.5243-2.2248-3.5019-3.9861-5.9327-5.2839-2.4102-1.3184-5.0264-1.9775-7.8486-1.9775-3.0282 0-5.8194.7518-8.3738 2.2556-2.5544 1.4832-4.5835 3.502-6.0873 6.0564-1.4832 2.5544-2.2248 5.3457-2.2248 8.3739 0 3.0281.7416 5.8194 2.2248 8.3738 1.5038 2.5544 3.5329 4.5835 6.0873 6.0873 2.5544 1.4832 5.3456 2.2248 8.3738 2.2248 2.8222 0 5.4487-.6592 7.8795-1.9776s4.4084-3.1003 5.9327-5.3457l1.8231 1.2669c-1.7304 2.5544-3.9757 4.5732-6.7361 6.0564-2.7398 1.4831-5.7062 2.2247-8.8992 2.2247-3.4196 0-6.5816-.8446-9.4862-2.5337-2.9046-1.6892-5.2015-3.9861-6.8907-6.8907s-2.5338-6.0667-2.5338-9.4862c0-3.4196.8446-6.5817 2.5338-9.4863s3.9861-5.2015 6.8907-6.8907c2.9046-1.6891 6.0666-2.5337 9.4862-2.5337 3.193 0 6.1594.7416 8.8992 2.2248 2.7604 1.4831 5.0057 3.5019 6.7361 6.0563zm3.708-2.472-1.854 1.2051c-1.9364-2.8428-4.4496-5.0881-7.5395-6.7361-3.0694-1.6686-6.386-2.5029-9.9498-2.5029-2.8634 0-5.6031.5562-8.2193 1.6686s-4.8719 2.6162-6.7671 4.5113c-1.8746 1.8746-3.3681 4.12-4.4805 6.7362-1.11235 2.6162-1.66855 5.356-1.66855 8.2194 0 2.8633.5562 5.6031 1.66855 8.2193 1.1124 2.6162 2.6059 4.8719 4.4805 6.7671 1.8952 1.8746 4.1509 3.368 6.7671 4.4804s5.3559 1.6686 8.2193 1.6686c3.5844 0 6.9113-.8343 9.9807-2.5029 3.0693-1.6685 5.5722-3.9242 7.5086-6.767l1.7922 1.3287c-2.1424 3.1312-4.9131 5.6134-8.312 7.4468-3.3784 1.8128-7.0349 2.7192-10.9695 2.7192-4.223 0-8.1266-1.0403-11.711-3.1209-3.5844-2.1012-6.4272-4.9439-8.52836-8.5283-2.08058-3.5844-3.12088-7.4881-3.12088-11.711 0-4.223 1.0403-8.1267 3.12088-11.7111 2.10116-3.5844 4.94396-6.4168 8.52836-8.4974 3.5844-2.1012 7.488-3.1518 11.711-3.1518 3.9552 0 7.6323.927 11.0313 2.781 3.3989 1.8334 6.1696 4.3259 8.312 7.4777zm3.6462-2.5338-1.854 1.2051c-2.3484-3.4401-5.3869-6.1593-9.1154-8.1575-3.708-1.9982-7.7147-2.9973-12.0201-2.9973-3.4608 0-6.7773.6798-9.9497 2.0394-3.1518 1.339-5.871 3.1518-8.1576 5.4384-2.28656 2.2865-4.10964 5.016-5.46924 8.1884-1.33899 3.1518-2.00848 6.4581-2.00848 9.9189 0 3.4607.66949 6.7773 2.00848 9.9497 1.3596 3.1518 3.18268 5.871 5.46924 8.1575 2.2866 2.2866 5.0058 4.1097 8.1576 5.4693 3.1724 1.339 6.4889 2.0085 9.9497 2.0085 4.3054 0 8.3224-1.0094 12.051-3.0282 3.7285-2.0188 6.767-4.7483 9.1154-8.1884l1.7922 1.3596c-2.5544 3.7079-5.8504 6.6537-9.888 8.8373-4.0375 2.163-8.3944 3.2445-13.0706 3.2445-3.7698 0-7.3747-.7416-10.8149-2.2248-3.4196-1.4626-6.3757-3.4299-8.8683-5.9019-2.47195-2.4926-4.44953-5.4486-5.93272-8.8682-1.4626-3.4402-2.19389-7.0452-2.19389-10.8149 0-3.7698.73129-7.3645 2.19389-10.7841 1.48319-3.4402 3.46077-6.3962 5.93272-8.8682 2.4926-2.4926 5.4487-4.4702 8.8683-5.9328 3.4402-1.48319 7.0451-2.22478 10.8149-2.22478 4.6968 0 9.064 1.09179 13.1015 3.27538 4.0376 2.1836 7.3336 5.15 9.888 8.8991zm23.0686 10.0734h-3.7389c-1.5862 0-2.7295-.4017-3.4299-1.2051-.7004-.824-1.0506-1.9055-1.0506-3.2445 0-2.9664 2.2145-4.4496 6.6435-4.4496 4.1611 0 7.2923.618 9.3935 1.854l-1.7922 1.3596c-1.442-.6592-3.9758-.9888-7.6013-.9888-1.7716 0-2.9664.1957-3.5844.5871-.5974.3914-.8961.9373-.8961 1.6377s.1648 1.2463.4944 1.6377.9373.5871 1.8231.5871h3.8316c2.7809 0 5.2838.4738 7.5086 1.4214 2.2454.9476 4.0891 2.2454 5.5311 3.8934 1.442 1.6274 2.5441 3.5122 3.3063 5.6546.7622 2.1218 1.1433 4.3981 1.1433 6.8289 0 1.9776-.2781 3.8522-.8343 5.6238-.5562 1.7715-1.4008 3.3989-2.5338 4.8821-1.1124 1.4832-2.4617 2.7707-4.0479 3.8625-1.5656 1.0712-3.4402 1.9055-5.6238 2.5029-2.163.618-4.5113.927-7.0451.927-3.9758 0-7.7044-.6077-11.1858-1.8231-3.4607-1.1948-6.3447-2.8737-8.6519-5.0367l1.7922-1.3287c2.1012 1.8952 4.7276 3.3681 7.8794 4.4187 3.1724 1.03 6.5611 1.545 10.1661 1.545 2.8222 0 5.3662-.4017 7.6322-1.2051 2.2866-.824 4.1612-1.9467 5.6238-3.3681 1.4832-1.4214 2.6162-3.0694 3.399-4.9439.8034-1.8746 1.2051-3.8934 1.2051-6.0564 0-2.8634-.5768-5.4487-1.7304-7.7559-1.1536-2.3277-2.9149-4.2126-5.2839-5.6546-2.3484-1.442-5.1294-2.163-8.3429-2.163zm-3.7389 2.2248h3.5226c4.1817 0 7.4468 1.2772 9.7952 3.8315 2.369 2.5544 3.5535 5.7268 3.5535 9.5172 0 3.8522-1.3699 7.0452-4.1097 9.5789-2.7398 2.5132-6.5817 3.7698-11.5256 3.7698-3.296 0-6.3757-.4532-9.2391-1.3596s-5.2426-2.1836-7.1378-3.8316l1.7304-1.3904c1.6891 1.3801 3.8109 2.4513 6.3653 3.2135 2.575.7622 5.3354 1.1433 8.2812 1.1433 4.3465 0 7.6631-1.0403 9.9497-3.1209 2.3072-2.0805 3.4608-4.7482 3.4608-8.003 0-3.2136-.9682-5.871-2.9046-7.9722-1.9158-2.1011-4.6659-3.1517-8.2502-3.1517h-3.4917c-3.0076 0-5.2633-.824-6.7671-2.472s-2.2557-3.7904-2.2557-6.4272.927-4.7792 2.781-6.4272c1.8746-1.6479 4.6762-2.4719 8.4048-2.4719 2.6162 0 5.0469.309 7.2923.927 2.2454.5974 4.0994 1.4625 5.562 2.5955l-1.7613 1.3596c-2.575-1.7716-6.2727-2.6573-11.093-2.6573-3.1106 0-5.3869.6179-6.8289 1.8539-1.4214 1.2154-2.1321 2.8222-2.1321 4.8204 0 2.0188.5253 3.6359 1.5759 4.8513 1.0712 1.2154 2.8119 1.8231 5.2221 1.8231zm0 4.4495h3.399c3.0075 0 5.2632.8343 6.767 2.5029s2.2557 3.8007 2.2557 6.3963c0 2.6368-.9373 4.7792-2.8119 6.4272-1.854 1.6479-4.6453 2.4719-8.3738 2.4719-2.6162 0-5.0573-.2987-7.3233-.8961-2.2454-.618-4.0994-1.4934-5.562-2.6264l1.7613-1.3596c2.575 1.7716 6.283 2.6574 11.124 2.6574 3.1106 0 5.3765-.6077 6.7979-1.8231 1.442-1.236 2.163-2.8531 2.163-4.8513s-.5356-3.605-1.6068-4.8204c-1.0712-1.236-2.8119-1.854-5.222-1.854h-3.3681c-4.223 0-7.5293-1.2566-9.9189-3.7697-2.3689-2.5338-3.5534-5.7268-3.5534-9.579s1.3698-7.0348 4.1096-9.548c2.7398-2.5338 6.5817-3.8007 11.5257-3.8007 3.2959 0 6.3653.4532 9.2081 1.3596 2.8634.9064 5.2427 2.1836 7.1379 3.8316l-1.7304 1.3905c-1.6892-1.3802-3.811-2.4514-6.3654-3.2136s-5.3045-1.1433-8.2502-1.1433c-4.3466 0-7.6735 1.0403-9.9807 3.1209-2.2866 2.0805-3.4299 4.7482-3.4299 8.003 0 3.2342.9682 5.9019 2.9046 8.0031 1.9364 2.0806 4.7174 3.1208 8.343 3.1208zm0 4.4496h3.399c1.5861 0 2.7294.412 3.4298 1.236s1.0506 1.8952 1.0506 3.2136c0 2.9664-2.2145 4.4496-6.6434 4.4496-4.1818 0-7.3233-.618-9.4245-1.854l1.7922-1.3596c1.442.6592 3.9861.9888 7.6323.9888 1.7716 0 2.9561-.1957 3.5534-.5871.618-.3914.927-.9373.927-1.6377 0-.6798-.1751-1.2154-.5253-1.6068-.3296-.412-.9475-.618-1.8539-.618h-3.3372c-2.8428 0-5.4178-.4635-7.725-1.3905-2.2866-.927-4.1715-2.2042-5.6546-3.8316-1.4626-1.6274-2.5853-3.5122-3.3681-5.6546s-1.1742-4.4496-1.1742-6.9216c0-1.9776.2781-3.8522.8343-5.6238.5562-1.7715 1.3905-3.3989 2.5029-4.8821 1.133-1.4832 2.4822-2.7604 4.0478-3.8316 1.5862-1.0918 3.4608-1.93639 5.6238-2.53379 2.1836-.618 4.5423-.92699 7.0761-.92699 3.9757 0 7.694.60769 11.1548 1.82309 3.4608 1.19479 6.3448 2.87369 8.6519 5.03669l-1.7921 1.3287c-2.1012-1.8952-4.7277-3.3578-7.8795-4.3878-3.1518-1.0506-6.5302-1.5759-10.1351-1.5759-2.8222 0-5.3766.412-7.6632 1.236-2.266.8034-4.1406 1.9158-5.6238 3.3372-1.4625 1.4214-2.5955 3.0694-3.3989 4.9439-.7828 1.8746-1.1742 3.8934-1.1742 6.0564 0 2.9046.5871 5.5208 1.7613 7.8486s2.9663 4.2023 5.3765 5.6237c2.4102 1.4008 5.2633 2.1012 8.5593 2.1012zm45.0386-11.1239h-3.739c-1.586 0-2.73-.4017-3.43-1.2051-.7-.824-1.051-1.9055-1.051-3.2445 0-2.9664 2.215-4.4496 6.644-4.4496 4.161 0 7.292.618 9.393 1.854l-1.792 1.3596c-1.442-.6592-3.976-.9888-7.601-.9888-1.772 0-2.967.1957-3.585.5871-.597.3914-.896.9373-.896 1.6377s.165 1.2463.495 1.6377c.329.3914.937.5871 1.823.5871h3.831c2.781 0 5.284.4738 7.509 1.4214 2.245.9476 4.089 2.2454 5.531 3.8934 1.442 1.6274 2.544 3.5122 3.306 5.6546.763 2.1218 1.144 4.3981 1.144 6.8289 0 1.9776-.278 3.8522-.835 5.6238-.556 1.7715-1.4 3.3989-2.533 4.8821-1.113 1.4832-2.462 2.7707-4.048 3.8625-1.566 1.0712-3.44 1.9055-5.624 2.5029-2.163.618-4.511.927-7.045.927-3.976 0-7.705-.6077-11.186-1.8231-3.4607-1.1948-6.3447-2.8737-8.6519-5.0367l1.7922-1.3287c2.1012 1.8952 4.7277 3.3681 7.8797 4.4187 3.172 1.03 6.561 1.545 10.166 1.545 2.822 0 5.366-.4017 7.632-1.2051 2.287-.824 4.161-1.9467 5.624-3.3681 1.483-1.4214 2.616-3.0694 3.399-4.9439.803-1.8746 1.205-3.8934 1.205-6.0564 0-2.8634-.577-5.4487-1.73-7.7559-1.154-2.3277-2.915-4.2126-5.284-5.6546-2.349-1.442-5.13-2.163-8.343-2.163zm-3.739 2.2248h3.522c4.182 0 7.447 1.2772 9.796 3.8315 2.369 2.5544 3.553 5.7268 3.553 9.5172 0 3.8522-1.37 7.0452-4.11 9.5789-2.739 2.5132-6.581 3.7698-11.525 3.7698-3.296 0-6.376-.4532-9.239-1.3596-2.864-.9064-5.243-2.1836-7.1381-3.8316l1.7304-1.3904c1.6897 1.3801 3.8107 2.4513 6.3657 3.2135 2.575.7622 5.335 1.1433 8.281 1.1433 4.346 0 7.663-1.0403 9.95-3.1209 2.307-2.0805 3.46-4.7482 3.46-8.003 0-3.2136-.968-5.871-2.904-7.9722-1.916-2.1011-4.666-3.1517-8.25-3.1517h-3.492c-3.008 0-5.263-.824-6.767-2.472s-2.256-3.7904-2.256-6.4272.927-4.7792 2.781-6.4272c1.875-1.6479 4.676-2.4719 8.405-2.4719 2.616 0 5.047.309 7.292.927 2.246.5974 4.1 1.4625 5.562 2.5955l-1.761 1.3596c-2.575-1.7716-6.273-2.6573-11.093-2.6573-3.111 0-5.387.6179-6.829 1.8539-1.421 1.2154-2.132 2.8222-2.132 4.8204 0 2.0188.525 3.6359 1.576 4.8513 1.071 1.2154 2.812 1.8231 5.222 1.8231zm0 4.4495h3.399c3.007 0 5.263.8343 6.767 2.5029s2.256 3.8007 2.256 6.3963c0 2.6368-.938 4.7792-2.812 6.4272-1.854 1.6479-4.646 2.4719-8.374 2.4719-2.616 0-5.057-.2987-7.323-.8961-2.246-.618-4.1-1.4934-5.562-2.6264l1.761-1.3596c2.575 1.7716 6.283 2.6574 11.124 2.6574 3.11 0 5.376-.6077 6.798-1.8231 1.442-1.236 2.163-2.8531 2.163-4.8513s-.536-3.605-1.607-4.8204c-1.071-1.236-2.812-1.854-5.222-1.854h-3.368c-4.223 0-7.529-1.2566-9.919-3.7697-2.369-2.5338-3.5535-5.7268-3.5535-9.579s1.3695-7.0348 4.1095-9.548c2.74-2.5338 6.582-3.8007 11.526-3.8007 3.296 0 6.365.4532 9.208 1.3596 2.863.9064 5.243 2.1836 7.138 3.8316l-1.731 1.3905c-1.689-1.3802-3.811-2.4514-6.365-3.2136s-5.304-1.1433-8.25-1.1433c-4.347 0-7.674 1.0403-9.981 3.1209-2.286 2.0805-3.43 4.7482-3.43 8.003 0 3.2342.969 5.9019 2.905 8.0031 1.936 2.0806 4.717 3.1208 8.343 3.1208zm0 4.4496h3.399c1.586 0 2.729.412 3.43 1.236.7.824 1.05 1.8952 1.05 3.2136 0 2.9664-2.214 4.4496-6.643 4.4496-4.182 0-7.323-.618-9.425-1.854l1.793-1.3596c1.442.6592 3.986.9888 7.632.9888 1.771 0 2.956-.1957 3.553-.5871.618-.3914.927-.9373.927-1.6377 0-.6798-.175-1.2154-.525-1.6068-.33-.412-.948-.618-1.854-.618h-3.337c-2.843 0-5.418-.4635-7.725-1.3905-2.287-.927-4.172-2.2042-5.655-3.8316-1.4624-1.6274-2.5851-3.5122-3.3679-5.6546s-1.1742-4.4496-1.1742-6.9216c0-1.9776.2781-3.8522.8343-5.6238.5562-1.7715 1.3905-3.3989 2.5029-4.8821 1.133-1.4832 2.4819-2.7604 4.0479-3.8316 1.586-1.0918 3.461-1.93639 5.624-2.53379 2.183-.618 4.542-.92699 7.076-.92699 3.976 0 7.694.60769 11.155 1.82309 3.46 1.19479 6.344 2.87369 8.652 5.03669l-1.793 1.3287c-2.101-1.8952-4.727-3.3578-7.879-4.3878-3.152-1.0506-6.53-1.5759-10.135-1.5759-2.822 0-5.377.412-7.663 1.236-2.266.8034-4.141 1.9158-5.624 3.3372-1.463 1.4214-2.5957 3.0694-3.3991 4.9439-.7828 1.8746-1.1742 3.8934-1.1742 6.0564 0 2.9046.5871 5.5208 1.7613 7.8486 1.174 2.3278 2.966 4.2023 5.377 5.6237 2.41 1.4008 5.263 2.1012 8.559 2.1012z" fill="url(#a)"/><path d="m150.937 35.4942v6.8924h-2.646v-6.8924h-6.565v-2.6459h6.565v-6.8924h2.646v6.8924h6.566v2.6459zm19.217 0v6.8924h-2.646v-6.8924h-6.566v-2.6459h6.566v-6.8924h2.646v6.8924h6.566v2.6459z" fill="#4db0f8"/></svg>