<svg fill="none" height="342" viewBox="0 0 513 342" width="513" xmlns="http://www.w3.org/2000/svg"><path d="m0 0h513v342h-513z" fill="#fff"/><rect fill="#0094ff" height="46.4022" opacity=".3" rx="23.2011" width="46.4026" x="126.127" y="241.337"/><rect fill="#0094ff" height="46.4022" opacity=".5" rx="23.2011" width="46.4026" x="195.262" y="241.337"/><rect fill="#0094ff" height="46.4022" opacity=".7" rx="23.2011" width="46.4026" x="264.395" y="241.337"/><rect fill="#0094ff" height="46.4022" rx="23.2011" width="46.4026" x="333.521" y="241.337"/><rect fill="#0094ff" height="46.4022" opacity=".1" rx="23.2011" width="46.4026" x="57" y="241.336"/><g fill="#425156"><rect height="46.4022" opacity=".1" rx="23.2011" width="46.4026" x="57" y="171.26"/><rect height="46.4022" opacity=".2" rx="23.2011" width="46.4026" x="126.127" y="171.261"/><rect height="46.4022" opacity=".6" rx="23.2011" width="46.4026" x="264.396" y="171.26"/><rect height="46.4022" opacity=".8" rx="23.2011" width="46.4026" x="333.523" y="171.26"/><rect height="46.4022" rx="23.2011" width="46.4026" x="402.652" y="171.26"/><rect height="46.4022" opacity=".4" rx="23.2011" width="46.4026" x="195.256" y="171.261"/></g><path d="m113.826 133-4.888-17.026h-25.3511l-4.9414 17.026h-20.0879l26.0498-77.5049h24.1166l26.049 77.5049zm-17.7781-61.0693-8.6475 29.8633h17.6706l-8.5935-29.8633zm59.9691 61.9283c-10.849 0-19.658-7.197-19.658-17.778 0-10.957 8.433-17.08 23.579-17.9931l13.696-.8057v-3.3301c0-4.6728-3.33-7.2509-8.325-7.2509-5.156 0-8.432 2.6855-8.97 6.2842h-17.133c.537-11.9776 10.742-19.8731 27.07-19.8731 15.63 0 25.996 8.0029 25.996 19.7656v40.1221h-18.53v-8.325h-.376c-3.169 5.908-10.313 9.184-17.349 9.184zm6.768-13.105c5.801 0 10.849-3.545 10.849-8.755v-4.028l-10.634.698c-4.996.376-7.788 2.685-7.788 6.123 0 3.706 3.061 5.962 7.573 5.962z" fill="#000"/><path d="m221.762 89.1719h3.34c.222 1.4179 1.652 2.2617 3.574 2.2617 1.886 0 3.176-.9141 3.176-2.1563 0-1.1132-.797-1.7461-2.918-2.1796l-1.782-.3516c-3.375-.668-5.027-2.2852-5.027-4.8047 0-3.0937 2.695-5.1445 6.457-5.1445 3.949 0 6.434 2.0625 6.492 5.1679h-3.34c-.117-1.4414-1.371-2.3086-3.152-2.3086-1.746 0-2.918.8204-2.918 2.0626 0 1.0429.82 1.6874 2.813 2.0859l1.793.3633c3.574.7148 5.132 2.1562 5.132 4.7226 0 3.3047-2.59 5.3906-6.82 5.3906-4.031 0-6.715-1.9218-6.82-5.1093zm19.242 5.0273c-2.391 0-4.207-1.5469-4.207-3.8086 0-2.2851 1.758-3.6094 4.887-3.7968l3.164-.1876v-.832c0-1.1719-.821-1.8515-2.11-1.8515-1.277 0-2.086.6328-2.25 1.5585h-3.129c.129-2.4374 2.203-4.1132 5.532-4.1132 3.222 0 5.32 1.664 5.32 4.1953v8.6367h-3.305v-1.9219h-.07c-.703 1.336-2.262 2.1211-3.832 2.1211zm1.125-2.4726c1.488 0 2.719-.9727 2.719-2.3321v-.914l-2.649.164c-1.277.0938-2.004.668-2.004 1.5586 0 .9375.774 1.5235 1.934 1.5235zm8.297 2.2734v-12.5625h3.304v2.2383h.071c.668-1.5586 1.992-2.4727 3.926-2.4727 2.789 0 4.359 1.7578 4.359 4.6992v8.0977h-3.422v-7.3828c0-1.6406-.773-2.5781-2.309-2.5781-1.535 0-2.507 1.125-2.507 2.7539v7.207zm22.418 0h-3.539v-16.9102h11.074v2.918h-7.535v4.5352h6.879v2.8008h-6.879zm9.34 0v-12.5625h3.304v2.2617h.071c.445-1.5937 1.511-2.4609 2.988-2.4609.398 0 .738.0586.973.1289v3.0117c-.282-.1172-.75-.1992-1.243-.1992-1.687 0-2.672 1.0312-2.672 2.8008v7.0195zm12.164.1992c-2.391 0-4.207-1.5469-4.207-3.8086 0-2.2851 1.757-3.6094 4.886-3.7968l3.164-.1876v-.832c0-1.1719-.82-1.8515-2.109-1.8515-1.277 0-2.086.6328-2.25 1.5585h-3.129c.129-2.4374 2.203-4.1132 5.531-4.1132 3.223 0 5.321 1.664 5.321 4.1953v8.6367h-3.305v-1.9219h-.07c-.703 1.336-2.262 2.1211-3.832 2.1211zm1.125-2.4726c1.488 0 2.718-.9727 2.718-2.3321v-.914l-2.648.164c-1.277.0938-2.004.668-2.004 1.5586 0 .9375.773 1.5235 1.934 1.5235zm8.297 2.2734v-12.5625h3.304v2.2383h.071c.667-1.5586 1.992-2.4727 3.925-2.4727 2.789 0 4.36 1.7578 4.36 4.6992v8.0977h-3.422v-7.3828c0-1.6406-.774-2.5781-2.309-2.5781s-2.508 1.125-2.508 2.7539v7.207zm25.242-7.8867h-3.176c-.199-1.3242-1.078-2.2617-2.484-2.2617-1.688 0-2.743 1.4296-2.743 3.8554 0 2.4727 1.055 3.8789 2.754 3.8789 1.371 0 2.262-.8203 2.473-2.1914h3.187c-.175 2.9649-2.39 4.875-5.695 4.875-3.785 0-6.187-2.4609-6.187-6.5625 0-4.0312 2.402-6.539 6.164-6.539 3.398 0 5.554 2.0976 5.707 4.9453zm3.422-6.375c-.996 0-1.782-.7969-1.782-1.7578 0-.9727.786-1.7578 1.782-1.7578s1.781.7851 1.781 1.7578c0 .9609-.785 1.7578-1.781 1.7578zm-1.7 14.2617v-12.5625h3.422v12.5625zm5.496-8.8711c0-2.3906 2.063-3.9609 5.262-3.9609 3.223 0 5.215 1.6523 5.285 4.1132h-3.152c-.105-1.0195-.867-1.7109-2.133-1.7109-1.183 0-1.969.5391-1.969 1.3711 0 .6445.469 1.0781 1.735 1.3477l2.144.457c2.625.5508 3.703 1.582 3.703 3.4219 0 2.4726-2.261 4.1015-5.496 4.1015-3.468 0-5.472-1.6172-5.695-4.0898h3.34c.211 1.1015.996 1.6875 2.355 1.6875 1.289 0 2.086-.5274 2.086-1.3477 0-.6679-.433-1.0429-1.664-1.3242l-2.144-.4453c-2.426-.5156-3.657-1.7344-3.657-3.6211zm23.977.9844h-3.176c-.199-1.3242-1.078-2.2617-2.484-2.2617-1.688 0-2.742 1.4296-2.742 3.8554 0 2.4727 1.054 3.8789 2.754 3.8789 1.371 0 2.261-.8203 2.472-2.1914h3.188c-.176 2.9649-2.391 4.875-5.696 4.875-3.785 0-6.187-2.4609-6.187-6.5625 0-4.0312 2.402-6.539 6.164-6.539 3.398 0 5.555 2.0976 5.707 4.9453zm7.43 8.1562c-3.797 0-6.223-2.4375-6.223-6.5625 0-4.0664 2.461-6.539 6.223-6.539 3.761 0 6.222 2.4609 6.222 6.539 0 4.1368-2.425 6.5625-6.222 6.5625zm0-2.6133c1.675 0 2.742-1.4179 2.742-3.9374 0-2.4961-1.078-3.9376-2.742-3.9376s-2.754 1.4415-2.754 3.9376c0 2.5195 1.066 3.9374 2.754 3.9374zm20.531 2.3438h-7.488v-16.9102h7.359c3.176 0 5.168 1.629 5.168 4.2188 0 1.8516-1.383 3.3984-3.176 3.668v.0937c2.297.1758 3.985 1.8516 3.985 4.0899 0 2.9765-2.239 4.8398-5.848 4.8398zm-3.949-14.2734v4.3945h2.543c1.886 0 2.965-.832 2.965-2.2617 0-1.3594-.95-2.1328-2.602-2.1328zm0 11.6367h3.047c2.039 0 3.14-.8672 3.14-2.4844 0-1.582-1.136-2.4258-3.222-2.4258h-2.965zm17.285 2.9062c-3.797 0-6.223-2.4375-6.223-6.5625 0-4.0664 2.461-6.539 6.223-6.539s6.223 2.4609 6.223 6.539c0 4.1368-2.426 6.5625-6.223 6.5625zm0-2.6133c1.676 0 2.742-1.4179 2.742-3.9374 0-2.4961-1.078-3.9376-2.742-3.9376s-2.754 1.4415-2.754 3.9376c0 2.5195 1.066 3.9374 2.754 3.9374zm8.074 2.3438v-16.9102h3.422v16.9102zm10.395.1992c-3.141 0-5.121-2.4844-5.121-6.5039 0-3.9844 1.992-6.457 5.144-6.457 1.816 0 3.223.9609 3.832 2.3555h.07v-6.504h3.422v16.9102h-3.375v-2.1562h-.058c-.61 1.3828-2.063 2.3554-3.914 2.3554zm1.16-10.2187c-1.723 0-2.778 1.4414-2.778 3.7383 0 2.3085 1.055 3.7265 2.778 3.7265 1.699 0 2.789-1.4297 2.789-3.7265 0-2.2852-1.09-3.7383-2.789-3.7383z" fill="#000"/><path d="m221.82 126.465h2.11c.246 1.816 1.933 2.918 4.359 2.918 2.297 0 3.961-1.207 3.961-2.871 0-1.418-.938-2.356-3.281-2.871l-1.875-.411c-3.387-.738-4.852-2.273-4.852-4.675 0-2.789 2.461-4.746 5.965-4.746 3.375 0 5.813 2.015 5.906 4.886h-2.109c-.188-1.851-1.652-2.988-3.856-2.988-2.109 0-3.738 1.031-3.738 2.754 0 1.336.902 2.25 3.211 2.754l1.875.41c3.527.773 4.922 2.18 4.922 4.57 0 3.129-2.461 5.086-6.246 5.086-3.692 0-6.152-1.898-6.352-4.816zm18.317 4.746c-2.426 0-4.055-1.465-4.055-3.656 0-2.086 1.606-3.399 4.418-3.563l3.492-.199v-1.02c0-1.488-.984-2.378-2.672-2.378-1.57 0-2.554.738-2.812 1.933h-1.969c.141-2.109 1.945-3.726 4.828-3.726 2.86 0 4.664 1.546 4.664 3.972v8.426h-1.933v-2.098h-.047c-.727 1.395-2.274 2.309-3.914 2.309zm.457-1.734c1.922 0 3.398-1.348 3.398-3.106v-.996l-3.258.199c-1.64.106-2.578.832-2.578 1.981 0 1.16.973 1.922 2.438 1.922zm8.027 1.523v-12.188h1.922v1.946h.047c.68-1.313 1.98-2.156 3.867-2.156 2.672 0 4.219 1.722 4.219 4.488v7.91h-2.039v-7.547c0-1.969-.926-3.047-2.801-3.047-1.922 0-3.176 1.36-3.176 3.422v7.172zm20.004 0h-2.109v-16.91h10.265v1.898h-8.156v5.813h7.488v1.875h-7.488zm10.254 0v-12.188h1.922v1.993h.047c.398-1.348 1.523-2.203 2.953-2.203.351 0 .656.058.82.082v1.98c-.164-.059-.598-.117-1.09-.117-1.582 0-2.613 1.137-2.613 2.859v7.594zm10.734.211c-2.425 0-4.054-1.465-4.054-3.656 0-2.086 1.605-3.399 4.418-3.563l3.492-.199v-1.02c0-1.488-.985-2.378-2.672-2.378-1.57 0-2.555.738-2.813 1.933h-1.968c.14-2.109 1.945-3.726 4.828-3.726 2.859 0 4.664 1.546 4.664 3.972v8.426h-1.934v-2.098h-.047c-.726 1.395-2.273 2.309-3.914 2.309zm.457-1.734c1.922 0 3.399-1.348 3.399-3.106v-.996l-3.258.199c-1.641.106-2.578.832-2.578 1.981 0 1.16.972 1.922 2.437 1.922zm8.028 1.523v-12.188h1.922v1.946h.046c.68-1.313 1.981-2.156 3.868-2.156 2.671 0 4.218 1.722 4.218 4.488v7.91h-2.039v-7.547c0-1.969-.925-3.047-2.801-3.047-1.921 0-3.175 1.36-3.175 3.422v7.172zm22.781-8.191h-1.992c-.293-1.325-1.325-2.414-3.117-2.414-2.11 0-3.54 1.746-3.54 4.511 0 2.836 1.454 4.512 3.563 4.512 1.664 0 2.754-.879 3.105-2.344h2.004c-.316 2.426-2.355 4.137-5.121 4.137-3.375 0-5.625-2.379-5.625-6.305 0-3.844 2.239-6.304 5.602-6.304 3.047 0 4.863 2.015 5.121 4.207zm3.023-6.164c-.703 0-1.277-.575-1.277-1.278 0-.715.574-1.277 1.277-1.277.715 0 1.278.562 1.278 1.277 0 .703-.563 1.278-1.278 1.278zm-1.019 14.355v-12.188h2.039v12.188zm4.582-8.824c0-2.086 1.84-3.574 4.476-3.574 2.672 0 4.454 1.57 4.536 3.726h-1.946c-.152-1.277-1.09-2.062-2.59-2.062-1.488 0-2.472.738-2.472 1.804 0 .844.621 1.418 1.98 1.746l1.934.469c2.461.598 3.351 1.559 3.351 3.305 0 2.121-2.004 3.621-4.722 3.621-2.86 0-4.641-1.441-4.875-3.727h2.039c.246 1.395 1.183 2.063 2.836 2.063 1.652 0 2.672-.703 2.672-1.805 0-.879-.481-1.383-1.875-1.722l-1.934-.469c-2.297-.551-3.41-1.617-3.41-3.375zm21.515.633h-1.992c-.293-1.325-1.324-2.414-3.117-2.414-2.109 0-3.539 1.746-3.539 4.511 0 2.836 1.453 4.512 3.563 4.512 1.664 0 2.753-.879 3.105-2.344h2.004c-.316 2.426-2.356 4.137-5.121 4.137-3.375 0-5.625-2.379-5.625-6.305 0-3.844 2.238-6.304 5.601-6.304 3.047 0 4.864 2.015 5.121 4.207zm6.95 8.402c-3.375 0-5.649-2.426-5.649-6.305 0-3.89 2.274-6.304 5.649-6.304 3.363 0 5.636 2.414 5.636 6.304 0 3.879-2.273 6.305-5.636 6.305zm0-1.793c2.156 0 3.562-1.641 3.562-4.512s-1.406-4.511-3.562-4.511c-2.157 0-3.575 1.64-3.575 4.511s1.418 4.512 3.575 4.512zm15.047-5.109v6.691h-2.11v-16.91h6.34c3.258 0 5.391 1.992 5.391 5.039 0 2.355-1.278 4.183-3.399 4.851l3.914 7.02h-2.472l-3.621-6.691zm0-8.344v6.48h4.043c2.168 0 3.398-1.172 3.398-3.246 0-2.027-1.313-3.234-3.492-3.234zm20.05 11.543h2.004c-.351 2.133-2.414 3.703-5.074 3.703-3.492 0-5.613-2.426-5.613-6.258 0-3.785 2.156-6.351 5.519-6.351 3.293 0 5.321 2.39 5.321 6.082v.773h-8.743v.117c0 2.332 1.371 3.867 3.563 3.867 1.547 0 2.684-.785 3.023-1.933zm-3.199-7.137c-1.91 0-3.246 1.465-3.375 3.492h6.621c-.047-2.039-1.324-3.492-3.246-3.492zm12.445 15.223c-2.683 0-4.804-1.512-5.144-3.586h2.098c.398 1.113 1.605 1.851 3.128 1.851 2.11 0 3.387-1.218 3.387-3.035v-1.922h-.047c-.75 1.325-2.191 2.192-3.902 2.192-3.105 0-5.145-2.449-5.145-6.235 0-3.82 2.04-6.257 5.192-6.257 1.722 0 3.152.843 3.961 2.261h.035v-2.051h1.945v11.942c0 2.906-2.144 4.84-5.508 4.84zm-.07-6.293c2.121 0 3.539-1.758 3.539-4.442 0-2.683-1.418-4.464-3.539-4.464-2.098 0-3.469 1.734-3.469 4.464 0 2.731 1.371 4.442 3.469 4.442zm18.246-10.489v12.188h-1.933v-1.98h-.047c-.727 1.406-1.992 2.191-3.867 2.191-2.661 0-4.219-1.723-4.219-4.488v-7.911h2.039v7.547c0 1.981.926 3.047 2.812 3.047 1.981 0 3.176-1.359 3.176-3.433v-7.161zm2.754 12.188v-16.91h2.039v16.91zm8.356.211c-2.426 0-4.055-1.465-4.055-3.656 0-2.086 1.605-3.399 4.418-3.563l3.492-.199v-1.02c0-1.488-.984-2.378-2.672-2.378-1.57 0-2.554.738-2.812 1.933h-1.969c.141-2.109 1.945-3.726 4.828-3.726 2.859 0 4.664 1.546 4.664 3.972v8.426h-1.933v-2.098h-.047c-.727 1.395-2.274 2.309-3.914 2.309zm.457-1.734c1.922 0 3.398-1.348 3.398-3.106v-.996l-3.258.199c-1.64.106-2.578.832-2.578 1.981 0 1.16.973 1.922 2.438 1.922zm8.027 1.523v-12.188h1.922v1.993h.047c.398-1.348 1.523-2.203 2.953-2.203.351 0 .656.058.82.082v1.98c-.164-.059-.597-.117-1.09-.117-1.582 0-2.613 1.137-2.613 2.859v7.594z" fill="#000"/></svg>