<svg width="421" height="249" viewBox="0 0 421 249" fill="none" xmlns="http://www.w3.org/2000/svg">
<g clip-path="url(#clip0_10169_249)">
<rect width="421" height="249" fill="white"/>
<g clip-path="url(#clip1_10169_249)">
<path d="M194.452 56.1564L82.8443 83.9675L109.989 30.0118L56.6039 72.5408L55.1026 46.4828L27.6754 81.5881L20.4079 90.89L19.9608 91.4623C18.6991 93.0773 17.5465 94.5937 16.4615 96.056C9.16522 105.938 5.96288 113.063 6.43708 126.07C6.54629 129.072 6.83556 132.36 7.32934 136.098C7.44291 136.944 7.63467 137.798 7.89511 138.666C9.40694 143.7 13.5006 149.087 20.3702 155.177C22.0677 156.682 23.8786 158.219 25.9264 159.819C27.9972 161.436 30.1908 163.053 32.4691 164.664C34.4325 166.052 36.4547 167.428 38.5223 168.791C61.2869 183.806 88.9124 196.907 90.2983 197.563L117.06 210.197L78.1107 168.265L159.474 197.835L94.6936 147.223L274.853 127.914L109.551 111.098L194.452 56.1564ZM86.8653 135.995L80.4934 136.679L73.8318 137.395L64.7281 138.372L71.0858 143.339L76.0372 147.208L80.976 151.067L95.1561 162.145L77.4206 155.698L71.0235 153.374L64.3493 150.95L40.8195 142.398L37.1517 141.066L40.6886 144.873L51.7674 156.799L56.4881 161.88L61.0379 166.779L65.6959 171.797C63.3303 170.468 60.9002 169.059 58.4698 167.636C55.9507 166.158 53.4531 164.638 50.952 163.082C47.9601 161.224 45.0399 159.336 42.2124 157.418C40.9117 156.538 39.6811 155.663 38.4401 154.781C36.5747 153.45 34.6922 152.12 32.9967 150.795C20.986 141.411 19.5366 136.78 19.3757 135.587C19.0131 132.848 18.773 130.448 18.6307 128.255C17.8055 115.318 20.9819 110.54 29.8435 99.1978L35.0701 92.5081L39.9167 86.3047L44.2417 80.769L44.9338 79.8831L44.9893 80.8776L45.3369 86.8458L45.6835 92.8427L45.9244 97.0199L49.8451 93.8957L55.1227 89.6922L60.1611 85.6801L73.2668 75.2375L66.1813 89.321L63.5783 94.498L60.9753 99.675L59.6694 102.27L63.0875 101.417L69.6655 99.7776L76.0014 98.1959L125.829 85.7787L84.5056 112.522L79.4208 115.814L74.2689 119.15L73.9772 119.32L74.3058 119.354L80.5481 119.989L86.7557 120.622L160.395 128.114L86.8653 135.995Z" fill="url(#paint0_linear_10169_249)"/>
<path d="M107.191 239.659L38.8906 181.269L101.233 244.02C113.455 250.099 107.191 239.659 107.191 239.659Z" fill="url(#paint1_linear_10169_249)"/>
<path d="M85.338 16.4541L63.5669 55.9445C63.5669 55.9445 93.2749 14.968 97.3938 10.9512C101.511 6.93769 94.7074 -0.532653 85.338 16.4541Z" fill="url(#paint2_linear_10169_249)"/>
<path d="M208.675 91.5851L141.898 102.604C141.898 102.604 218.601 99.1253 227.374 100.138C236.147 101.144 237.403 86.84 208.675 91.5851Z" fill="url(#paint3_linear_10169_249)"/>
</g>
</g>
<defs>
<linearGradient id="paint0_linear_10169_249" x1="255.731" y1="113.627" x2="14.1927" y2="135.105" gradientUnits="userSpaceOnUse">
<stop offset="0.399885" stop-color="#008FF6"/>
<stop offset="0.845681"/>
</linearGradient>
<linearGradient id="paint1_linear_10169_249" x1="104.962" y1="233.462" x2="89.7425" y2="247.857" gradientUnits="userSpaceOnUse">
<stop offset="0.399885" stop-color="#008FF6"/>
<stop offset="0.845681"/>
</linearGradient>
<linearGradient id="paint2_linear_10169_249" x1="98.4206" y1="9.98894" x2="88.73" y2="3.86646" gradientUnits="userSpaceOnUse">
<stop offset="0.399885" stop-color="#008FF6"/>
<stop offset="0.845681"/>
</linearGradient>
<linearGradient id="paint3_linear_10169_249" x1="226.91" y1="93.4022" x2="149.528" y2="96.9741" gradientUnits="userSpaceOnUse">
<stop offset="0.399885" stop-color="#008FF6"/>
<stop offset="0.845681"/>
</linearGradient>
<clipPath id="clip0_10169_249">
<rect width="421" height="249" fill="white"/>
</clipPath>
<clipPath id="clip1_10169_249">
<rect width="258.01" height="236.145" fill="white" transform="translate(80.5352 -42.4661) rotate(38)"/>
</clipPath>
</defs>
</svg>
