<svg fill="none" height="275" viewBox="0 0 440 275" width="440" xmlns="http://www.w3.org/2000/svg">
  <path d="m0 0h440v275h-440z" fill="#fff" />

  <path d="m199.707 56.7064c.391-.3906.391-1.0237 0-1.4142l-6.364-6.364c-.39-.3905-1.024-.3905-1.414 0-.391.3905-.391 1.0237 0 1.4142l5.657 5.6569-5.657 5.6568c-.391.3905-.391 1.0237 0 1.4142.39.3906 1.024.3906 1.414 0zm-85.707.2929h85v-2h-85z" class="hmr-arrow hmr-arrow-1" />
  <path d="m199.707 111.707c.391-.39.391-1.024 0-1.414l-6.364-6.364c-.39-.391-1.024-.391-1.414 0-.391.39-.391 1.024 0 1.414l5.657 5.657-5.657 5.657c-.391.39-.391 1.024 0 1.414.39.391 1.024.391 1.414 0zm-85.707.293h85v-2h-85z" class="hmr-arrow delay-1" />
  <path d="m199.707 166.707c.391-.39.391-1.024 0-1.414l-6.364-6.364c-.39-.391-1.024-.391-1.414 0-.391.39-.391 1.024 0 1.414l5.657 5.657-5.657 5.657c-.391.39-.391 1.024 0 1.414.39.391 1.024.391 1.414 0zm-85.707.293h85v-2h-85z" class="hmr-arrow delay-2" />
  <path d="m199.707 221.707c.391-.39.391-1.024 0-1.414l-6.364-6.364c-.39-.391-1.024-.391-1.414 0-.391.39-.391 1.024 0 1.414l5.657 5.657-5.657 5.657c-.391.39-.391 1.024 0 1.414.39.391 1.024.391 1.414 0zm-85.707.293h85v-2h-85z" class="hmr-arrow delay-3" />

  <!-- content -->
  <path d="m7.6084 62.2458c-4.15283 0-6.777834-2.9326-6.777834-7.6494 0-4.686 2.645504-7.6391 6.777834-7.6391 3.353 0 5.8857 2.061 6.2754 5.1474h-2.2764c-.4101-1.8969-1.98924-3.1377-3.999-3.1377-2.68652 0-4.42969 2.2046-4.42969 5.6294 0 3.4556 1.72266 5.6397 4.43994 5.6397 2.06104 0 3.52735-1.0562 3.98875-2.8403h2.2866c-.5639 3.0556-2.8813 4.85-6.2856 4.85zm12.7251-.041c-3.0864 0-5.1167-2.1225-5.1167-5.5986 0-3.4658 2.0405-5.5884 5.1167-5.5884s5.1167 2.1226 5.1167 5.5884c0 3.4761-2.0303 5.5986-5.1167 5.5986zm0-1.8252c1.7432 0 2.8608-1.374 2.8608-3.7734 0-2.3892-1.1279-3.7632-2.8608-3.7632s-2.8608 1.374-2.8608 3.7632c0 2.3994 1.1279 3.7734 2.8608 3.7734zm6.8291 1.6202v-10.7872h2.1123v1.8047h.0513c.5844-1.2304 1.7329-1.9892 3.394-1.9892 2.3789 0 3.7427 1.5176 3.7427 3.9887v6.983h-2.2251v-6.5523c0-1.6201-.7588-2.5122-2.2969-2.5122-1.5586 0-2.5635 1.1074-2.5635 2.7788v6.2857zm12.0894-13.3404h2.2251v2.5532h2.0507v1.7535h-2.0507v5.9472c0 .9331.4101 1.3535 1.3125 1.3535.2255 0 .5844-.0205.728-.0512v1.7534c-.2461.0615-.7383.1025-1.2305.1025-2.1841 0-3.0351-.8305-3.0351-2.9121v-6.1933h-1.5689v-1.7535h1.5689zm12.9814 10.1719h2.102c-.3076 1.9687-2.1738 3.3735-4.645 3.3735-3.1684 0-5.0859-2.143-5.0859-5.5473 0-3.3838 1.9482-5.6397 4.9936-5.6397 2.9942 0 4.8604 2.1123 4.8604 5.3833v.7588h-7.6187v.1333c0 1.8765 1.128 3.1172 2.9019 3.1172 1.2612 0 2.1943-.6357 2.4917-1.5791zm-2.6353-6.0293c-1.5483 0-2.6352 1.1792-2.748 2.8096h5.3936c-.0513-1.6509-1.0972-2.8096-2.6456-2.8096zm6.5831 9.1978v-10.7872h2.1123v1.8047h.0512c.5845-1.2304 1.7329-1.9892 3.3941-1.9892 2.3789 0 3.7426 1.5176 3.7426 3.9887v6.983h-2.2251v-6.5523c0-1.6201-.7587-2.5122-2.2968-2.5122-1.5586 0-2.5635 1.1074-2.5635 2.7788v6.2857zm12.0893-13.3404h2.2251v2.5532h2.0508v1.7535h-2.0508v5.9472c0 .9331.4102 1.3535 1.3125 1.3535.2256 0 .5845-.0205.728-.0512v1.7534c-.2461.0615-.7382.1025-1.2304.1025-2.1841 0-3.0352-.8305-3.0352-2.9121v-6.1933h-1.5688v-1.7535h1.5688z" class="hmr-text" />

  <!-- layout -->
  <path d="m10.5513 115.011v1.989h-9.18753v-14.796h2.29687v12.807zm4.8603 2.174c-2.1123 0-3.5888-1.313-3.5888-3.251 0-1.887 1.4458-3.045 4.0092-3.189l2.9532-.174v-.831c0-1.199-.8101-1.917-2.1636-1.917-1.2818 0-2.0816.615-2.2764 1.579h-2.0918c.1231-1.948 1.7842-3.384 4.4502-3.384 2.6148 0 4.2861 1.384 4.2861 3.548v7.434h-2.1225v-1.774h-.0513c-.6255 1.2-1.9892 1.959-3.4043 1.959zm.6153-1.754c1.5483 0 2.7583-1.066 2.7583-2.471v-.851l-2.6558.164c-1.3228.092-2.0713.677-2.0713 1.6 0 .943.7793 1.558 1.9688 1.558zm8.1723 5.589c-.1846 0-.7383-.021-.9023-.052v-1.794c.164.041.5332.041.7177.041 1.0254 0 1.5792-.431 1.9175-1.538 0-.021.1949-.656.1949-.667l-3.8965-10.797h2.3994l2.7275 8.777h.041l2.7276-8.777h2.3379l-4.0401 11.351c-.9228 2.615-1.9892 3.456-4.2246 3.456zm13.8941-3.815c-3.0865 0-5.1167-2.122-5.1167-5.599 0-3.465 2.0405-5.588 5.1167-5.588 3.0761 0 5.1167 2.123 5.1167 5.588 0 3.477-2.0303 5.599-5.1167 5.599zm0-1.825c1.7431 0 2.8608-1.374 2.8608-3.774 0-2.389-1.1279-3.763-2.8608-3.763s-2.8609 1.374-2.8609 3.763c0 2.4 1.128 3.774 2.8609 3.774zm16.0781-9.167v10.787h-2.1226v-1.825h-.0512c-.5948 1.292-1.6919 2.02-3.3428 2.02-2.3482 0-3.7837-1.528-3.7837-3.999v-6.983h2.2148v6.552c0 1.641.7793 2.523 2.3072 2.523 1.5996 0 2.5634-1.108 2.5634-2.789v-6.286zm2.8403-2.553h2.2251v2.553h2.0508v1.753h-2.0508v5.948c0 .933.4102 1.353 1.3125 1.353.2256 0 .5845-.02.728-.051v1.753c-.2461.062-.7382.103-1.2304.103-2.1841 0-3.0352-.831-3.0352-2.912v-6.194h-1.5688v-1.753h1.5688z" class="hmr-text delay-1" />
  <path d="m.697266 167.939h2.235354c.20508 1.467 1.59961 2.349 3.56836 2.349 1.87646 0 3.21972-.964 3.21972-2.287 0-1.148-.77929-1.866-2.7583-2.297l-1.60986-.338c-2.96338-.626-4.30664-2-4.30664-4.133 0-2.532 2.2251-4.275 5.37305-4.275 3.13769 0 5.28075 1.773 5.35255 4.357h-2.22511c-.14356-1.486-1.36377-2.399-3.15821-2.399-1.73291 0-3.00439.841-3.00439 2.194 0 1.077.75879 1.795 2.67627 2.205l1.62012.338c3.09672.657 4.36812 1.897 4.36812 4.051 0 2.789-2.1943 4.542-5.63961 4.542-3.34277 0-5.56787-1.671-5.711424-4.307zm13.801734-9.279h2.2251v2.553h2.0508v1.753h-2.0508v5.948c0 .933.4102 1.353 1.3125 1.353.2256 0 .5845-.02.728-.051v1.753c-.246.062-.7382.103-1.2304.103-2.1841 0-3.0352-.831-3.0352-2.912v-6.194h-1.5688v-1.753h1.5688zm7.1778 17.36c-.1846 0-.7383-.021-.9024-.052v-1.794c.1641.041.5332.041.7178.041 1.0254 0 1.5791-.431 1.9175-1.538 0-.021.1948-.656.1948-.667l-3.8965-10.797h2.3994l2.7276 8.777h.041l2.7275-8.777h2.3379l-4.04 11.351c-.9229 2.615-1.9893 3.456-4.2246 3.456zm9.6489-4.02v-14.796h2.2148v14.796zm5.6704-12.53c-.7075 0-1.2817-.574-1.2817-1.272 0-.707.5742-1.271 1.2817-1.271s1.2715.564 1.2715 1.271c0 .698-.564 1.272-1.2715 1.272zm-1.1074 12.53v-10.787h2.2148v10.787zm4.4809 0v-10.787h2.1123v1.805h.0513c.5845-1.231 1.7329-1.99 3.394-1.99 2.379 0 3.7427 1.518 3.7427 3.989v6.983h-2.2251v-6.552c0-1.62-.7588-2.512-2.2969-2.512-1.5585 0-2.5634 1.107-2.5634 2.778v6.286zm16.0576 4.061c-2.5429 0-4.4296-1.354-4.7065-3.22h2.2251c.3179.902 1.3022 1.497 2.5635 1.497 1.7329 0 2.7583-.984 2.7583-2.461v-1.774h-.041c-.605 1.169-1.8765 1.938-3.4146 1.938-2.707 0-4.4809-2.112-4.4809-5.476 0-3.394 1.7636-5.526 4.5322-5.526 1.5278 0 2.7788.769 3.435 2.02h.0411v-1.846h2.1533v10.592c0 2.574-1.9893 4.256-5.0655 4.256zm-.0205-5.855c1.7329 0 2.8711-1.405 2.8711-3.63 0-2.215-1.1382-3.671-2.8711-3.671-1.7021 0-2.8095 1.425-2.8095 3.671 0 2.256 1.1074 3.63 2.8095 3.63z" class="hmr-text  delay-2" />
  <path d="m3.66064 221.309v5.691h-2.29687v-14.796h5.73193c3.0454 0 4.9424 1.763 4.9424 4.522 0 1.999-1.0664 3.619-2.87111 4.224l3.31201 6.05h-2.6455l-3.01465-5.691zm0-7.178v5.322h3.21973c1.77393 0 2.78906-.974 2.78906-2.666 0-1.651-1.07666-2.656-2.85058-2.656zm17.44186 9.701h2.1021c-.3076 1.968-2.1738 3.373-4.645 3.373-3.1685 0-5.086-2.143-5.086-5.547 0-3.384 1.9483-5.64 4.9937-5.64 2.9941 0 4.8603 2.112 4.8603 5.383v.759h-7.6186v.133c0 1.877 1.1279 3.118 2.9018 3.118 1.2613 0 2.1944-.636 2.4917-1.579zm-2.6352-6.03c-1.5484 0-2.6353 1.179-2.7481 2.81h5.3936c-.0513-1.651-1.0972-2.81-2.6455-2.81zm9.7412 9.383c-2.1123 0-3.5889-1.313-3.5889-3.251 0-1.887 1.4458-3.045 4.0093-3.189l2.9531-.174v-.831c0-1.199-.81-1.917-2.1635-1.917-1.2818 0-2.0816.615-2.2764 1.579h-2.0918c.123-1.948 1.7842-3.384 4.4502-3.384 2.6147 0 4.2861 1.384 4.2861 3.548v7.434h-2.1225v-1.774h-.0513c-.6255 1.2-1.9893 1.959-3.4043 1.959zm.6152-1.754c1.5484 0 2.7583-1.066 2.7583-2.471v-.851l-2.6557.164c-1.3228.092-2.0713.677-2.0713 1.6 0 .943.7793 1.558 1.9687 1.558zm16.3755-5.506h-2.1123c-.2256-1.149-1.0869-2.061-2.5327-2.061-1.7124 0-2.8403 1.425-2.8403 3.742 0 2.369 1.1382 3.743 2.8608 3.743 1.3638 0 2.2559-.748 2.5122-1.999h2.1328c-.2358 2.296-2.0713 3.855-4.6655 3.855-3.0864 0-5.0962-2.112-5.0962-5.599 0-3.424 2.0098-5.588 5.0757-5.588 2.7788 0 4.4707 1.784 4.6655 3.907zm2.2354-6.265h2.2251v2.553h2.0507v1.753h-2.0507v5.948c0 .933.4101 1.353 1.3125 1.353.2256 0 .5844-.02.728-.051v1.753c-.2461.062-.7383.103-1.2305.103-2.1841 0-3.0351-.831-3.0351-2.912v-6.194h-1.5689v-1.753h1.5689zm7.2802.81c-.7075 0-1.2817-.574-1.2817-1.272 0-.707.5742-1.271 1.2817-1.271.7076 0 1.2715.564 1.2715 1.271 0 .698-.5639 1.272-1.2715 1.272zm-1.1074 12.53v-10.787h2.2149v10.787zm13.689-10.787-3.8657 10.787h-2.3789l-3.8863-10.787h2.3584l2.7071 8.623h.041l2.707-8.623zm2.4507-1.743c-.7075 0-1.2818-.574-1.2818-1.272 0-.707.5743-1.271 1.2818-1.271s1.2715.564 1.2715 1.271c0 .698-.564 1.272-1.2715 1.272zm-1.1075 12.53v-10.787h2.2149v10.787zm5.127-13.34h2.2251v2.553h2.0508v1.753h-2.0508v5.948c0 .933.4102 1.353 1.3125 1.353.2256 0 .5845-.02.728-.051v1.753c-.2461.062-.7383.103-1.2304.103-2.1841 0-3.0352-.831-3.0352-2.912v-6.194h-1.5688v-1.753h1.5688zm7.1777 17.36c-.1845 0-.7382-.021-.9023-.052v-1.794c.1641.041.5332.041.7178.041 1.0254 0 1.5791-.431 1.9174-1.538 0-.021.1949-.656.1949-.667l-3.8965-10.797h2.3994l2.7275 8.777h.0411l2.7275-8.777h2.3379l-4.0401 11.351c-.9228 2.615-1.9892 3.456-4.2246 3.456z" class="hmr-text  delay-3"/>

  <g fill="#fff" class="hmr-page">
    <rect fill="#494949" height="256.123" rx="4.53262" stroke="#dbdbdb" stroke-width=".934767" width="199.065" x="231.446" y="9.43687" />
    <rect height="43" opacity=".2" rx="2.8043" width="141" x="262" y="59" />
    <rect height="125" opacity=".2" rx="2.8043" width="40" x="262" y="114" />
    <rect height="125" opacity=".2" rx="2.8043" width="87" x="316" y="114" />
    <rect height="11.35" opacity=".2" rx="1.8" width="105.116" x="262" y="36.0129" />
    <rect height="9.34754" opacity=".54" rx="4.67377" width="26.9767" x="376.094" y="37.0129" />
  </g>

<defs>
<style>

.hmr-arrow {
  fill: #dbdbdb;
  animation: arrow-pulse 12s infinite;
}

.hmr-text {
  fill: #111;
  animation: text-pulse 12s infinite;
}

.delay-1 { animation-delay: 9s; }
.delay-2 { animation-delay: 3s; }
.delay-3 { animation-delay: 6s; }

.hmr-page {
  animation: hmr-pulse 3.0001s infinite;
}

@keyframes arrow-pulse {
  0% {
    fill: #008FF6;
  }
  10% {
    fill: #dbdbdb;
  }
}

@keyframes text-pulse {
  0% {
    fill: #008FF6;
    transform: translateX(2px);
  }
  20% {
    fill: #111;
  }
}


@keyframes hmr-pulse {
  5% {
    filter: drop-shadow(1px 1px 4px #008FF6);
    transform: scale(1.005) translate(-1px, -1px);
  }
}
</style>
</defs>

</svg>