<svg fill="none" height="232" viewBox="0 0 421 232" width="421" xmlns="http://www.w3.org/2000/svg" xmlns:xlink="http://www.w3.org/1999/xlink"><filter id="a" color-interpolation-filters="sRGB" filterUnits="userSpaceOnUse" height="69" width="88" x="53" y="91"><feFlood flood-opacity="0" result="BackgroundImageFix"/><feColorMatrix in="SourceAlpha" result="hardAlpha" type="matrix" values="0 0 0 0 0 0 0 0 0 0 0 0 0 0 0 0 0 0 127 0"/><feOffset/><feGaussianBlur stdDeviation="2"/><feComposite in2="hardAlpha" operator="out"/><feColorMatrix type="matrix" values="0 0 0 0 0 0 0 0 0 0 0 0 0 0 0 0 0 0 0.25 0"/><feBlend in2="BackgroundImageFix" mode="normal" result="effect1_dropShadow_10010_11743"/><feBlend in="SourceGraphic" in2="effect1_dropShadow_10010_11743" mode="normal" result="shape"/></filter><clipPath id="b"><path d="m0 6.00001c0-3.31371 2.68629-6.00001 6-6.00001h409c3.314 0 6 2.68629 6 6v226h-421z"/></clipPath><mask id="c" fill="#fff"><path d="m0 6.00001c0-3.31371 2.68629-6.00001 6-6.00001h409c3.314 0 6 2.68629 6 6v226h-421z" fill="#fff"/></mask><g clip-path="url(#b)"><path d="m0 6.00001c0-3.31371 2.68629-6.00001 6-6.00001h409c3.314 0 6 2.68629 6 6v226h-421z" fill="#fbfbfb"/><rect fill="#fff" height="35.439" rx="3.90254" stroke="#dbdbdb" stroke-width="1.56101" width="307.439" x="56.7805" y="41.7805"/><g filter="url(#a)"><rect fill="#008ff6" height="61" rx="4.68304" width="80" x="57" y="95"/><rect height="59.439" rx="3.90254" stroke="#006ebe" stroke-width="1.56101" width="78.439" x="57.7805" y="95.7805"/></g><rect fill="#fff" height="99.439" rx="3.90254" stroke="#dbdbdb" stroke-width="1.56101" width="78.439" x="57.7805" y="172.781"/><rect fill="#fff" height="198.439" rx="3.90254" stroke="#dbdbdb" stroke-width="1.56101" width="207.439" x="156.781" y="94.7805"/><g fill="#d0d0d0"><rect height="8" rx="4" width="8" x="17" y="15"/><rect height="8" rx="4" width="8" x="31" y="15"/><rect height="8" rx="4" width="8" x="45" y="15"/></g><path clip-rule="evenodd" d="m99.615 114.595c.1464.082.2613.21.3263.364.0647.155.0767.326.0327.488l-1.992 7.303h7.268c.146 0 .289.043.411.123.123.08.219.194.277.328s.076.283.051.427-.091.277-.191.384l-10.5 11.25c-.1144.123-.2667.204-.4324.23-.1658.026-.3355-.004-.482-.086-.1466-.082-.2614-.211-.3263-.365-.0648-.155-.0758-.327-.0313-.489l1.992-7.302h-7.268c-.1462 0-.2892-.043-.4114-.123s-.2183-.194-.2765-.328c-.0583-.134-.076-.282-.0512-.426.0249-.144.0913-.278.1911-.385l10.5-11.25c.1143-.122.2663-.203.4318-.229s.3349.005.4812.086z" fill="#fff" fill-rule="evenodd"/></g><path d="m-1 6c0-3.86599 3.13401-7 7-7h409c3.866 0 7 3.13401 7 7h-2c0-2.76142-2.239-5-5-5h-409c-2.76142 0-5 2.23858-5 5zm422 226h-421zm-422 0v-226c0-3.86599 3.13401-7 7-7v2c-2.76142 0-5 2.23858-5 5v226zm416-233c3.866 0 7 3.13401 7 7v226h-2v-226c0-2.76142-2.239-5-5-5z" fill="#c9c9c9" mask="url(#c)"/></svg>