<svg fill="none" height="249" viewBox="0 0 422 249" width="422" xmlns="http://www.w3.org/2000/svg" xmlns:xlink="http://www.w3.org/1999/xlink"><filter id="a" color-interpolation-filters="sRGB" filterUnits="userSpaceOnUse" height="202" width="202" x="0" y="38"><feFlood flood-opacity="0" result="BackgroundImageFix"/><feColorMatrix in="SourceAlpha" result="hardAlpha" type="matrix" values="0 0 0 0 0 0 0 0 0 0 0 0 0 0 0 0 0 0 127 0"/><feOffset/><feGaussianBlur stdDeviation=".5"/><feComposite in2="hardAlpha" operator="out"/><feColorMatrix type="matrix" values="0 0 0 0 0.453639 0 0 0 0 0.453639 0 0 0 0 0.453639 0 0 0 1 0"/><feBlend in2="BackgroundImageFix" mode="normal" result="effect1_dropShadow_10007_11707"/><feBlend in="SourceGraphic" in2="effect1_dropShadow_10007_11707" mode="normal" result="shape"/></filter><radialGradient id="b" cx="0" cy="0" gradientTransform="matrix(-68.49993464 -84.75055008 84.75055008 -68.49993464 110 145.25)" gradientUnits="userSpaceOnUse" r="1"><stop offset="0" stop-color="#5ebcff"/><stop offset="1" stop-color="#fff"/></radialGradient><mask id="c" fill="#fff"><path d="m1 0h421v249h-421z" fill="#fff"/></mask><path d="m1 1h421v-2h-421z" fill="#dbdbdb" mask="url(#c)"/><g filter="url(#a)"><rect fill="#008ff6" height="200" rx="100" width="200" x="1" y="39"/><rect height="185" rx="92.5" stroke="url(#b)" stroke-width="15" width="185" x="8.5" y="46.5"/></g><path d="m52.4377 161v-34.935l-7.867 1.8-2.4668-10 13.6673-3.867h9.4005v47.002zm39.527.933c-13.334 0-21.5344-10.934-21.5344-24.134v-.134c0-13.2 8.4004-24.267 21.6678-24.267 13.2669 0 21.5339 10.934 21.5339 24.134v.133c0 13.201-8.333 24.268-21.6673 24.268zm.1334-11.467c5.2002 0 8.5339-5.267 8.5339-12.667v-.134c0-7.4-3.5337-12.8-8.6673-12.8s-8.5337 5.2-8.5337 12.667v.133c0 7.468 3.4668 12.801 8.6671 12.801zm46.5669 11.467c-13.334 0-21.534-10.934-21.534-24.134v-.134c0-13.2 8.4-24.267 21.667-24.267 13.268 0 21.535 10.934 21.535 24.134v.133c0 13.201-8.334 24.268-21.668 24.268zm.133-11.467c5.201 0 8.534-5.267 8.534-12.667v-.134c0-7.4-3.533-12.8-8.667-12.8s-8.534 5.2-8.534 12.667v.133c0 7.468 3.467 12.801 8.667 12.801z" fill="#fff"/><rect fill="#008ff6" height="18.2724" rx="9.13621" width="18.2724" x="241.691" y="64.8638"/><path d="m285.627 78.7646v2.2354h-9.362v-14.7964h2.646v12.561zm6.245 2.4507c-3.189 0-5.261-2.1225-5.261-5.6499 0-3.5068 2.092-5.6601 5.261-5.6601 3.168 0 5.26 2.143 5.26 5.6601 0 3.5274-2.071 5.6499-5.26 5.6499zm0-2.02c1.62 0 2.666-1.3125 2.666-3.6299 0-2.3071-1.046-3.6299-2.666-3.6299-1.61 0-2.666 1.3228-2.666 3.6299 0 2.3174 1.045 3.6299 2.666 3.6299zm10.1 1.979c-2.102 0-3.63-1.3227-3.63-3.2812 0-1.9278 1.487-3.0865 4.132-3.2505l2.871-.1641v-.7793c0-1.1382-.769-1.7944-2.03-1.7944-1.21 0-1.979.5845-2.143 1.4868h-2.369c.113-2.0303 1.846-3.4863 4.614-3.4863 2.697 0 4.451 1.4253 4.451 3.6093v7.4854h-2.461v-1.7329h-.052c-.625 1.1792-1.989 1.9072-3.383 1.9072zm.769-1.9277c1.446 0 2.604-.9639 2.604-2.2764v-.8306l-2.512.1539c-1.23.082-1.938.6357-1.938 1.497 0 .8921.738 1.4561 1.846 1.4561zm11.248 1.9277c-2.738 0-4.511-2.1636-4.511-5.6191 0-3.4351 1.773-5.6089 4.511-5.6089 1.559 0 2.789.81 3.364 2.0098h.061v-5.7525h2.553v14.7964h-2.502v-1.856h-.041c-.594 1.2203-1.845 2.0303-3.435 2.0303zm.769-9.126c-1.64 0-2.666 1.3638-2.666 3.5171 0 2.1636 1.015 3.5171 2.666 3.5171 1.61 0 2.666-1.3637 2.666-3.5171 0-2.1328-1.056-3.5171-2.666-3.5171zm8.685-3.5581c-.779 0-1.404-.6255-1.404-1.3842 0-.7691.625-1.3843 1.404-1.3843.78 0 1.395.6152 1.395 1.3843 0 .7587-.615 1.3842-1.395 1.3842zm-1.271 12.5098v-10.8691h2.553v10.8691zm4.696 0v-10.8691h2.451v1.8662h.051c.585-1.292 1.743-2.0713 3.415-2.0713 2.399 0 3.763 1.5381 3.763 4.0503v7.0239h-2.553v-6.5112c0-1.5381-.718-2.3994-2.174-2.3994-1.467 0-2.4 1.0561-2.4 2.6147v6.2959zm16.519 4.1016c-2.686 0-4.614-1.3741-4.87-3.2813h2.532c.277.8306 1.21 1.3945 2.42 1.3945 1.661 0 2.615-.9331 2.615-2.3173v-1.8355h-.062c-.564 1.169-1.845 1.9483-3.404 1.9483-2.686 0-4.471-2.1021-4.471-5.4859 0-3.435 1.744-5.5781 4.522-5.5781 1.549 0 2.8.7998 3.425 2.0508h.041v-1.8662h2.502v10.6948c0 2.5942-2.081 4.2759-5.25 4.2759zm.01-6.1216c1.631 0 2.687-1.3228 2.687-3.4453 0-2.1123-1.056-3.4864-2.687-3.4864-1.609 0-2.635 1.3536-2.635 3.4864 0 2.1533 1.026 3.4453 2.635 3.4453zm11.331-5.732c0-1.9892 1.733-3.3427 4.358-3.3427 2.645 0 4.327 1.4253 4.389 3.4863h-2.379c-.103-.9844-.831-1.6099-2.01-1.6099-1.128 0-1.877.5332-1.877 1.333 0 .6255.452 1.0562 1.59 1.3125l1.805.3999c2.255.5025 3.127 1.3741 3.127 2.9532 0 2.0508-1.887 3.435-4.553 3.435-2.84 0-4.522-1.3535-4.727-3.4555h2.512c.195 1.0561.923 1.5893 2.215 1.5893 1.241 0 2.01-.5127 2.01-1.3227 0-.6563-.39-1.0254-1.528-1.2818l-1.805-.3999c-2.081-.4614-3.127-1.4868-3.127-3.0967zm16.601-3.3017c2.758 0 4.512 2.1431 4.512 5.6191 0 3.4658-1.743 5.6089-4.471 5.6089-1.579 0-2.809-.7588-3.404-1.979h-.051v5.3833h-2.554v-14.4477h2.492v1.8764h.051c.616-1.2612 1.846-2.061 3.425-2.061zm-.779 9.1362c1.651 0 2.676-1.3637 2.676-3.5171 0-2.143-1.025-3.5171-2.676-3.5171-1.59 0-2.646 1.4048-2.656 3.5171.01 2.1328 1.066 3.5171 2.656 3.5171zm14.13-1.333h2.389c-.328 2.0508-2.236 3.4658-4.809 3.4658-3.261 0-5.23-2.143-5.23-5.6089 0-3.435 1.99-5.7011 5.127-5.7011 3.087 0 5.014 2.143 5.014 5.4448v.8306h-7.598v.1538c0 1.7431 1.067 2.9121 2.738 2.9121 1.189 0 2.092-.5947 2.369-1.4971zm-2.513-5.8652c-1.435 0-2.471 1.0971-2.573 2.6147h5.075c-.051-1.5381-1.035-2.6147-2.502-2.6147zm13.854 5.8652h2.389c-.328 2.0508-2.236 3.4658-4.809 3.4658-3.261 0-5.23-2.143-5.23-5.6089 0-3.435 1.989-5.7011 5.127-5.7011 3.086 0 5.014 2.143 5.014 5.4448v.8306h-7.598v.1538c0 1.7431 1.066 2.9121 2.738 2.9121 1.189 0 2.092-.5947 2.369-1.4971zm-2.513-5.8652c-1.435 0-2.471 1.0971-2.573 2.6147h5.075c-.051-1.5381-1.035-2.6147-2.502-2.6147zm10.716 9.29c-2.738 0-4.512-2.1636-4.512-5.6191 0-3.4351 1.774-5.6089 4.512-5.6089 1.558 0 2.789.81 3.363 2.0098h.061v-5.7525h2.554v14.7964h-2.502v-1.856h-.041c-.595 1.2203-1.846 2.0303-3.435 2.0303zm.769-9.126c-1.641 0-2.666 1.3638-2.666 3.5171 0 2.1636 1.015 3.5171 2.666 3.5171 1.61 0 2.666-1.3637 2.666-3.5171 0-2.1328-1.056-3.5171-2.666-3.5171z" fill="#000"/><rect fill="#008ff6" height="18.2724" rx="9.13621" width="18.2724" x="241.691" y="107.864"/><path d="m285.935 124-1.262-3.825h-5.444l-1.262 3.825h-2.727l5.25-14.796h2.984l5.25 14.796zm-4.02-12.182-2.071 6.317h4.204l-2.061-6.317zm17.37 5.189h-2.41c-.205-1.159-1.015-2.03-2.378-2.03-1.61 0-2.646 1.353-2.646 3.588 0 2.277 1.046 3.589 2.666 3.589 1.292 0 2.133-.738 2.369-1.968h2.409c-.205 2.43-2.081 4.029-4.809 4.029-3.178 0-5.229-2.122-5.229-5.65 0-3.476 2.051-5.66 5.209-5.66 2.871 0 4.645 1.815 4.819 4.102zm11.115 0h-2.409c-.205-1.159-1.015-2.03-2.379-2.03-1.61 0-2.646 1.353-2.646 3.588 0 2.277 1.046 3.589 2.666 3.589 1.292 0 2.133-.738 2.369-1.968h2.41c-.205 2.43-2.082 4.029-4.809 4.029-3.179 0-5.23-2.122-5.23-5.65 0-3.476 2.051-5.66 5.209-5.66 2.871 0 4.645 1.815 4.819 4.102zm8.737 3.743h2.389c-.328 2.05-2.235 3.465-4.809 3.465-3.261 0-5.23-2.143-5.23-5.609 0-3.435 1.99-5.701 5.127-5.701 3.087 0 5.014 2.143 5.014 5.445v.831h-7.598v.153c0 1.744 1.067 2.913 2.738 2.913 1.19 0 2.092-.595 2.369-1.497zm-2.512-5.866c-1.436 0-2.472 1.097-2.574 2.615h5.075c-.051-1.538-1.035-2.615-2.501-2.615zm6.459 1.364c0-1.989 1.733-3.343 4.358-3.343 2.646 0 4.328 1.426 4.389 3.487h-2.379c-.102-.985-.83-1.61-2.01-1.61-1.128 0-1.876.533-1.876 1.333 0 .625.451 1.056 1.589 1.312l1.805.4c2.256.503 3.127 1.374 3.127 2.953 0 2.051-1.886 3.435-4.552 3.435-2.841 0-4.522-1.353-4.727-3.455h2.512c.195 1.056.923 1.589 2.215 1.589 1.24 0 2.009-.513 2.009-1.323 0-.656-.389-1.025-1.527-1.281l-1.805-.4c-2.082-.462-3.128-1.487-3.128-3.097zm10.439 0c0-1.989 1.733-3.343 4.358-3.343 2.645 0 4.327 1.426 4.389 3.487h-2.379c-.103-.985-.831-1.61-2.01-1.61-1.128 0-1.877.533-1.877 1.333 0 .625.452 1.056 1.59 1.312l1.804.4c2.256.503 3.128 1.374 3.128 2.953 0 2.051-1.887 3.435-4.553 3.435-2.84 0-4.522-1.353-4.727-3.455h2.512c.195 1.056.923 1.589 2.215 1.589 1.241 0 2.01-.513 2.01-1.323 0-.656-.39-1.025-1.528-1.281l-1.805-.4c-2.081-.462-3.127-1.487-3.127-3.097zm11.966-4.758c-.779 0-1.405-.625-1.405-1.384 0-.769.626-1.384 1.405-1.384.78 0 1.395.615 1.395 1.384 0 .759-.615 1.384-1.395 1.384zm-1.271 12.51v-10.869h2.553v10.869zm10.777.174c-1.6 0-2.82-.769-3.456-2.03h-.051v1.856h-2.502v-14.796h2.553v5.793h.062c.615-1.271 1.856-2.051 3.394-2.051 2.737 0 4.481 2.143 4.481 5.619 0 3.477-1.733 5.609-4.481 5.609zm-.79-9.126c-1.579 0-2.676 1.405-2.676 3.517 0 2.133 1.097 3.518 2.676 3.518 1.641 0 2.656-1.354 2.656-3.518 0-2.153-1.026-3.517-2.656-3.517zm8.265-3.558c-.78 0-1.405-.625-1.405-1.384 0-.769.625-1.384 1.405-1.384.779 0 1.394.615 1.394 1.384 0 .759-.615 1.384-1.394 1.384zm-1.272 12.51v-10.869h2.553v10.869zm4.768 0v-14.796h2.554v14.796zm6.06-12.51c-.779 0-1.404-.625-1.404-1.384 0-.769.625-1.384 1.404-1.384.78 0 1.395.615 1.395 1.384 0 .759-.615 1.384-1.395 1.384zm-1.271 12.51v-10.869h2.553v10.869zm5.404-13.412h2.553v2.543h2.051v1.969h-2.051v5.65c0 .892.41 1.302 1.312 1.302.236 0 .564-.021.728-.052v1.949c-.276.061-.779.102-1.322.102-2.348 0-3.271-.83-3.271-2.943v-6.008h-1.559v-1.969h1.559zm7.567 17.452c-.154 0-.872-.01-1.005-.041v-2.02c.133.031.585.041.738.041 1.057 0 1.6-.4 1.877-1.405 0-.031.164-.574.154-.605l-3.866-10.879h2.789l2.553 8.695h.052l2.563-8.695h2.687l-3.938 11.3c-.923 2.696-2.122 3.609-4.604 3.609z" fill="#000"/><rect fill="#008ff6" height="18.2724" rx="9.13621" width="18.2724" x="241.691" y="150.864"/><path d="m282.469 167h-6.204v-14.796h6.142c2.687 0 4.42 1.445 4.42 3.691 0 1.589-1.18 2.974-2.697 3.22v.082c2.01.195 3.414 1.64 3.414 3.599 0 2.604-1.917 4.204-5.075 4.204zm-3.558-12.735v4.173h2.42c1.845 0 2.881-.779 2.881-2.153 0-1.292-.892-2.02-2.471-2.02zm0 10.674h2.953c1.948 0 2.984-.81 2.984-2.328 0-1.507-1.067-2.297-3.097-2.297h-2.84zm17.462-1.189h2.389c-.328 2.05-2.235 3.465-4.809 3.465-3.261 0-5.229-2.143-5.229-5.609 0-3.435 1.989-5.701 5.127-5.701 3.086 0 5.014 2.143 5.014 5.445v.831h-7.598v.153c0 1.744 1.066 2.913 2.737 2.913 1.19 0 2.092-.595 2.369-1.497zm-2.512-5.866c-1.436 0-2.471 1.097-2.574 2.615h5.076c-.051-1.538-1.036-2.615-2.502-2.615zm6.46 1.364c0-1.989 1.733-3.343 4.358-3.343 2.645 0 4.327 1.426 4.388 3.487h-2.379c-.102-.985-.83-1.61-2.009-1.61-1.128 0-1.877.533-1.877 1.333 0 .625.451 1.056 1.59 1.312l1.804.4c2.256.503 3.128 1.374 3.128 2.953 0 2.051-1.887 3.435-4.553 3.435-2.84 0-4.522-1.353-4.727-3.455h2.512c.195 1.056.923 1.589 2.215 1.589 1.241 0 2.01-.513 2.01-1.323 0-.656-.39-1.025-1.528-1.281l-1.805-.4c-2.081-.462-3.127-1.487-3.127-3.097zm11.341-5.66h2.553v2.543h2.051v1.969h-2.051v5.65c0 .892.41 1.302 1.312 1.302.236 0 .564-.021.728-.052v1.949c-.276.061-.779.102-1.322.102-2.349 0-3.271-.83-3.271-2.943v-6.008h-1.559v-1.969h1.559zm10.807-1.384h5.753c2.943 0 4.983 1.999 4.983 4.952s-2.102 4.953-5.096 4.953h-2.994v4.891h-2.646zm2.646 2.163v5.609h2.399c1.897 0 3.005-1.025 3.005-2.82 0-1.774-1.098-2.789-2.995-2.789zm9.772 12.633v-10.869h2.45v1.897h.052c.369-1.323 1.322-2.082 2.604-2.082.328 0 .615.062.8.103v2.307c-.215-.082-.605-.144-1.036-.144-1.445 0-2.317.934-2.317 2.461v6.327zm10.172.174c-2.102 0-3.63-1.322-3.63-3.281 0-1.928 1.487-3.086 4.132-3.25l2.871-.164v-.78c0-1.138-.769-1.794-2.03-1.794-1.21 0-1.979.584-2.143 1.487h-2.369c.113-2.031 1.846-3.487 4.614-3.487 2.697 0 4.451 1.426 4.451 3.61v7.485h-2.461v-1.733h-.052c-.625 1.179-1.989 1.907-3.383 1.907zm.769-1.927c1.445 0 2.604-.964 2.604-2.277v-.83l-2.512.153c-1.231.082-1.938.636-1.938 1.498 0 .892.738 1.456 1.846 1.456zm16.765-5.24h-2.41c-.205-1.159-1.015-2.03-2.379-2.03-1.61 0-2.645 1.353-2.645 3.588 0 2.277 1.046 3.589 2.666 3.589 1.292 0 2.133-.738 2.368-1.968h2.41c-.205 2.43-2.082 4.029-4.809 4.029-3.179 0-5.23-2.122-5.23-5.65 0-3.476 2.051-5.66 5.209-5.66 2.872 0 4.645 1.815 4.82 4.102zm2.245-6.419h2.554v2.543h2.05v1.969h-2.05v5.65c0 .892.41 1.302 1.312 1.302.236 0 .564-.021.728-.052v1.949c-.277.061-.779.102-1.323.102-2.348 0-3.271-.83-3.271-2.943v-6.008h-1.558v-1.969h1.558zm7.681.902c-.78 0-1.405-.625-1.405-1.384 0-.769.625-1.384 1.405-1.384.779 0 1.394.615 1.394 1.384 0 .759-.615 1.384-1.394 1.384zm-1.272 12.51v-10.869h2.553v10.869zm14.274-6.993h-2.41c-.205-1.159-1.015-2.03-2.379-2.03-1.61 0-2.646 1.353-2.646 3.588 0 2.277 1.046 3.589 2.666 3.589 1.292 0 2.133-.738 2.369-1.968h2.41c-.205 2.43-2.082 4.029-4.809 4.029-3.179 0-5.23-2.122-5.23-5.65 0-3.476 2.051-5.66 5.209-5.66 2.871 0 4.645 1.815 4.82 4.102zm8.736 3.743h2.389c-.328 2.05-2.235 3.465-4.809 3.465-3.261 0-5.23-2.143-5.23-5.609 0-3.435 1.99-5.701 5.127-5.701 3.087 0 5.015 2.143 5.015 5.445v.831h-7.599v.153c0 1.744 1.067 2.913 2.738 2.913 1.19 0 2.092-.595 2.369-1.497zm-2.512-5.866c-1.436 0-2.472 1.097-2.574 2.615h5.076c-.052-1.538-1.036-2.615-2.502-2.615zm6.46 1.364c0-1.989 1.733-3.343 4.357-3.343 2.646 0 4.328 1.426 4.389 3.487h-2.379c-.102-.985-.83-1.61-2.01-1.61-1.127 0-1.876.533-1.876 1.333 0 .625.451 1.056 1.589 1.312l1.805.4c2.256.503 3.128 1.374 3.128 2.953 0 2.051-1.887 3.435-4.553 3.435-2.841 0-4.522-1.353-4.727-3.455h2.512c.195 1.056.923 1.589 2.215 1.589 1.241 0 2.01-.513 2.01-1.323 0-.656-.39-1.025-1.528-1.281l-1.805-.4c-2.082-.462-3.127-1.487-3.127-3.097z" fill="#000"/><rect fill="#008ff6" height="18.2724" rx="9.13621" width="18.2724" x="241.691" y="193.864"/><path d="m275.65 205.868h2.533c.194 1.363 1.527 2.184 3.373 2.184 1.784 0 3.025-.882 3.025-2.113 0-1.066-.738-1.722-2.666-2.122l-1.589-.328c-2.964-.605-4.348-2-4.348-4.163 0-2.605 2.287-4.368 5.496-4.368 3.271 0 5.435 1.784 5.496 4.429h-2.532c-.124-1.394-1.292-2.235-2.984-2.235-1.641 0-2.81.779-2.81 2.02 0 1.005.738 1.651 2.584 2.04l1.6.329c3.117.646 4.419 1.897 4.419 4.091 0 2.83-2.225 4.614-5.783 4.614-3.425 0-5.691-1.671-5.814-4.378zm23.153 1.897v2.235h-9.577v-14.796h9.577v2.235h-6.931v3.999h6.552v2.102h-6.552v4.225zm8.819-12.807c4.306 0 7.013 2.942 7.013 7.649 0 4.706-2.707 7.639-7.013 7.639-4.317 0-7.024-2.933-7.024-7.639 0-4.707 2.707-7.649 7.024-7.649zm0 2.255c-2.646 0-4.317 2.092-4.317 5.394 0 3.291 1.671 5.383 4.317 5.383 2.635 0 4.316-2.092 4.316-5.383 0-3.302-1.681-5.394-4.316-5.394z" fill="#000"/></svg>