<svg fill="none" height="210" viewBox="0 0 385 210" width="385" xmlns="http://www.w3.org/2000/svg" xmlns:xlink="http://www.w3.org/1999/xlink"><linearGradient id="a"><stop offset="0" stop-color="#008ff6" stop-opacity=".08"/><stop offset="1" stop-color="#008ff6"/></linearGradient><linearGradient id="b" gradientUnits="userSpaceOnUse" x1="-0" x2="383" xlink:href="#a" y1="38.5" y2="38.5"/><linearGradient id="c" gradientUnits="userSpaceOnUse" x1="0" x2="299" xlink:href="#a" y1="118.5" y2="118.5"/><linearGradient id="d" gradientUnits="userSpaceOnUse" x1="0" x2="207" xlink:href="#a" y1="198.5" y2="198.5"/><path d="m384.061 39.0607c.585-.5858.585-1.5355 0-2.1213l-9.546-9.546c-.586-.5858-1.536-.5858-2.122 0-.585.5858-.585 1.5356 0 2.1213l8.486 8.4853-8.486 8.4853c-.585.5858-.585 1.5355 0 2.1213.586.5858 1.536.5858 2.122 0zm-384.06100014.4393h383.00000014v-3h-382.99999986z" fill="url(#b)"/><path d="m7.91699 20.2461c-4.15283 0-6.77783-2.9326-6.77783-7.6494 0-4.68606 2.64551-7.63918 6.77783-7.63918 3.35301 0 5.88571 2.06103 6.27541 5.14748h-2.2764c-.4101-1.89699-1.98924-3.13771-3.99901-3.13771-2.68652 0-4.42969 2.20459-4.42969 5.62941 0 3.4555 1.72266 5.6396 4.43995 5.6396 2.06103 0 3.52735-1.0561 3.98875-2.8403h2.2866c-.5639 3.0557-2.8813 4.8501-6.28561 4.8501zm12.72511-.041c-3.0864 0-5.1167-2.1226-5.1167-5.5987 0-3.4658 2.0405-5.58833 5.1167-5.58833s5.1167 2.12253 5.1167 5.58833c0 3.4761-2.0303 5.5987-5.1167 5.5987zm0-1.8252c1.7432 0 2.8608-1.374 2.8608-3.7735 0-2.3891-1.1279-3.7631-2.8608-3.7631s-2.8609 1.374-2.8609 3.7631c0 2.3995 1.128 3.7735 2.8609 3.7735zm6.8291 1.6201v-10.78711h2.1123v1.80471h.0513c.5844-1.23049 1.7329-1.98928 3.394-1.98928 2.3789 0 3.7427 1.51758 3.7427 3.98878v6.9829h-2.2251v-6.5522c0-1.6202-.7588-2.5123-2.2969-2.5123-1.5586 0-2.5635 1.1075-2.5635 2.7789v6.2856zm12.0893-13.34033h2.2251v2.55322h2.0508v1.75341h-2.0508v5.9473c0 .9331.4102 1.3535 1.3125 1.3535.2256 0 .5845-.0205.7281-.0513v1.7534c-.2461.0616-.7383.1026-1.2305.1026-2.1841 0-3.0352-.8306-3.0352-2.9121v-6.1934h-1.5688v-1.75341h1.5688zm12.9815 10.17183h2.102c-.3076 1.9688-2.1738 3.3736-4.645 3.3736-3.1684 0-5.0859-2.1431-5.0859-5.5474 0-3.3838 1.9482-5.63963 4.9936-5.63963 2.9942 0 4.8604 2.11233 4.8604 5.38333v.7588h-7.6187v.1333c0 1.8764 1.128 3.1171 2.9019 3.1171 1.2612 0 2.1943-.6357 2.4917-1.5791zm-2.6353-6.0293c-1.5483 0-2.6352 1.1792-2.748 2.8096h5.3935c-.0512-1.6509-1.0971-2.8096-2.6455-2.8096zm6.583 9.1978v-10.78711h2.1124v1.80471h.0512c.5845-1.23049 1.7329-1.98928 3.3941-1.98928 2.3789 0 3.7426 1.51758 3.7426 3.98878v6.9829h-2.2251v-6.5522c0-1.6202-.7587-2.5123-2.2968-2.5123-1.5586 0-2.5635 1.1075-2.5635 2.7789v6.2856zm12.0894-13.34033h2.2251v2.55322h2.0508v1.75341h-2.0508v5.9473c0 .9331.4102 1.3535 1.3125 1.3535.2256 0 .5845-.0205.728-.0513v1.7534c-.2461.0616-.7383.1026-1.2304.1026-2.1841 0-3.0352-.8306-3.0352-2.9121v-6.1934h-1.5688v-1.75341h1.5688zm15.9858 2.3789c2.7378 0 4.5425 2.15333 4.5425 5.56783 0 3.4146-1.7944 5.5782-4.5014 5.5782-1.5484 0-2.7789-.7588-3.3941-1.9585h-.0513v5.3423h-2.2148v-14.35551h2.1431v1.85591h.041c.6357-1.24068 1.8764-2.03023 3.435-2.03023zm-.5844 9.26953c1.7534 0 2.8506-1.4355 2.8506-3.7017 0-2.2558-1.0972-3.7016-2.8506-3.7016-1.6919 0-2.8301 1.4765-2.8301 3.7016 0 2.2457 1.1279 3.7017 2.8301 3.7017zm13.9863-1.4766h2.1022c-.3078 1.9688-2.174 3.3736-4.6452 3.3736-3.1684 0-5.0859-2.1431-5.0859-5.5474 0-3.3838 1.9482-5.63963 4.9936-5.63963 2.9942 0 4.8605 2.11233 4.8605 5.38333v.7588h-7.6188v.1333c0 1.8764 1.128 3.1171 2.9019 3.1171 1.2612 0 2.1943-.6357 2.4917-1.5791zm-2.6353-6.0293c-1.5483 0-2.6352 1.1792-2.748 2.8096h5.3936c-.0513-1.6509-1.0972-2.8096-2.6456-2.8096zm11.2175 9.4029c-3.086 0-5.116-2.1226-5.116-5.5987 0-3.4658 2.04-5.58833 5.116-5.58833s5.117 2.12253 5.117 5.58833c0 3.4761-2.03 5.5987-5.117 5.5987zm0-1.8252c1.743 0 2.861-1.374 2.861-3.7735 0-2.3891-1.128-3.7631-2.861-3.7631s-2.861 1.374-2.861 3.7631c0 2.3995 1.128 3.7735 2.861 3.7735zm12.449-9.34133c2.737 0 4.542 2.15333 4.542 5.56783 0 3.4146-1.794 5.5782-4.501 5.5782-1.549 0-2.779-.7588-3.394-1.9585h-.052v5.3423h-2.215v-14.35551h2.143v1.85591h.041c.636-1.24068 1.877-2.03023 3.436-2.03023zm-.585 9.26953c1.754 0 2.851-1.4355 2.851-3.7017 0-2.2558-1.097-3.7016-2.851-3.7016-1.692 0-2.83 1.4765-2.83 3.7016 0 2.2457 1.128 3.7017 2.83 3.7017zm6.921 1.6919v-14.79639h2.215v14.79639zm11.639-3.1685h2.102c-.308 1.9688-2.174 3.3736-4.645 3.3736-3.169 0-5.086-2.1431-5.086-5.5474 0-3.3838 1.948-5.63963 4.993-5.63963 2.995 0 4.861 2.11233 4.861 5.38333v.7588h-7.619v.1333c0 1.8764 1.128 3.1171 2.902 3.1171 1.261 0 2.194-.6357 2.492-1.5791zm-2.636-6.0293c-1.548 0-2.635 1.1792-2.748 2.8096h5.394c-.051-1.6509-1.097-2.8096-2.646-2.8096z" fill="#000"/><path d="m300.061 119.061c.585-.586.585-1.536 0-2.122l-9.546-9.546c-.586-.585-1.536-.585-2.122 0-.585.586-.585 1.536 0 2.122l8.486 8.485-8.486 8.485c-.585.586-.585 1.536 0 2.122.586.585 1.536.585 2.122 0zm-300.061.439h299v-3h-299z" fill="url(#c)"/><path d="m3.96924 85.2036v9.4028c0 2.1124 1.33301 3.5992 3.6914 3.5992 2.35836 0 3.70166-1.4868 3.70166-3.5992v-9.4028h2.2866v9.5977c0 3.1889-2.2763 5.4447-5.98826 5.4447-3.71191 0-5.98828-2.2558-5.98828-5.4447v-9.5977zm11.49466 14.7964 4.9116-7.4136v-.0718l-4.8604-7.311h2.7378l3.6504 5.7217h.0821l3.6914-5.7217h2.5942l-5.0142 7.3931v.0615l4.9219 7.3418h-2.6865l-3.6812-5.6396h-.0717l-3.7325 5.6396zm22.6816.185c-2.7275 0-4.5322-2.1743-4.5322-5.5786s1.8047-5.5678 4.5117-5.5678c1.5483 0 2.7788.7793 3.3838 1.9687h.041v-5.8037h2.2251v14.7964h-2.1533v-1.8354h-.041c-.6358 1.2304-1.8662 2.0204-3.4351 2.0204zm.5845-9.2802c-1.7534 0-2.8506 1.4355-2.8506 3.7016 0 2.2764 1.0972 3.7017 2.8506 3.7017 1.7021 0 2.8403-1.4458 2.8403-3.7017 0-2.2353-1.1382-3.7016-2.8403-3.7016zm14.4682 5.9267h2.1021c-.3076 1.9688-2.1738 3.3735-4.645 3.3735-3.1685 0-5.086-2.143-5.086-5.5473 0-3.3838 1.9483-5.6396 4.9937-5.6396 2.9941 0 4.8603 2.1123 4.8603 5.3833v.7588h-7.6186v.1333c0 1.8764 1.1279 3.1171 2.9018 3.1171 1.2613 0 2.1944-.6357 2.4917-1.5791zm-2.6352-6.0293c-1.5484 0-2.6353 1.1792-2.7481 2.8096h5.3936c-.0513-1.6509-1.0972-2.8096-2.6455-2.8096zm15.7295-1.5893-3.8657 10.7871h-2.3789l-3.8863-10.7871h2.3584l2.7071 8.6235h.041l2.707-8.6235zm8.1108 7.6186h2.1021c-.3076 1.9688-2.1739 3.3735-4.645 3.3735-3.1685 0-5.086-2.143-5.086-5.5473 0-3.3838 1.9483-5.6396 4.9937-5.6396 2.9941 0 4.8603 2.1123 4.8603 5.3833v.7588h-7.6186v.1333c0 1.8764 1.1279 3.1171 2.9018 3.1171 1.2613 0 2.1944-.6357 2.4917-1.5791zm-2.6352-6.0293c-1.5484 0-2.6353 1.1792-2.7481 2.8096h5.3936c-.0513-1.6509-1.0972-2.8096-2.6455-2.8096zm6.665 9.1978v-14.7964h2.2148v14.7964zm9.126.205c-3.0864 0-5.1167-2.1225-5.1167-5.5986 0-3.4658 2.0405-5.5883 5.1167-5.5883s5.1167 2.1225 5.1167 5.5883c0 3.4761-2.0303 5.5986-5.1167 5.5986zm0-1.8251c1.7431 0 2.8608-1.374 2.8608-3.7735 0-2.3891-1.1279-3.7631-2.8608-3.7631s-2.8609 1.374-2.8609 3.7631c0 2.3995 1.128 3.7735 2.8609 3.7735zm12.4479-9.3413c2.738 0 4.543 2.1533 4.543 5.5678 0 3.4146-1.795 5.5786-4.502 5.5786-1.548 0-2.7785-.7592-3.3937-1.9589h-.0513v5.3419h-2.2148v-14.3551h2.143v1.8559h.0411c.6357-1.2407 1.8764-2.0302 3.4347-2.0302zm-.5841 9.2695c1.7531 0 2.8501-1.4355 2.8501-3.7017 0-2.2558-1.097-3.7016-2.8501-3.7016-1.6919 0-2.8301 1.4765-2.8301 3.7016 0 2.2457 1.1279 3.7017 2.8301 3.7017zm13.9861-1.4766h2.102c-.307 1.9688-2.174 3.3735-4.645 3.3735-3.168 0-5.086-2.143-5.086-5.5473 0-3.3838 1.949-5.6396 4.994-5.6396 2.994 0 4.86 2.1123 4.86 5.3833v.7588h-7.618v.1333c0 1.8764 1.128 3.1171 2.901 3.1171 1.262 0 2.195-.6357 2.492-1.5791zm-2.635-6.0293c-1.548 0-2.635 1.1792-2.748 2.8096h5.393c-.051-1.6509-1.097-2.8096-2.645-2.8096zm6.583 9.1978v-10.7871h2.112v1.8354h.052c.358-1.2612 1.322-2.0097 2.594-2.0097.318 0 .594.0512.759.082v2.061c-.175-.0717-.564-.123-.995-.123-1.425 0-2.307.9536-2.307 2.4814v6.46zm6.696-7.7314c0-1.9278 1.681-3.2505 4.163-3.2505 2.512 0 4.142 1.3945 4.214 3.3838h-2.081c-.123-1.0459-.892-1.7022-2.133-1.7022-1.2 0-2 .5845-2 1.4458 0 .6768.492 1.1382 1.661 1.4048l1.754.3999c2.204.5127 3.045 1.374 3.045 2.9326 0 1.9688-1.835 3.3222-4.378 3.3222-2.697 0-4.317-1.3227-4.522-3.3735h2.194c.205 1.128.974 1.6817 2.328 1.6817 1.333 0 2.153-.5537 2.153-1.4356 0-.6972-.4-1.1074-1.579-1.374l-1.753-.4101c-2.051-.4717-3.066-1.4561-3.066-3.0249z" fill="#000"/><path d="m208.061 199.061c.585-.586.585-1.536 0-2.122l-9.546-9.546c-.586-.585-1.536-.585-2.122 0-.585.586-.585 1.536 0 2.122l8.486 8.485-8.486 8.485c-.585.586-.585 1.536 0 2.122.586.585 1.536.585 2.122 0zm-208.061.439h207v-3h-207z" fill="url(#d)"/><path d="m.698242 176.206h2.255858c.03076 1.231.92285 2.071 2.20459 2.071 1.50733 0 2.32764-.902 2.32764-2.594v-10.479h2.29687v10.489c0 2.933-1.72265 4.635-4.604 4.635-2.66602 0-4.480958-1.661-4.480958-4.122zm11.176758-.267h2.2354c.205 1.467 1.5996 2.349 3.5683 2.349 1.8765 0 3.2197-.964 3.2197-2.287 0-1.148-.7793-1.866-2.7583-2.297l-1.6098-.338c-2.9634-.626-4.3067-2-4.3067-4.133 0-2.532 2.2251-4.275 5.3731-4.275 3.1377 0 5.2807 1.773 5.3525 4.357h-2.2251c-.1435-1.486-1.3637-2.399-3.1582-2.399-1.7329 0-3.0044.841-3.0044 2.194 0 1.077.7588 1.795 2.6763 2.205l1.6201.338c3.0967.657 4.3682 1.897 4.3682 4.051 0 2.789-2.1944 4.542-5.6397 4.542-3.3427 0-5.5678-1.671-5.7114-4.307zm21.4717 4.246c-2.7276 0-4.5322-2.174-4.5322-5.579 0-3.404 1.8046-5.567 4.5117-5.567 1.5483 0 2.7788.779 3.3838 1.968h.041v-5.803h2.2251v14.796h-2.1533v-1.835h-.0411c-.6357 1.23-1.8662 2.02-3.435 2.02zm.5845-9.28c-1.7535 0-2.8506 1.435-2.8506 3.701 0 2.277 1.0971 3.702 2.8506 3.702 1.7021 0 2.8403-1.446 2.8403-3.702 0-2.235-1.1382-3.701-2.8403-3.701zm14.4682 5.927h2.1021c-.3077 1.968-2.1739 3.373-4.6451 3.373-3.1684 0-5.0859-2.143-5.0859-5.547 0-3.384 1.9483-5.64 4.9937-5.64 2.9941 0 4.8603 2.112 4.8603 5.383v.759h-7.6186v.133c0 1.877 1.1279 3.118 2.9018 3.118 1.2612 0 2.1944-.636 2.4917-1.579zm-2.6352-6.03c-1.5484 0-2.6353 1.179-2.7481 2.81h5.3936c-.0513-1.651-1.0972-2.81-2.6455-2.81zm15.7295-1.589-3.8658 10.787h-2.3789l-3.8862-10.787h2.3584l2.707 8.623h.041l2.7071-8.623zm8.1108 7.619h2.102c-.3076 1.968-2.1738 3.373-4.645 3.373-3.1684 0-5.0859-2.143-5.0859-5.547 0-3.384 1.9482-5.64 4.9936-5.64 2.9942 0 4.8604 2.112 4.8604 5.383v.759h-7.6187v.133c0 1.877 1.128 3.118 2.9019 3.118 1.2612 0 2.1943-.636 2.4917-1.579zm-2.6353-6.03c-1.5483 0-2.6352 1.179-2.748 2.81h5.3935c-.0512-1.651-1.0971-2.81-2.6455-2.81zm6.6651 9.198v-14.796h2.2148v14.796zm9.126.205c-3.0865 0-5.1167-2.122-5.1167-5.599 0-3.465 2.0405-5.588 5.1167-5.588 3.0761 0 5.1167 2.123 5.1167 5.588 0 3.477-2.0303 5.599-5.1167 5.599zm0-1.825c1.7431 0 2.8608-1.374 2.8608-3.774 0-2.389-1.1279-3.763-2.8608-3.763-1.733 0-2.8609 1.374-2.8609 3.763 0 2.4 1.1279 3.774 2.8609 3.774zm12.4482-9.341c2.7378 0 4.5425 2.153 4.5425 5.567 0 3.415-1.7945 5.579-4.5015 5.579-1.5483 0-2.7788-.759-3.394-1.959h-.0513v5.342h-2.2148v-14.355h2.143v1.856h.041c.6358-1.241 1.8765-2.03 3.4351-2.03zm-.5845 9.269c1.7534 0 2.8506-1.435 2.8506-3.702 0-2.255-1.0972-3.701-2.8506-3.701-1.6919 0-2.8301 1.476-2.8301 3.701 0 2.246 1.128 3.702 2.8301 3.702zm13.986-1.476h2.102c-.307 1.968-2.173 3.373-4.645 3.373-3.168 0-5.086-2.143-5.086-5.547 0-3.384 1.949-5.64 4.994-5.64 2.994 0 4.86 2.112 4.86 5.383v.759h-7.618v.133c0 1.877 1.128 3.118 2.902 3.118 1.261 0 2.194-.636 2.491-1.579zm-2.635-6.03c-1.548 0-2.635 1.179-2.748 2.81h5.394c-.052-1.651-1.098-2.81-2.646-2.81zm6.583 9.198v-10.787h2.112v1.835h.052c.359-1.261 1.322-2.009 2.594-2.009.318 0 .595.051.759.082v2.061c-.175-.072-.564-.123-.995-.123-1.425 0-2.307.953-2.307 2.481v6.46zm6.696-7.731c0-1.928 1.682-3.251 4.163-3.251 2.512 0 4.143 1.395 4.214 3.384h-2.081c-.123-1.046-.892-1.702-2.133-1.702-1.2 0-2 .584-2 1.446 0 .676.493 1.138 1.662 1.404l1.753.4c2.205.513 3.045 1.374 3.045 2.933 0 1.969-1.835 3.322-4.378 3.322-2.697 0-4.317-1.323-4.522-3.373h2.194c.205 1.127.975 1.681 2.328 1.681 1.333 0 2.153-.554 2.153-1.435 0-.698-.4-1.108-1.579-1.374l-1.753-.411c-2.051-.471-3.066-1.456-3.066-3.024z" fill="#000"/></svg>