<svg width="605" height="210" viewBox="0 0 605 210" fill="none" xmlns="http://www.w3.org/2000/svg">
<path d="M604.061 39.0607C604.646 38.4749 604.646 37.5252 604.061 36.9394L594.515 27.3934C593.929 26.8077 592.979 26.8077 592.393 27.3934C591.808 27.9792 591.808 28.929 592.393 29.5148L600.879 38L592.393 46.4853C591.808 47.0711 591.808 48.0209 592.393 48.6066C592.979 49.1924 593.929 49.1924 594.515 48.6067L604.061 39.0607ZM-1.4091e-07 39.5L603 39.5L603 36.5L1.4091e-07 36.5L-1.4091e-07 39.5Z" fill="url(#paint0_linear_9985_11361)"/>
<path d="M7.91699 20.2461C3.76416 20.2461 1.13916 17.3135 1.13916 12.5967C1.13916 7.91064 3.78467 4.95752 7.91699 4.95752C11.27 4.95752 13.8027 7.01855 14.1924 10.105H11.916C11.5059 8.20801 9.92676 6.96729 7.91699 6.96729C5.23047 6.96729 3.4873 9.17188 3.4873 12.5967C3.4873 16.0522 5.20996 18.2363 7.92725 18.2363C9.98828 18.2363 11.4546 17.1802 11.916 15.396H14.2026C13.6387 18.4517 11.3213 20.2461 7.91699 20.2461ZM20.6421 20.2051C17.5557 20.2051 15.5254 18.0825 15.5254 14.6064C15.5254 11.1406 17.5659 9.01807 20.6421 9.01807C23.7183 9.01807 25.7588 11.1406 25.7588 14.6064C25.7588 18.0825 23.7285 20.2051 20.6421 20.2051ZM20.6421 18.3799C22.3853 18.3799 23.5029 17.0059 23.5029 14.6064C23.5029 12.2173 22.375 10.8433 20.6421 10.8433C18.9092 10.8433 17.7812 12.2173 17.7812 14.6064C17.7812 17.0059 18.9092 18.3799 20.6421 18.3799ZM27.4712 20V9.21289H29.5835V11.0176H29.6348C30.2192 9.78711 31.3677 9.02832 33.0288 9.02832C35.4077 9.02832 36.7715 10.5459 36.7715 13.0171V20H34.5464V13.4478C34.5464 11.8276 33.7876 10.9355 32.2495 10.9355C30.6909 10.9355 29.686 12.043 29.686 13.7144V20H27.4712ZM39.5605 6.65967H41.7856V9.21289H43.8364V10.9663H41.7856V16.9136C41.7856 17.8467 42.1958 18.2671 43.0981 18.2671C43.3237 18.2671 43.6826 18.2466 43.8262 18.2158V19.9692C43.5801 20.0308 43.0879 20.0718 42.5957 20.0718C40.4116 20.0718 39.5605 19.2412 39.5605 17.1597V10.9663H37.9917V9.21289H39.5605V6.65967ZM52.542 16.8315H54.644C54.3364 18.8003 52.4702 20.2051 49.999 20.2051C46.8306 20.2051 44.9131 18.062 44.9131 14.6577C44.9131 11.2739 46.8613 9.01807 49.9067 9.01807C52.9009 9.01807 54.7671 11.1304 54.7671 14.4014V15.1602H47.1484V15.2935C47.1484 17.1699 48.2764 18.4106 50.0503 18.4106C51.3115 18.4106 52.2446 17.7749 52.542 16.8315ZM49.9067 10.8022C48.3584 10.8022 47.2715 11.9814 47.1587 13.6118H52.5522C52.501 11.9609 51.4551 10.8022 49.9067 10.8022ZM56.4897 20V9.21289H58.6021V11.0176H58.6533C59.2378 9.78711 60.3862 9.02832 62.0474 9.02832C64.4263 9.02832 65.79 10.5459 65.79 13.0171V20H63.5649V13.4478C63.5649 11.8276 62.8062 10.9355 61.2681 10.9355C59.7095 10.9355 58.7046 12.043 58.7046 13.7144V20H56.4897ZM68.5791 6.65967H70.8042V9.21289H72.855V10.9663H70.8042V16.9136C70.8042 17.8467 71.2144 18.2671 72.1167 18.2671C72.3423 18.2671 72.7012 18.2466 72.8447 18.2158V19.9692C72.5986 20.0308 72.1064 20.0718 71.6143 20.0718C69.4302 20.0718 68.5791 19.2412 68.5791 17.1597V10.9663H67.0103V9.21289H68.5791V6.65967ZM84.5649 9.03857C87.3027 9.03857 89.1074 11.1919 89.1074 14.6064C89.1074 18.021 87.313 20.1846 84.606 20.1846C83.0576 20.1846 81.8271 19.4258 81.2119 18.2261H81.1606V23.5684H78.9458V9.21289H81.0889V11.0688H81.1299C81.7656 9.82812 83.0063 9.03857 84.5649 9.03857ZM83.9805 18.3081C85.7339 18.3081 86.8311 16.8726 86.8311 14.6064C86.8311 12.3506 85.7339 10.9048 83.9805 10.9048C82.2886 10.9048 81.1504 12.3813 81.1504 14.6064C81.1504 16.8521 82.2783 18.3081 83.9805 18.3081ZM97.9668 16.8315H100.069C99.7612 18.8003 97.895 20.2051 95.4238 20.2051C92.2554 20.2051 90.3379 18.062 90.3379 14.6577C90.3379 11.2739 92.2861 9.01807 95.3315 9.01807C98.3257 9.01807 100.192 11.1304 100.192 14.4014V15.1602H92.5732V15.2935C92.5732 17.1699 93.7012 18.4106 95.4751 18.4106C96.7363 18.4106 97.6694 17.7749 97.9668 16.8315ZM95.3315 10.8022C93.7832 10.8022 92.6963 11.9814 92.5835 13.6118H97.9771C97.9258 11.9609 96.8799 10.8022 95.3315 10.8022ZM106.549 20.2051C103.463 20.2051 101.433 18.0825 101.433 14.6064C101.433 11.1406 103.473 9.01807 106.549 9.01807C109.625 9.01807 111.666 11.1406 111.666 14.6064C111.666 18.0825 109.636 20.2051 106.549 20.2051ZM106.549 18.3799C108.292 18.3799 109.41 17.0059 109.41 14.6064C109.41 12.2173 108.282 10.8433 106.549 10.8433C104.816 10.8433 103.688 12.2173 103.688 14.6064C103.688 17.0059 104.816 18.3799 106.549 18.3799ZM118.998 9.03857C121.735 9.03857 123.54 11.1919 123.54 14.6064C123.54 18.021 121.746 20.1846 119.039 20.1846C117.49 20.1846 116.26 19.4258 115.645 18.2261H115.593V23.5684H113.378V9.21289H115.521V11.0688H115.562C116.198 9.82812 117.439 9.03857 118.998 9.03857ZM118.413 18.3081C120.167 18.3081 121.264 16.8726 121.264 14.6064C121.264 12.3506 120.167 10.9048 118.413 10.9048C116.721 10.9048 115.583 12.3813 115.583 14.6064C115.583 16.8521 116.711 18.3081 118.413 18.3081ZM125.334 20V5.20361H127.549V20H125.334ZM136.973 16.8315H139.075C138.767 18.8003 136.901 20.2051 134.43 20.2051C131.261 20.2051 129.344 18.062 129.344 14.6577C129.344 11.2739 131.292 9.01807 134.337 9.01807C137.332 9.01807 139.198 11.1304 139.198 14.4014V15.1602H131.579V15.2935C131.579 17.1699 132.707 18.4106 134.481 18.4106C135.742 18.4106 136.675 17.7749 136.973 16.8315ZM134.337 10.8022C132.789 10.8022 131.702 11.9814 131.589 13.6118H136.983C136.932 11.9609 135.886 10.8022 134.337 10.8022Z" fill="black"/>
<path d="M471.061 119.061C471.646 118.475 471.646 117.525 471.061 116.939L461.515 107.393C460.929 106.808 459.979 106.808 459.393 107.393C458.808 107.979 458.808 108.929 459.393 109.515L467.879 118L459.393 126.485C458.808 127.071 458.808 128.021 459.393 128.607C459.979 129.192 460.929 129.192 461.515 128.607L471.061 119.061ZM0 119.5H470V116.5H0L0 119.5Z" fill="url(#paint1_linear_9985_11361)"/>
<path d="M3.96924 85.2036V94.6064C3.96924 96.7188 5.30225 98.2056 7.66064 98.2056C10.019 98.2056 11.3623 96.7188 11.3623 94.6064V85.2036H13.6489V94.8013C13.6489 97.9902 11.3726 100.246 7.66064 100.246C3.94873 100.246 1.67236 97.9902 1.67236 94.8013V85.2036H3.96924ZM15.4639 100L20.3755 92.5864V92.5146L15.5151 85.2036H18.2529L21.9033 90.9253H21.9854L25.6768 85.2036H28.271L23.2568 92.5967V92.6582L28.1787 100H25.4922L21.811 94.3604H21.7393L18.0068 100H15.4639ZM38.1455 100.185C35.418 100.185 33.6133 98.0107 33.6133 94.6064C33.6133 91.2021 35.418 89.0386 38.125 89.0386C39.6733 89.0386 40.9038 89.8179 41.5088 91.0073H41.5498V85.2036H43.7749V100H41.6216V98.1646H41.5806C40.9448 99.395 39.7144 100.185 38.1455 100.185ZM38.73 90.9048C36.9766 90.9048 35.8794 92.3403 35.8794 94.6064C35.8794 96.8828 36.9766 98.3081 38.73 98.3081C40.4321 98.3081 41.5703 96.8623 41.5703 94.6064C41.5703 92.3711 40.4321 90.9048 38.73 90.9048ZM53.1982 96.8315H55.3003C54.9927 98.8003 53.1265 100.205 50.6553 100.205C47.4868 100.205 45.5693 98.062 45.5693 94.6577C45.5693 91.2739 47.5176 89.0181 50.563 89.0181C53.5571 89.0181 55.4233 91.1304 55.4233 94.4014V95.1602H47.8047V95.2935C47.8047 97.1699 48.9326 98.4106 50.7065 98.4106C51.9678 98.4106 52.9009 97.7749 53.1982 96.8315ZM50.563 90.8022C49.0146 90.8022 47.9277 91.9814 47.8149 93.6118H53.2085C53.1572 91.9609 52.1113 90.8022 50.563 90.8022ZM66.2925 89.2129L62.4268 100H60.0479L56.1616 89.2129H58.52L61.2271 97.8364H61.2681L63.9751 89.2129H66.2925ZM74.4033 96.8315H76.5054C76.1978 98.8003 74.3315 100.205 71.8604 100.205C68.6919 100.205 66.7744 98.062 66.7744 94.6577C66.7744 91.2739 68.7227 89.0181 71.7681 89.0181C74.7622 89.0181 76.6284 91.1304 76.6284 94.4014V95.1602H69.0098V95.2935C69.0098 97.1699 70.1377 98.4106 71.9116 98.4106C73.1729 98.4106 74.106 97.7749 74.4033 96.8315ZM71.7681 90.8022C70.2197 90.8022 69.1328 91.9814 69.02 93.6118H74.4136C74.3623 91.9609 73.3164 90.8022 71.7681 90.8022ZM78.4331 100V85.2036H80.6479V100H78.4331ZM87.5591 100.205C84.4727 100.205 82.4424 98.0825 82.4424 94.6064C82.4424 91.1406 84.4829 89.0181 87.5591 89.0181C90.6353 89.0181 92.6758 91.1406 92.6758 94.6064C92.6758 98.0825 90.6455 100.205 87.5591 100.205ZM87.5591 98.3799C89.3022 98.3799 90.4199 97.0059 90.4199 94.6064C90.4199 92.2173 89.292 90.8433 87.5591 90.8433C85.8262 90.8433 84.6982 92.2173 84.6982 94.6064C84.6982 97.0059 85.8262 98.3799 87.5591 98.3799ZM100.007 89.0386C102.745 89.0386 104.55 91.1919 104.55 94.6064C104.55 98.021 102.755 100.185 100.048 100.185C98.5 100.185 97.2695 99.4258 96.6543 98.2261H96.603V103.568H94.3882V89.2129H96.5312V91.0688H96.5723C97.208 89.8281 98.4487 89.0386 100.007 89.0386ZM99.4229 98.3081C101.176 98.3081 102.273 96.8726 102.273 94.6064C102.273 92.3506 101.176 90.9048 99.4229 90.9048C97.731 90.9048 96.5928 92.3813 96.5928 94.6064C96.5928 96.8521 97.7207 98.3081 99.4229 98.3081ZM113.409 96.8315H115.511C115.204 98.8003 113.337 100.205 110.866 100.205C107.698 100.205 105.78 98.062 105.78 94.6577C105.78 91.2739 107.729 89.0181 110.774 89.0181C113.768 89.0181 115.634 91.1304 115.634 94.4014V95.1602H108.016V95.2935C108.016 97.1699 109.144 98.4106 110.917 98.4106C112.179 98.4106 113.112 97.7749 113.409 96.8315ZM110.774 90.8022C109.226 90.8022 108.139 91.9814 108.026 93.6118H113.419C113.368 91.9609 112.322 90.8022 110.774 90.8022ZM117.357 100V89.2129H119.469V91.0483H119.521C119.879 89.7871 120.843 89.0386 122.115 89.0386C122.433 89.0386 122.709 89.0898 122.874 89.1206V91.1816C122.699 91.1099 122.31 91.0586 121.879 91.0586C120.454 91.0586 119.572 92.0122 119.572 93.54V100H117.357ZM124.053 92.2686C124.053 90.3408 125.734 89.0181 128.216 89.0181C130.728 89.0181 132.358 90.4126 132.43 92.4019H130.349C130.226 91.356 129.457 90.6997 128.216 90.6997C127.016 90.6997 126.216 91.2842 126.216 92.1455C126.216 92.8223 126.708 93.2837 127.877 93.5503L129.631 93.9502C131.835 94.4629 132.676 95.3242 132.676 96.8828C132.676 98.8516 130.841 100.205 128.298 100.205C125.601 100.205 123.981 98.8823 123.776 96.8315H125.97C126.175 97.9595 126.944 98.5132 128.298 98.5132C129.631 98.5132 130.451 97.9595 130.451 97.0776C130.451 96.3804 130.051 95.9702 128.872 95.7036L127.119 95.2935C125.068 94.8218 124.053 93.8374 124.053 92.2686Z" fill="black"/>
<path d="M327.061 199.061C327.646 198.475 327.646 197.525 327.061 196.939L317.515 187.393C316.929 186.808 315.979 186.808 315.393 187.393C314.808 187.979 314.808 188.929 315.393 189.515L323.879 198L315.393 206.485C314.808 207.071 314.808 208.021 315.393 208.607C315.979 209.192 316.929 209.192 317.515 208.607L327.061 199.061ZM0 199.5H326V196.5H0L0 199.5Z" fill="url(#paint2_linear_9985_11361)"/>
<path d="M0.698242 176.206H2.9541C2.98486 177.437 3.87695 178.277 5.15869 178.277C6.66602 178.277 7.48633 177.375 7.48633 175.683V165.204H9.7832V175.693C9.7832 178.626 8.06055 180.328 5.1792 180.328C2.51318 180.328 0.698242 178.667 0.698242 176.206ZM11.875 175.939H14.1104C14.3154 177.406 15.71 178.288 17.6787 178.288C19.5552 178.288 20.8984 177.324 20.8984 176.001C20.8984 174.853 20.1191 174.135 18.1401 173.704L16.5303 173.366C13.5669 172.74 12.2236 171.366 12.2236 169.233C12.2236 166.701 14.4487 164.958 17.5967 164.958C20.7344 164.958 22.8774 166.731 22.9492 169.315H20.7241C20.5806 167.829 19.3604 166.916 17.5659 166.916C15.833 166.916 14.5615 167.757 14.5615 169.11C14.5615 170.187 15.3203 170.905 17.2378 171.315L18.8579 171.653C21.9546 172.31 23.2261 173.55 23.2261 175.704C23.2261 178.493 21.0317 180.246 17.5864 180.246C14.2437 180.246 12.0186 178.575 11.875 175.939ZM33.3467 180.185C30.6191 180.185 28.8145 178.011 28.8145 174.606C28.8145 171.202 30.6191 169.039 33.3262 169.039C34.8745 169.039 36.105 169.818 36.71 171.007H36.751V165.204H38.9761V180H36.8228V178.165H36.7817C36.146 179.395 34.9155 180.185 33.3467 180.185ZM33.9312 170.905C32.1777 170.905 31.0806 172.34 31.0806 174.606C31.0806 176.883 32.1777 178.308 33.9312 178.308C35.6333 178.308 36.7715 176.862 36.7715 174.606C36.7715 172.371 35.6333 170.905 33.9312 170.905ZM48.3994 176.832H50.5015C50.1938 178.8 48.3276 180.205 45.8564 180.205C42.688 180.205 40.7705 178.062 40.7705 174.658C40.7705 171.274 42.7188 169.018 45.7642 169.018C48.7583 169.018 50.6245 171.13 50.6245 174.401V175.16H43.0059V175.293C43.0059 177.17 44.1338 178.411 45.9077 178.411C47.1689 178.411 48.1021 177.775 48.3994 176.832ZM45.7642 170.802C44.2158 170.802 43.1289 171.981 43.0161 173.612H48.4097C48.3584 171.961 47.3125 170.802 45.7642 170.802ZM61.4937 169.213L57.6279 180H55.249L51.3628 169.213H53.7212L56.4282 177.836H56.4692L59.1763 169.213H61.4937ZM69.6045 176.832H71.7065C71.3989 178.8 69.5327 180.205 67.0615 180.205C63.8931 180.205 61.9756 178.062 61.9756 174.658C61.9756 171.274 63.9238 169.018 66.9692 169.018C69.9634 169.018 71.8296 171.13 71.8296 174.401V175.16H64.2109V175.293C64.2109 177.17 65.3389 178.411 67.1128 178.411C68.374 178.411 69.3071 177.775 69.6045 176.832ZM66.9692 170.802C65.4209 170.802 64.334 171.981 64.2212 173.612H69.6147C69.5635 171.961 68.5176 170.802 66.9692 170.802ZM73.6343 180V165.204H75.8491V180H73.6343ZM82.7603 180.205C79.6738 180.205 77.6436 178.083 77.6436 174.606C77.6436 171.141 79.6841 169.018 82.7603 169.018C85.8364 169.018 87.877 171.141 87.877 174.606C87.877 178.083 85.8467 180.205 82.7603 180.205ZM82.7603 178.38C84.5034 178.38 85.6211 177.006 85.6211 174.606C85.6211 172.217 84.4932 170.843 82.7603 170.843C81.0273 170.843 79.8994 172.217 79.8994 174.606C79.8994 177.006 81.0273 178.38 82.7603 178.38ZM95.2085 169.039C97.9463 169.039 99.751 171.192 99.751 174.606C99.751 178.021 97.9565 180.185 95.2495 180.185C93.7012 180.185 92.4707 179.426 91.8555 178.226H91.8042V183.568H89.5894V169.213H91.7324V171.069H91.7734C92.4092 169.828 93.6499 169.039 95.2085 169.039ZM94.624 178.308C96.3774 178.308 97.4746 176.873 97.4746 174.606C97.4746 172.351 96.3774 170.905 94.624 170.905C92.9321 170.905 91.7939 172.381 91.7939 174.606C91.7939 176.852 92.9219 178.308 94.624 178.308ZM108.61 176.832H110.712C110.405 178.8 108.539 180.205 106.067 180.205C102.899 180.205 100.981 178.062 100.981 174.658C100.981 171.274 102.93 169.018 105.975 169.018C108.969 169.018 110.835 171.13 110.835 174.401V175.16H103.217V175.293C103.217 177.17 104.345 178.411 106.119 178.411C107.38 178.411 108.313 177.775 108.61 176.832ZM105.975 170.802C104.427 170.802 103.34 171.981 103.227 173.612H108.621C108.569 171.961 107.523 170.802 105.975 170.802ZM112.558 180V169.213H114.67V171.048H114.722C115.081 169.787 116.044 169.039 117.316 169.039C117.634 169.039 117.911 169.09 118.075 169.121V171.182C117.9 171.11 117.511 171.059 117.08 171.059C115.655 171.059 114.773 172.012 114.773 173.54V180H112.558ZM119.254 172.269C119.254 170.341 120.936 169.018 123.417 169.018C125.929 169.018 127.56 170.413 127.631 172.402H125.55C125.427 171.356 124.658 170.7 123.417 170.7C122.217 170.7 121.417 171.284 121.417 172.146C121.417 172.822 121.91 173.284 123.079 173.55L124.832 173.95C127.037 174.463 127.877 175.324 127.877 176.883C127.877 178.852 126.042 180.205 123.499 180.205C120.802 180.205 119.182 178.882 118.977 176.832H121.171C121.376 177.959 122.146 178.513 123.499 178.513C124.832 178.513 125.652 177.959 125.652 177.078C125.652 176.38 125.252 175.97 124.073 175.704L122.32 175.293C120.269 174.822 119.254 173.837 119.254 172.269Z" fill="black"/>
<path d="M0 38L590 38" class="s-anim"/>
<path d="M0 118L466 118" class="s-anim"/>
<path d="M0 198L320 198" class="s-anim"/>
<defs>

<style>
.s-anim {
  animation: dash 69s linear infinite;
  stroke-dasharray: 10;
  stroke-width: 2;
  stroke: #fff8;
}


@keyframes dash {
  0% {
    stroke-dashoffset: 4000;
  }
}
</style>


<linearGradient id="paint0_linear_9985_11361" x1="-4.69701e-08" y1="38.5" x2="603" y2="38.5001" gradientUnits="userSpaceOnUse">
<stop stop-color="#008FF6" stop-opacity="0.08"/>
<stop offset="1" stop-color="#008FF6"/>
</linearGradient>
<linearGradient id="paint1_linear_9985_11361" x1="0" y1="118.5" x2="470" y2="118.5" gradientUnits="userSpaceOnUse">
<stop stop-color="#008FF6" stop-opacity="0.08"/>
<stop offset="1" stop-color="#008FF6"/>
</linearGradient>
<linearGradient id="paint2_linear_9985_11361" x1="0" y1="198.5" x2="326" y2="198.5" gradientUnits="userSpaceOnUse">
<stop stop-color="#008FF6" stop-opacity="0.08"/>
<stop offset="1" stop-color="#008FF6"/>
</linearGradient>
</defs>
</svg>
