<svg fill="none" height="86" viewBox="0 0 180 86" width="180" xmlns="http://www.w3.org/2000/svg" xmlns:xlink="http://www.w3.org/1999/xlink"><filter id="a" color-interpolation-filters="sRGB" filterUnits="userSpaceOnUse" height="15.6531" width="15.6523" x="10.5098" y="26.2253"><feFlood flood-opacity="0" result="BackgroundImageFix"/><feColorMatrix in="SourceAlpha" result="hardAlpha" type="matrix" values="0 0 0 0 0 0 0 0 0 0 0 0 0 0 0 0 0 0 127 0"/><feOffset/><feGaussianBlur stdDeviation="1.5"/><feComposite in2="hardAlpha" operator="out"/><feColorMatrix type="matrix" values="0 0 0 0 0 0 0 0 0 0 0 0 0 0 0 0 0 0 0.25 0"/><feBlend in2="BackgroundImageFix" mode="normal" result="effect1_dropShadow_10063_11793"/><feBlend in="SourceGraphic" in2="effect1_dropShadow_10063_11793" mode="normal" result="shape"/></filter><filter id="b" color-interpolation-filters="sRGB" filterUnits="userSpaceOnUse" height="15.6531" width="15.6523" x="140.83" y="26.2256"><feFlood flood-opacity="0" result="BackgroundImageFix"/><feColorMatrix in="SourceAlpha" result="hardAlpha" type="matrix" values="0 0 0 0 0 0 0 0 0 0 0 0 0 0 0 0 0 0 127 0"/><feOffset/><feGaussianBlur stdDeviation="1.5"/><feComposite in2="hardAlpha" operator="out"/><feColorMatrix type="matrix" values="0 0 0 0 0 0 0 0 0 0 0 0 0 0 0 0 0 0 0.25 0"/><feBlend in2="BackgroundImageFix" mode="normal" result="effect1_dropShadow_10063_11793"/><feBlend in="SourceGraphic" in2="effect1_dropShadow_10063_11793" mode="normal" result="shape"/></filter><g fill="#1ca0ff"><rect height="58.8839" opacity=".1" rx="3.86127" width="36.6824" y="6.05786"/><rect height="58.8839" opacity=".3" rx="3.86127" width="36.6824" x="43.4375" y="6.05786"/><rect height="58.8839" opacity=".6" rx="3.86127" width="36.6824" x="86.8789" y="6.05762"/><rect height="58.8839" rx="3.86127" width="36.6824" x="130.318" y="6.05762"/></g><g filter="url(#a)"><rect fill="#fff" height="9.6531" rx="4.82655" width="9.65325" x="13.5098" y="29.2253"/></g><g filter="url(#b)"><rect fill="#fff" height="9.6531" rx="4.82655" width="9.65325" x="143.83" y="29.2256"/></g><path d="m137.419 34.3933c.189-.1885.189-.4941 0-.6826l-3.072-3.0716c-.188-.1885-.494-.1885-.682 0-.189.1885-.189.4941 0 .6826l2.73 2.7303-2.73 2.7303c-.189.1885-.189.4941 0 .6826.188.1885.494.1885.682 0zm-109.4229.1414h109.0819v-.9654h-109.0819z" fill="#003b66" opacity=".56"/></svg>