<svg width="100" height="100" viewBox="0 0 100 100" fill="none" xmlns="http://www.w3.org/2000/svg">
<rect width="100" height="100" rx="8.94" fill="#1CA0FF"/>
<path d="M77.3754 23.4809C77.3754 28.4647 77.3627 32.7493 77.3373 36.3346C77.3119 39.8945 77.2991 43.1493 77.2991 46.0989C77.2991 49.913 77.3119 54.3248 77.3373 59.334C77.3627 64.3179 77.3754 68.0557 77.3754 70.5477L62.9198 75.8493C58.1139 69.7213 53.7658 64.4323 49.8753 59.9824C45.9849 55.5072 43.3277 52.494 41.9037 50.9429L41.5986 51.0954C41.5986 54.7825 41.6113 59.0798 41.6367 63.9873C41.6622 68.8949 41.6749 72.4166 41.6749 74.5525H22.2608C22.2608 72.4675 22.2735 68.9711 22.2989 64.0636C22.3244 59.156 22.3371 53.8289 22.3371 48.0822C22.3371 45.6666 22.3244 42.7297 22.2989 39.2715C22.2735 35.7879 22.2481 31.9738 22.2227 27.829L37.4793 22.2222C39.5135 24.6124 42.0817 27.5748 45.1839 31.1092C48.3115 34.6183 52.5198 39.2588 57.8088 45.0309L58.0376 44.9165C58.0376 41.916 58.0249 38.5341 57.9995 34.7708C57.9741 31.0075 57.9613 27.2442 57.9613 23.4809H77.3754Z" fill="white"/>
</svg>
