<svg enable-background="new 0 0 512 512" fill="#3c82f6" viewBox="0 0 512 512" xmlns="http://www.w3.org/2000/svg"><path d="m256 0c-141.491 0-256 114.496-256 256 0 141.489 114.496 256 256 256 141.491 0 256-114.496 256-256 0-141.489-114.496-256-256-256zm0 476.279c-121.462 0-220.279-98.816-220.279-220.279s98.817-220.279 220.279-220.279 220.279 98.816 220.279 220.279-98.817 220.279-220.279 220.279z"/><path d="m256.006 213.397c-15.164 0-25.947 6.404-25.947 15.839v128.386c0 8.088 10.783 16.174 25.947 16.174 14.49 0 26.283-8.086 26.283-16.174v-128.388c0-9.434-11.793-15.837-26.283-15.837z"/><path d="m256.006 134.208c-15.501 0-27.631 11.12-27.631 23.925 0 12.806 12.131 24.263 27.631 24.263 15.164 0 27.296-11.457 27.296-24.263 0-12.805-12.133-23.925-27.296-23.925z"/></svg>