<svg fill="none" height="24" viewBox="0 0 24 24" width="24" xmlns="http://www.w3.org/2000/svg"><path d="m11.812 0c-6.523 0-11.812 5.289-11.812 11.812s5.289 11.813 11.812 11.813 11.813-5.29 11.813-11.813-5.29-11.812-11.813-11.812zm2.459 18.307c-.608.24-1.092.422-1.455.548-.362.126-.783.189-1.262.189-.736 0-1.309-.18-1.717-.539s-.611-.814-.611-1.367c0-.215.015-.435.045-.659.031-.224.08-.476.147-.759l.761-2.688c.067-.258.125-.503.171-.731.046-.23.068-.441.068-.633 0-.342-.071-.582-.212-.717-.143-.135-.412-.201-.813-.201-.196 0-.398.029-.605.09-.205.063-.383.12-.529.176l.201-.828c.498-.203.975-.377 1.43-.521.455-.146.885-.218 1.29-.218.731 0 1.295.178 1.692.53.395.353.594.812.594 1.376 0 .117-.014.323-.041.617-.027.295-.078.564-.152.811l-.757 2.68c-.062.215-.117.461-.167.736-.049.275-.073.485-.073.626 0 .356.079.599.239.728.158.129.435.194.827.194.185 0 .392-.033.626-.097.232-.064.4-.121.506-.17zm-.134-10.878c-.353.328-.778.492-1.275.492-.496 0-.924-.164-1.28-.492-.354-.328-.533-.727-.533-1.193 0-.465.18-.865.533-1.196.356-.332.784-.497 1.28-.497.497 0 .923.165 1.275.497.353.331.53.731.53 1.196 0 .467-.177.865-.53 1.193z" fill="#3b82f6"/></svg>