<svg fill="none" height="130" viewBox="0 0 129 130" width="129" xmlns="http://www.w3.org/2000/svg" xmlns:xlink="http://www.w3.org/1999/xlink"><filter id="a" color-interpolation-filters="sRGB" filterUnits="userSpaceOnUse" height="129.383" width="128.019" x=".460938" y=".006775"><feFlood flood-opacity="0" result="BackgroundImageFix"/><feColorMatrix in="SourceAlpha" result="hardAlpha" type="matrix" values="0 0 0 0 0 0 0 0 0 0 0 0 0 0 0 0 0 0 127 0"/><feOffset dx="5.28301" dy="5.28301"/><feComposite in2="hardAlpha" operator="out"/><feColorMatrix type="matrix" values="0 0 0 0 0 0 0 0 0 0 0 0 0 0 0 0 0 0 0.25 0"/><feBlend in2="BackgroundImageFix" mode="normal" result="effect1_dropShadow_9929_255"/><feBlend in="SourceGraphic" in2="effect1_dropShadow_9929_255" mode="normal" result="shape"/></filter><g filter="url(#a)"><path d="m111.854 15.6653c0 9.0364-.024 16.805-.07 23.3056-.046 6.4546-.069 12.356-.069 17.7041 0 6.9156.023 14.9147.069 23.9972.046 9.0364.07 15.8137.07 20.3318l-26.2107 9.613c-8.7137-11.1112-16.5975-20.7009-23.6515-28.7692-7.0539-8.1143-11.8718-13.5776-14.4536-16.39l-.5533.2766c0 6.6851.0231 14.4767.0692 23.3749.0461 8.8981.0691 15.2837.0691 19.1567h-35.2005c0-3.781.023-10.1203.0691-19.0184s.0692-18.557.0692-28.9765c0-4.3799-.0231-9.7049-.0692-15.9751-.0461-6.3163-.0922-13.2319-.1383-20.7469l27.6625-10.166c3.6884 4.3338 8.3449 9.705 13.9696 16.1134 5.6708 6.3624 13.3011 14.7764 22.8907 25.2421l.415-.2075c0-5.4403-.0231-11.5721-.0692-18.3956-.0461-6.8234-.0691-13.6468-.0691-20.4702z" fill="#000"/><path d="m117.456 80.6434c-.046-9.0757-.069-17.0648-.069-23.9684 0-5.3322.023-11.2198.069-17.6635v-.0003c.046-6.5181.069-14.3008.069-23.3459v-5.67199h-5.671-35.201-5.672v5.67199c0 6.8362.0231 13.6724.0693 20.5086.01 1.4838.0189 2.9347.0268 4.3527-5.2617-5.782-9.7087-10.7106-13.3427-14.7877-5.6077-6.3892-10.2391-11.7315-13.8989-16.03189l-2.5635-3.01207-3.7125 1.36434-27.6625 10.16602-3.73979 1.3743.02444 3.9843c.04612 7.5168.09224 14.4346.13836 20.7535v.0003c.04604 6.2616.06901 11.5719.06901 15.9334 0 10.4113-.02304 20.0603-.06908 28.9471-.04611 8.8984-.06924 15.2508-.06924 19.0478v5.672h5.672 35.2005 5.672v-5.672c0-3.889-.0231-10.2874-.0692-19.1861-.0168-3.2397-.0306-6.332-.0412-9.277 1.5222 1.7405 3.1975 3.6623 5.0264 5.7662l.0053.006.0052.006c6.9706 7.9729 14.7887 17.4809 23.4584 28.5359l2.5447 3.245 3.8715-1.42 26.2107-9.613 3.718-1.364v-3.961c0-4.5331-.023-11.322-.069-20.3606zm0 0-5.672.0288m5.672-.0288-5.672.0288m0 0c-.046-9.0825-.069-17.0816-.069-23.9972 0-5.3481.023-11.2495.069-17.7041l.07 62.0331c0-4.5181-.024-11.2954-.07-20.3318z" stroke="#fff" stroke-width="11.3439"/></g></svg>