<svg fill="#fff" height="512" viewBox="0 0 24 24" width="512" xmlns="http://www.w3.org/2000/svg"><path d="m19.69 9.11-12.89-6.53a3.28 3.28 0 0 0 -3.24 0 3.32 3.32 0 0 0 -1.44 3v12.98a3.34 3.34 0 0 0 1.44 3 2.79 2.79 0 0 0 1.48.4 3.93 3.93 0 0 0 1.76-.45l12.89-6.51c1.91-1 2.19-2.24 2.19-2.92s-.28-2-2.19-2.97zm-.91 4.06-12.88 6.53a1.38 1.38 0 0 1 -1.3.12 1.43 1.43 0 0 1 -.48-1.26v-13.06a1.43 1.43 0 0 1 .48-1.26.87.87 0 0 1 .4-.11 1.94 1.94 0 0 1 .86.24l12.92 6.53c.68.34 1.1.78 1.1 1.13s-.42.79-1.1 1.14z"/></svg>