<svg width="53" height="51" fill="none" xmlns="http://www.w3.org/2000/svg"><path d="M46.69 9.56C40.782 1.618 31.824-.987 22.295 2.19 12.765 5.366 2.6 14.325 1.077 24.49-.512 34.656 6.604 45.838 17.594 49.205c10.99 3.431 25.92-.953 31.954-9.72 6.035-8.768 3.05-21.983-2.858-29.925Z" fill="#4279F6"/><path d="M37.55 17.371c0 1.824-.005 3.392-.014 4.704-.01 1.303-.014 2.494-.014 3.574 0 1.396.004 3.01.014 4.844.009 1.824.014 3.192.014 4.104l-5.291 1.94c-1.76-2.242-3.35-4.178-4.774-5.807a198.29 198.29 0 0 0-2.918-3.308l-.112.056c0 1.35.005 2.922.014 4.718.01 1.796.014 3.085.014 3.867h-7.105c0-.763.005-2.043.014-3.84.01-1.795.014-3.745.014-5.848 0-.884-.005-1.96-.014-3.225-.01-1.275-.019-2.67-.028-4.188l5.584-2.052c.744.875 1.684 1.96 2.82 3.253a524.679 524.679 0 0 0 4.62 5.095l.084-.042c0-1.098-.005-2.336-.014-3.713-.01-1.377-.014-2.755-.014-4.132h7.106Z" fill="#fff"/></svg>