<svg viewBox="0 0 24 24" xmlns="http://www.w3.org/2000/svg"><path clip-rule="evenodd" d="m12 2c-5.525 0-10 4.588-10 10.253 0 4.537 2.862 8.369 6.838 9.727.5.09.687-.218.687-.487 0-.243-.013-1.05-.013-1.91-2.512.476-3.162-.626-3.362-1.203-.113-.295-.6-1.205-1.025-1.448-.35-.192-.85-.667-.013-.68.788-.012 1.35.744 1.538 1.051.9 1.551 2.338 1.116 2.912.846.088-.666.35-1.115.638-1.371-2.225-.256-4.55-1.14-4.55-5.062 0-1.115.387-2.038 1.025-2.756-.1-.256-.45-1.307.1-2.717 0 0 .837-.269 2.75 1.051.8-.23 1.65-.346 2.5-.346s1.7.115 2.5.346c1.912-1.333 2.75-1.05 2.75-1.05.55 1.409.2 2.46.1 2.716.637.718 1.025 1.628 1.025 2.756 0 3.934-2.337 4.806-4.562 5.062.362.32.675.936.675 1.897 0 1.371-.013 2.473-.013 2.82 0 .268.188.589.688.486a10.039 10.039 0 0 0 4.932-3.74 10.447 10.447 0 0 0 1.88-5.988c0-5.665-4.475-10.253-10-10.253z" fill-rule="evenodd"/></svg>