<svg width="353" height="262" viewBox="0 0 353 262" fill="none" xmlns="http://www.w3.org/2000/svg">
<path d="M4.2 199.07V248.07H20.65V215.59L56.91 248.07H73.43V199.07H56.91V229.87L22.82 199.07H4.2ZM134.355 198.72V221.4C134.355 223.15 134.075 224.76 133.585 226.23C133.095 227.77 132.255 229.24 130.995 230.71C129.805 232.18 127.985 233.3 125.605 234.14C123.155 234.98 120.285 235.47 116.925 235.47C113.495 235.47 110.555 234.98 108.105 234.14C105.585 233.3 103.765 232.18 102.575 230.71C101.385 229.24 100.545 227.77 100.055 226.23C99.5646 224.76 99.2846 223.15 99.2846 221.4V198.72H82.6246V222.31C82.6246 223.78 82.6946 225.18 82.9046 226.65C83.1146 228.05 83.5346 229.66 84.1646 231.41C84.8646 233.16 85.6346 234.77 86.6846 236.31C87.6646 237.78 88.9946 239.32 90.7446 240.79C92.4246 242.26 94.4546 243.52 96.6946 244.57C98.9346 245.62 101.665 246.46 104.955 247.09C108.175 247.72 111.815 248 115.735 248H118.325C123.505 248 128.125 247.44 132.185 246.18C136.175 244.99 139.325 243.45 141.635 241.63C143.945 239.81 145.835 237.71 147.305 235.26C148.775 232.88 149.755 230.57 150.245 228.54C150.735 226.44 151.015 224.34 151.015 222.31V198.72H134.355ZM160.092 198.93V248H217.212V236.59H176.612V228.54H215.532V217.34H176.612V210.06H216.442V198.93H160.092ZM261.303 199.98V224.9C261.303 228.68 260.323 231.55 258.433 233.65C256.473 235.75 253.603 236.8 249.683 236.8H248.913C246.883 236.8 245.203 236.52 243.663 236.03C242.193 235.47 241.073 234.91 240.303 234.21C239.533 233.51 238.903 232.67 238.413 231.69C237.923 230.71 237.643 229.94 237.503 229.38C237.363 228.82 237.293 228.19 237.223 227.56H221.963V227.98C221.963 229.87 222.173 231.76 222.663 233.65C223.083 235.47 223.993 237.36 225.183 239.18C226.373 241 227.913 242.68 229.803 244.08C231.693 245.48 234.143 246.6 237.223 247.44C240.233 248.28 243.663 248.7 247.513 248.7H251.153C255.073 248.7 258.573 248.21 261.653 247.23C264.733 246.18 267.183 244.92 269.003 243.38C270.823 241.84 272.293 239.95 273.483 237.85C274.673 235.68 275.443 233.58 275.863 231.55C276.283 229.52 276.423 227.42 276.423 225.32V199.98H261.303ZM314.076 248.91H318.976C324.156 248.91 328.706 248.63 332.556 247.93C336.406 247.3 339.416 246.53 341.656 245.48C343.896 244.5 345.646 243.24 346.976 241.77C348.306 240.23 349.216 238.76 349.636 237.36C350.056 235.96 350.266 234.35 350.266 232.53V231.62C350.266 226.65 348.096 223.08 343.616 220.77C339.206 218.46 332.066 217.2 322.056 217.06L317.016 216.99L313.096 216.92C309.666 216.85 307.006 216.64 305.116 216.22C303.226 215.73 302.036 215.24 301.546 214.75C300.986 214.19 300.776 213.56 300.776 212.72C300.776 211.81 300.986 211.11 301.476 210.62C301.896 210.13 303.226 209.64 305.326 209.15C307.496 208.73 310.016 208.52 314.076 208.52H316.526C319.186 208.52 320.726 208.66 322.686 208.94C324.646 209.29 326.186 209.64 327.166 209.99C328.216 210.41 328.986 210.9 329.616 211.53C330.246 212.16 330.666 212.65 330.806 213C330.946 213.35 331.086 213.84 331.226 214.33H348.586V213.7C348.586 212.09 348.306 210.62 347.746 209.22C347.256 207.89 346.276 206.49 344.876 205.09C343.476 203.69 341.656 202.5 339.416 201.52C337.176 200.54 334.236 199.77 330.456 199.14C326.746 198.51 322.406 198.23 317.576 198.23H312.606C307.916 198.23 303.786 198.51 300.286 199.14C296.716 199.7 293.916 200.47 291.816 201.38C289.716 202.29 288.036 203.41 286.776 204.74C285.446 206.14 284.606 207.47 284.186 208.8C283.766 210.13 283.556 211.6 283.556 213.14V213.77C283.556 222.87 292.236 227.7 309.596 228.12L313.516 228.19L318.766 228.33C322.756 228.4 325.766 228.68 327.866 229.1C329.966 229.59 331.366 230.15 331.926 230.71C332.486 231.34 332.766 232.18 332.766 233.23C332.766 234 332.626 234.63 332.276 235.19C331.926 235.75 331.296 236.24 330.246 236.8C329.266 237.36 327.656 237.71 325.486 237.99C323.246 238.27 321.846 238.48 318.486 238.48H314.636C304.416 238.48 300.636 235.89 300.286 230.71H282.856V231.41C282.856 232.95 282.996 234.42 283.346 235.75C283.696 237.08 284.536 238.62 285.796 240.3C287.056 241.98 288.806 243.45 290.906 244.64C293.076 245.83 296.156 246.81 300.146 247.65C304.066 248.49 308.756 248.91 314.076 248.91Z" fill="black"/>
<rect x="90" width="157" height="157" rx="11" fill="black"/>
<circle cx="168.5" cy="78.5" r="68.6435" fill="white"/>
<rect x="160.404" y="24.6412" width="16.1928" height="108.422" rx="1" fill="black"/>
<rect x="114.641" y="86.5964" width="16.1928" height="108.422" rx="1" transform="rotate(-90 114.641 86.5964)" fill="black"/>
<rect x="124.473" y="45.8656" width="16.1122" height="108.663" rx="1" transform="rotate(-45 124.473 45.8656)" fill="black"/>
<rect x="201.309" y="34.4725" width="16.1122" height="108.663" rx="1" transform="rotate(45 201.309 34.4725)" fill="black"/>
</svg>
