<svg viewBox="0 0 512.00038 512" xmlns="http://www.w3.org/2000/svg"><path d="m512 256c0 141.386719-114.613281 256-256 256-141.382812 0-256-114.613281-256-256 0-141.382812 114.617188-256 256-256 141.386719 0 256 114.617188 256 256zm0 0" fill="#a0f6fa"/><path d="m473.792969 228.792969c-78.355469 55.636719-179.382813 68.273437-269.027344 33.65625-47.351563-18.585938-70.566406-72.195313-51.601563-119.492188 18.816407-46.925781 72.597657-69.261719 119.664063-50.792969 30.984375 12.160157 66.019531 7.777344 93.054687-11.640624 41.0625-29.492188 98.6875-21.09375 128.484376 19.75 30.035156 41.167968 20.742187 98.847656-20.574219 128.519531zm0 0" fill="#aa3c6e"/><path d="m302.933594 146.304688c-26.039063 0-51.574219-4.746094-75.894532-14.101563-5.261718-2.113281-7.851562-5.984375-9.101562-8.871094-1.253906-2.910156-2.304688-7.5-.160156-12.839843 3.011718-7.515626 10.46875-10.179688 15.9375-10.179688 2.277344 0 4.535156.433594 6.714844 1.289062 20.226562 7.9375 41.5 11.960938 63.222656 11.960938 36.457031 0 71.375-11.238281 100.980468-32.503906 3.992188-2.867188 8.042969-3.464844 10.734376-3.464844 2.605468 0 9.128906.632812 13.410156 6.5 3.394531 4.652344 3.507812 9.359375 3.007812 12.488281-.5 3.105469-2.058594 7.5-6.640625 10.839844-35.921875 25.4375-78.175781 38.882813-122.210937 38.882813zm0 0" fill="#bc5388"/><path d="m4.480469 191.636719c32.882812 109.234375 118.347656 194.699219 227.582031 227.582031 57.917969 17.09375 118.742188-16.230469 135.433594-74.375 16.5625-57.683594-17.558594-117.808594-75.121094-134.796875-37.898438-11.183594-67.539062-40.824219-78.722656-78.722656-16.988282-57.5625-77.113282-91.683594-134.796875-75.121094-58.144531 16.691406-91.46875 77.515625-74.375 135.433594zm0 0" fill="#ff6196"/><path d="m300.238281 307.277344c-3.160156 0-6.347656-.460938-9.472656-1.367188-85.183594-25.726562-151.355469-91.894531-177.082031-177.074218-3.394532-11.691407.316406-21.128907 2.835937-25.726563 2.535157-4.609375 8.542969-12.855469 20.347657-16.242187 2.941406-.847657 5.945312-1.273438 8.925781-1.273438 15.132812 0 28.804687 10.5 33.242187 25.539062 18.46875 62.574219 66.851563 110.957032 129.425782 129.421876 18.488281 5.457031 29.375 24.375 24.265624 42.171874-4.152343 14.453126-17.511718 24.550782-32.488281 24.550782 0 0 .003907 0 0 0zm0 0" fill="#ff82aa"/><path d="m463.835938 314.921875c-6.675782-60.125-61.027344-103.203125-120.996094-96.09375-113.207032 14.042969-211.828125 83.917969-262.617188 186.0625-4.457031 9.085937-7.523437 18.492187-9.296875 27.976563 46.609375 48.757812 112.292969 79.132812 185.074219 79.132812 4.476562 0 8.929688-.117188 13.351562-.34375 2.527344-3.851562 4.84375-7.894531 6.917969-12.128906 17.402344-35.476563 51.605469-59.710938 90.84375-64.363282 59.597657-7.066406 103.347657-60.59375 96.722657-120.242187zm0 0" fill="#f91e43"/><path d="m145.484375 437.316406c-4.839844 0-9.539063-1.082031-13.96875-3.210937-11.0625-5.324219-15.601563-14.460938-17.320313-19.433594-1.714843-4.953125-3.785156-14.882813 1.527344-25.835937 39.6875-79.636719 116.042969-133.730469 204.332032-144.769532 1.324218-.148437 2.660156-.226562 3.96875-.226562 17.191406 0 31.597656 12.957031 33.503906 30.136718 2.042968 18.402344-11.867188 35.21875-31.011719 37.488282-64.789063 7.679687-120.617187 47.238281-149.347656 105.8125-5.972657 12.171875-18.40625 20.039062-31.683594 20.039062zm0 0" fill="#ff4057"/></svg>