<svg fill="none" viewBox="0 0 1080 1080" xmlns="http://www.w3.org/2000/svg" xmlns:xlink="http://www.w3.org/1999/xlink"><filter id="a" height="140%" width="140%" x="-20%" y="-20%"><feMorphology in="SourceAlpha" operator="dilate" radius="20 20" result="morphology"/><feFlood flood-color="#fff" result="flood"/><feComposite in="flood" in2="morphology" operator="in" result="composite"/><feMerge result="merge"><feMergeNode in="composite" result="mergeNode"/><feMergeNode in="SourceGraphic" result="mergeNode1"/></feMerge></filter><g filter="url(#a)"><g stroke="#000" stroke-linecap="round" stroke-linejoin="round"><path d="m532 379c132.54834 0 240 107.45166 240 240 0 23.160109 11.234546 37.244677 5.453024 59.979248-13.86947 54.538669-18.751145 262.364418-179.453024 230.020752-58.381055-11.750064-137-29-165-51s-90.829961-99.227164-112.810487-139.415013c-2.691384.274694-5.424062.415013-8.189513.415013-44.18278 0-80-35.81722-80-80 0-39.865044 29.158843-72.919675 67.312086-78.99945 26.287211-104.021337 120.497833-181.00055 232.687914-181.00055zm-236.141105 245.545187 8.28221 30.909626" fill="#fff" fill-rule="evenodd" stroke-width="24"/><path clip-rule="evenodd" d="m644 560s21.892 53.522 29 63c3 4 20.906 18.256 19.774 30.58-2.709 29.496-48.774 30.779-48.774 30.779s56 5.13 56-30.779c0-16.358-13-21.58-26-33.58-7.041-6.5-30-60-30-60z" fill="#000" fill-rule="evenodd" stroke-width="6"/><path d="m549 759c27.33038 6.666667 50.663714 10 70 10s36.002953-3.333333 50-10" fill="none" stroke-width="16"/><g fill-rule="evenodd"><g fill="none" stroke-width="12" transform="translate(533.944954 540.730159)"><path d="m146.275229 0c13.683238 9.35202544 24.107091 14.8216846 31.27156 16.4089776 7.164469 1.5872929 18.68557.979553 34.563303-1.8232198" transform="matrix(-1 0 0 1 358.385322 0)"/><path d="m0 0c13.6832373 9.35202544 24.1070905 14.8216846 31.2715596 16.4089776 7.1644692 1.5872929 18.6855701.979553 34.5633028-1.8232198"/></g><g fill="none" stroke-width="24" transform="translate(517 471)"><path d="m1 27.417265 75.854879-25.417265" transform="matrix(.99902921 .04405256 -.04405256 .99902921 .685743 -1.700575)"/><path d="m166 27.417265 75.854879-25.417265" transform="matrix(-.99902921 .04405256 .04405256 .99902921 407.008955 -8.969247)"/></g><path clip-rule="evenodd" d="m481 508-188 33-4 9 192-29z" fill="#000" stroke-width="4"/></g></g><g fill="#000"><path clip-rule="evenodd" d="m474 506.65 33.276-5.815s19.662-17.835 51.804-17.835c32.141 0 65.417 29.466 65.417 29.466h15.503 15.503s33.276-29.466 65.417-29.466 51.804 17.835 51.804 17.835l33.276 5.815v18.61l-11.344 5.816s-3.781 62.421-26.469 81.031-58.307 18.437-83.946 0c-25.638-18.436-33.653-81.031-33.653-81.031h-10.588-10.588s-8.015 62.595-33.653 81.031c-25.639 18.437-61.258 18.61-83.946 0s-26.469-81.031-26.469-81.031l-11.344-5.816zm33.685 5.467c-3.296 2.794-5.494 5.37-6.466 7.257-.47.911-1.088 3.114-1.663 6.333-.57 3.196-1.088 7.338-1.378 12.084-.58 9.496-.247 21.388 2.382 32.954 2.629 11.568 7.547 22.772 16.109 30.941 8.548 8.157 20.774 13.332 38.118 12.773h.004c16.237-.373 28.254-5.823 37.095-13.895 8.85-8.081 14.545-18.816 18.078-29.795 3.533-10.977 4.895-22.171 5.097-31.136.101-4.482-.088-8.4-.439-11.447-.175-1.525-.39-2.826-.628-3.868-.24-1.052-.496-1.81-.741-2.267-4.365-8.134-19.922-26.367-52.133-27.5-16.11-.567-30.1 3.708-40.567 9.105-5.234 2.699-9.581 5.675-12.868 8.461zm12.41-9.35c10.593-5.462 24.752-9.79 41.06-9.216 32.623 1.148 48.474 19.632 52.979 28.027.309.577.589 1.438.835 2.517.248 1.088.469 2.427.647 3.976.356 3.1.547 7.064.445 11.584-.204 9.04-1.577 20.333-5.145 31.421-3.568 11.086-9.339 21.993-18.356 30.226-9.025 8.241-21.276 13.777-37.743 14.156-17.578.567-30.074-4.685-38.839-13.048-8.752-8.352-13.738-19.763-16.393-31.444-2.656-11.683-2.989-23.675-2.405-33.236.292-4.781.814-8.961 1.392-12.198.573-3.214 1.211-5.555 1.758-6.616 1.06-2.057 3.371-4.733 6.709-7.562 3.347-2.837 7.759-5.855 13.056-8.587zm252.22 9.35c3.296 2.794 5.494 5.37 6.466 7.257.47.911 1.088 3.114 1.663 6.333.57 3.196 1.088 7.338 1.378 12.084.58 9.496.247 21.388-2.382 32.954-2.629 11.568-7.547 22.772-16.109 30.941-8.548 8.157-20.774 13.332-38.118 12.773h-.004c-16.237-.373-28.254-5.823-37.095-13.895-8.85-8.081-14.545-18.816-18.078-29.795-3.533-10.977-4.895-22.171-5.097-31.136-.101-4.482.088-8.4.439-11.447.175-1.525.39-2.826.628-3.868.24-1.052.496-1.81.741-2.267 4.365-8.134 19.922-26.367 52.133-27.5 16.11-.567 30.1 3.708 40.567 9.105 5.234 2.699 9.581 5.675 12.868 8.461zm-12.41-9.35c-10.593-5.462-24.752-9.79-41.06-9.216-32.623 1.148-48.474 19.632-52.979 28.027-.309.577-.589 1.438-.835 2.517-.248 1.088-.469 2.427-.647 3.976-.356 3.1-.547 7.064-.445 11.584.204 9.04 1.577 20.333 5.145 31.421 3.568 11.086 9.339 21.993 18.356 30.226 9.025 8.241 21.276 13.777 37.743 14.156 17.578.567 30.074-4.685 38.839-13.048 8.752-8.352 13.738-19.763 16.393-31.444 2.656-11.683 2.989-23.675 2.405-33.236-.292-4.781-.814-8.961-1.392-12.198-.573-3.214-1.211-5.555-1.758-6.616-1.06-2.057-3.371-4.733-6.709-7.562-3.347-2.837-7.759-5.855-13.056-8.587z" fill-rule="evenodd"/><path d="m507.276 500.835.344 1.97c.373-.065.719-.235.999-.489zm-33.276 5.815-.344-1.97c-.958.167-1.656.999-1.656 1.97zm150.497 5.816-1.326 1.497c.365.324.837.503 1.326.503zm31.006 0v2c.489 0 .961-.179 1.326-.503zm117.221-11.631-1.343 1.481c.28.254.626.424.999.489zm33.276 5.815h2c0-.971-.698-1.803-1.656-1.97zm0 18.61.912 1.78c.668-.342 1.088-1.029 1.088-1.78zm-11.344 5.816-.912-1.78c-.629.323-1.042.953-1.084 1.659zm-110.415 81.031 1.168-1.623zm-33.653-81.031 1.983-.254c-.127-.998-.977-1.746-1.983-1.746zm-21.176 0v-2c-1.006 0-1.856.748-1.983 1.746zm-33.653 81.031-1.168-1.623zm-110.415-81.031 1.996-.121c-.042-.706-.455-1.336-1.084-1.659zm-11.344-5.816h-2c0 .751.42 1.438 1.088 1.78zm27.219-5.886 1.778.916zm6.466-7.257-1.293-1.526zm-8.129 13.59 1.969.352zm-1.378 12.084 1.997.122zm2.382 32.954 1.95-.444zm16.109 30.941 1.38-1.447zm38.118 12.773-.053-2-.012.001zm.004 0-.046-2h-.006zm37.095-13.895-1.349-1.477zm18.078-29.795 1.904.613zm5.097-31.136-1.999-.045zm-.439-11.447 1.987-.229zm-.628-3.868 1.95-.445zm-.741-2.267-1.762.946zm-52.133-27.5.07-1.999zm-40.567 9.105.916 1.778zm40.602-10.105-.07 1.999zm-41.06 9.216-.917-1.777zm94.039 18.811-1.762.946zm.835 2.517-1.95.445zm.647 3.976-1.987.229zm.445 11.584-2-.045zm-5.145 31.421-1.904-.613zm-18.356 30.226-1.348-1.477zm-37.743 14.156-.046-1.999c-.007 0-.013 0-.019 0zm-38.839-13.048 1.381-1.447zm-16.393-31.444 1.95-.443zm-2.405-33.236-1.996-.121zm1.392-12.198-1.969-.352zm1.758-6.616 1.778.916zm6.709-7.562-1.293-1.526zm271.742 8.02 1.778-.916zm-6.466-7.257 1.293-1.526zm8.129 13.59 1.969-.351zm1.378 12.084 1.996-.121v-.001zm-2.382 32.954 1.95.443zm-16.109 30.941-1.38-1.447zm-38.118 12.773.065-1.999-.012-.001zm-.004 0 .052-2h-.006zm-37.095-13.895 1.349-1.477zm-18.078-29.795-1.904.613zm-5.097-31.136 1.999-.045zm.439-11.447-1.987-.229zm.628-3.868-1.95-.445zm.741-2.267 1.762.946zm52.133-27.5-.07-1.999zm40.567 9.105-.916 1.778zm-40.602-10.105.07 1.999zm41.06 9.216.917-1.777zm-94.039 18.811 1.762.946zm-.835 2.517 1.95.445zm-.647 3.976 1.987.229zm-.445 11.584 2-.045zm5.145 31.421 1.904-.613zm18.356 30.226-1.349 1.477zm37.743 14.156.065-1.999c-.006 0-.012 0-.019 0zm38.839-13.048 1.38 1.447zm16.393-31.444-1.95-.443zm2.405-33.236 1.996-.121zm-1.392-12.198-1.969.351zm-1.758-6.616 1.778-.916zm-6.709-7.562 1.293-1.526zm-266.03-12.489-33.275 5.815.688 3.94 33.276-5.815zm52.149-17.865c-16.447 0-29.704 4.564-38.848 9.128-4.573 2.282-8.125 4.568-10.543 6.291-1.209.862-2.136 1.585-2.767 2.097-.315.256-.556.46-.722.602-.083.071-.147.127-.191.167-.023.02-.04.035-.053.047-.007.005-.012.01-.016.014-.002.002-.003.003-.005.004 0 .001-.001.002-.002.002 0 .001-.001.001 1.343 1.483 1.343 1.481 1.343 1.482 1.342 1.482.001-.001.003-.002.006-.005.007-.006.018-.016.033-.03.032-.028.082-.072.152-.131.138-.119.35-.299.635-.53.57-.463 1.431-1.134 2.567-1.944 2.273-1.621 5.646-3.794 10.007-5.97 8.722-4.353 21.367-8.707 37.062-8.707zm65.417 31.466c1.325-1.497 1.325-1.498 1.324-1.498 0-.001-.001-.001-.001-.002-.002-.001-.004-.003-.006-.005-.005-.005-.012-.011-.021-.019-.018-.016-.045-.038-.078-.068-.068-.059-.168-.145-.298-.257-.26-.223-.642-.547-1.137-.957-.991-.821-2.438-1.989-4.272-3.388-3.667-2.797-8.894-6.526-15.142-10.256-12.435-7.426-29.17-15.016-45.786-15.016v4c15.525 0 31.498 7.143 43.736 14.45 6.089 3.636 11.189 7.274 14.766 10.002 1.788 1.363 3.192 2.498 4.146 3.288.477.395.842.704 1.085.913.121.104.213.184.273.236.03.026.052.045.066.058.007.006.012.011.015.013.002.002.003.003.004.003v.001c0-.001 0-.001 1.326-1.498zm15.503-2h-15.503v4h15.503zm0 4h15.503v-4h-15.503zm15.503-2c1.326 1.497 1.326 1.497 1.326 1.498 0-.001 0-.001 0-.001.001 0 .002-.001.004-.003.003-.002.008-.007.015-.013.014-.013.036-.032.066-.058.06-.052.152-.132.273-.236.243-.209.608-.518 1.085-.913.954-.79 2.358-1.925 4.146-3.288 3.577-2.728 8.677-6.366 14.766-10.002 12.238-7.307 28.211-14.45 43.736-14.45v-4c-16.616 0-33.351 7.59-45.786 15.016-6.248 3.73-11.475 7.459-15.142 10.256-1.834 1.399-3.281 2.567-4.272 3.388-.495.41-.877.734-1.137.957-.13.112-.23.198-.298.257-.033.03-.06.052-.078.068-.009.008-.016.014-.021.019-.002.002-.004.004-.006.005 0 .001-.001.001-.001.002-.001 0-.001.001 1.324 1.498zm65.417-27.466c15.695 0 28.34 4.354 37.062 8.707 4.361 2.176 7.734 4.349 10.007 5.97 1.136.81 1.997 1.481 2.567 1.944.285.231.497.411.635.53.07.059.12.103.152.131.015.014.026.024.033.03.003.003.005.004.006.005 0 0 0 .001 0 0-.001 0-.001-.001 1.342-1.482 1.344-1.482 1.343-1.482 1.343-1.483-.001 0-.002-.001-.002-.002-.002-.001-.003-.002-.005-.004-.004-.004-.009-.009-.016-.014-.013-.012-.03-.027-.053-.047-.044-.04-.108-.096-.191-.167-.166-.142-.407-.346-.722-.602-.631-.512-1.558-1.235-2.767-2.097-2.418-1.723-5.97-4.009-10.543-6.291-9.144-4.564-22.401-9.128-38.848-9.128zm51.46 17.805 33.276 5.815.688-3.94-33.275-5.815zm31.62 3.845v18.61h4v-18.61zm1.088 16.831-11.344 5.815 1.824 3.56 11.344-5.816zm-10.432 7.595c-1.996-.121-1.996-.121-1.996-.121v.002c0 .001-.001.003-.001.007 0 .006-.001.017-.002.031-.002.028-.004.071-.008.129-.008.115-.019.287-.036.514-.032.454-.084 1.125-.157 1.988-.146 1.725-.38 4.216-.732 7.265-.704 6.101-1.877 14.421-3.752 23.309-1.876 8.897-4.444 18.312-7.923 26.623-3.493 8.345-7.827 15.387-13.131 19.738l2.537 3.093c6.04-4.955 10.687-12.694 14.284-21.287 3.611-8.627 6.242-18.307 8.147-27.341 1.907-9.044 3.098-17.492 3.812-23.677.357-3.093.595-5.625.744-7.386.075-.88.127-1.568.161-2.038.017-.235.029-.415.037-.537.004-.062.007-.108.009-.14.001-.016.002-.028.003-.037 0-.004 0-.007 0-.01 0-.001 0-.002 0-.003 0 0 0-.001-1.996-.122zm-27.738 79.485c-21.902 17.966-56.514 17.897-81.509-.077l-2.335 3.247c26.281 18.899 62.908 19.177 86.381-.077zm-81.509-.077c-6.043-4.346-11.173-11.399-15.464-19.731-4.277-8.307-7.64-17.727-10.224-26.632-2.581-8.898-4.371-17.232-5.514-23.344-.572-3.055-.982-5.551-1.248-7.28-.133-.864-.231-1.537-.294-1.991-.032-.228-.056-.401-.071-.516-.008-.057-.014-.1-.017-.128-.002-.014-.004-.025-.004-.031-.001-.004-.001-.006-.001-.008 0 0 0-.001-.001-.001 0 0 0 0-1.983.254-1.984.254-1.984.255-1.984.255v.003c.001.003.001.006.002.01.001.009.002.021.005.037.004.032.01.079.018.141.017.123.041.304.074.539.067.472.166 1.162.303 2.045.272 1.766.688 4.305 1.269 7.406 1.16 6.201 2.977 14.667 5.604 23.723 2.625 9.048 6.073 18.733 10.51 27.349 4.423 8.59 9.909 16.274 16.685 21.147zm-34.821-81.408h-10.588v4h10.588zm-21.176 4h10.588v-4h-10.588zm-32.486 80.655c6.776-4.873 12.262-12.557 16.685-21.147 4.437-8.616 7.885-18.301 10.51-27.349 2.627-9.056 4.444-17.522 5.604-23.723.581-3.101.997-5.64 1.269-7.406.137-.883.236-1.573.303-2.045.033-.235.057-.416.074-.539.008-.062.014-.109.018-.141.003-.016.004-.028.005-.037.001-.004.001-.007.002-.01 0-.001 0-.002 0-.003 0 0 0-.001-1.984-.255-1.983-.254-1.983-.254-1.983-.254-.001 0-.001.001-.001.001 0 .002 0 .004-.001.008 0 .006-.002.017-.004.031-.003.028-.009.071-.017.128-.015.115-.039.288-.071.516-.063.454-.161 1.127-.294 1.991-.266 1.729-.676 4.225-1.248 7.28-1.143 6.112-2.933 14.446-5.514 23.344-2.584 8.905-5.947 18.325-10.224 26.632-4.291 8.332-9.421 15.385-15.464 19.731zm-86.381-.077c23.473 19.254 60.1 18.976 86.381.077l-2.335-3.247c-24.995 17.974-59.607 18.043-81.509.077zm-25.201-82.578c-1.996.121-1.996.122-1.996.122v.003.01c.001.009.002.021.003.037.002.032.005.078.009.14.008.122.02.302.037.537.034.47.086 1.158.161 2.038.149 1.761.387 4.293.744 7.386.714 6.185 1.905 14.633 3.812 23.677 1.905 9.034 4.536 18.714 8.147 27.341 3.597 8.593 8.244 16.332 14.284 21.287l2.537-3.093c-5.304-4.351-9.638-11.393-13.131-19.738-3.479-8.311-6.047-17.726-7.923-26.623-1.875-8.888-3.048-17.208-3.752-23.309-.352-3.049-.586-5.54-.732-7.265-.073-.863-.125-1.534-.157-1.988-.017-.227-.028-.399-.036-.514-.004-.058-.006-.101-.008-.129-.001-.014-.002-.025-.002-.031 0-.004-.001-.006-.001-.007s0-.002 0-.002 0 0-1.996.121zm-12.256-4.036 11.344 5.816 1.824-3.56-11.344-5.815zm-1.088-20.39v18.61h4v-18.61zm30.997 13.64c.797-1.548 2.767-3.923 5.982-6.648l-2.587-3.051c-3.378 2.863-5.804 5.64-6.951 7.867zm-1.472 5.769c.577-3.233 1.157-5.158 1.472-5.769l-3.556-1.832c-.624 1.211-1.282 3.691-1.854 6.898zm-1.35 11.854c.285-4.676.794-8.741 1.35-11.854l-3.938-.703c-.585 3.278-1.111 7.497-1.405 12.314zm2.335 32.388c-2.575-11.329-2.907-23.021-2.335-32.388l-3.993-.243c-.588 9.625-.255 21.716 2.428 33.518zm15.539 29.938c-8.178-7.804-12.961-18.595-15.539-29.938l-3.9.887c2.68 11.793 7.734 23.411 16.678 31.945zm36.673 12.221c-16.874.544-28.558-4.478-36.673-12.221l-2.761 2.894c8.982 8.571 21.75 13.9 39.563 13.325zm.017-.001h-.005l.105 3.999h.005zm35.798-13.372c-8.471 7.735-20.02 13.01-35.792 13.372l.092 3.999c16.702-.384 29.187-6.007 38.397-14.417zm17.523-28.93c-3.463 10.761-9.006 21.154-17.523 28.93l2.697 2.954c9.184-8.386 15.031-19.464 18.634-30.659zm5.002-30.569c-.199 8.816-1.54 19.813-5.002 30.569l3.808 1.225c3.604-11.198 4.987-22.59 5.193-31.704zm-.427-11.174c.339 2.944.526 6.769.427 11.174l3.999.09c.102-4.559-.089-8.569-.452-11.721zm-.591-3.652c.217.953.422 2.179.591 3.652l3.974-.457c-.181-1.575-.407-2.952-.665-4.084zm-.553-1.765c.117.219.326.769.553 1.765l3.9-.889c-.252-1.106-.556-2.072-.929-2.767zm-50.442-26.448c31.389 1.105 46.357 18.836 50.442 26.448l3.524-1.891c-4.645-8.657-20.791-27.392-53.825-28.554zm-39.58 8.885c10.214-5.267 23.866-9.438 39.58-8.885l.141-3.997c-16.505-.581-30.833 3.798-41.554 9.327zm-12.49 8.208c3.164-2.682 7.384-5.575 12.49-8.208l-1.833-3.555c-5.36 2.764-9.835 5.823-13.244 8.712zm52.246-22.09c-16.703-.587-31.2 3.844-42.047 9.438l1.833 3.555c10.34-5.332 24.162-9.555 40.074-8.995zm54.671 29.081c-4.784-8.918-21.225-27.904-54.671-29.081l-.14 3.998c31.8 1.119 47.062 19.101 51.287 26.974zm1.023 3.017c-.259-1.134-.586-2.203-1.023-3.017l-3.524 1.891c.181.338.414.992.647 2.016zm.684 4.193c-.184-1.601-.416-3.015-.684-4.193l-3.9.89c.228.998.437 2.261.61 3.76zm.457 11.857c.104-4.597-.089-8.654-.457-11.857l-3.974.457c.345 2.996.533 6.867.432 11.31zm-5.24 31.988c3.639-11.309 5.033-22.8 5.24-31.988l-3.999-.09c-.2 8.891-1.552 19.986-5.049 30.853zm-18.911 31.091c9.35-8.537 15.273-19.787 18.911-31.091l-3.808-1.225c-3.498 10.87-9.117 21.434-17.8 29.362zm-39.046 14.679c16.932-.39 29.65-6.1 39.046-14.679l-2.697-2.954c-8.656 7.904-20.439 13.266-36.441 13.634zm-40.265-13.601c9.198 8.777 22.236 14.182 40.283 13.6l-.129-3.998c-17.108.552-29.062-4.547-37.393-12.496zm-16.963-32.448c2.706 11.907 7.828 23.731 16.963 32.448l2.761-2.894c-8.37-7.987-13.22-18.985-15.824-30.44zm-2.451-33.8c-.592 9.69-.259 21.881 2.451 33.8l3.9-.886c-2.602-11.448-2.935-23.239-2.358-32.671zm1.419-12.429c-.593 3.32-1.123 7.577-1.419 12.429l3.993.243c.287-4.711.801-8.814 1.364-11.969zm1.949-7.18c-.701 1.36-1.378 3.979-1.949 7.18l3.938.703c.575-3.226 1.174-5.29 1.567-6.051zm7.194-8.172c-3.42 2.898-5.959 5.775-7.194 8.172l3.556 1.832c.885-1.718 2.968-4.193 6.224-6.952zm13.432-8.838c-5.424 2.797-9.963 5.897-13.432 8.838l2.586 3.052c3.226-2.734 7.509-5.669 12.679-8.335zm261.381 17.468c-1.147-2.227-3.573-5.004-6.951-7.867l-2.587 3.051c3.215 2.725 5.185 5.1 5.982 6.648zm1.854 6.898c-.572-3.207-1.23-5.687-1.854-6.898l-3.556 1.832c.315.611.895 2.536 1.472 5.769zm1.405 12.313c-.294-4.816-.82-9.035-1.405-12.313l-3.938.703c.556 3.113 1.065 7.178 1.35 11.854zm-2.428 33.519c2.683-11.802 3.016-23.893 2.428-33.518l-3.993.243c.572 9.367.24 21.059-2.335 32.388zm-16.678 31.945c8.944-8.534 13.998-20.152 16.678-31.945l-3.9-.887c-2.578 11.343-7.361 22.134-15.539 29.938zm-39.563 13.325c17.813.575 30.581-4.754 39.563-13.325l-2.761-2.894c-8.115 7.743-19.799 12.765-36.673 12.221zm.007 0h.005l.105-3.999h-.005zm-38.39-14.417c9.21 8.41 21.695 14.033 38.397 14.417l.092-3.999c-15.772-.362-27.321-5.637-35.792-13.372zm-18.634-30.659c3.603 11.195 9.45 22.273 18.634 30.659l2.697-2.954c-8.517-7.776-14.06-18.169-17.523-28.93zm-5.193-31.704c.206 9.114 1.589 20.506 5.193 31.704l3.808-1.225c-3.462-10.756-4.803-21.753-5.002-30.569zm.452-11.721c-.363 3.152-.554 7.162-.452 11.721l3.999-.09c-.099-4.405.088-8.23.427-11.174zm.665-4.084c-.258 1.132-.484 2.509-.665 4.084l3.974.457c.169-1.473.374-2.699.591-3.652zm.929-2.767c-.373.695-.677 1.661-.929 2.767l3.9.889c.227-.996.436-1.546.553-1.765zm53.825-28.554c-33.034 1.162-49.18 19.897-53.825 28.554l3.524 1.891c4.085-7.612 19.053-25.343 50.442-26.448zm41.554 9.327c-10.721-5.529-25.049-9.908-41.554-9.327l.141 3.997c15.714-.553 29.366 3.618 39.58 8.885zm13.244 8.712c-3.409-2.889-7.884-5.948-13.244-8.712l-1.833 3.555c5.106 2.633 9.326 5.526 12.49 8.208zm-54.693-15.041c15.912-.56 29.734 3.663 40.074 8.995l1.833-3.555c-10.847-5.594-25.344-10.025-42.047-9.438zm-51.287 26.974c4.225-7.873 19.487-25.855 51.287-26.974l-.14-3.998c-33.446 1.177-49.887 20.163-54.671 29.081zm-.647 2.016c.233-1.024.466-1.678.647-2.016l-3.524-1.891c-.437.814-.764 1.883-1.023 3.017zm-.61 3.76c.173-1.499.382-2.762.61-3.76l-3.9-.89c-.268 1.178-.5 2.592-.684 4.193zm-.432 11.31c-.101-4.443.087-8.314.432-11.31l-3.974-.457c-.368 3.203-.561 7.26-.457 11.857zm5.049 30.853c-3.497-10.867-4.849-21.962-5.049-30.853l-3.999.09c.207 9.188 1.601 20.679 5.24 31.988zm17.8 29.362c-8.683-7.928-14.302-18.492-17.8-29.362l-3.808 1.225c3.638 11.304 9.561 22.554 18.911 31.091zm36.441 13.634c-16.002-.368-27.785-5.73-36.441-13.634l-2.697 2.954c9.396 8.579 22.114 14.289 39.046 14.679zm37.412-12.496c-8.331 7.949-20.285 13.048-37.393 12.496l-.129 3.998c18.047.582 31.085-4.823 40.283-13.6zm15.824-30.44c-2.604 11.455-7.454 22.453-15.824 30.44l2.761 2.894c9.135-8.717 14.257-20.541 16.963-32.448zm2.358-32.671c.577 9.432.244 21.223-2.358 32.671l3.9.886c2.71-11.919 3.043-24.11 2.451-33.8zm-1.364-11.969c.563 3.155 1.077 7.258 1.364 11.969l3.993-.243c-.296-4.852-.826-9.109-1.419-12.429zm-1.567-6.051c.393.761.992 2.825 1.567 6.051l3.938-.703c-.571-3.201-1.248-5.82-1.949-7.18zm-6.224-6.952c3.256 2.759 5.339 5.234 6.224 6.952l3.556-1.832c-1.235-2.397-3.774-5.274-7.194-8.172zm-12.679-8.335c5.17 2.666 9.453 5.601 12.679 8.335l2.586-3.052c-3.469-2.941-8.008-6.041-13.432-8.838z"/><path d="m279 719 33 8 49 78c-15.895032-9.206985-30.895032-21.206985-45-36s-26.438301-31.459682-37-50zm64-416c24-80.666667 99.666667-100.666667 227-60 191 61 212 228 212 253 0 16.666667-3.666667 37.666667-11 63l-1.622258-2.211505c-26.40946-35.857409-48.535374-58.786908-66.377742-68.788495-50.826027-28.490666-114.182566-24-154-24s-120.895621-33.04207-137-36c-2.311666-.424589-10.409073 3.429106 17 20l1.116018.665115c6.771526 3.980794 17.066187 9.092423 30.883982 15.334885-13.403537.038164-28.687829-2.193993-45.852877-6.696471l-2.643582-.704718c-16.791564-4.522393-27.860822-8.214539-33.207774-11.076439l.772363 3.185028c8.19759 33.978015 12.296385 56.655236 12.296385 68.031662 0 11.493709-8.44016 55.985518-25.32048 133.475427l-1.044035 4.785511c-15.333333-35.333333-27.666667-59-37-71-14-18-28.797746-28.570744-41-25l-.754507.229979c-8.499604 2.687355-28.708833 12.13715-43.245493 29.770021-5.250613 6.368958-10.91728 18.368958-17 36l-.934498-1.405503c-13.564842-20.493699-20.920009-35.691864-22.065502-45.594497-3.881877-33.558304 10.597053-60.644414 10-68-3.475876-42.822151-26-107 30-152l2.2348-1.786c36.4168-28.942667 68.671867-46.680667 96.7652-53.214z" fill-rule="evenodd" stroke="#000" stroke-linecap="round" stroke-linejoin="round" stroke-width="12"/></g></g></svg>