<svg fill="none" viewBox="0 0 1080 1080" xmlns="http://www.w3.org/2000/svg" xmlns:xlink="http://www.w3.org/1999/xlink"><filter id="a" height="140%" width="140%" x="-20%" y="-20%"><feMorphology in="SourceAlpha" operator="dilate" radius="20 20" result="morphology"/><feFlood flood-color="#fff" result="flood"/><feComposite in="flood" in2="morphology" operator="in" result="composite"/><feMerge result="merge"><feMergeNode in="composite" result="mergeNode"/><feMergeNode in="SourceGraphic" result="mergeNode1"/></feMerge></filter><g filter="url(#a)"><path d="m532 379c132.54834 0 240 107.45166 240 240s-67.45166 300-180 300c-85.316826 0-213.675633-96.223389-270.794879-200.524557-3.016385.346505-6.08996.524557-9.205121.524557-44.18278 0-80-35.81722-80-80 0-39.865044 29.158843-72.919675 67.312086-78.99945 26.287211-104.021337 120.497833-181.00055 232.687914-181.00055zm-236.141105 245.545187 8.28221 30.909626" style="stroke:#000;stroke-width:24;fill-rule:evenodd;stroke-linecap:round;stroke-linejoin:round;fill:#fff"/><path d="m631 694.380659c29.333333-6.920439 47-17.047326 53-30.380659 9-20-46.966593-57.607469-23.838533-85" fill="none" stroke="#000" stroke-linecap="round" stroke-linejoin="round" stroke-width="16"/><g fill-rule="evenodd"><g fill="none"><g stroke="#000" stroke-linecap="round" stroke-linejoin="round" stroke-width="16" transform="translate(518 729)"><path d="m0 40.2906038c11.1513858-3.0384074 19.1513858-5.7025718 24-7.9924932 4.8486142-2.2899215 11.9892516-6.4615774 21.4219123-12.5149679 17.0090445-10.80049918 28.2017403-16.80110738 33.5780877-18.00182456 5.3763474-1.20071717 12.3763474.73685695 21 5.81272237 12-8.71908355 23-9.93006737 33-3.63295148 10 6.29711587 12.333333 16.46938007 7 30.51679237 5.333333 6.7815095 4.666667 13.5630189-2 20.3445283-10 10.1722641-31 17.4381671-59 14.5318059-12.3106004-1.2778232-26.6003017-6.5122235-45-14.5318059-6.3332791-2.7603851-17.6666124-7.6043204-34-14.5318059z"/><path d="m12 43c42.2826578-6.6109009 70.9493244-10.2775676 86-11 15.050676-.7224324 28.050676.9442342 39 5"/></g><g transform="translate(520 512)"><g transform="translate(140)"><circle cx="52" cy="28" fill="#000" r="24"/><path d="m1 16c23.2727273-8 40.7272727-12 52.3636364-12 11.6363636 0 26.1818181 4 43.6363636 12" stroke="#000" stroke-linecap="round" stroke-linejoin="round" stroke-width="12" transform="matrix(.99756405 -.06975647 .06975647 .99756405 -.578203 3.442427)"/></g><circle cx="46" cy="28" fill="#000" r="24" transform="matrix(-1 0 0 1 92 0)"/><path d="m1 16c23.2727273-8 40.7272727-12 52.3636364-12 11.6363636 0 26.1818181 4 43.6363636 12" stroke="#000" stroke-linecap="round" stroke-linejoin="round" stroke-width="12" transform="matrix(-.99756405 -.06975647 -.06975647 .99756405 98.578203 3.442427)"/></g><g stroke="#000" stroke-linecap="square" stroke-linejoin="round" stroke-width="20" transform="translate(521 490)"><path d="m0 16c12.8888889-10.66666667 27.8888889-16 45-16s32.1111111 5.33333333 45 16"/><path d="m146 16c12.888889-10.66666667 27.888889-16 45-16s32.111111 5.33333333 45 16"/></g></g><g fill="#000" stroke="#000" stroke-linecap="round" stroke-linejoin="round" stroke-width="4" transform="translate(289 502)"><path d="m339.740368 39.6303745c-16.299605 43.465611-34.59177 64.3696255-73.097711 64.3696255-39.981572 0-57.823562-16.365159-60.005583-69.8246785-.088368-2.165021-2.634059-4.3470422-7.637074-6.5460636v-20.72920144c39.696939-5.64195268 68.426885-7.82397389 86.189838-6.54606361 12.422241.89368645 26.82876 4.00814106 43.219556 9.34336384 4.697945 1.52918641 12.111638 2.41510401 22.24108 2.65775281l.686435-.0175411c9.778589-.2657089 16.963471-1.1457795 21.554644-2.64021171 16.390796-5.33522278 30.797315-8.44967739 43.219557-9.34336384 17.762953-1.27791028 46.492898.90411093 86.189837 6.54606361v20.72920144c-5.003014 2.1990214-7.548706 4.3810426-7.637074 6.5460636-2.182021 53.4595195-20.024011 69.8246785-60.005583 69.8246785-38.50594 0-56.798106-20.9040145-73.09771-64.3696255-2.182022-5.8187232-5.818724-8.7280848-10.910106-8.7280848-5.091383 0-8.728085 2.9093616-10.910106 8.7280848z"/><path d="m199 7-195 32-4 9 199-20z"/></g><path d="m445 265c156.485-49.117 278 59 282 59 2.667 0 2.333-10 5-14 0 0 32 42 28 86s-7.784 49.551-23 74c-19.184-36.101-81.484-64.151-166.902-64.151-40.278 0-73.393 2.789-126.098 16.151 0 0-14.457 11.177-19 16-9.58 10.172-12.898 17.977-17 23 0 0 .354-23.264 1.769-29.561-10.324 2.87-20.875 5.982-31.65 9.335.742 9.192 1.037 41.934 8.881 58.226l-16 123-2.876-2.545c-22.192-19.698-36.436-33.676-42.733-41.935l-.391-.52c-6.339-8.527-19.006-14.527-38-18l-.931-3.436c-8.555-31.352-16.124-53.511-19.188-74.822-12.074 4.85-24.368 9.937-36.881 15.258 39.01-137.254 110.677-198.254 215-231z" style="clip-rule:evenodd;fill:#000;stroke:#000;stroke-width:12;stroke-linecap:round;stroke-linejoin:round"/></g></g></svg>