<svg fill="none" viewBox="0 0 1080 1080" xmlns="http://www.w3.org/2000/svg" xmlns:xlink="http://www.w3.org/1999/xlink"><filter id="a" height="140%" width="140%" x="-20%" y="-20%"><feMorphology in="SourceAlpha" operator="dilate" radius="20 20" result="morphology"/><feFlood flood-color="#fff" result="flood"/><feComposite in="flood" in2="morphology" operator="in" result="composite"/><feMerge result="merge"><feMergeNode in="composite" result="mergeNode"/><feMergeNode in="SourceGraphic" result="mergeNode1"/></feMerge></filter><g filter="url(#a)" stroke="#000" stroke-linecap="round" stroke-linejoin="round"><path d="m532 379c132.54834 0 240 107.45166 240 240s-7.45166 300-200 300c-156.86737 0-220.331102-117.387798-258.247225-200.019425l-.429829.008707-1.322946.010718c-44.18278 0-80-35.81722-80-80 0-39.865044 29.158843-72.919675 67.312086-78.99945 26.287211-104.021337 120.497833-181.00055 232.687914-181.00055zm-236.141105 245.545187 8.28221 30.909626" fill="#fff" fill-rule="evenodd" stroke-width="24"/><path d="m673 568c-10.44898 22.836147-15.673469 45.414126-15.673469 67.733939 0 33.479718 15.673469 51.258115 12.734693 66.818615-1.959183 10.373666-16.979591 12.204313-45.061224 5.491941" fill="none" stroke-width="16"/><path d="m528 765s71.931 4.393 95.066-.13c23.136-4.524 63.934-20.87 63.934-20.87" stroke-width="16"/><path d="m668 756s0 29.043-29.057 37.34c-29.057 8.298-83.943-24.893-83.943-24.893" stroke-width="16"/><path d="m505.348 782.386s-6.295-9.864-1.902-22.986 15.993-19.101 15.993-19.101" stroke-width="6"/><path d="m711.499 747.668s2.979-4.54.843-10.615c-2.137-6.076-7.695-8.871-7.695-8.871" stroke-width="6"/><path clip-rule="evenodd" d="m534 524.531s28.569 14.601 52.169 12.084c23.6-2.518 13.663-16.615 13.663-16.615s14.906 14.601-6.21 19.132c-21.116 4.532-59.622-14.601-59.622-14.601z" fill="#000" fill-rule="evenodd" stroke-width="6"/><g stroke-width="4"><path d="m540 529-4 8"/><path d="m554 534-3 9"/><path d="m568 537-2 10"/><path d="m582 539-1 10"/><path d="m594 538 2 9"/><path d="m604 534 4 6"/></g><path clip-rule="evenodd" d="m672 524.531s28.569 14.601 52.169 12.084c23.6-2.518 13.663-16.615 13.663-16.615s14.906 14.601-6.21 19.132c-21.116 4.532-59.622-14.601-59.622-14.601z" fill="#000" fill-rule="evenodd" stroke-width="6"/><g stroke-width="4"><path d="m678 529-4 8"/><path d="m692 534-3 9"/><path d="m706 537-2 10"/><path d="m720 539-1 10"/><path d="m732 538 2 9"/><path d="m742 534 4 6"/></g><g fill="none" fill-rule="evenodd" stroke-width="24" transform="translate(502 462)"><path d="m0 0s23.2233275 2.61265093 76 22c3.9624314 1.4555871 11.2957648 6.1222537 22 14"/><path d="m176 0s23.223328 2.61265093 76 22c3.962431 1.4555871 11.295765 6.1222537 22 14" transform="matrix(-1 0 0 1 450 0)"/></g><g fill="none" fill-rule="evenodd" transform="translate(293 475)"><g stroke-width="8"><path d="m328.31869 48.9411765c5.647059-23.5294118-.941176-48.9411765-76.235294-48.9411765-75.294117 0-79.058823 30.1176471-81.882353 48.9411765-2.823529 18.8235294-13.17647 91.2941175 57.411765 94.1176475 70.588235 2.823529 95.058823-70.5882358 100.705882-94.1176475z" fill="#0c0c0c"/><path d="m523.46091 48.9411765c5.647059-23.5294118-.941176-48.9411765-76.235294-48.9411765s-79.058824 30.1176471-81.882353 48.9411765-13.176471 91.2941175 57.411765 94.1176475c70.588235 2.823529 95.058823-70.5882358 100.705882-94.1176475z" fill="#0c0c0c" transform="matrix(-1 0 0 1 888.145614 0)"/><path d="m301.965749 7.529412h89.411765"/><path d="m301.965749 35.7647059c15.247058-1.254902 30.305882-1.882353 45.176471-1.882353 14.870588 0 29.615687.627451 44.235294 1.882353"/></g><path d="m217 40-215.688896 43.339358" stroke-width="16" transform="matrix(.99971772 .02375887 -.02375887 .99971772 1.496014 -2.576004)"/></g><path d="m425 196c-115 11-230 77-278 253s25 422 34 480c3.992032 25.726429 25.325365 53.726429 64 84 .200048-9.08961 1.866714-16.089611 5-21 4.482715-7.025173 21.149382 3.641493 50 32 .362042-13.0995 1.362042-19.76617 3-20 9.172314-1.30942 26.838981 8.69058 53 30-.157685-10.79642.842315-16.12975 3-16 8.337025.50135 22.003692 10.83469 41 31 10-28.66667 16-57 18-85 4.08731-57.222336-46.89092-163.416054-59-176-17.648598-18.3407-33.315265-41.3407-47-69-53.333333-9.333333-80-36-80-80 0-66 52-73 72-73s29.617614 8.224729 45 22c10.254924 9.183514 17.588257 21.516847 22 37 27.333333-47.333333 45.333333-85.666667 54-115s17.666667-67.666667 27-115c26.180222 19.443429 44.846889 32.443429 56 39 28.004641 16.463067 50.791358 23.829448 62 29 6.596672 3.043048-28.83448-69.569545-24-68 5.379054 1.746345 60.281754 83.779649 65 86 17 8 38.949411 17.072787 64 23 16.279294 3.851839 44.279294 7.851839 84 12 6.666667-98-11.333333-173-54-225-64-78-165-106-280-95z" fill="#000" fill-rule="evenodd" stroke-width="12"/></g></svg>